<svg xmlns="http://www.w3.org/2000/svg" viewBox="0 0 1013 181"><defs><style>.a,.e{fill:#020000;font-size:20px;}.a{font-family:Menlo-Regular, Menlo;}.b,.f{fill:#fff;}.b,.d{stroke:#707070;}.c,.i{fill:#707070;}.d,.h{fill:none;}.e{font-family:Hack-Regular, Hack;}.f{stroke:#29dd3d;stroke-width:2px;}.g,.i{stroke:none;}</style></defs><g transform="translate(-3525.5 -937)"><text class="a" transform="translate(3832 956)"><tspan x="-36.123" y="0">Prefix</tspan></text><text class="a" transform="translate(4322 956)"><tspan x="-60.205" y="0">Hypotheses</tspan></text><g class="b" transform="translate(3792 1028)"><circle class="g" cx="20" cy="20" r="20"/><circle class="h" cx="20" cy="20" r="19.5"/></g><g transform="translate(5250.5 1209.429) rotate(90)"><g class="c" transform="translate(-203.5 1034) rotate(45)"><path class="g" d="M 4.48930025100708 10.31504917144775 L 0.8653011322021484 0.8604671359062195 L 10.36387062072754 4.440470218658447 L 7.402174472808838 7.402174949645996 L 4.48930025100708 10.31504917144775 Z"/><path class="i" d="M 1.730582237243652 1.720914840698242 L 4.680450439453125 9.416769027709961 L 7.048614501953125 7.048604965209961 L 9.462241172790527 4.6349778175354 L 1.730582237243652 1.720914840698242 M 4.76837158203125e-06 -4.76837158203125e-06 L 11.26548385620117 4.245954990386963 L 7.755724430084229 7.755715370178223 L 4.298134326934814 11.21330547332764 L 4.76837158203125e-06 -4.76837158203125e-06 Z"/></g><line class="d" y2="16" transform="translate(-203.482 1035.627)"/><line class="d" x1="0.018" y2="28.873" transform="translate(-203.5 1035.627)"/><g class="c" transform="translate(-203.5 1034) rotate(45)"><path class="g" d="M 4.48930025100708 10.31504917144775 L 0.8653011322021484 0.8604671359062195 L 10.36387062072754 4.440470218658447 L 7.402174472808838 7.402174949645996 L 4.48930025100708 10.31504917144775 Z"/><path class="i" d="M 1.730582237243652 1.720914840698242 L 4.680450439453125 9.416769027709961 L 7.048614501953125 7.048604965209961 L 9.462241172790527 4.6349778175354 L 1.730582237243652 1.720914840698242 M 4.76837158203125e-06 -4.76837158203125e-06 L 11.26548385620117 4.245954990386963 L 7.755724430084229 7.755715370178223 L 4.298134326934814 11.21330547332764 L 4.76837158203125e-06 -4.76837158203125e-06 Z"/></g><line class="d" y2="16" transform="translate(-203.482 1035.627)"/><line class="d" x1="0.018" y2="28.873" transform="translate(-203.5 1035.627)"/></g><text class="e" transform="translate(3812 1055)"><tspan x="-6.021" y="0">S</tspan></text><g class="b" transform="translate(4137 1032)"><circle class="g" cx="20" cy="20" r="20"/><circle class="h" cx="20" cy="20" r="19.5"/></g><text class="e" transform="translate(4157 1059)"><tspan x="-6.021" y="0">S</tspan></text><g class="f" transform="translate(4222 986)"><circle class="g" cx="20" cy="20" r="20"/><circle class="h" cx="20" cy="20" r="19"/></g><text class="e" transform="translate(4242 1013)"><tspan x="-6.021" y="0">A</tspan></text><g class="b" transform="translate(4222 1032)"><circle class="g" cx="20" cy="20" r="20"/><circle class="h" cx="20" cy="20" r="19.5"/></g><text class="e" transform="translate(4242 1059)"><tspan x="-6.021" y="0">B</tspan></text><g class="f" transform="translate(4222 1078)"><circle class="g" cx="20" cy="20" r="20"/><circle class="h" cx="20" cy="20" r="19"/></g><text class="e" transform="translate(4242 1105)"><tspan x="-6.021" y="0">C</tspan></text><path class="d" d="M.018,0" transform="translate(4214.873 1051.929) rotate(90)"/><g transform="translate(4431 5)"><g class="c" transform="translate(-214.5 1046.929) rotate(135)"><path class="g" d="M 4.48930025100708 10.31504917144775 L 0.8653011322021484 0.8604671359062195 L 10.36387062072754 4.440470218658447 L 7.402174472808838 7.402174949645996 L 4.48930025100708 10.31504917144775 Z"/><path class="i" d="M 1.730582237243652 1.720914840698242 L 4.680450439453125 9.416769027709961 L 7.048614501953125 7.048604965209961 L 9.462241172790527 4.6349778175354 L 1.730582237243652 1.720914840698242 M 4.76837158203125e-06 -4.76837158203125e-06 L 11.26548385620117 4.245954990386963 L 7.755724430084229 7.755715370178223 L 4.298134326934814 11.21330547332764 L 4.76837158203125e-06 -4.76837158203125e-06 Z"/></g><line class="d" y2="16" transform="translate(-216.127 1046.947) rotate(90)"/><g class="c" transform="translate(-214.5 1046.929) rotate(135)"><path class="g" d="M 4.48930025100708 10.31504917144775 L 0.8653011322021484 0.8604671359062195 L 10.36387062072754 4.440470218658447 L 7.402174472808838 7.402174949645996 L 4.48930025100708 10.31504917144775 Z"/><path class="i" d="M 1.730582237243652 1.720914840698242 L 4.680450439453125 9.416769027709961 L 7.048614501953125 7.048604965209961 L 9.462241172790527 4.6349778175354 L 1.730582237243652 1.720914840698242 M 4.76837158203125e-06 -4.76837158203125e-06 L 11.26548385620117 4.245954990386963 L 7.755724430084229 7.755715370178223 L 4.298134326934814 11.21330547332764 L 4.76837158203125e-06 -4.76837158203125e-06 Z"/></g><path class="d" d="M0,0V38.258" transform="translate(-216.127 1046.947) rotate(90)"/></g><g transform="translate(5250.5 1303.429) rotate(90)"><g class="c" transform="translate(-203.5 1034) rotate(45)"><path class="g" d="M 4.48930025100708 10.31504917144775 L 0.8653011322021484 0.8604671359062195 L 10.36387062072754 4.440470218658447 L 7.402174472808838 7.402174949645996 L 4.48930025100708 10.31504917144775 Z"/><path class="i" d="M 1.730582237243652 1.720914840698242 L 4.680450439453125 9.416769027709961 L 7.048614501953125 7.048604965209961 L 9.462241172790527 4.6349778175354 L 1.730582237243652 1.720914840698242 M 4.76837158203125e-06 -4.76837158203125e-06 L 11.26548385620117 4.245954990386963 L 7.755724430084229 7.755715370178223 L 4.298134326934814 11.21330547332764 L 4.76837158203125e-06 -4.76837158203125e-06 Z"/></g><line class="d" y2="16" transform="translate(-203.482 1035.627)"/><line class="d" x1="0.018" y2="28.873" transform="translate(-203.5 1035.627)"/><g class="c" transform="translate(-203.5 1034) rotate(45)"><path class="g" d="M 4.48930025100708 10.31504917144775 L 0.8653011322021484 0.8604671359062195 L 10.36387062072754 4.440470218658447 L 7.402174472808838 7.402174949645996 L 4.48930025100708 10.31504917144775 Z"/><path class="i" d="M 1.730582237243652 1.720914840698242 L 4.680450439453125 9.416769027709961 L 7.048614501953125 7.048604965209961 L 9.462241172790527 4.6349778175354 L 1.730582237243652 1.720914840698242 M 4.76837158203125e-06 -4.76837158203125e-06 L 11.26548385620117 4.245954990386963 L 7.755724430084229 7.755715370178223 L 4.298134326934814 11.21330547332764 L 4.76837158203125e-06 -4.76837158203125e-06 Z"/></g><line class="d" y2="16" transform="translate(-203.482 1035.627)"/><line class="d" x1="0.018" y2="28.873" transform="translate(-203.5 1035.627)"/></g><path class="d" d="M2.512,1.5V95.3" transform="translate(4183.988 1004.447)"/><text class="a" transform="translate(3588 957)"><tspan x="-24.082" y="0">Step</tspan></text><text class="e" transform="translate(3588 1054)"><tspan x="-12.041" y="0">1.</tspan></text><text class="e" transform="translate(4299 1011)"><tspan x="-30.103" y="0">-0.39</tspan></text><text class="e" transform="translate(4299 1059)"><tspan x="-30.103" y="0">-0.60</tspan></text><text class="e" transform="translate(4299 1105)"><tspan x="-30.103" y="0">-0.45</tspan></text><text class="e" transform="translate(3888 1054)"><tspan x="-24.082" y="0">0.00</tspan></text><line class="d" x2="1013" transform="translate(3525.5 968.5)"/></g></svg>