<svg xmlns="http://www.w3.org/2000/svg" viewBox="0 0 1013 1122"><defs><style>.a,.e{fill:#020000;}.a,.e,.j{font-size:20px;}.a{font-family:Menlo-Regular, Menlo;}.b,.f{fill:#fff;}.b,.d{stroke:#707070;}.c,.m{fill:#707070;}.d,.l{fill:none;}.e,.j{font-family:Hack-Regular, Hack;}.f{stroke:#29dd3d;stroke-width:2px;}.g,.i{fill:#29dd3d;}.g,.h{font-family:Hack-Bold, Hack;font-weight:700;}.k,.m{stroke:none;}</style></defs><g transform="translate(-7977.5 -937)"><text class="a" transform="translate(8284 956)"><tspan x="-36.123" y="0">Prefix</tspan></text><text class="a" transform="translate(8774 956)"><tspan x="-60.205" y="0">Hypotheses</tspan></text><g class="b" transform="translate(8244 1028)"><circle class="k" cx="20" cy="20" r="20"/><circle class="l" cx="20" cy="20" r="19.5"/></g><g transform="translate(9702.5 1209.429) rotate(90)"><g class="c" transform="translate(-203.5 1034) rotate(45)"><path class="k" d="M 4.48930025100708 10.31504917144775 L 0.8653011322021484 0.8604671359062195 L 10.36387062072754 4.440470218658447 L 7.402174472808838 7.402174949645996 L 4.48930025100708 10.31504917144775 Z"/><path class="m" d="M 1.730582237243652 1.720914840698242 L 4.680450439453125 9.416769027709961 L 7.048614501953125 7.048604965209961 L 9.462241172790527 4.6349778175354 L 1.730582237243652 1.720914840698242 M 4.76837158203125e-06 -4.76837158203125e-06 L 11.26548385620117 4.245954990386963 L 7.755724430084229 7.755715370178223 L 4.298134326934814 11.21330547332764 L 4.76837158203125e-06 -4.76837158203125e-06 Z"/></g><line class="d" y2="16" transform="translate(-203.482 1035.627)"/><line class="d" x1="0.018" y2="28.873" transform="translate(-203.5 1035.627)"/><g class="c" transform="translate(-203.5 1034) rotate(45)"><path class="k" d="M 4.48930025100708 10.31504917144775 L 0.8653011322021484 0.8604671359062195 L 10.36387062072754 4.440470218658447 L 7.402174472808838 7.402174949645996 L 4.48930025100708 10.31504917144775 Z"/><path class="m" d="M 1.730582237243652 1.720914840698242 L 4.680450439453125 9.416769027709961 L 7.048614501953125 7.048604965209961 L 9.462241172790527 4.6349778175354 L 1.730582237243652 1.720914840698242 M 4.76837158203125e-06 -4.76837158203125e-06 L 11.26548385620117 4.245954990386963 L 7.755724430084229 7.755715370178223 L 4.298134326934814 11.21330547332764 L 4.76837158203125e-06 -4.76837158203125e-06 Z"/></g><line class="d" y2="16" transform="translate(-203.482 1035.627)"/><line class="d" x1="0.018" y2="28.873" transform="translate(-203.5 1035.627)"/></g><text class="e" transform="translate(8264 1055)"><tspan x="-6.021" y="0">S</tspan></text><g class="b" transform="translate(8589 1032)"><circle class="k" cx="20" cy="20" r="20"/><circle class="l" cx="20" cy="20" r="19.5"/></g><text class="e" transform="translate(8609 1059)"><tspan x="-6.021" y="0">S</tspan></text><g class="f" transform="translate(8674 986)"><circle class="k" cx="20" cy="20" r="20"/><circle class="l" cx="20" cy="20" r="19"/></g><text class="e" transform="translate(8694 1013)"><tspan x="-6.021" y="0">A</tspan></text><g class="b" transform="translate(8674 1032)"><circle class="k" cx="20" cy="20" r="20"/><circle class="l" cx="20" cy="20" r="19.5"/></g><text class="e" transform="translate(8694 1059)"><tspan x="-6.021" y="0">B</tspan></text><g class="f" transform="translate(8674 1078)"><circle class="k" cx="20" cy="20" r="20"/><circle class="l" cx="20" cy="20" r="19"/></g><text class="e" transform="translate(8694 1105)"><tspan x="-6.021" y="0">C</tspan></text><path class="d" d="M.018,0" transform="translate(8666.873 1051.929) rotate(90)"/><g transform="translate(8883 5)"><g class="c" transform="translate(-214.5 1046.929) rotate(135)"><path class="k" d="M 4.48930025100708 10.31504917144775 L 0.8653011322021484 0.8604671359062195 L 10.36387062072754 4.440470218658447 L 7.402174472808838 7.402174949645996 L 4.48930025100708 10.31504917144775 Z"/><path class="m" d="M 1.730582237243652 1.720914840698242 L 4.680450439453125 9.416769027709961 L 7.048614501953125 7.048604965209961 L 9.462241172790527 4.6349778175354 L 1.730582237243652 1.720914840698242 M 4.76837158203125e-06 -4.76837158203125e-06 L 11.26548385620117 4.245954990386963 L 7.755724430084229 7.755715370178223 L 4.298134326934814 11.21330547332764 L 4.76837158203125e-06 -4.76837158203125e-06 Z"/></g><line class="d" y2="16" transform="translate(-216.127 1046.947) rotate(90)"/><g class="c" transform="translate(-214.5 1046.929) rotate(135)"><path class="k" d="M 4.48930025100708 10.31504917144775 L 0.8653011322021484 0.8604671359062195 L 10.36387062072754 4.440470218658447 L 7.402174472808838 7.402174949645996 L 4.48930025100708 10.31504917144775 Z"/><path class="m" d="M 1.730582237243652 1.720914840698242 L 4.680450439453125 9.416769027709961 L 7.048614501953125 7.048604965209961 L 9.462241172790527 4.6349778175354 L 1.730582237243652 1.720914840698242 M 4.76837158203125e-06 -4.76837158203125e-06 L 11.26548385620117 4.245954990386963 L 7.755724430084229 7.755715370178223 L 4.298134326934814 11.21330547332764 L 4.76837158203125e-06 -4.76837158203125e-06 Z"/></g><path class="d" d="M0,0V38.258" transform="translate(-216.127 1046.947) rotate(90)"/></g><g transform="translate(9702.5 1303.429) rotate(90)"><g class="c" transform="translate(-203.5 1034) rotate(45)"><path class="k" d="M 4.48930025100708 10.31504917144775 L 0.8653011322021484 0.8604671359062195 L 10.36387062072754 4.440470218658447 L 7.402174472808838 7.402174949645996 L 4.48930025100708 10.31504917144775 Z"/><path class="m" d="M 1.730582237243652 1.720914840698242 L 4.680450439453125 9.416769027709961 L 7.048614501953125 7.048604965209961 L 9.462241172790527 4.6349778175354 L 1.730582237243652 1.720914840698242 M 4.76837158203125e-06 -4.76837158203125e-06 L 11.26548385620117 4.245954990386963 L 7.755724430084229 7.755715370178223 L 4.298134326934814 11.21330547332764 L 4.76837158203125e-06 -4.76837158203125e-06 Z"/></g><line class="d" y2="16" transform="translate(-203.482 1035.627)"/><line class="d" x1="0.018" y2="28.873" transform="translate(-203.5 1035.627)"/><g class="c" transform="translate(-203.5 1034) rotate(45)"><path class="k" d="M 4.48930025100708 10.31504917144775 L 0.8653011322021484 0.8604671359062195 L 10.36387062072754 4.440470218658447 L 7.402174472808838 7.402174949645996 L 4.48930025100708 10.31504917144775 Z"/><path class="m" d="M 1.730582237243652 1.720914840698242 L 4.680450439453125 9.416769027709961 L 7.048614501953125 7.048604965209961 L 9.462241172790527 4.6349778175354 L 1.730582237243652 1.720914840698242 M 4.76837158203125e-06 -4.76837158203125e-06 L 11.26548385620117 4.245954990386963 L 7.755724430084229 7.755715370178223 L 4.298134326934814 11.21330547332764 L 4.76837158203125e-06 -4.76837158203125e-06 Z"/></g><line class="d" y2="16" transform="translate(-203.482 1035.627)"/><line class="d" x1="0.018" y2="28.873" transform="translate(-203.5 1035.627)"/></g><path class="d" d="M2.512,1.5V95.3" transform="translate(8635.988 1004.447)"/><text class="a" transform="translate(8040 957)"><tspan x="-24.082" y="0">Step</tspan></text><text class="e" transform="translate(8040 1054)"><tspan x="-12.041" y="0">1.</tspan></text><path class="d" d="M0,0V15.232" transform="translate(8243.848 1178.947) rotate(90)"/><g class="b" transform="translate(8189 1160)"><circle class="k" cx="20" cy="20" r="20"/><circle class="l" cx="20" cy="20" r="19.5"/></g><text class="e" transform="translate(8209 1187)"><tspan x="-6.021" y="0">S</tspan></text><g class="b" transform="translate(8244 1159)"><circle class="k" cx="20" cy="20" r="20"/><circle class="l" cx="20" cy="20" r="19.5"/></g><text class="e" transform="translate(8264 1188)"><tspan x="-6.021" y="0">A</tspan></text><path class="d" d="M0,0V15.232" transform="translate(8243.848 1224.947) rotate(90)"/><g class="b" transform="translate(8189 1206)"><circle class="k" cx="20" cy="20" r="20"/><circle class="l" cx="20" cy="20" r="19.5"/></g><text class="e" transform="translate(8209 1233)"><tspan x="-6.021" y="0">S</tspan></text><g class="b" transform="translate(8244 1205)"><circle class="k" cx="20" cy="20" r="20"/><circle class="l" cx="20" cy="20" r="19.5"/></g><text class="e" transform="translate(8264 1234)"><tspan x="-6.021" y="0">C</tspan></text><text class="e" transform="translate(8040 1184)"><tspan x="-12.041" y="0">2.</tspan></text><text class="e" transform="translate(8751 1011)"><tspan x="-30.103" y="0">-0.39</tspan></text><text class="e" transform="translate(8751 1059)"><tspan x="-30.103" y="0">-0.60</tspan></text><text class="e" transform="translate(8751 1105)"><tspan x="-30.103" y="0">-0.45</tspan></text><text class="e" transform="translate(8340 1185)"><tspan x="-30.103" y="0">-0.39</tspan></text><text class="e" transform="translate(8340 1231)"><tspan x="-30.103" y="0">-0.45</tspan></text><text class="e" transform="translate(8340 1054)"><tspan x="-24.082" y="0">0.00</tspan></text><g transform="translate(9702.5 1383.429) rotate(90)"><g class="c" transform="translate(-203.5 1034) rotate(45)"><path class="k" d="M 4.48930025100708 10.31504917144775 L 0.8653011322021484 0.8604671359062195 L 10.36387062072754 4.440470218658447 L 7.402174472808838 7.402174949645996 L 4.48930025100708 10.31504917144775 Z"/><path class="m" d="M 1.730582237243652 1.720914840698242 L 4.680450439453125 9.416769027709961 L 7.048614501953125 7.048604965209961 L 9.462241172790527 4.6349778175354 L 1.730582237243652 1.720914840698242 M 4.76837158203125e-06 -4.76837158203125e-06 L 11.26548385620117 4.245954990386963 L 7.755724430084229 7.755715370178223 L 4.298134326934814 11.21330547332764 L 4.76837158203125e-06 -4.76837158203125e-06 Z"/></g><line class="d" y2="16" transform="translate(-203.482 1035.627)"/><line class="d" x1="0.018" y2="28.873" transform="translate(-203.5 1035.627)"/><g class="c" transform="translate(-203.5 1034) rotate(45)"><path class="k" d="M 4.48930025100708 10.31504917144775 L 0.8653011322021484 0.8604671359062195 L 10.36387062072754 4.440470218658447 L 7.402174472808838 7.402174949645996 L 4.48930025100708 10.31504917144775 Z"/><path class="m" d="M 1.730582237243652 1.720914840698242 L 4.680450439453125 9.416769027709961 L 7.048614501953125 7.048604965209961 L 9.462241172790527 4.6349778175354 L 1.730582237243652 1.720914840698242 M 4.76837158203125e-06 -4.76837158203125e-06 L 11.26548385620117 4.245954990386963 L 7.755724430084229 7.755715370178223 L 4.298134326934814 11.21330547332764 L 4.76837158203125e-06 -4.76837158203125e-06 Z"/></g><line class="d" y2="16" transform="translate(-203.482 1035.627)"/><line class="d" x1="0.018" y2="28.873" transform="translate(-203.5 1035.627)"/></g><g class="b" transform="translate(8674 1160)"><circle class="k" cx="20" cy="20" r="20"/><circle class="l" cx="20" cy="20" r="19.5"/></g><text class="e" transform="translate(8694 1187)"><tspan x="-6.021" y="0">A</tspan></text><g class="f" transform="translate(8674 1206)"><circle class="k" cx="20" cy="20" r="20"/><circle class="l" cx="20" cy="20" r="19"/></g><text class="e" transform="translate(8694 1233)"><tspan x="-6.021" y="0">B</tspan></text><g class="b" transform="translate(8674 1252)"><circle class="k" cx="20" cy="20" r="20"/><circle class="l" cx="20" cy="20" r="19.5"/></g><text class="e" transform="translate(8694 1279)"><tspan x="-6.021" y="0">C</tspan></text><path class="d" d="M.018,0" transform="translate(8666.873 1225.929) rotate(90)"/><g transform="translate(8883 179)"><g class="c" transform="translate(-214.5 1046.929) rotate(135)"><path class="k" d="M 4.48930025100708 10.31504917144775 L 0.8653011322021484 0.8604671359062195 L 10.36387062072754 4.440470218658447 L 7.402174472808838 7.402174949645996 L 4.48930025100708 10.31504917144775 Z"/><path class="m" d="M 1.730582237243652 1.720914840698242 L 4.680450439453125 9.416769027709961 L 7.048614501953125 7.048604965209961 L 9.462241172790527 4.6349778175354 L 1.730582237243652 1.720914840698242 M 4.76837158203125e-06 -4.76837158203125e-06 L 11.26548385620117 4.245954990386963 L 7.755724430084229 7.755715370178223 L 4.298134326934814 11.21330547332764 L 4.76837158203125e-06 -4.76837158203125e-06 Z"/></g><line class="d" y2="16" transform="translate(-216.127 1046.947) rotate(90)"/><g class="c" transform="translate(-214.5 1046.929) rotate(135)"><path class="k" d="M 4.48930025100708 10.31504917144775 L 0.8653011322021484 0.8604671359062195 L 10.36387062072754 4.440470218658447 L 7.402174472808838 7.402174949645996 L 4.48930025100708 10.31504917144775 Z"/><path class="m" d="M 1.730582237243652 1.720914840698242 L 4.680450439453125 9.416769027709961 L 7.048614501953125 7.048604965209961 L 9.462241172790527 4.6349778175354 L 1.730582237243652 1.720914840698242 M 4.76837158203125e-06 -4.76837158203125e-06 L 11.26548385620117 4.245954990386963 L 7.755724430084229 7.755715370178223 L 4.298134326934814 11.21330547332764 L 4.76837158203125e-06 -4.76837158203125e-06 Z"/></g><path class="d" d="M0,0V38.258" transform="translate(-216.127 1046.947) rotate(90)"/></g><g transform="translate(9702.5 1477.429) rotate(90)"><g class="c" transform="translate(-203.5 1034) rotate(45)"><path class="k" d="M 4.48930025100708 10.31504917144775 L 0.8653011322021484 0.8604671359062195 L 10.36387062072754 4.440470218658447 L 7.402174472808838 7.402174949645996 L 4.48930025100708 10.31504917144775 Z"/><path class="m" d="M 1.730582237243652 1.720914840698242 L 4.680450439453125 9.416769027709961 L 7.048614501953125 7.048604965209961 L 9.462241172790527 4.6349778175354 L 1.730582237243652 1.720914840698242 M 4.76837158203125e-06 -4.76837158203125e-06 L 11.26548385620117 4.245954990386963 L 7.755724430084229 7.755715370178223 L 4.298134326934814 11.21330547332764 L 4.76837158203125e-06 -4.76837158203125e-06 Z"/></g><line class="d" y2="16" transform="translate(-203.482 1035.627)"/><line class="d" x1="0.018" y2="28.873" transform="translate(-203.5 1035.627)"/><g class="c" transform="translate(-203.5 1034) rotate(45)"><path class="k" d="M 4.48930025100708 10.31504917144775 L 0.8653011322021484 0.8604671359062195 L 10.36387062072754 4.440470218658447 L 7.402174472808838 7.402174949645996 L 4.48930025100708 10.31504917144775 Z"/><path class="m" d="M 1.730582237243652 1.720914840698242 L 4.680450439453125 9.416769027709961 L 7.048614501953125 7.048604965209961 L 9.462241172790527 4.6349778175354 L 1.730582237243652 1.720914840698242 M 4.76837158203125e-06 -4.76837158203125e-06 L 11.26548385620117 4.245954990386963 L 7.755724430084229 7.755715370178223 L 4.298134326934814 11.21330547332764 L 4.76837158203125e-06 -4.76837158203125e-06 Z"/></g><line class="d" y2="16" transform="translate(-203.482 1035.627)"/><line class="d" x1="0.018" y2="28.873" transform="translate(-203.5 1035.627)"/></g><path class="d" d="M2.512,1.5V95.3" transform="translate(8635.988 1178.447)"/><text class="e" transform="translate(8852 1187)"><tspan x="-126.431" y="0">-0.39 + -1.00 = -1.39</tspan></text><line class="d" x2="1013" transform="translate(7977.5 968.5)"/><path class="d" d="M0,0V15.232" transform="translate(8588.848 1226.947) rotate(90)"/><g class="b" transform="translate(8534 1208)"><circle class="k" cx="20" cy="20" r="20"/><circle class="l" cx="20" cy="20" r="19.5"/></g><text class="e" transform="translate(8554 1235)"><tspan x="-6.021" y="0">S</tspan></text><g class="b" transform="translate(8589 1207)"><circle class="k" cx="20" cy="20" r="20"/><circle class="l" cx="20" cy="20" r="19.5"/></g><text class="e" transform="translate(8609 1236)"><tspan x="-6.021" y="0">A</tspan></text><g transform="translate(9701.5 1531.429) rotate(90)"><g class="c" transform="translate(-203.5 1034) rotate(45)"><path class="k" d="M 4.48930025100708 10.31504917144775 L 0.8653011322021484 0.8604671359062195 L 10.36387062072754 4.440470218658447 L 7.402174472808838 7.402174949645996 L 4.48930025100708 10.31504917144775 Z"/><path class="m" d="M 1.730582237243652 1.720914840698242 L 4.680450439453125 9.416769027709961 L 7.048614501953125 7.048604965209961 L 9.462241172790527 4.6349778175354 L 1.730582237243652 1.720914840698242 M 4.76837158203125e-06 -4.76837158203125e-06 L 11.26548385620117 4.245954990386963 L 7.755724430084229 7.755715370178223 L 4.298134326934814 11.21330547332764 L 4.76837158203125e-06 -4.76837158203125e-06 Z"/></g><line class="d" y2="16" transform="translate(-203.482 1035.627)"/><line class="d" x1="0.018" y2="28.873" transform="translate(-203.5 1035.627)"/><g class="c" transform="translate(-203.5 1034) rotate(45)"><path class="k" d="M 4.48930025100708 10.31504917144775 L 0.8653011322021484 0.8604671359062195 L 10.36387062072754 4.440470218658447 L 7.402174472808838 7.402174949645996 L 4.48930025100708 10.31504917144775 Z"/><path class="m" d="M 1.730582237243652 1.720914840698242 L 4.680450439453125 9.416769027709961 L 7.048614501953125 7.048604965209961 L 9.462241172790527 4.6349778175354 L 1.730582237243652 1.720914840698242 M 4.76837158203125e-06 -4.76837158203125e-06 L 11.26548385620117 4.245954990386963 L 7.755724430084229 7.755715370178223 L 4.298134326934814 11.21330547332764 L 4.76837158203125e-06 -4.76837158203125e-06 Z"/></g><line class="d" y2="16" transform="translate(-203.482 1035.627)"/><line class="d" x1="0.018" y2="28.873" transform="translate(-203.5 1035.627)"/></g><g class="b" transform="translate(8673 1308)"><circle class="k" cx="20" cy="20" r="20"/><circle class="l" cx="20" cy="20" r="19.5"/></g><text class="e" transform="translate(8693 1335)"><tspan x="-6.021" y="0">A</tspan></text><g class="b" transform="translate(8673 1354)"><circle class="k" cx="20" cy="20" r="20"/><circle class="l" cx="20" cy="20" r="19.5"/></g><text class="e" transform="translate(8693 1381)"><tspan x="-6.021" y="0">B</tspan></text><g class="f" transform="translate(8673 1400)"><circle class="k" cx="20" cy="20" r="20"/><circle class="l" cx="20" cy="20" r="19"/></g><text class="e" transform="translate(8693 1427)"><tspan x="-6.021" y="0">C</tspan></text><path class="d" d="M.018,0" transform="translate(8665.873 1373.929) rotate(90)"/><g transform="translate(8882 327)"><g class="c" transform="translate(-214.5 1046.929) rotate(135)"><path class="k" d="M 4.48930025100708 10.31504917144775 L 0.8653011322021484 0.8604671359062195 L 10.36387062072754 4.440470218658447 L 7.402174472808838 7.402174949645996 L 4.48930025100708 10.31504917144775 Z"/><path class="m" d="M 1.730582237243652 1.720914840698242 L 4.680450439453125 9.416769027709961 L 7.048614501953125 7.048604965209961 L 9.462241172790527 4.6349778175354 L 1.730582237243652 1.720914840698242 M 4.76837158203125e-06 -4.76837158203125e-06 L 11.26548385620117 4.245954990386963 L 7.755724430084229 7.755715370178223 L 4.298134326934814 11.21330547332764 L 4.76837158203125e-06 -4.76837158203125e-06 Z"/></g><line class="d" y2="16" transform="translate(-216.127 1046.947) rotate(90)"/><g class="c" transform="translate(-214.5 1046.929) rotate(135)"><path class="k" d="M 4.48930025100708 10.31504917144775 L 0.8653011322021484 0.8604671359062195 L 10.36387062072754 4.440470218658447 L 7.402174472808838 7.402174949645996 L 4.48930025100708 10.31504917144775 Z"/><path class="m" d="M 1.730582237243652 1.720914840698242 L 4.680450439453125 9.416769027709961 L 7.048614501953125 7.048604965209961 L 9.462241172790527 4.6349778175354 L 1.730582237243652 1.720914840698242 M 4.76837158203125e-06 -4.76837158203125e-06 L 11.26548385620117 4.245954990386963 L 7.755724430084229 7.755715370178223 L 4.298134326934814 11.21330547332764 L 4.76837158203125e-06 -4.76837158203125e-06 Z"/></g><path class="d" d="M0,0V38.258" transform="translate(-216.127 1046.947) rotate(90)"/></g><g transform="translate(9701.5 1625.429) rotate(90)"><g class="c" transform="translate(-203.5 1034) rotate(45)"><path class="k" d="M 4.48930025100708 10.31504917144775 L 0.8653011322021484 0.8604671359062195 L 10.36387062072754 4.440470218658447 L 7.402174472808838 7.402174949645996 L 4.48930025100708 10.31504917144775 Z"/><path class="m" d="M 1.730582237243652 1.720914840698242 L 4.680450439453125 9.416769027709961 L 7.048614501953125 7.048604965209961 L 9.462241172790527 4.6349778175354 L 1.730582237243652 1.720914840698242 M 4.76837158203125e-06 -4.76837158203125e-06 L 11.26548385620117 4.245954990386963 L 7.755724430084229 7.755715370178223 L 4.298134326934814 11.21330547332764 L 4.76837158203125e-06 -4.76837158203125e-06 Z"/></g><line class="d" y2="16" transform="translate(-203.482 1035.627)"/><line class="d" x1="0.018" y2="28.873" transform="translate(-203.5 1035.627)"/><g class="c" transform="translate(-203.5 1034) rotate(45)"><path class="k" d="M 4.48930025100708 10.31504917144775 L 0.8653011322021484 0.8604671359062195 L 10.36387062072754 4.440470218658447 L 7.402174472808838 7.402174949645996 L 4.48930025100708 10.31504917144775 Z"/><path class="m" d="M 1.730582237243652 1.720914840698242 L 4.680450439453125 9.416769027709961 L 7.048614501953125 7.048604965209961 L 9.462241172790527 4.6349778175354 L 1.730582237243652 1.720914840698242 M 4.76837158203125e-06 -4.76837158203125e-06 L 11.26548385620117 4.245954990386963 L 7.755724430084229 7.755715370178223 L 4.298134326934814 11.21330547332764 L 4.76837158203125e-06 -4.76837158203125e-06 Z"/></g><line class="d" y2="16" transform="translate(-203.482 1035.627)"/><line class="d" x1="0.018" y2="28.873" transform="translate(-203.5 1035.627)"/></g><path class="d" d="M2.512,1.5V95.3" transform="translate(8634.988 1326.447)"/><path class="d" d="M0,0V15.232" transform="translate(8587.848 1374.947) rotate(90)"/><g class="b" transform="translate(8533 1356)"><circle class="k" cx="20" cy="20" r="20"/><circle class="l" cx="20" cy="20" r="19.5"/></g><text class="e" transform="translate(8553 1383)"><tspan x="-6.021" y="0">S</tspan></text><g class="b" transform="translate(8588 1355)"><circle class="k" cx="20" cy="20" r="20"/><circle class="l" cx="20" cy="20" r="19.5"/></g><text class="e" transform="translate(8608 1384)"><tspan x="-6.021" y="0">C</tspan></text><text class="e" transform="translate(8852 1233)"><tspan x="-126.431" y="0">-0.39 + -0.01 = </tspan><tspan class="g" y="0">-0.40</tspan></text><text class="e" transform="translate(8852 1279)"><tspan x="-126.431" y="0">-0.39 + -1.00 = -1.39</tspan></text><text class="e" transform="translate(8853 1335)"><tspan x="-126.431" y="0">-0.45 + -0.52 = -0.97</tspan></text><text class="e" transform="translate(8853 1381)"><tspan x="-126.431" y="0">-0.45 + -0.52 = -0.97</tspan></text><text class="e" transform="translate(8853 1427)"><tspan x="-126.431" y="0">-0.45 + -0.39 = </tspan><tspan class="g" y="0">-0.84</tspan></text><text class="e" transform="translate(8040 1491)"><tspan x="-12.041" y="0">3.</tspan></text><path class="d" d="M0,0V15.232" transform="translate(8189.847 1491.947) rotate(90)"/><g class="b" transform="translate(8135 1473)"><circle class="k" cx="20" cy="20" r="20"/><circle class="l" cx="20" cy="20" r="19.5"/></g><text class="e" transform="translate(8155 1500)"><tspan x="-6.021" y="0">S</tspan></text><g class="b" transform="translate(8190 1472)"><circle class="k" cx="20" cy="20" r="20"/><circle class="l" cx="20" cy="20" r="19.5"/></g><text class="e" transform="translate(8210 1501)"><tspan x="-6.021" y="0">A</tspan></text><text class="e" transform="translate(8332 1500)"><tspan x="-30.103" y="0">-0.40</tspan></text><text class="e" transform="translate(8332 1546)"><tspan x="-30.103" y="0">-0.84</tspan></text><path class="d" d="M0,0V15.232" transform="translate(8243.848 1492.947) rotate(90)"/><g class="b" transform="translate(8244 1473)"><circle class="k" cx="20" cy="20" r="20"/><circle class="l" cx="20" cy="20" r="19.5"/></g><text class="e" transform="translate(8264 1500)"><tspan x="-6.021" y="0">B</tspan></text><path class="d" d="M0,0V15.232" transform="translate(8189.847 1538.947) rotate(90)"/><g class="b" transform="translate(8135 1520)"><circle class="k" cx="20" cy="20" r="20"/><circle class="l" cx="20" cy="20" r="19.5"/></g><text class="e" transform="translate(8155 1547)"><tspan x="-6.021" y="0">S</tspan></text><g class="b" transform="translate(8190 1519)"><circle class="k" cx="20" cy="20" r="20"/><circle class="l" cx="20" cy="20" r="19.5"/></g><text class="e" transform="translate(8210 1546)"><tspan x="-6.021" y="0">C</tspan></text><path class="d" d="M0,0V15.232" transform="translate(8243.848 1539.947) rotate(90)"/><g class="b" transform="translate(8244 1520)"><circle class="k" cx="20" cy="20" r="20"/><circle class="l" cx="20" cy="20" r="19.5"/></g><text class="e" transform="translate(8264 1547)"><tspan x="-6.021" y="0">C</tspan></text><g transform="translate(9702.5 1702.429) rotate(90)"><g class="c" transform="translate(-203.5 1034) rotate(45)"><path class="k" d="M 4.48930025100708 10.31504917144775 L 0.8653011322021484 0.8604671359062195 L 10.36387062072754 4.440470218658447 L 7.402174472808838 7.402174949645996 L 4.48930025100708 10.31504917144775 Z"/><path class="m" d="M 1.730582237243652 1.720914840698242 L 4.680450439453125 9.416769027709961 L 7.048614501953125 7.048604965209961 L 9.462241172790527 4.6349778175354 L 1.730582237243652 1.720914840698242 M 4.76837158203125e-06 -4.76837158203125e-06 L 11.26548385620117 4.245954990386963 L 7.755724430084229 7.755715370178223 L 4.298134326934814 11.21330547332764 L 4.76837158203125e-06 -4.76837158203125e-06 Z"/></g><line class="d" y2="16" transform="translate(-203.482 1035.627)"/><line class="d" x1="0.018" y2="28.873" transform="translate(-203.5 1035.627)"/><g class="c" transform="translate(-203.5 1034) rotate(45)"><path class="k" d="M 4.48930025100708 10.31504917144775 L 0.8653011322021484 0.8604671359062195 L 10.36387062072754 4.440470218658447 L 7.402174472808838 7.402174949645996 L 4.48930025100708 10.31504917144775 Z"/><path class="m" d="M 1.730582237243652 1.720914840698242 L 4.680450439453125 9.416769027709961 L 7.048614501953125 7.048604965209961 L 9.462241172790527 4.6349778175354 L 1.730582237243652 1.720914840698242 M 4.76837158203125e-06 -4.76837158203125e-06 L 11.26548385620117 4.245954990386963 L 7.755724430084229 7.755715370178223 L 4.298134326934814 11.21330547332764 L 4.76837158203125e-06 -4.76837158203125e-06 Z"/></g><line class="d" y2="16" transform="translate(-203.482 1035.627)"/><line class="d" x1="0.018" y2="28.873" transform="translate(-203.5 1035.627)"/></g><g class="b" transform="translate(8674 1479)"><circle class="k" cx="20" cy="20" r="20"/><circle class="l" cx="20" cy="20" r="19.5"/></g><text class="e" transform="translate(8694 1506)"><tspan x="-6.021" y="0">A</tspan></text><g class="f" transform="translate(8674 1525)"><circle class="k" cx="20" cy="20" r="20"/><circle class="l" cx="20" cy="20" r="19"/></g><text class="e" transform="translate(8694 1552)"><tspan x="-6.021" y="0">B</tspan></text><g class="f" transform="translate(8674 1571)"><circle class="k" cx="20" cy="20" r="20"/><circle class="l" cx="20" cy="20" r="19"/></g><text class="e" transform="translate(8694 1598)"><tspan x="-6.021" y="0">C</tspan></text><path class="d" d="M.018,0" transform="translate(8666.873 1544.929) rotate(90)"/><g transform="translate(8883 498)"><g class="c" transform="translate(-214.5 1046.929) rotate(135)"><path class="k" d="M 4.48930025100708 10.31504917144775 L 0.8653011322021484 0.8604671359062195 L 10.36387062072754 4.440470218658447 L 7.402174472808838 7.402174949645996 L 4.48930025100708 10.31504917144775 Z"/><path class="m" d="M 1.730582237243652 1.720914840698242 L 4.680450439453125 9.416769027709961 L 7.048614501953125 7.048604965209961 L 9.462241172790527 4.6349778175354 L 1.730582237243652 1.720914840698242 M 4.76837158203125e-06 -4.76837158203125e-06 L 11.26548385620117 4.245954990386963 L 7.755724430084229 7.755715370178223 L 4.298134326934814 11.21330547332764 L 4.76837158203125e-06 -4.76837158203125e-06 Z"/></g><line class="d" y2="16" transform="translate(-216.127 1046.947) rotate(90)"/><g class="c" transform="translate(-214.5 1046.929) rotate(135)"><path class="k" d="M 4.48930025100708 10.31504917144775 L 0.8653011322021484 0.8604671359062195 L 10.36387062072754 4.440470218658447 L 7.402174472808838 7.402174949645996 L 4.48930025100708 10.31504917144775 Z"/><path class="m" d="M 1.730582237243652 1.720914840698242 L 4.680450439453125 9.416769027709961 L 7.048614501953125 7.048604965209961 L 9.462241172790527 4.6349778175354 L 1.730582237243652 1.720914840698242 M 4.76837158203125e-06 -4.76837158203125e-06 L 11.26548385620117 4.245954990386963 L 7.755724430084229 7.755715370178223 L 4.298134326934814 11.21330547332764 L 4.76837158203125e-06 -4.76837158203125e-06 Z"/></g><path class="d" d="M0,0V38.258" transform="translate(-216.127 1046.947) rotate(90)"/></g><g transform="translate(9702.5 1796.429) rotate(90)"><g class="c" transform="translate(-203.5 1034) rotate(45)"><path class="k" d="M 4.48930025100708 10.31504917144775 L 0.8653011322021484 0.8604671359062195 L 10.36387062072754 4.440470218658447 L 7.402174472808838 7.402174949645996 L 4.48930025100708 10.31504917144775 Z"/><path class="m" d="M 1.730582237243652 1.720914840698242 L 4.680450439453125 9.416769027709961 L 7.048614501953125 7.048604965209961 L 9.462241172790527 4.6349778175354 L 1.730582237243652 1.720914840698242 M 4.76837158203125e-06 -4.76837158203125e-06 L 11.26548385620117 4.245954990386963 L 7.755724430084229 7.755715370178223 L 4.298134326934814 11.21330547332764 L 4.76837158203125e-06 -4.76837158203125e-06 Z"/></g><line class="d" y2="16" transform="translate(-203.482 1035.627)"/><line class="d" x1="0.018" y2="28.873" transform="translate(-203.5 1035.627)"/><g class="c" transform="translate(-203.5 1034) rotate(45)"><path class="k" d="M 4.48930025100708 10.31504917144775 L 0.8653011322021484 0.8604671359062195 L 10.36387062072754 4.440470218658447 L 7.402174472808838 7.402174949645996 L 4.48930025100708 10.31504917144775 Z"/><path class="m" d="M 1.730582237243652 1.720914840698242 L 4.680450439453125 9.416769027709961 L 7.048614501953125 7.048604965209961 L 9.462241172790527 4.6349778175354 L 1.730582237243652 1.720914840698242 M 4.76837158203125e-06 -4.76837158203125e-06 L 11.26548385620117 4.245954990386963 L 7.755724430084229 7.755715370178223 L 4.298134326934814 11.21330547332764 L 4.76837158203125e-06 -4.76837158203125e-06 Z"/></g><line class="d" y2="16" transform="translate(-203.482 1035.627)"/><line class="d" x1="0.018" y2="28.873" transform="translate(-203.5 1035.627)"/></g><path class="d" d="M2.512,1.5V95.3" transform="translate(8635.988 1497.447)"/><text class="e" transform="translate(8726 1506)"><tspan x="0" y="0">-0.40 + -0.70 = -1.10</tspan></text><text class="e" transform="translate(8726 1552)"><tspan x="0" y="0">-0.40 + -0.50 =</tspan><tspan class="h" y="0"> </tspan><tspan class="g" y="0">-0.90</tspan></text><text class="e" transform="translate(8726 1598)"><tspan x="0" y="0">-0.40 + -0.55 =</tspan><tspan class="i" y="0"> </tspan><tspan class="g" y="0">-0.95</tspan></text><path class="d" d="M0,0V15.232" transform="translate(8533.848 1544.947) rotate(90)"/><g class="b" transform="translate(8479 1526)"><circle class="k" cx="20" cy="20" r="20"/><circle class="l" cx="20" cy="20" r="19.5"/></g><text class="e" transform="translate(8499 1553)"><tspan x="-6.021" y="0">S</tspan></text><g class="b" transform="translate(8534 1525)"><circle class="k" cx="20" cy="20" r="20"/><circle class="l" cx="20" cy="20" r="19.5"/></g><text class="e" transform="translate(8554 1554)"><tspan x="-6.021" y="0">A</tspan></text><path class="d" d="M0,0V15.232" transform="translate(8587.848 1545.947) rotate(90)"/><g class="b" transform="translate(8588 1526)"><circle class="k" cx="20" cy="20" r="20"/><circle class="l" cx="20" cy="20" r="19.5"/></g><text class="e" transform="translate(8608 1553)"><tspan x="-6.021" y="0">B</tspan></text><g transform="translate(9702.5 1843.429) rotate(90)"><g class="c" transform="translate(-203.5 1034) rotate(45)"><path class="k" d="M 4.48930025100708 10.31504917144775 L 0.8653011322021484 0.8604671359062195 L 10.36387062072754 4.440470218658447 L 7.402174472808838 7.402174949645996 L 4.48930025100708 10.31504917144775 Z"/><path class="m" d="M 1.730582237243652 1.720914840698242 L 4.680450439453125 9.416769027709961 L 7.048614501953125 7.048604965209961 L 9.462241172790527 4.6349778175354 L 1.730582237243652 1.720914840698242 M 4.76837158203125e-06 -4.76837158203125e-06 L 11.26548385620117 4.245954990386963 L 7.755724430084229 7.755715370178223 L 4.298134326934814 11.21330547332764 L 4.76837158203125e-06 -4.76837158203125e-06 Z"/></g><line class="d" y2="16" transform="translate(-203.482 1035.627)"/><line class="d" x1="0.018" y2="28.873" transform="translate(-203.5 1035.627)"/><g class="c" transform="translate(-203.5 1034) rotate(45)"><path class="k" d="M 4.48930025100708 10.31504917144775 L 0.8653011322021484 0.8604671359062195 L 10.36387062072754 4.440470218658447 L 7.402174472808838 7.402174949645996 L 4.48930025100708 10.31504917144775 Z"/><path class="m" d="M 1.730582237243652 1.720914840698242 L 4.680450439453125 9.416769027709961 L 7.048614501953125 7.048604965209961 L 9.462241172790527 4.6349778175354 L 1.730582237243652 1.720914840698242 M 4.76837158203125e-06 -4.76837158203125e-06 L 11.26548385620117 4.245954990386963 L 7.755724430084229 7.755715370178223 L 4.298134326934814 11.21330547332764 L 4.76837158203125e-06 -4.76837158203125e-06 Z"/></g><line class="d" y2="16" transform="translate(-203.482 1035.627)"/><line class="d" x1="0.018" y2="28.873" transform="translate(-203.5 1035.627)"/></g><g class="b" transform="translate(8674 1623)"><circle class="k" cx="20" cy="20" r="20"/><circle class="l" cx="20" cy="20" r="19.5"/></g><text class="e" transform="translate(8694 1650)"><tspan x="-6.021" y="0">A</tspan></text><g class="b" transform="translate(8674 1666)"><circle class="k" cx="20" cy="20" r="20"/><circle class="l" cx="20" cy="20" r="19.5"/></g><text class="e" transform="translate(8694 1693)"><tspan x="-6.021" y="0">B</tspan></text><g class="b" transform="translate(8674 1712)"><circle class="k" cx="20" cy="20" r="20"/><circle class="l" cx="20" cy="20" r="19.5"/></g><text class="e" transform="translate(8694 1739)"><tspan x="-6.021" y="0">C</tspan></text><path class="d" d="M.018,0" transform="translate(8666.873 1685.929) rotate(90)"/><g transform="translate(8883 639)"><g class="c" transform="translate(-214.5 1046.929) rotate(135)"><path class="k" d="M 4.48930025100708 10.31504917144775 L 0.8653011322021484 0.8604671359062195 L 10.36387062072754 4.440470218658447 L 7.402174472808838 7.402174949645996 L 4.48930025100708 10.31504917144775 Z"/><path class="m" d="M 1.730582237243652 1.720914840698242 L 4.680450439453125 9.416769027709961 L 7.048614501953125 7.048604965209961 L 9.462241172790527 4.6349778175354 L 1.730582237243652 1.720914840698242 M 4.76837158203125e-06 -4.76837158203125e-06 L 11.26548385620117 4.245954990386963 L 7.755724430084229 7.755715370178223 L 4.298134326934814 11.21330547332764 L 4.76837158203125e-06 -4.76837158203125e-06 Z"/></g><line class="d" y2="16" transform="translate(-216.127 1046.947) rotate(90)"/><g class="c" transform="translate(-214.5 1046.929) rotate(135)"><path class="k" d="M 4.48930025100708 10.31504917144775 L 0.8653011322021484 0.8604671359062195 L 10.36387062072754 4.440470218658447 L 7.402174472808838 7.402174949645996 L 4.48930025100708 10.31504917144775 Z"/><path class="m" d="M 1.730582237243652 1.720914840698242 L 4.680450439453125 9.416769027709961 L 7.048614501953125 7.048604965209961 L 9.462241172790527 4.6349778175354 L 1.730582237243652 1.720914840698242 M 4.76837158203125e-06 -4.76837158203125e-06 L 11.26548385620117 4.245954990386963 L 7.755724430084229 7.755715370178223 L 4.298134326934814 11.21330547332764 L 4.76837158203125e-06 -4.76837158203125e-06 Z"/></g><path class="d" d="M0,0V38.258" transform="translate(-216.127 1046.947) rotate(90)"/></g><g transform="translate(9702.5 1937.429) rotate(90)"><g class="c" transform="translate(-203.5 1034) rotate(45)"><path class="k" d="M 4.48930025100708 10.31504917144775 L 0.8653011322021484 0.8604671359062195 L 10.36387062072754 4.440470218658447 L 7.402174472808838 7.402174949645996 L 4.48930025100708 10.31504917144775 Z"/><path class="m" d="M 1.730582237243652 1.720914840698242 L 4.680450439453125 9.416769027709961 L 7.048614501953125 7.048604965209961 L 9.462241172790527 4.6349778175354 L 1.730582237243652 1.720914840698242 M 4.76837158203125e-06 -4.76837158203125e-06 L 11.26548385620117 4.245954990386963 L 7.755724430084229 7.755715370178223 L 4.298134326934814 11.21330547332764 L 4.76837158203125e-06 -4.76837158203125e-06 Z"/></g><line class="d" y2="16" transform="translate(-203.482 1035.627)"/><line class="d" x1="0.018" y2="28.873" transform="translate(-203.5 1035.627)"/><g class="c" transform="translate(-203.5 1034) rotate(45)"><path class="k" d="M 4.48930025100708 10.31504917144775 L 0.8653011322021484 0.8604671359062195 L 10.36387062072754 4.440470218658447 L 7.402174472808838 7.402174949645996 L 4.48930025100708 10.31504917144775 Z"/><path class="m" d="M 1.730582237243652 1.720914840698242 L 4.680450439453125 9.416769027709961 L 7.048614501953125 7.048604965209961 L 9.462241172790527 4.6349778175354 L 1.730582237243652 1.720914840698242 M 4.76837158203125e-06 -4.76837158203125e-06 L 11.26548385620117 4.245954990386963 L 7.755724430084229 7.755715370178223 L 4.298134326934814 11.21330547332764 L 4.76837158203125e-06 -4.76837158203125e-06 Z"/></g><line class="d" y2="16" transform="translate(-203.482 1035.627)"/><line class="d" x1="0.018" y2="28.873" transform="translate(-203.5 1035.627)"/></g><path class="d" d="M2.512,1.5V95.3" transform="translate(8635.988 1638.447)"/><text class="e" transform="translate(8726 1650)"><tspan x="0" y="0">-0.84 + -0.66 = -1.50</tspan></text><text class="j" transform="translate(8726 1693)"><tspan x="0" y="0">-0.84 + -0.51 = -1.35</tspan></text><text class="e" transform="translate(8726 1739)"><tspan x="0" y="0">-0.84 + -0.56 = -1.40</tspan></text><path class="d" d="M0,0V15.232" transform="translate(8533.848 1685.947) rotate(90)"/><g class="b" transform="translate(8479 1667)"><circle class="k" cx="20" cy="20" r="20"/><circle class="l" cx="20" cy="20" r="19.5"/></g><text class="e" transform="translate(8499 1694)"><tspan x="-6.021" y="0">S</tspan></text><g class="b" transform="translate(8534 1666)"><circle class="k" cx="20" cy="20" r="20"/><circle class="l" cx="20" cy="20" r="19.5"/></g><text class="e" transform="translate(8554 1695)"><tspan x="-6.021" y="0">C</tspan></text><path class="d" d="M0,0V15.232" transform="translate(8587.848 1686.947) rotate(90)"/><g class="b" transform="translate(8588 1667)"><circle class="k" cx="20" cy="20" r="20"/><circle class="l" cx="20" cy="20" r="19.5"/></g><text class="e" transform="translate(8608 1694)"><tspan x="-6.021" y="0">C</tspan></text><text class="e" transform="translate(8040 1798)"><tspan x="-12.041" y="0">4.</tspan></text><path class="d" d="M0,0V15.232" transform="translate(8134.847 1798.947) rotate(90)"/><g class="b" transform="translate(8080 1780)"><circle class="k" cx="20" cy="20" r="20"/><circle class="l" cx="20" cy="20" r="19.5"/></g><text class="e" transform="translate(8100 1807)"><tspan x="-6.021" y="0">S</tspan></text><g class="b" transform="translate(8135 1779)"><circle class="k" cx="20" cy="20" r="20"/><circle class="l" cx="20" cy="20" r="19.5"/></g><text class="e" transform="translate(8155 1808)"><tspan x="-6.021" y="0">A</tspan></text><text class="e" transform="translate(8332 1807)"><tspan x="-30.103" y="0">-0.90</tspan></text><text class="e" transform="translate(8332 1853)"><tspan x="-30.103" y="0">-0.95</tspan></text><path class="d" d="M0,0V15.232" transform="translate(8188.847 1799.947) rotate(90)"/><g class="b" transform="translate(8189 1780)"><circle class="k" cx="20" cy="20" r="20"/><circle class="l" cx="20" cy="20" r="19.5"/></g><text class="e" transform="translate(8209 1807)"><tspan x="-6.021" y="0">B</tspan></text><path class="d" d="M0,0V15.232" transform="translate(8134.847 1845.947) rotate(90)"/><g class="b" transform="translate(8080 1827)"><circle class="k" cx="20" cy="20" r="20"/><circle class="l" cx="20" cy="20" r="19.5"/></g><text class="e" transform="translate(8100 1854)"><tspan x="-6.021" y="0">S</tspan></text><g class="b" transform="translate(8135 1826)"><circle class="k" cx="20" cy="20" r="20"/><circle class="l" cx="20" cy="20" r="19.5"/></g><text class="e" transform="translate(8155 1853)"><tspan x="-6.021" y="0">A</tspan></text><path class="d" d="M0,0V15.232" transform="translate(8188.847 1846.947) rotate(90)"/><g class="b" transform="translate(8189 1827)"><circle class="k" cx="20" cy="20" r="20"/><circle class="l" cx="20" cy="20" r="19.5"/></g><text class="e" transform="translate(8209 1854)"><tspan x="-6.021" y="0">B</tspan></text><g transform="translate(9702.5 2009.429) rotate(90)"><g class="c" transform="translate(-203.5 1034) rotate(45)"><path class="k" d="M 4.48930025100708 10.31504917144775 L 0.8653011322021484 0.8604671359062195 L 10.36387062072754 4.440470218658447 L 7.402174472808838 7.402174949645996 L 4.48930025100708 10.31504917144775 Z"/><path class="m" d="M 1.730582237243652 1.720914840698242 L 4.680450439453125 9.416769027709961 L 7.048614501953125 7.048604965209961 L 9.462241172790527 4.6349778175354 L 1.730582237243652 1.720914840698242 M 4.76837158203125e-06 -4.76837158203125e-06 L 11.26548385620117 4.245954990386963 L 7.755724430084229 7.755715370178223 L 4.298134326934814 11.21330547332764 L 4.76837158203125e-06 -4.76837158203125e-06 Z"/></g><line class="d" y2="16" transform="translate(-203.482 1035.627)"/><line class="d" x1="0.018" y2="28.873" transform="translate(-203.5 1035.627)"/><g class="c" transform="translate(-203.5 1034) rotate(45)"><path class="k" d="M 4.48930025100708 10.31504917144775 L 0.8653011322021484 0.8604671359062195 L 10.36387062072754 4.440470218658447 L 7.402174472808838 7.402174949645996 L 4.48930025100708 10.31504917144775 Z"/><path class="m" d="M 1.730582237243652 1.720914840698242 L 4.680450439453125 9.416769027709961 L 7.048614501953125 7.048604965209961 L 9.462241172790527 4.6349778175354 L 1.730582237243652 1.720914840698242 M 4.76837158203125e-06 -4.76837158203125e-06 L 11.26548385620117 4.245954990386963 L 7.755724430084229 7.755715370178223 L 4.298134326934814 11.21330547332764 L 4.76837158203125e-06 -4.76837158203125e-06 Z"/></g><line class="d" y2="16" transform="translate(-203.482 1035.627)"/><line class="d" x1="0.018" y2="28.873" transform="translate(-203.5 1035.627)"/></g><g class="b" transform="translate(8674 1786)"><circle class="k" cx="20" cy="20" r="20"/><circle class="l" cx="20" cy="20" r="19.5"/></g><text class="e" transform="translate(8694 1813)"><tspan x="-6.021" y="0">A</tspan></text><g class="b" transform="translate(8674 1832)"><circle class="k" cx="20" cy="20" r="20"/><circle class="l" cx="20" cy="20" r="19.5"/></g><text class="e" transform="translate(8694 1859)"><tspan x="-6.021" y="0">B</tspan></text><g class="b" transform="translate(8674 1878)"><circle class="k" cx="20" cy="20" r="20"/><circle class="l" cx="20" cy="20" r="19.5"/></g><text class="e" transform="translate(8694 1905)"><tspan x="-6.021" y="0">C</tspan></text><path class="d" d="M.018,0" transform="translate(8666.873 1851.929) rotate(90)"/><g transform="translate(8883 805)"><g class="c" transform="translate(-214.5 1046.929) rotate(135)"><path class="k" d="M 4.48930025100708 10.31504917144775 L 0.8653011322021484 0.8604671359062195 L 10.36387062072754 4.440470218658447 L 7.402174472808838 7.402174949645996 L 4.48930025100708 10.31504917144775 Z"/><path class="m" d="M 1.730582237243652 1.720914840698242 L 4.680450439453125 9.416769027709961 L 7.048614501953125 7.048604965209961 L 9.462241172790527 4.6349778175354 L 1.730582237243652 1.720914840698242 M 4.76837158203125e-06 -4.76837158203125e-06 L 11.26548385620117 4.245954990386963 L 7.755724430084229 7.755715370178223 L 4.298134326934814 11.21330547332764 L 4.76837158203125e-06 -4.76837158203125e-06 Z"/></g><line class="d" y2="16" transform="translate(-216.127 1046.947) rotate(90)"/><g class="c" transform="translate(-214.5 1046.929) rotate(135)"><path class="k" d="M 4.48930025100708 10.31504917144775 L 0.8653011322021484 0.8604671359062195 L 10.36387062072754 4.440470218658447 L 7.402174472808838 7.402174949645996 L 4.48930025100708 10.31504917144775 Z"/><path class="m" d="M 1.730582237243652 1.720914840698242 L 4.680450439453125 9.416769027709961 L 7.048614501953125 7.048604965209961 L 9.462241172790527 4.6349778175354 L 1.730582237243652 1.720914840698242 M 4.76837158203125e-06 -4.76837158203125e-06 L 11.26548385620117 4.245954990386963 L 7.755724430084229 7.755715370178223 L 4.298134326934814 11.21330547332764 L 4.76837158203125e-06 -4.76837158203125e-06 Z"/></g><path class="d" d="M0,0V38.258" transform="translate(-216.127 1046.947) rotate(90)"/></g><g transform="translate(9702.5 2103.429) rotate(90)"><g class="c" transform="translate(-203.5 1034) rotate(45)"><path class="k" d="M 4.48930025100708 10.31504917144775 L 0.8653011322021484 0.8604671359062195 L 10.36387062072754 4.440470218658447 L 7.402174472808838 7.402174949645996 L 4.48930025100708 10.31504917144775 Z"/><path class="m" d="M 1.730582237243652 1.720914840698242 L 4.680450439453125 9.416769027709961 L 7.048614501953125 7.048604965209961 L 9.462241172790527 4.6349778175354 L 1.730582237243652 1.720914840698242 M 4.76837158203125e-06 -4.76837158203125e-06 L 11.26548385620117 4.245954990386963 L 7.755724430084229 7.755715370178223 L 4.298134326934814 11.21330547332764 L 4.76837158203125e-06 -4.76837158203125e-06 Z"/></g><line class="d" y2="16" transform="translate(-203.482 1035.627)"/><line class="d" x1="0.018" y2="28.873" transform="translate(-203.5 1035.627)"/><g class="c" transform="translate(-203.5 1034) rotate(45)"><path class="k" d="M 4.48930025100708 10.31504917144775 L 0.8653011322021484 0.8604671359062195 L 10.36387062072754 4.440470218658447 L 7.402174472808838 7.402174949645996 L 4.48930025100708 10.31504917144775 Z"/><path class="m" d="M 1.730582237243652 1.720914840698242 L 4.680450439453125 9.416769027709961 L 7.048614501953125 7.048604965209961 L 9.462241172790527 4.6349778175354 L 1.730582237243652 1.720914840698242 M 4.76837158203125e-06 -4.76837158203125e-06 L 11.26548385620117 4.245954990386963 L 7.755724430084229 7.755715370178223 L 4.298134326934814 11.21330547332764 L 4.76837158203125e-06 -4.76837158203125e-06 Z"/></g><line class="d" y2="16" transform="translate(-203.482 1035.627)"/><line class="d" x1="0.018" y2="28.873" transform="translate(-203.5 1035.627)"/></g><path class="d" d="M2.512,1.5V95.3" transform="translate(8635.988 1804.447)"/><text class="e" transform="translate(8726 1813)"><tspan x="0" y="0">-0.90 + -0.70 = -1.60</tspan></text><text class="e" transform="translate(8726 1859)"><tspan x="0" y="0">-0.90 + -0.30 = -1.20</tspan></text><text class="e" transform="translate(8726 1905)"><tspan x="0" y="0">-0.90 + -0.70 = -1.60</tspan></text><g transform="translate(9702.5 2150.429) rotate(90)"><g class="c" transform="translate(-203.5 1034) rotate(45)"><path class="k" d="M 4.48930025100708 10.31504917144775 L 0.8653011322021484 0.8604671359062195 L 10.36387062072754 4.440470218658447 L 7.402174472808838 7.402174949645996 L 4.48930025100708 10.31504917144775 Z"/><path class="m" d="M 1.730582237243652 1.720914840698242 L 4.680450439453125 9.416769027709961 L 7.048614501953125 7.048604965209961 L 9.462241172790527 4.6349778175354 L 1.730582237243652 1.720914840698242 M 4.76837158203125e-06 -4.76837158203125e-06 L 11.26548385620117 4.245954990386963 L 7.755724430084229 7.755715370178223 L 4.298134326934814 11.21330547332764 L 4.76837158203125e-06 -4.76837158203125e-06 Z"/></g><line class="d" y2="16" transform="translate(-203.482 1035.627)"/><line class="d" x1="0.018" y2="28.873" transform="translate(-203.5 1035.627)"/><g class="c" transform="translate(-203.5 1034) rotate(45)"><path class="k" d="M 4.48930025100708 10.31504917144775 L 0.8653011322021484 0.8604671359062195 L 10.36387062072754 4.440470218658447 L 7.402174472808838 7.402174949645996 L 4.48930025100708 10.31504917144775 Z"/><path class="m" d="M 1.730582237243652 1.720914840698242 L 4.680450439453125 9.416769027709961 L 7.048614501953125 7.048604965209961 L 9.462241172790527 4.6349778175354 L 1.730582237243652 1.720914840698242 M 4.76837158203125e-06 -4.76837158203125e-06 L 11.26548385620117 4.245954990386963 L 7.755724430084229 7.755715370178223 L 4.298134326934814 11.21330547332764 L 4.76837158203125e-06 -4.76837158203125e-06 Z"/></g><line class="d" y2="16" transform="translate(-203.482 1035.627)"/><line class="d" x1="0.018" y2="28.873" transform="translate(-203.5 1035.627)"/></g><g class="f" transform="translate(8674 1930)"><circle class="k" cx="20" cy="20" r="20"/><circle class="l" cx="20" cy="20" r="19"/></g><text class="e" transform="translate(8694 1957)"><tspan x="-6.021" y="0">A</tspan></text><g class="b" transform="translate(8674 1973)"><circle class="k" cx="20" cy="20" r="20"/><circle class="l" cx="20" cy="20" r="19.5"/></g><text class="e" transform="translate(8694 2000)"><tspan x="-6.021" y="0">B</tspan></text><g class="b" transform="translate(8674 2019)"><circle class="k" cx="20" cy="20" r="20"/><circle class="l" cx="20" cy="20" r="19.5"/></g><text class="e" transform="translate(8694 2046)"><tspan x="-6.021" y="0">C</tspan></text><path class="d" d="M.018,0" transform="translate(8666.873 1992.929) rotate(90)"/><g transform="translate(8883 946)"><g class="c" transform="translate(-214.5 1046.929) rotate(135)"><path class="k" d="M 4.48930025100708 10.31504917144775 L 0.8653011322021484 0.8604671359062195 L 10.36387062072754 4.440470218658447 L 7.402174472808838 7.402174949645996 L 4.48930025100708 10.31504917144775 Z"/><path class="m" d="M 1.730582237243652 1.720914840698242 L 4.680450439453125 9.416769027709961 L 7.048614501953125 7.048604965209961 L 9.462241172790527 4.6349778175354 L 1.730582237243652 1.720914840698242 M 4.76837158203125e-06 -4.76837158203125e-06 L 11.26548385620117 4.245954990386963 L 7.755724430084229 7.755715370178223 L 4.298134326934814 11.21330547332764 L 4.76837158203125e-06 -4.76837158203125e-06 Z"/></g><line class="d" y2="16" transform="translate(-216.127 1046.947) rotate(90)"/><g class="c" transform="translate(-214.5 1046.929) rotate(135)"><path class="k" d="M 4.48930025100708 10.31504917144775 L 0.8653011322021484 0.8604671359062195 L 10.36387062072754 4.440470218658447 L 7.402174472808838 7.402174949645996 L 4.48930025100708 10.31504917144775 Z"/><path class="m" d="M 1.730582237243652 1.720914840698242 L 4.680450439453125 9.416769027709961 L 7.048614501953125 7.048604965209961 L 9.462241172790527 4.6349778175354 L 1.730582237243652 1.720914840698242 M 4.76837158203125e-06 -4.76837158203125e-06 L 11.26548385620117 4.245954990386963 L 7.755724430084229 7.755715370178223 L 4.298134326934814 11.21330547332764 L 4.76837158203125e-06 -4.76837158203125e-06 Z"/></g><path class="d" d="M0,0V38.258" transform="translate(-216.127 1046.947) rotate(90)"/></g><g transform="translate(9702.5 2244.429) rotate(90)"><g class="c" transform="translate(-203.5 1034) rotate(45)"><path class="k" d="M 4.48930025100708 10.31504917144775 L 0.8653011322021484 0.8604671359062195 L 10.36387062072754 4.440470218658447 L 7.402174472808838 7.402174949645996 L 4.48930025100708 10.31504917144775 Z"/><path class="m" d="M 1.730582237243652 1.720914840698242 L 4.680450439453125 9.416769027709961 L 7.048614501953125 7.048604965209961 L 9.462241172790527 4.6349778175354 L 1.730582237243652 1.720914840698242 M 4.76837158203125e-06 -4.76837158203125e-06 L 11.26548385620117 4.245954990386963 L 7.755724430084229 7.755715370178223 L 4.298134326934814 11.21330547332764 L 4.76837158203125e-06 -4.76837158203125e-06 Z"/></g><line class="d" y2="16" transform="translate(-203.482 1035.627)"/><line class="d" x1="0.018" y2="28.873" transform="translate(-203.5 1035.627)"/><g class="c" transform="translate(-203.5 1034) rotate(45)"><path class="k" d="M 4.48930025100708 10.31504917144775 L 0.8653011322021484 0.8604671359062195 L 10.36387062072754 4.440470218658447 L 7.402174472808838 7.402174949645996 L 4.48930025100708 10.31504917144775 Z"/><path class="m" d="M 1.730582237243652 1.720914840698242 L 4.680450439453125 9.416769027709961 L 7.048614501953125 7.048604965209961 L 9.462241172790527 4.6349778175354 L 1.730582237243652 1.720914840698242 M 4.76837158203125e-06 -4.76837158203125e-06 L 11.26548385620117 4.245954990386963 L 7.755724430084229 7.755715370178223 L 4.298134326934814 11.21330547332764 L 4.76837158203125e-06 -4.76837158203125e-06 Z"/></g><line class="d" y2="16" transform="translate(-203.482 1035.627)"/><line class="d" x1="0.018" y2="28.873" transform="translate(-203.5 1035.627)"/></g><path class="d" d="M2.512,1.5V95.3" transform="translate(8635.988 1945.447)"/><text class="e" transform="translate(8726 1957)"><tspan x="0" y="0">-0.95 + -0.01 = </tspan><tspan class="g" y="0">-0.95</tspan></text><text class="e" transform="translate(8726 2000)"><tspan x="0" y="0">-0.95 + -1.00 = -1.95</tspan></text><text class="e" transform="translate(8726 2046)"><tspan x="0" y="0">-0.95 + -0.70 = -1.65</tspan></text><path class="d" d="M0,0V15.232" transform="translate(8243.848 1800.947) rotate(90)"/><g class="b" transform="translate(8244 1781)"><circle class="k" cx="20" cy="20" r="20"/><circle class="l" cx="20" cy="20" r="19.5"/></g><text class="e" transform="translate(8264 1808)"><tspan x="-6.021" y="0">B</tspan></text><path class="d" d="M0,0V15.232" transform="translate(8243.848 1847.947) rotate(90)"/><g class="b" transform="translate(8244 1828)"><circle class="k" cx="20" cy="20" r="20"/><circle class="l" cx="20" cy="20" r="19.5"/></g><text class="e" transform="translate(8264 1855)"><tspan x="-6.021" y="0">C</tspan></text><path class="d" d="M0,0V15.232" transform="translate(8479.848 1850.947) rotate(90)"/><g class="b" transform="translate(8425 1832)"><circle class="k" cx="20" cy="20" r="20"/><circle class="l" cx="20" cy="20" r="19.5"/></g><text class="e" transform="translate(8445 1859)"><tspan x="-6.021" y="0">S</tspan></text><g class="b" transform="translate(8480 1831)"><circle class="k" cx="20" cy="20" r="20"/><circle class="l" cx="20" cy="20" r="19.5"/></g><text class="e" transform="translate(8500 1860)"><tspan x="-6.021" y="0">A</tspan></text><path class="d" d="M0,0V15.232" transform="translate(8533.848 1851.947) rotate(90)"/><g class="b" transform="translate(8534 1832)"><circle class="k" cx="20" cy="20" r="20"/><circle class="l" cx="20" cy="20" r="19.5"/></g><text class="e" transform="translate(8554 1859)"><tspan x="-6.021" y="0">B</tspan></text><path class="d" d="M0,0V15.232" transform="translate(8588.848 1852.947) rotate(90)"/><g class="b" transform="translate(8589 1833)"><circle class="k" cx="20" cy="20" r="20"/><circle class="l" cx="20" cy="20" r="19.5"/></g><text class="e" transform="translate(8609 1860)"><tspan x="-6.021" y="0">B</tspan></text><path class="d" d="M0,0V15.232" transform="translate(8479.848 1991.947) rotate(90)"/><g class="b" transform="translate(8425 1973)"><circle class="k" cx="20" cy="20" r="20"/><circle class="l" cx="20" cy="20" r="19.5"/></g><text class="e" transform="translate(8445 2000)"><tspan x="-6.021" y="0">S</tspan></text><g class="b" transform="translate(8480 1972)"><circle class="k" cx="20" cy="20" r="20"/><circle class="l" cx="20" cy="20" r="19.5"/></g><text class="e" transform="translate(8500 1999)"><tspan x="-6.021" y="0">A</tspan></text><path class="d" d="M0,0V15.232" transform="translate(8533.848 1992.947) rotate(90)"/><g class="b" transform="translate(8534 1973)"><circle class="k" cx="20" cy="20" r="20"/><circle class="l" cx="20" cy="20" r="19.5"/></g><text class="e" transform="translate(8554 2000)"><tspan x="-6.021" y="0">B</tspan></text><path class="d" d="M0,0V15.232" transform="translate(8588.848 1993.947) rotate(90)"/><g class="b" transform="translate(8589 1974)"><circle class="k" cx="20" cy="20" r="20"/><circle class="l" cx="20" cy="20" r="19.5"/></g><text class="e" transform="translate(8609 2001)"><tspan x="-6.021" y="0">C</tspan></text></g></svg>