<svg xmlns="http://www.w3.org/2000/svg" viewBox="0 0 493 216.617"><defs><style>.a{fill:#9db4ff;}.b{fill:#ff9d9d;}.c{fill:#020000;font-size:20px;font-family:Menlo-Regular, Menlo;}.d{fill:#9dffa8;}.e,.h{fill:#707070;}.f{fill:none;stroke:#707070;}.g,.h{stroke:none;}</style></defs><g transform="translate(206 -237)"><rect class="a" width="40" height="40" transform="translate(-189 245)"/><g transform="translate(71 -128)"><path class="b" d="M0,0H211.133V80.191H0Z" transform="translate(-137.73 501.426)"/><text class="c" transform="translate(-32 538)"><tspan x="-78.267" y="0">Neural Turing</tspan><tspan x="-42.144" y="24">Machine</tspan></text></g><text class="c" transform="translate(-169 310)"><tspan x="-36.123" y="0">Inputs</tspan></text><rect class="d" width="211" height="56" transform="translate(-68 237)"/><g transform="translate(71 -128)"><path class="b" d="M0,0H211.133V80.191H0Z" transform="translate(-137.73 501.426)"/><text class="c" transform="translate(-32 538)"><tspan x="-78.267" y="0">Neural Turing</tspan><tspan x="-42.144" y="24">Machine</tspan></text></g><text class="c" transform="translate(38 273)"><tspan x="-60.205" y="0">Controller</tspan></text><rect class="a" width="40" height="40" transform="translate(224 245)"/><text class="c" transform="translate(244 310)"><tspan x="-42.144" y="0">Outputs</tspan></text><g transform="translate(251.726 220.689) rotate(90)"><g class="e" transform="translate(45.5 327.893) rotate(45)"><path class="g" d="M 4.48930025100708 10.31504917144775 L 0.8653011322021484 0.8604671359062195 L 10.36387062072754 4.440470218658447 L 7.402174472808838 7.402174949645996 L 4.48930025100708 10.31504917144775 Z"/><path class="h" d="M 1.730582237243652 1.720914840698242 L 4.680450439453125 9.416769027709961 L 7.048614501953125 7.048604965209961 L 9.462241172790527 4.6349778175354 L 1.730582237243652 1.720914840698242 M 4.76837158203125e-06 -4.76837158203125e-06 L 11.26548385620117 4.245954990386963 L 7.755724430084229 7.755715370178223 L 4.298134326934814 11.21330547332764 L 4.76837158203125e-06 -4.76837158203125e-06 Z"/></g><g transform="translate(45.5 328.521)"><line class="f" y2="62.506"/></g><g class="e" transform="translate(45.5 327.893) rotate(45)"><path class="g" d="M 4.48930025100708 10.31504917144775 L 0.8653011322021484 0.8604671359062195 L 10.36387062072754 4.440470218658447 L 7.402174472808838 7.402174949645996 L 4.48930025100708 10.31504917144775 Z"/><path class="h" d="M 1.730582237243652 1.720914840698242 L 4.680450439453125 9.416769027709961 L 7.048614501953125 7.048604965209961 L 9.462241172790527 4.6349778175354 L 1.730582237243652 1.720914840698242 M 4.76837158203125e-06 -4.76837158203125e-06 L 11.26548385620117 4.245954990386963 L 7.755724430084229 7.755715370178223 L 4.298134326934814 11.21330547332764 L 4.76837158203125e-06 -4.76837158203125e-06 Z"/></g></g><g transform="translate(291 -1)"><g transform="translate(251.726 220.689) rotate(90)"><g class="e" transform="translate(45.5 327.893) rotate(45)"><path class="g" d="M 4.48930025100708 10.31504917144775 L 0.8653011322021484 0.8604671359062195 L 10.36387062072754 4.440470218658447 L 7.402174472808838 7.402174949645996 L 4.48930025100708 10.31504917144775 Z"/><path class="h" d="M 1.730582237243652 1.720914840698242 L 4.680450439453125 9.416769027709961 L 7.048614501953125 7.048604965209961 L 9.462241172790527 4.6349778175354 L 1.730582237243652 1.720914840698242 M 4.76837158203125e-06 -4.76837158203125e-06 L 11.26548385620117 4.245954990386963 L 7.755724430084229 7.755715370178223 L 4.298134326934814 11.21330547332764 L 4.76837158203125e-06 -4.76837158203125e-06 Z"/></g><g transform="translate(45.5 328.521)"><line class="f" y2="62.506"/></g><g class="e" transform="translate(45.5 327.893) rotate(45)"><path class="g" d="M 4.48930025100708 10.31504917144775 L 0.8653011322021484 0.8604671359062195 L 10.36387062072754 4.440470218658447 L 7.402174472808838 7.402174949645996 L 4.48930025100708 10.31504917144775 Z"/><path class="h" d="M 1.730582237243652 1.720914840698242 L 4.680450439453125 9.416769027709961 L 7.048614501953125 7.048604965209961 L 9.462241172790527 4.6349778175354 L 1.730582237243652 1.720914840698242 M 4.76837158203125e-06 -4.76837158203125e-06 L 11.26548385620117 4.245954990386963 L 7.755724430084229 7.755715370178223 L 4.298134326934814 11.21330547332764 L 4.76837158203125e-06 -4.76837158203125e-06 Z"/></g></g></g><g transform="translate(368.473 262.941) rotate(90)"><g transform="translate(433.726 285.689) rotate(90)"><g class="e" transform="translate(45.5 327.893) rotate(45)"><path class="g" d="M 4.48930025100708 10.31504917144775 L 0.8653011322021484 0.8604671359062195 L 10.36387062072754 4.440470218658447 L 7.402174472808838 7.402174949645996 L 4.48930025100708 10.31504917144775 Z"/><path class="h" d="M 1.730582237243652 1.720914840698242 L 4.680450439453125 9.416769027709961 L 7.048614501953125 7.048604965209961 L 9.462241172790527 4.6349778175354 L 1.730582237243652 1.720914840698242 M 4.76837158203125e-06 -4.76837158203125e-06 L 11.26548385620117 4.245954990386963 L 7.755724430084229 7.755715370178223 L 4.298134326934814 11.21330547332764 L 4.76837158203125e-06 -4.76837158203125e-06 Z"/></g><g transform="translate(45.5 328.521)"><line class="f" y2="62.506"/></g><g class="e" transform="translate(45.5 327.893) rotate(45)"><path class="g" d="M 4.48930025100708 10.31504917144775 L 0.8653011322021484 0.8604671359062195 L 10.36387062072754 4.440470218658447 L 7.402174472808838 7.402174949645996 L 4.48930025100708 10.31504917144775 Z"/><path class="h" d="M 1.730582237243652 1.720914840698242 L 4.680450439453125 9.416769027709961 L 7.048614501953125 7.048604965209961 L 9.462241172790527 4.6349778175354 L 1.730582237243652 1.720914840698242 M 4.76837158203125e-06 -4.76837158203125e-06 L 11.26548385620117 4.245954990386963 L 7.755724430084229 7.755715370178223 L 4.298134326934814 11.21330547332764 L 4.76837158203125e-06 -4.76837158203125e-06 Z"/></g></g><g class="e" transform="translate(32.699 331.225) rotate(-45)"><path class="g" d="M 4.48930025100708 10.31504917144775 L 0.8653011322021484 0.8604671359062195 L 10.36387062072754 4.440470218658447 L 7.402174472808838 7.402174949645996 L 4.48930025100708 10.31504917144775 Z"/><path class="h" d="M 1.730582237243652 1.720914840698242 L 4.680450439453125 9.416769027709961 L 7.048614501953125 7.048604965209961 L 9.462241172790527 4.6349778175354 L 1.730582237243652 1.720914840698242 M 4.76837158203125e-06 -4.76837158203125e-06 L 11.26548385620117 4.245954990386963 L 7.755724430084229 7.755715370178223 L 4.298134326934814 11.21330547332764 L 4.76837158203125e-06 -4.76837158203125e-06 Z"/></g></g></g></svg>