<svg xmlns="http://www.w3.org/2000/svg" viewBox="0 0 209 500"><defs><style>.a{fill:#fb9dff;}.b,.g{fill:#020000;font-size:20px;}.b{font-family:Hack-Regular, Hack;}.c{fill:#ff9d9d;}.d{font-size:14px;}.e{fill:#10ebfd;}.f{fill:#9db4ff;}.g{font-family:Menlo-Regular, Menlo;}.h,.l{fill:#707070;}.i{fill:none;stroke:#707070;}.j{fill:#9dffa8;}.k,.l{stroke:none;}</style></defs><g transform="translate(-98 750)"><rect class="a" width="122" height="52" transform="translate(185 -750)"/><text class="b" transform="translate(246 -716)"><tspan x="-36.123" y="0">MatMul</tspan></text><rect class="a" width="122" height="52" transform="translate(98 -382)"/><text class="b" transform="translate(159 -348)"><tspan x="-36.123" y="0">MatMul</tspan></text><rect class="c" width="122" height="52" transform="translate(98 -566)"/><text class="b" transform="translate(159 -532)"><tspan x="-53.583" y="0">Mask</tspan><tspan class="d" y="0" xml:space="preserve"> (opt.)</tspan></text><rect class="e" width="122" height="52" transform="translate(98 -658)"/><text class="b" transform="translate(159 -624)"><tspan x="-42.144" y="0">SoftMax</tspan></text><rect class="f" width="40" height="40" transform="translate(98 -290)"/><text class="g" transform="translate(118 -263)"><tspan x="-6.021" y="0">Q</tspan></text><rect class="f" width="40" height="40" transform="translate(180 -290)"/><text class="g" transform="translate(200 -263)"><tspan x="-6.021" y="0">K</tspan></text><rect class="f" width="40" height="40" transform="translate(261 -290)"/><text class="g" transform="translate(281 -263)"><tspan x="-6.021" y="0">V</tspan></text><g class="h" transform="translate(116.5 -325.107) rotate(45)"><path class="k" d="M 4.48930025100708 10.31504917144775 L 0.8653011322021484 0.8604671359062195 L 10.36387062072754 4.440470218658447 L 7.402174472808838 7.402174949645996 L 4.48930025100708 10.31504917144775 Z"/><path class="l" d="M 1.730582237243652 1.720914840698242 L 4.680450439453125 9.416769027709961 L 7.048614501953125 7.048604965209961 L 9.462241172790527 4.6349778175354 L 1.730582237243652 1.720914840698242 M 4.76837158203125e-06 -4.76837158203125e-06 L 11.26548385620117 4.245954990386963 L 7.755724430084229 7.755715370178223 L 4.298134326934814 11.21330547332764 L 4.76837158203125e-06 -4.76837158203125e-06 Z"/></g><g transform="translate(116.5 -324.479)"><line class="i" y2="30"/></g><g class="h" transform="translate(280.5 -693.107) rotate(45)"><path class="k" d="M 4.539204120635986 10.36787128448486 L 0.8700531721115112 0.8652133941650391 L 10.41672897338867 4.490346431732178 L 7.453537940979004 7.453537940979004 L 4.539204120635986 10.36787128448486 Z"/><path class="l" d="M 1.740111351013184 1.730436325073242 L 4.728905200958252 9.471050262451172 L 7.099977493286133 7.099977970123291 L 9.516582489013672 4.683373928070068 L 1.740111351013184 1.730436325073242 M -1.9073486328125e-06 -1.9073486328125e-06 L 11.31685733795166 4.297317981719971 L 7.807087898254395 7.807087898254395 L 4.34949779510498 11.26467800140381 L -1.9073486328125e-06 -1.9073486328125e-06 Z"/></g><g transform="translate(280.518 -692.475)"><line class="i" y2="397.996"/></g><rect class="j" width="122" height="52" transform="translate(98 -474)"/><text class="g" transform="translate(159 -440)"><tspan x="-30.103" y="0">Scale</tspan></text><text class="b" transform="translate(159 -440)"><tspan x="-30.103" y="0">Scale</tspan></text><g class="h" transform="translate(201.5 -325.107) rotate(45)"><path class="k" d="M 4.48930025100708 10.31504917144775 L 0.8653011322021484 0.8604671359062195 L 10.36387062072754 4.440470218658447 L 7.402174472808838 7.402174949645996 L 4.48930025100708 10.31504917144775 Z"/><path class="l" d="M 1.730582237243652 1.720914840698242 L 4.680450439453125 9.416769027709961 L 7.048614501953125 7.048604965209961 L 9.462241172790527 4.6349778175354 L 1.730582237243652 1.720914840698242 M 4.76837158203125e-06 -4.76837158203125e-06 L 11.26548385620117 4.245954990386963 L 7.755724430084229 7.755715370178223 L 4.298134326934814 11.21330547332764 L 4.76837158203125e-06 -4.76837158203125e-06 Z"/></g><g transform="translate(201.5 -324.479)"><line class="i" y2="30"/></g><g class="h" transform="translate(153.5 -417.107) rotate(45)"><path class="k" d="M 4.48930025100708 10.31504917144775 L 0.8653011322021484 0.8604671359062195 L 10.36387062072754 4.440470218658447 L 7.402174472808838 7.402174949645996 L 4.48930025100708 10.31504917144775 Z"/><path class="l" d="M 1.730582237243652 1.720914840698242 L 4.680450439453125 9.416769027709961 L 7.048614501953125 7.048604965209961 L 9.462241172790527 4.6349778175354 L 1.730582237243652 1.720914840698242 M 4.76837158203125e-06 -4.76837158203125e-06 L 11.26548385620117 4.245954990386963 L 7.755724430084229 7.755715370178223 L 4.298134326934814 11.21330547332764 L 4.76837158203125e-06 -4.76837158203125e-06 Z"/></g><g transform="translate(153.5 -416.479)"><line class="i" y2="30"/></g><g class="h" transform="translate(153.5 -509.107) rotate(45)"><path class="k" d="M 4.48930025100708 10.31504917144775 L 0.8653011322021484 0.8604671359062195 L 10.36387062072754 4.440470218658447 L 7.402174472808838 7.402174949645996 L 4.48930025100708 10.31504917144775 Z"/><path class="l" d="M 1.730582237243652 1.720914840698242 L 4.680450439453125 9.416769027709961 L 7.048614501953125 7.048604965209961 L 9.462241172790527 4.6349778175354 L 1.730582237243652 1.720914840698242 M 4.76837158203125e-06 -4.76837158203125e-06 L 11.26548385620117 4.245954990386963 L 7.755724430084229 7.755715370178223 L 4.298134326934814 11.21330547332764 L 4.76837158203125e-06 -4.76837158203125e-06 Z"/></g><g transform="translate(153.5 -508.479)"><line class="i" y2="30"/></g><g class="h" transform="translate(153.5 -601.107) rotate(45)"><path class="k" d="M 4.48930025100708 10.31504917144775 L 0.8653011322021484 0.8604671359062195 L 10.36387062072754 4.440470218658447 L 7.402174472808838 7.402174949645996 L 4.48930025100708 10.31504917144775 Z"/><path class="l" d="M 1.730582237243652 1.720914840698242 L 4.680450439453125 9.416769027709961 L 7.048614501953125 7.048604965209961 L 9.462241172790527 4.6349778175354 L 1.730582237243652 1.720914840698242 M 4.76837158203125e-06 -4.76837158203125e-06 L 11.26548385620117 4.245954990386963 L 7.755724430084229 7.755715370178223 L 4.298134326934814 11.21330547332764 L 4.76837158203125e-06 -4.76837158203125e-06 Z"/></g><g transform="translate(153.5 -600.479)"><line class="i" y2="30"/></g><g class="h" transform="translate(209.5 -693.107) rotate(45)"><path class="k" d="M 4.48930025100708 10.31504917144775 L 0.8653011322021484 0.8604671359062195 L 10.36387062072754 4.440470218658447 L 7.402174472808838 7.402174949645996 L 4.48930025100708 10.31504917144775 Z"/><path class="l" d="M 1.730582237243652 1.720914840698242 L 4.680450439453125 9.416769027709961 L 7.048614501953125 7.048604965209961 L 9.462241172790527 4.6349778175354 L 1.730582237243652 1.720914840698242 M 4.76837158203125e-06 -4.76837158203125e-06 L 11.26548385620117 4.245954990386963 L 7.755724430084229 7.755715370178223 L 4.298134326934814 11.21330547332764 L 4.76837158203125e-06 -4.76837158203125e-06 Z"/></g><g transform="translate(209.5 -692.479)"><line class="i" y2="30"/></g></g></svg>