<svg xmlns="http://www.w3.org/2000/svg" viewBox="0 0 1013 1122"><defs><style>.a,.f,.m{fill:#020000;}.a,.f,.l,.m{font-size:20px;}.a{font-family:Menlo-Regular, Menlo;}.b,.g,.n,.o{fill:#fff;}.b,.e,.h,.n{stroke:#707070;}.b,.c,.f,.g,.h,.l{opacity:0.5;}.d,.r{fill:#707070;}.e,.h,.q{fill:none;}.f,.l,.m{font-family:Hack-Regular, Hack;}.g,.o{stroke:#29dd3d;stroke-width:2px;}.i,.k{fill:#29dd3d;}.i,.j{font-family:Hack-Bold, Hack;font-weight:700;}.p,.r{stroke:none;}</style></defs><g transform="translate(-6864.5 -937)"><text class="a" transform="translate(7171 956)"><tspan x="-36.123" y="0">Prefix</tspan></text><text class="a" transform="translate(7661 956)"><tspan x="-60.205" y="0">Hypotheses</tspan></text><g class="b" transform="translate(7131 1028)"><circle class="p" cx="20" cy="20" r="20"/><circle class="q" cx="20" cy="20" r="19.5"/></g><g class="c" transform="translate(8589.5 1209.429) rotate(90)"><g class="d" transform="translate(-203.5 1034) rotate(45)"><path class="p" d="M 4.48930025100708 10.31504917144775 L 0.8653011322021484 0.8604671359062195 L 10.36387062072754 4.440470218658447 L 7.402174472808838 7.402174949645996 L 4.48930025100708 10.31504917144775 Z"/><path class="r" d="M 1.730582237243652 1.720914840698242 L 4.680450439453125 9.416769027709961 L 7.048614501953125 7.048604965209961 L 9.462241172790527 4.6349778175354 L 1.730582237243652 1.720914840698242 M 4.76837158203125e-06 -4.76837158203125e-06 L 11.26548385620117 4.245954990386963 L 7.755724430084229 7.755715370178223 L 4.298134326934814 11.21330547332764 L 4.76837158203125e-06 -4.76837158203125e-06 Z"/></g><line class="e" y2="16" transform="translate(-203.482 1035.627)"/><line class="e" x1="0.018" y2="28.873" transform="translate(-203.5 1035.627)"/><g class="d" transform="translate(-203.5 1034) rotate(45)"><path class="p" d="M 4.48930025100708 10.31504917144775 L 0.8653011322021484 0.8604671359062195 L 10.36387062072754 4.440470218658447 L 7.402174472808838 7.402174949645996 L 4.48930025100708 10.31504917144775 Z"/><path class="r" d="M 1.730582237243652 1.720914840698242 L 4.680450439453125 9.416769027709961 L 7.048614501953125 7.048604965209961 L 9.462241172790527 4.6349778175354 L 1.730582237243652 1.720914840698242 M 4.76837158203125e-06 -4.76837158203125e-06 L 11.26548385620117 4.245954990386963 L 7.755724430084229 7.755715370178223 L 4.298134326934814 11.21330547332764 L 4.76837158203125e-06 -4.76837158203125e-06 Z"/></g><line class="e" y2="16" transform="translate(-203.482 1035.627)"/><line class="e" x1="0.018" y2="28.873" transform="translate(-203.5 1035.627)"/></g><text class="f" transform="translate(7151 1055)"><tspan x="-6.021" y="0">S</tspan></text><g class="b" transform="translate(7476 1032)"><circle class="p" cx="20" cy="20" r="20"/><circle class="q" cx="20" cy="20" r="19.5"/></g><text class="f" transform="translate(7496 1059)"><tspan x="-6.021" y="0">S</tspan></text><g class="g" transform="translate(7561 986)"><circle class="p" cx="20" cy="20" r="20"/><circle class="q" cx="20" cy="20" r="19"/></g><text class="f" transform="translate(7581 1013)"><tspan x="-6.021" y="0">A</tspan></text><g class="b" transform="translate(7561 1032)"><circle class="p" cx="20" cy="20" r="20"/><circle class="q" cx="20" cy="20" r="19.5"/></g><text class="f" transform="translate(7581 1059)"><tspan x="-6.021" y="0">B</tspan></text><g class="g" transform="translate(7561 1078)"><circle class="p" cx="20" cy="20" r="20"/><circle class="q" cx="20" cy="20" r="19"/></g><text class="f" transform="translate(7581 1105)"><tspan x="-6.021" y="0">C</tspan></text><path class="h" d="M.018,0" transform="translate(7553.873 1051.929) rotate(90)"/><g class="c" transform="translate(7770 5)"><g class="d" transform="translate(-214.5 1046.929) rotate(135)"><path class="p" d="M 4.48930025100708 10.31504917144775 L 0.8653011322021484 0.8604671359062195 L 10.36387062072754 4.440470218658447 L 7.402174472808838 7.402174949645996 L 4.48930025100708 10.31504917144775 Z"/><path class="r" d="M 1.730582237243652 1.720914840698242 L 4.680450439453125 9.416769027709961 L 7.048614501953125 7.048604965209961 L 9.462241172790527 4.6349778175354 L 1.730582237243652 1.720914840698242 M 4.76837158203125e-06 -4.76837158203125e-06 L 11.26548385620117 4.245954990386963 L 7.755724430084229 7.755715370178223 L 4.298134326934814 11.21330547332764 L 4.76837158203125e-06 -4.76837158203125e-06 Z"/></g><line class="e" y2="16" transform="translate(-216.127 1046.947) rotate(90)"/><g class="d" transform="translate(-214.5 1046.929) rotate(135)"><path class="p" d="M 4.48930025100708 10.31504917144775 L 0.8653011322021484 0.8604671359062195 L 10.36387062072754 4.440470218658447 L 7.402174472808838 7.402174949645996 L 4.48930025100708 10.31504917144775 Z"/><path class="r" d="M 1.730582237243652 1.720914840698242 L 4.680450439453125 9.416769027709961 L 7.048614501953125 7.048604965209961 L 9.462241172790527 4.6349778175354 L 1.730582237243652 1.720914840698242 M 4.76837158203125e-06 -4.76837158203125e-06 L 11.26548385620117 4.245954990386963 L 7.755724430084229 7.755715370178223 L 4.298134326934814 11.21330547332764 L 4.76837158203125e-06 -4.76837158203125e-06 Z"/></g><path class="e" d="M0,0V38.258" transform="translate(-216.127 1046.947) rotate(90)"/></g><g class="c" transform="translate(8589.5 1303.429) rotate(90)"><g class="d" transform="translate(-203.5 1034) rotate(45)"><path class="p" d="M 4.48930025100708 10.31504917144775 L 0.8653011322021484 0.8604671359062195 L 10.36387062072754 4.440470218658447 L 7.402174472808838 7.402174949645996 L 4.48930025100708 10.31504917144775 Z"/><path class="r" d="M 1.730582237243652 1.720914840698242 L 4.680450439453125 9.416769027709961 L 7.048614501953125 7.048604965209961 L 9.462241172790527 4.6349778175354 L 1.730582237243652 1.720914840698242 M 4.76837158203125e-06 -4.76837158203125e-06 L 11.26548385620117 4.245954990386963 L 7.755724430084229 7.755715370178223 L 4.298134326934814 11.21330547332764 L 4.76837158203125e-06 -4.76837158203125e-06 Z"/></g><line class="e" y2="16" transform="translate(-203.482 1035.627)"/><line class="e" x1="0.018" y2="28.873" transform="translate(-203.5 1035.627)"/><g class="d" transform="translate(-203.5 1034) rotate(45)"><path class="p" d="M 4.48930025100708 10.31504917144775 L 0.8653011322021484 0.8604671359062195 L 10.36387062072754 4.440470218658447 L 7.402174472808838 7.402174949645996 L 4.48930025100708 10.31504917144775 Z"/><path class="r" d="M 1.730582237243652 1.720914840698242 L 4.680450439453125 9.416769027709961 L 7.048614501953125 7.048604965209961 L 9.462241172790527 4.6349778175354 L 1.730582237243652 1.720914840698242 M 4.76837158203125e-06 -4.76837158203125e-06 L 11.26548385620117 4.245954990386963 L 7.755724430084229 7.755715370178223 L 4.298134326934814 11.21330547332764 L 4.76837158203125e-06 -4.76837158203125e-06 Z"/></g><line class="e" y2="16" transform="translate(-203.482 1035.627)"/><line class="e" x1="0.018" y2="28.873" transform="translate(-203.5 1035.627)"/></g><path class="h" d="M2.512,1.5V95.3" transform="translate(7522.988 1004.447)"/><text class="a" transform="translate(6927 957)"><tspan x="-24.082" y="0">Step</tspan></text><text class="f" transform="translate(6927 1054)"><tspan x="-12.041" y="0">1.</tspan></text><path class="h" d="M0,0V15.232" transform="translate(7130.848 1178.947) rotate(90)"/><g class="b" transform="translate(7076 1160)"><circle class="p" cx="20" cy="20" r="20"/><circle class="q" cx="20" cy="20" r="19.5"/></g><text class="f" transform="translate(7096 1187)"><tspan x="-6.021" y="0">S</tspan></text><g class="b" transform="translate(7131 1159)"><circle class="p" cx="20" cy="20" r="20"/><circle class="q" cx="20" cy="20" r="19.5"/></g><text class="f" transform="translate(7151 1188)"><tspan x="-6.021" y="0">A</tspan></text><path class="h" d="M0,0V15.232" transform="translate(7130.848 1224.947) rotate(90)"/><g class="b" transform="translate(7076 1206)"><circle class="p" cx="20" cy="20" r="20"/><circle class="q" cx="20" cy="20" r="19.5"/></g><text class="f" transform="translate(7096 1233)"><tspan x="-6.021" y="0">S</tspan></text><g class="b" transform="translate(7131 1205)"><circle class="p" cx="20" cy="20" r="20"/><circle class="q" cx="20" cy="20" r="19.5"/></g><text class="f" transform="translate(7151 1234)"><tspan x="-6.021" y="0">C</tspan></text><text class="f" transform="translate(6927 1184)"><tspan x="-12.041" y="0">2.</tspan></text><text class="f" transform="translate(7638 1011)"><tspan x="-30.103" y="0">-0.39</tspan></text><text class="f" transform="translate(7638 1059)"><tspan x="-30.103" y="0">-0.60</tspan></text><text class="f" transform="translate(7638 1105)"><tspan x="-30.103" y="0">-0.45</tspan></text><text class="f" transform="translate(7227 1185)"><tspan x="-30.103" y="0">-0.39</tspan></text><text class="f" transform="translate(7227 1231)"><tspan x="-30.103" y="0">-0.45</tspan></text><text class="f" transform="translate(7227 1054)"><tspan x="-24.082" y="0">0.00</tspan></text><g class="c" transform="translate(8589.5 1383.429) rotate(90)"><g class="d" transform="translate(-203.5 1034) rotate(45)"><path class="p" d="M 4.48930025100708 10.31504917144775 L 0.8653011322021484 0.8604671359062195 L 10.36387062072754 4.440470218658447 L 7.402174472808838 7.402174949645996 L 4.48930025100708 10.31504917144775 Z"/><path class="r" d="M 1.730582237243652 1.720914840698242 L 4.680450439453125 9.416769027709961 L 7.048614501953125 7.048604965209961 L 9.462241172790527 4.6349778175354 L 1.730582237243652 1.720914840698242 M 4.76837158203125e-06 -4.76837158203125e-06 L 11.26548385620117 4.245954990386963 L 7.755724430084229 7.755715370178223 L 4.298134326934814 11.21330547332764 L 4.76837158203125e-06 -4.76837158203125e-06 Z"/></g><line class="e" y2="16" transform="translate(-203.482 1035.627)"/><line class="e" x1="0.018" y2="28.873" transform="translate(-203.5 1035.627)"/><g class="d" transform="translate(-203.5 1034) rotate(45)"><path class="p" d="M 4.48930025100708 10.31504917144775 L 0.8653011322021484 0.8604671359062195 L 10.36387062072754 4.440470218658447 L 7.402174472808838 7.402174949645996 L 4.48930025100708 10.31504917144775 Z"/><path class="r" d="M 1.730582237243652 1.720914840698242 L 4.680450439453125 9.416769027709961 L 7.048614501953125 7.048604965209961 L 9.462241172790527 4.6349778175354 L 1.730582237243652 1.720914840698242 M 4.76837158203125e-06 -4.76837158203125e-06 L 11.26548385620117 4.245954990386963 L 7.755724430084229 7.755715370178223 L 4.298134326934814 11.21330547332764 L 4.76837158203125e-06 -4.76837158203125e-06 Z"/></g><line class="e" y2="16" transform="translate(-203.482 1035.627)"/><line class="e" x1="0.018" y2="28.873" transform="translate(-203.5 1035.627)"/></g><g class="b" transform="translate(7561 1160)"><circle class="p" cx="20" cy="20" r="20"/><circle class="q" cx="20" cy="20" r="19.5"/></g><text class="f" transform="translate(7581 1187)"><tspan x="-6.021" y="0">A</tspan></text><g class="g" transform="translate(7561 1206)"><circle class="p" cx="20" cy="20" r="20"/><circle class="q" cx="20" cy="20" r="19"/></g><text class="f" transform="translate(7581 1233)"><tspan x="-6.021" y="0">B</tspan></text><g class="b" transform="translate(7561 1252)"><circle class="p" cx="20" cy="20" r="20"/><circle class="q" cx="20" cy="20" r="19.5"/></g><text class="f" transform="translate(7581 1279)"><tspan x="-6.021" y="0">C</tspan></text><path class="h" d="M.018,0" transform="translate(7553.873 1225.929) rotate(90)"/><g class="c" transform="translate(7770 179)"><g class="d" transform="translate(-214.5 1046.929) rotate(135)"><path class="p" d="M 4.48930025100708 10.31504917144775 L 0.8653011322021484 0.8604671359062195 L 10.36387062072754 4.440470218658447 L 7.402174472808838 7.402174949645996 L 4.48930025100708 10.31504917144775 Z"/><path class="r" d="M 1.730582237243652 1.720914840698242 L 4.680450439453125 9.416769027709961 L 7.048614501953125 7.048604965209961 L 9.462241172790527 4.6349778175354 L 1.730582237243652 1.720914840698242 M 4.76837158203125e-06 -4.76837158203125e-06 L 11.26548385620117 4.245954990386963 L 7.755724430084229 7.755715370178223 L 4.298134326934814 11.21330547332764 L 4.76837158203125e-06 -4.76837158203125e-06 Z"/></g><line class="e" y2="16" transform="translate(-216.127 1046.947) rotate(90)"/><g class="d" transform="translate(-214.5 1046.929) rotate(135)"><path class="p" d="M 4.48930025100708 10.31504917144775 L 0.8653011322021484 0.8604671359062195 L 10.36387062072754 4.440470218658447 L 7.402174472808838 7.402174949645996 L 4.48930025100708 10.31504917144775 Z"/><path class="r" d="M 1.730582237243652 1.720914840698242 L 4.680450439453125 9.416769027709961 L 7.048614501953125 7.048604965209961 L 9.462241172790527 4.6349778175354 L 1.730582237243652 1.720914840698242 M 4.76837158203125e-06 -4.76837158203125e-06 L 11.26548385620117 4.245954990386963 L 7.755724430084229 7.755715370178223 L 4.298134326934814 11.21330547332764 L 4.76837158203125e-06 -4.76837158203125e-06 Z"/></g><path class="e" d="M0,0V38.258" transform="translate(-216.127 1046.947) rotate(90)"/></g><g class="c" transform="translate(8589.5 1477.429) rotate(90)"><g class="d" transform="translate(-203.5 1034) rotate(45)"><path class="p" d="M 4.48930025100708 10.31504917144775 L 0.8653011322021484 0.8604671359062195 L 10.36387062072754 4.440470218658447 L 7.402174472808838 7.402174949645996 L 4.48930025100708 10.31504917144775 Z"/><path class="r" d="M 1.730582237243652 1.720914840698242 L 4.680450439453125 9.416769027709961 L 7.048614501953125 7.048604965209961 L 9.462241172790527 4.6349778175354 L 1.730582237243652 1.720914840698242 M 4.76837158203125e-06 -4.76837158203125e-06 L 11.26548385620117 4.245954990386963 L 7.755724430084229 7.755715370178223 L 4.298134326934814 11.21330547332764 L 4.76837158203125e-06 -4.76837158203125e-06 Z"/></g><line class="e" y2="16" transform="translate(-203.482 1035.627)"/><line class="e" x1="0.018" y2="28.873" transform="translate(-203.5 1035.627)"/><g class="d" transform="translate(-203.5 1034) rotate(45)"><path class="p" d="M 4.48930025100708 10.31504917144775 L 0.8653011322021484 0.8604671359062195 L 10.36387062072754 4.440470218658447 L 7.402174472808838 7.402174949645996 L 4.48930025100708 10.31504917144775 Z"/><path class="r" d="M 1.730582237243652 1.720914840698242 L 4.680450439453125 9.416769027709961 L 7.048614501953125 7.048604965209961 L 9.462241172790527 4.6349778175354 L 1.730582237243652 1.720914840698242 M 4.76837158203125e-06 -4.76837158203125e-06 L 11.26548385620117 4.245954990386963 L 7.755724430084229 7.755715370178223 L 4.298134326934814 11.21330547332764 L 4.76837158203125e-06 -4.76837158203125e-06 Z"/></g><line class="e" y2="16" transform="translate(-203.482 1035.627)"/><line class="e" x1="0.018" y2="28.873" transform="translate(-203.5 1035.627)"/></g><path class="h" d="M2.512,1.5V95.3" transform="translate(7522.988 1178.447)"/><text class="f" transform="translate(7739 1187)"><tspan x="-126.431" y="0">-0.39 + -1.00 = -1.39</tspan></text><line class="e" x2="1013" transform="translate(6864.5 968.5)"/><path class="h" d="M0,0V15.232" transform="translate(7475.848 1226.947) rotate(90)"/><g class="b" transform="translate(7421 1208)"><circle class="p" cx="20" cy="20" r="20"/><circle class="q" cx="20" cy="20" r="19.5"/></g><text class="f" transform="translate(7441 1235)"><tspan x="-6.021" y="0">S</tspan></text><g class="b" transform="translate(7476 1207)"><circle class="p" cx="20" cy="20" r="20"/><circle class="q" cx="20" cy="20" r="19.5"/></g><text class="f" transform="translate(7496 1236)"><tspan x="-6.021" y="0">A</tspan></text><g class="c" transform="translate(8588.5 1531.429) rotate(90)"><g class="d" transform="translate(-203.5 1034) rotate(45)"><path class="p" d="M 4.48930025100708 10.31504917144775 L 0.8653011322021484 0.8604671359062195 L 10.36387062072754 4.440470218658447 L 7.402174472808838 7.402174949645996 L 4.48930025100708 10.31504917144775 Z"/><path class="r" d="M 1.730582237243652 1.720914840698242 L 4.680450439453125 9.416769027709961 L 7.048614501953125 7.048604965209961 L 9.462241172790527 4.6349778175354 L 1.730582237243652 1.720914840698242 M 4.76837158203125e-06 -4.76837158203125e-06 L 11.26548385620117 4.245954990386963 L 7.755724430084229 7.755715370178223 L 4.298134326934814 11.21330547332764 L 4.76837158203125e-06 -4.76837158203125e-06 Z"/></g><line class="e" y2="16" transform="translate(-203.482 1035.627)"/><line class="e" x1="0.018" y2="28.873" transform="translate(-203.5 1035.627)"/><g class="d" transform="translate(-203.5 1034) rotate(45)"><path class="p" d="M 4.48930025100708 10.31504917144775 L 0.8653011322021484 0.8604671359062195 L 10.36387062072754 4.440470218658447 L 7.402174472808838 7.402174949645996 L 4.48930025100708 10.31504917144775 Z"/><path class="r" d="M 1.730582237243652 1.720914840698242 L 4.680450439453125 9.416769027709961 L 7.048614501953125 7.048604965209961 L 9.462241172790527 4.6349778175354 L 1.730582237243652 1.720914840698242 M 4.76837158203125e-06 -4.76837158203125e-06 L 11.26548385620117 4.245954990386963 L 7.755724430084229 7.755715370178223 L 4.298134326934814 11.21330547332764 L 4.76837158203125e-06 -4.76837158203125e-06 Z"/></g><line class="e" y2="16" transform="translate(-203.482 1035.627)"/><line class="e" x1="0.018" y2="28.873" transform="translate(-203.5 1035.627)"/></g><g class="b" transform="translate(7560 1308)"><circle class="p" cx="20" cy="20" r="20"/><circle class="q" cx="20" cy="20" r="19.5"/></g><text class="f" transform="translate(7580 1335)"><tspan x="-6.021" y="0">A</tspan></text><g class="b" transform="translate(7560 1354)"><circle class="p" cx="20" cy="20" r="20"/><circle class="q" cx="20" cy="20" r="19.5"/></g><text class="f" transform="translate(7580 1381)"><tspan x="-6.021" y="0">B</tspan></text><g class="g" transform="translate(7560 1400)"><circle class="p" cx="20" cy="20" r="20"/><circle class="q" cx="20" cy="20" r="19"/></g><text class="f" transform="translate(7580 1427)"><tspan x="-6.021" y="0">C</tspan></text><path class="h" d="M.018,0" transform="translate(7552.873 1373.929) rotate(90)"/><g class="c" transform="translate(7769 327)"><g class="d" transform="translate(-214.5 1046.929) rotate(135)"><path class="p" d="M 4.48930025100708 10.31504917144775 L 0.8653011322021484 0.8604671359062195 L 10.36387062072754 4.440470218658447 L 7.402174472808838 7.402174949645996 L 4.48930025100708 10.31504917144775 Z"/><path class="r" d="M 1.730582237243652 1.720914840698242 L 4.680450439453125 9.416769027709961 L 7.048614501953125 7.048604965209961 L 9.462241172790527 4.6349778175354 L 1.730582237243652 1.720914840698242 M 4.76837158203125e-06 -4.76837158203125e-06 L 11.26548385620117 4.245954990386963 L 7.755724430084229 7.755715370178223 L 4.298134326934814 11.21330547332764 L 4.76837158203125e-06 -4.76837158203125e-06 Z"/></g><line class="e" y2="16" transform="translate(-216.127 1046.947) rotate(90)"/><g class="d" transform="translate(-214.5 1046.929) rotate(135)"><path class="p" d="M 4.48930025100708 10.31504917144775 L 0.8653011322021484 0.8604671359062195 L 10.36387062072754 4.440470218658447 L 7.402174472808838 7.402174949645996 L 4.48930025100708 10.31504917144775 Z"/><path class="r" d="M 1.730582237243652 1.720914840698242 L 4.680450439453125 9.416769027709961 L 7.048614501953125 7.048604965209961 L 9.462241172790527 4.6349778175354 L 1.730582237243652 1.720914840698242 M 4.76837158203125e-06 -4.76837158203125e-06 L 11.26548385620117 4.245954990386963 L 7.755724430084229 7.755715370178223 L 4.298134326934814 11.21330547332764 L 4.76837158203125e-06 -4.76837158203125e-06 Z"/></g><path class="e" d="M0,0V38.258" transform="translate(-216.127 1046.947) rotate(90)"/></g><g class="c" transform="translate(8588.5 1625.429) rotate(90)"><g class="d" transform="translate(-203.5 1034) rotate(45)"><path class="p" d="M 4.48930025100708 10.31504917144775 L 0.8653011322021484 0.8604671359062195 L 10.36387062072754 4.440470218658447 L 7.402174472808838 7.402174949645996 L 4.48930025100708 10.31504917144775 Z"/><path class="r" d="M 1.730582237243652 1.720914840698242 L 4.680450439453125 9.416769027709961 L 7.048614501953125 7.048604965209961 L 9.462241172790527 4.6349778175354 L 1.730582237243652 1.720914840698242 M 4.76837158203125e-06 -4.76837158203125e-06 L 11.26548385620117 4.245954990386963 L 7.755724430084229 7.755715370178223 L 4.298134326934814 11.21330547332764 L 4.76837158203125e-06 -4.76837158203125e-06 Z"/></g><line class="e" y2="16" transform="translate(-203.482 1035.627)"/><line class="e" x1="0.018" y2="28.873" transform="translate(-203.5 1035.627)"/><g class="d" transform="translate(-203.5 1034) rotate(45)"><path class="p" d="M 4.48930025100708 10.31504917144775 L 0.8653011322021484 0.8604671359062195 L 10.36387062072754 4.440470218658447 L 7.402174472808838 7.402174949645996 L 4.48930025100708 10.31504917144775 Z"/><path class="r" d="M 1.730582237243652 1.720914840698242 L 4.680450439453125 9.416769027709961 L 7.048614501953125 7.048604965209961 L 9.462241172790527 4.6349778175354 L 1.730582237243652 1.720914840698242 M 4.76837158203125e-06 -4.76837158203125e-06 L 11.26548385620117 4.245954990386963 L 7.755724430084229 7.755715370178223 L 4.298134326934814 11.21330547332764 L 4.76837158203125e-06 -4.76837158203125e-06 Z"/></g><line class="e" y2="16" transform="translate(-203.482 1035.627)"/><line class="e" x1="0.018" y2="28.873" transform="translate(-203.5 1035.627)"/></g><path class="h" d="M2.512,1.5V95.3" transform="translate(7521.988 1326.447)"/><path class="h" d="M0,0V15.232" transform="translate(7474.848 1374.947) rotate(90)"/><g class="b" transform="translate(7420 1356)"><circle class="p" cx="20" cy="20" r="20"/><circle class="q" cx="20" cy="20" r="19.5"/></g><text class="f" transform="translate(7440 1383)"><tspan x="-6.021" y="0">S</tspan></text><g class="b" transform="translate(7475 1355)"><circle class="p" cx="20" cy="20" r="20"/><circle class="q" cx="20" cy="20" r="19.5"/></g><text class="f" transform="translate(7495 1384)"><tspan x="-6.021" y="0">C</tspan></text><text class="f" transform="translate(7739 1233)"><tspan x="-126.431" y="0">-0.39 + -0.01 = </tspan><tspan class="i" y="0">-0.40</tspan></text><text class="f" transform="translate(7739 1279)"><tspan x="-126.431" y="0">-0.39 + -1.00 = -1.39</tspan></text><text class="f" transform="translate(7740 1335)"><tspan x="-126.431" y="0">-0.45 + -0.52 = -0.97</tspan></text><text class="f" transform="translate(7740 1381)"><tspan x="-126.431" y="0">-0.45 + -0.52 = -0.97</tspan></text><text class="f" transform="translate(7740 1427)"><tspan x="-126.431" y="0">-0.45 + -0.39 = </tspan><tspan class="i" y="0">-0.84</tspan></text><text class="f" transform="translate(6927 1491)"><tspan x="-12.041" y="0">3.</tspan></text><path class="h" d="M0,0V15.232" transform="translate(7076.847 1491.947) rotate(90)"/><g class="b" transform="translate(7022 1473)"><circle class="p" cx="20" cy="20" r="20"/><circle class="q" cx="20" cy="20" r="19.5"/></g><text class="f" transform="translate(7042 1500)"><tspan x="-6.021" y="0">S</tspan></text><g class="b" transform="translate(7077 1472)"><circle class="p" cx="20" cy="20" r="20"/><circle class="q" cx="20" cy="20" r="19.5"/></g><text class="f" transform="translate(7097 1501)"><tspan x="-6.021" y="0">A</tspan></text><text class="f" transform="translate(7219 1500)"><tspan x="-30.103" y="0">-0.40</tspan></text><text class="f" transform="translate(7219 1546)"><tspan x="-30.103" y="0">-0.84</tspan></text><path class="h" d="M0,0V15.232" transform="translate(7130.848 1492.947) rotate(90)"/><g class="b" transform="translate(7131 1473)"><circle class="p" cx="20" cy="20" r="20"/><circle class="q" cx="20" cy="20" r="19.5"/></g><text class="f" transform="translate(7151 1500)"><tspan x="-6.021" y="0">B</tspan></text><path class="h" d="M0,0V15.232" transform="translate(7076.847 1538.947) rotate(90)"/><g class="b" transform="translate(7022 1520)"><circle class="p" cx="20" cy="20" r="20"/><circle class="q" cx="20" cy="20" r="19.5"/></g><text class="f" transform="translate(7042 1547)"><tspan x="-6.021" y="0">S</tspan></text><g class="b" transform="translate(7077 1519)"><circle class="p" cx="20" cy="20" r="20"/><circle class="q" cx="20" cy="20" r="19.5"/></g><text class="f" transform="translate(7097 1546)"><tspan x="-6.021" y="0">C</tspan></text><path class="h" d="M0,0V15.232" transform="translate(7130.848 1539.947) rotate(90)"/><g class="b" transform="translate(7131 1520)"><circle class="p" cx="20" cy="20" r="20"/><circle class="q" cx="20" cy="20" r="19.5"/></g><text class="f" transform="translate(7151 1547)"><tspan x="-6.021" y="0">C</tspan></text><g class="c" transform="translate(8589.5 1702.429) rotate(90)"><g class="d" transform="translate(-203.5 1034) rotate(45)"><path class="p" d="M 4.48930025100708 10.31504917144775 L 0.8653011322021484 0.8604671359062195 L 10.36387062072754 4.440470218658447 L 7.402174472808838 7.402174949645996 L 4.48930025100708 10.31504917144775 Z"/><path class="r" d="M 1.730582237243652 1.720914840698242 L 4.680450439453125 9.416769027709961 L 7.048614501953125 7.048604965209961 L 9.462241172790527 4.6349778175354 L 1.730582237243652 1.720914840698242 M 4.76837158203125e-06 -4.76837158203125e-06 L 11.26548385620117 4.245954990386963 L 7.755724430084229 7.755715370178223 L 4.298134326934814 11.21330547332764 L 4.76837158203125e-06 -4.76837158203125e-06 Z"/></g><line class="e" y2="16" transform="translate(-203.482 1035.627)"/><line class="e" x1="0.018" y2="28.873" transform="translate(-203.5 1035.627)"/><g class="d" transform="translate(-203.5 1034) rotate(45)"><path class="p" d="M 4.48930025100708 10.31504917144775 L 0.8653011322021484 0.8604671359062195 L 10.36387062072754 4.440470218658447 L 7.402174472808838 7.402174949645996 L 4.48930025100708 10.31504917144775 Z"/><path class="r" d="M 1.730582237243652 1.720914840698242 L 4.680450439453125 9.416769027709961 L 7.048614501953125 7.048604965209961 L 9.462241172790527 4.6349778175354 L 1.730582237243652 1.720914840698242 M 4.76837158203125e-06 -4.76837158203125e-06 L 11.26548385620117 4.245954990386963 L 7.755724430084229 7.755715370178223 L 4.298134326934814 11.21330547332764 L 4.76837158203125e-06 -4.76837158203125e-06 Z"/></g><line class="e" y2="16" transform="translate(-203.482 1035.627)"/><line class="e" x1="0.018" y2="28.873" transform="translate(-203.5 1035.627)"/></g><g class="b" transform="translate(7561 1479)"><circle class="p" cx="20" cy="20" r="20"/><circle class="q" cx="20" cy="20" r="19.5"/></g><text class="f" transform="translate(7581 1506)"><tspan x="-6.021" y="0">A</tspan></text><g class="g" transform="translate(7561 1525)"><circle class="p" cx="20" cy="20" r="20"/><circle class="q" cx="20" cy="20" r="19"/></g><text class="f" transform="translate(7581 1552)"><tspan x="-6.021" y="0">B</tspan></text><g class="g" transform="translate(7561 1571)"><circle class="p" cx="20" cy="20" r="20"/><circle class="q" cx="20" cy="20" r="19"/></g><text class="f" transform="translate(7581 1598)"><tspan x="-6.021" y="0">C</tspan></text><path class="h" d="M.018,0" transform="translate(7553.873 1544.929) rotate(90)"/><g class="c" transform="translate(7770 498)"><g class="d" transform="translate(-214.5 1046.929) rotate(135)"><path class="p" d="M 4.48930025100708 10.31504917144775 L 0.8653011322021484 0.8604671359062195 L 10.36387062072754 4.440470218658447 L 7.402174472808838 7.402174949645996 L 4.48930025100708 10.31504917144775 Z"/><path class="r" d="M 1.730582237243652 1.720914840698242 L 4.680450439453125 9.416769027709961 L 7.048614501953125 7.048604965209961 L 9.462241172790527 4.6349778175354 L 1.730582237243652 1.720914840698242 M 4.76837158203125e-06 -4.76837158203125e-06 L 11.26548385620117 4.245954990386963 L 7.755724430084229 7.755715370178223 L 4.298134326934814 11.21330547332764 L 4.76837158203125e-06 -4.76837158203125e-06 Z"/></g><line class="e" y2="16" transform="translate(-216.127 1046.947) rotate(90)"/><g class="d" transform="translate(-214.5 1046.929) rotate(135)"><path class="p" d="M 4.48930025100708 10.31504917144775 L 0.8653011322021484 0.8604671359062195 L 10.36387062072754 4.440470218658447 L 7.402174472808838 7.402174949645996 L 4.48930025100708 10.31504917144775 Z"/><path class="r" d="M 1.730582237243652 1.720914840698242 L 4.680450439453125 9.416769027709961 L 7.048614501953125 7.048604965209961 L 9.462241172790527 4.6349778175354 L 1.730582237243652 1.720914840698242 M 4.76837158203125e-06 -4.76837158203125e-06 L 11.26548385620117 4.245954990386963 L 7.755724430084229 7.755715370178223 L 4.298134326934814 11.21330547332764 L 4.76837158203125e-06 -4.76837158203125e-06 Z"/></g><path class="e" d="M0,0V38.258" transform="translate(-216.127 1046.947) rotate(90)"/></g><g class="c" transform="translate(8589.5 1796.429) rotate(90)"><g class="d" transform="translate(-203.5 1034) rotate(45)"><path class="p" d="M 4.48930025100708 10.31504917144775 L 0.8653011322021484 0.8604671359062195 L 10.36387062072754 4.440470218658447 L 7.402174472808838 7.402174949645996 L 4.48930025100708 10.31504917144775 Z"/><path class="r" d="M 1.730582237243652 1.720914840698242 L 4.680450439453125 9.416769027709961 L 7.048614501953125 7.048604965209961 L 9.462241172790527 4.6349778175354 L 1.730582237243652 1.720914840698242 M 4.76837158203125e-06 -4.76837158203125e-06 L 11.26548385620117 4.245954990386963 L 7.755724430084229 7.755715370178223 L 4.298134326934814 11.21330547332764 L 4.76837158203125e-06 -4.76837158203125e-06 Z"/></g><line class="e" y2="16" transform="translate(-203.482 1035.627)"/><line class="e" x1="0.018" y2="28.873" transform="translate(-203.5 1035.627)"/><g class="d" transform="translate(-203.5 1034) rotate(45)"><path class="p" d="M 4.48930025100708 10.31504917144775 L 0.8653011322021484 0.8604671359062195 L 10.36387062072754 4.440470218658447 L 7.402174472808838 7.402174949645996 L 4.48930025100708 10.31504917144775 Z"/><path class="r" d="M 1.730582237243652 1.720914840698242 L 4.680450439453125 9.416769027709961 L 7.048614501953125 7.048604965209961 L 9.462241172790527 4.6349778175354 L 1.730582237243652 1.720914840698242 M 4.76837158203125e-06 -4.76837158203125e-06 L 11.26548385620117 4.245954990386963 L 7.755724430084229 7.755715370178223 L 4.298134326934814 11.21330547332764 L 4.76837158203125e-06 -4.76837158203125e-06 Z"/></g><line class="e" y2="16" transform="translate(-203.482 1035.627)"/><line class="e" x1="0.018" y2="28.873" transform="translate(-203.5 1035.627)"/></g><path class="h" d="M2.512,1.5V95.3" transform="translate(7522.988 1497.447)"/><text class="f" transform="translate(7613 1506)"><tspan x="0" y="0">-0.40 + -0.70 = -1.10</tspan></text><text class="f" transform="translate(7613 1552)"><tspan x="0" y="0">-0.40 + -0.50 =</tspan><tspan class="j" y="0"> </tspan><tspan class="i" y="0">-0.90</tspan></text><text class="f" transform="translate(7613 1598)"><tspan x="0" y="0">-0.40 + -0.55 =</tspan><tspan class="k" y="0"> </tspan><tspan class="i" y="0">-0.95</tspan></text><path class="h" d="M0,0V15.232" transform="translate(7420.848 1544.947) rotate(90)"/><g class="b" transform="translate(7366 1526)"><circle class="p" cx="20" cy="20" r="20"/><circle class="q" cx="20" cy="20" r="19.5"/></g><text class="f" transform="translate(7386 1553)"><tspan x="-6.021" y="0">S</tspan></text><g class="b" transform="translate(7421 1525)"><circle class="p" cx="20" cy="20" r="20"/><circle class="q" cx="20" cy="20" r="19.5"/></g><text class="f" transform="translate(7441 1554)"><tspan x="-6.021" y="0">A</tspan></text><path class="h" d="M0,0V15.232" transform="translate(7474.848 1545.947) rotate(90)"/><g class="b" transform="translate(7475 1526)"><circle class="p" cx="20" cy="20" r="20"/><circle class="q" cx="20" cy="20" r="19.5"/></g><text class="f" transform="translate(7495 1553)"><tspan x="-6.021" y="0">B</tspan></text><g class="c" transform="translate(8589.5 1843.429) rotate(90)"><g class="d" transform="translate(-203.5 1034) rotate(45)"><path class="p" d="M 4.48930025100708 10.31504917144775 L 0.8653011322021484 0.8604671359062195 L 10.36387062072754 4.440470218658447 L 7.402174472808838 7.402174949645996 L 4.48930025100708 10.31504917144775 Z"/><path class="r" d="M 1.730582237243652 1.720914840698242 L 4.680450439453125 9.416769027709961 L 7.048614501953125 7.048604965209961 L 9.462241172790527 4.6349778175354 L 1.730582237243652 1.720914840698242 M 4.76837158203125e-06 -4.76837158203125e-06 L 11.26548385620117 4.245954990386963 L 7.755724430084229 7.755715370178223 L 4.298134326934814 11.21330547332764 L 4.76837158203125e-06 -4.76837158203125e-06 Z"/></g><line class="e" y2="16" transform="translate(-203.482 1035.627)"/><line class="e" x1="0.018" y2="28.873" transform="translate(-203.5 1035.627)"/><g class="d" transform="translate(-203.5 1034) rotate(45)"><path class="p" d="M 4.48930025100708 10.31504917144775 L 0.8653011322021484 0.8604671359062195 L 10.36387062072754 4.440470218658447 L 7.402174472808838 7.402174949645996 L 4.48930025100708 10.31504917144775 Z"/><path class="r" d="M 1.730582237243652 1.720914840698242 L 4.680450439453125 9.416769027709961 L 7.048614501953125 7.048604965209961 L 9.462241172790527 4.6349778175354 L 1.730582237243652 1.720914840698242 M 4.76837158203125e-06 -4.76837158203125e-06 L 11.26548385620117 4.245954990386963 L 7.755724430084229 7.755715370178223 L 4.298134326934814 11.21330547332764 L 4.76837158203125e-06 -4.76837158203125e-06 Z"/></g><line class="e" y2="16" transform="translate(-203.482 1035.627)"/><line class="e" x1="0.018" y2="28.873" transform="translate(-203.5 1035.627)"/></g><g class="b" transform="translate(7561 1623)"><circle class="p" cx="20" cy="20" r="20"/><circle class="q" cx="20" cy="20" r="19.5"/></g><text class="f" transform="translate(7581 1650)"><tspan x="-6.021" y="0">A</tspan></text><g class="b" transform="translate(7561 1666)"><circle class="p" cx="20" cy="20" r="20"/><circle class="q" cx="20" cy="20" r="19.5"/></g><text class="f" transform="translate(7581 1693)"><tspan x="-6.021" y="0">B</tspan></text><g class="b" transform="translate(7561 1712)"><circle class="p" cx="20" cy="20" r="20"/><circle class="q" cx="20" cy="20" r="19.5"/></g><text class="f" transform="translate(7581 1739)"><tspan x="-6.021" y="0">C</tspan></text><path class="h" d="M.018,0" transform="translate(7553.873 1685.929) rotate(90)"/><g class="c" transform="translate(7770 639)"><g class="d" transform="translate(-214.5 1046.929) rotate(135)"><path class="p" d="M 4.48930025100708 10.31504917144775 L 0.8653011322021484 0.8604671359062195 L 10.36387062072754 4.440470218658447 L 7.402174472808838 7.402174949645996 L 4.48930025100708 10.31504917144775 Z"/><path class="r" d="M 1.730582237243652 1.720914840698242 L 4.680450439453125 9.416769027709961 L 7.048614501953125 7.048604965209961 L 9.462241172790527 4.6349778175354 L 1.730582237243652 1.720914840698242 M 4.76837158203125e-06 -4.76837158203125e-06 L 11.26548385620117 4.245954990386963 L 7.755724430084229 7.755715370178223 L 4.298134326934814 11.21330547332764 L 4.76837158203125e-06 -4.76837158203125e-06 Z"/></g><line class="e" y2="16" transform="translate(-216.127 1046.947) rotate(90)"/><g class="d" transform="translate(-214.5 1046.929) rotate(135)"><path class="p" d="M 4.48930025100708 10.31504917144775 L 0.8653011322021484 0.8604671359062195 L 10.36387062072754 4.440470218658447 L 7.402174472808838 7.402174949645996 L 4.48930025100708 10.31504917144775 Z"/><path class="r" d="M 1.730582237243652 1.720914840698242 L 4.680450439453125 9.416769027709961 L 7.048614501953125 7.048604965209961 L 9.462241172790527 4.6349778175354 L 1.730582237243652 1.720914840698242 M 4.76837158203125e-06 -4.76837158203125e-06 L 11.26548385620117 4.245954990386963 L 7.755724430084229 7.755715370178223 L 4.298134326934814 11.21330547332764 L 4.76837158203125e-06 -4.76837158203125e-06 Z"/></g><path class="e" d="M0,0V38.258" transform="translate(-216.127 1046.947) rotate(90)"/></g><g class="c" transform="translate(8589.5 1937.429) rotate(90)"><g class="d" transform="translate(-203.5 1034) rotate(45)"><path class="p" d="M 4.48930025100708 10.31504917144775 L 0.8653011322021484 0.8604671359062195 L 10.36387062072754 4.440470218658447 L 7.402174472808838 7.402174949645996 L 4.48930025100708 10.31504917144775 Z"/><path class="r" d="M 1.730582237243652 1.720914840698242 L 4.680450439453125 9.416769027709961 L 7.048614501953125 7.048604965209961 L 9.462241172790527 4.6349778175354 L 1.730582237243652 1.720914840698242 M 4.76837158203125e-06 -4.76837158203125e-06 L 11.26548385620117 4.245954990386963 L 7.755724430084229 7.755715370178223 L 4.298134326934814 11.21330547332764 L 4.76837158203125e-06 -4.76837158203125e-06 Z"/></g><line class="e" y2="16" transform="translate(-203.482 1035.627)"/><line class="e" x1="0.018" y2="28.873" transform="translate(-203.5 1035.627)"/><g class="d" transform="translate(-203.5 1034) rotate(45)"><path class="p" d="M 4.48930025100708 10.31504917144775 L 0.8653011322021484 0.8604671359062195 L 10.36387062072754 4.440470218658447 L 7.402174472808838 7.402174949645996 L 4.48930025100708 10.31504917144775 Z"/><path class="r" d="M 1.730582237243652 1.720914840698242 L 4.680450439453125 9.416769027709961 L 7.048614501953125 7.048604965209961 L 9.462241172790527 4.6349778175354 L 1.730582237243652 1.720914840698242 M 4.76837158203125e-06 -4.76837158203125e-06 L 11.26548385620117 4.245954990386963 L 7.755724430084229 7.755715370178223 L 4.298134326934814 11.21330547332764 L 4.76837158203125e-06 -4.76837158203125e-06 Z"/></g><line class="e" y2="16" transform="translate(-203.482 1035.627)"/><line class="e" x1="0.018" y2="28.873" transform="translate(-203.5 1035.627)"/></g><path class="h" d="M2.512,1.5V95.3" transform="translate(7522.988 1638.447)"/><text class="f" transform="translate(7613 1650)"><tspan x="0" y="0">-0.84 + -0.66 = -1.50</tspan></text><text class="l" transform="translate(7613 1693)"><tspan x="0" y="0">-0.84 + -0.51 = -1.35</tspan></text><text class="f" transform="translate(7613 1739)"><tspan x="0" y="0">-0.84 + -0.56 = -1.40</tspan></text><path class="h" d="M0,0V15.232" transform="translate(7420.848 1685.947) rotate(90)"/><g class="b" transform="translate(7366 1667)"><circle class="p" cx="20" cy="20" r="20"/><circle class="q" cx="20" cy="20" r="19.5"/></g><text class="f" transform="translate(7386 1694)"><tspan x="-6.021" y="0">S</tspan></text><g class="b" transform="translate(7421 1666)"><circle class="p" cx="20" cy="20" r="20"/><circle class="q" cx="20" cy="20" r="19.5"/></g><text class="f" transform="translate(7441 1695)"><tspan x="-6.021" y="0">C</tspan></text><path class="h" d="M0,0V15.232" transform="translate(7474.848 1686.947) rotate(90)"/><g class="b" transform="translate(7475 1667)"><circle class="p" cx="20" cy="20" r="20"/><circle class="q" cx="20" cy="20" r="19.5"/></g><text class="f" transform="translate(7495 1694)"><tspan x="-6.021" y="0">C</tspan></text><text class="m" transform="translate(6927 1798)"><tspan x="-12.041" y="0">4.</tspan></text><path class="e" d="M0,0V15.232" transform="translate(7021.847 1798.947) rotate(90)"/><g class="n" transform="translate(6967 1780)"><circle class="p" cx="20" cy="20" r="20"/><circle class="q" cx="20" cy="20" r="19.5"/></g><text class="m" transform="translate(6987 1807)"><tspan x="-6.021" y="0">S</tspan></text><g class="n" transform="translate(7022 1779)"><circle class="p" cx="20" cy="20" r="20"/><circle class="q" cx="20" cy="20" r="19.5"/></g><text class="m" transform="translate(7042 1808)"><tspan x="-6.021" y="0">A</tspan></text><text class="m" transform="translate(7219 1807)"><tspan x="-30.103" y="0">-0.90</tspan></text><text class="m" transform="translate(7219 1853)"><tspan x="-30.103" y="0">-0.95</tspan></text><path class="e" d="M0,0V15.232" transform="translate(7075.847 1799.947) rotate(90)"/><g class="n" transform="translate(7076 1780)"><circle class="p" cx="20" cy="20" r="20"/><circle class="q" cx="20" cy="20" r="19.5"/></g><text class="m" transform="translate(7096 1807)"><tspan x="-6.021" y="0">B</tspan></text><path class="e" d="M0,0V15.232" transform="translate(7021.847 1845.947) rotate(90)"/><g class="n" transform="translate(6967 1827)"><circle class="p" cx="20" cy="20" r="20"/><circle class="q" cx="20" cy="20" r="19.5"/></g><text class="m" transform="translate(6987 1854)"><tspan x="-6.021" y="0">S</tspan></text><g class="n" transform="translate(7022 1826)"><circle class="p" cx="20" cy="20" r="20"/><circle class="q" cx="20" cy="20" r="19.5"/></g><text class="m" transform="translate(7042 1853)"><tspan x="-6.021" y="0">A</tspan></text><path class="e" d="M0,0V15.232" transform="translate(7075.847 1846.947) rotate(90)"/><g class="n" transform="translate(7076 1827)"><circle class="p" cx="20" cy="20" r="20"/><circle class="q" cx="20" cy="20" r="19.5"/></g><text class="m" transform="translate(7096 1854)"><tspan x="-6.021" y="0">B</tspan></text><g transform="translate(8589.5 2009.429) rotate(90)"><g class="d" transform="translate(-203.5 1034) rotate(45)"><path class="p" d="M 4.48930025100708 10.31504917144775 L 0.8653011322021484 0.8604671359062195 L 10.36387062072754 4.440470218658447 L 7.402174472808838 7.402174949645996 L 4.48930025100708 10.31504917144775 Z"/><path class="r" d="M 1.730582237243652 1.720914840698242 L 4.680450439453125 9.416769027709961 L 7.048614501953125 7.048604965209961 L 9.462241172790527 4.6349778175354 L 1.730582237243652 1.720914840698242 M 4.76837158203125e-06 -4.76837158203125e-06 L 11.26548385620117 4.245954990386963 L 7.755724430084229 7.755715370178223 L 4.298134326934814 11.21330547332764 L 4.76837158203125e-06 -4.76837158203125e-06 Z"/></g><line class="e" y2="16" transform="translate(-203.482 1035.627)"/><line class="e" x1="0.018" y2="28.873" transform="translate(-203.5 1035.627)"/><g class="d" transform="translate(-203.5 1034) rotate(45)"><path class="p" d="M 4.48930025100708 10.31504917144775 L 0.8653011322021484 0.8604671359062195 L 10.36387062072754 4.440470218658447 L 7.402174472808838 7.402174949645996 L 4.48930025100708 10.31504917144775 Z"/><path class="r" d="M 1.730582237243652 1.720914840698242 L 4.680450439453125 9.416769027709961 L 7.048614501953125 7.048604965209961 L 9.462241172790527 4.6349778175354 L 1.730582237243652 1.720914840698242 M 4.76837158203125e-06 -4.76837158203125e-06 L 11.26548385620117 4.245954990386963 L 7.755724430084229 7.755715370178223 L 4.298134326934814 11.21330547332764 L 4.76837158203125e-06 -4.76837158203125e-06 Z"/></g><line class="e" y2="16" transform="translate(-203.482 1035.627)"/><line class="e" x1="0.018" y2="28.873" transform="translate(-203.5 1035.627)"/></g><g class="n" transform="translate(7561 1786)"><circle class="p" cx="20" cy="20" r="20"/><circle class="q" cx="20" cy="20" r="19.5"/></g><text class="m" transform="translate(7581 1813)"><tspan x="-6.021" y="0">A</tspan></text><g class="n" transform="translate(7561 1832)"><circle class="p" cx="20" cy="20" r="20"/><circle class="q" cx="20" cy="20" r="19.5"/></g><text class="m" transform="translate(7581 1859)"><tspan x="-6.021" y="0">B</tspan></text><g class="n" transform="translate(7561 1878)"><circle class="p" cx="20" cy="20" r="20"/><circle class="q" cx="20" cy="20" r="19.5"/></g><text class="m" transform="translate(7581 1905)"><tspan x="-6.021" y="0">C</tspan></text><path class="e" d="M.018,0" transform="translate(7553.873 1851.929) rotate(90)"/><g transform="translate(7770 805)"><g class="d" transform="translate(-214.5 1046.929) rotate(135)"><path class="p" d="M 4.48930025100708 10.31504917144775 L 0.8653011322021484 0.8604671359062195 L 10.36387062072754 4.440470218658447 L 7.402174472808838 7.402174949645996 L 4.48930025100708 10.31504917144775 Z"/><path class="r" d="M 1.730582237243652 1.720914840698242 L 4.680450439453125 9.416769027709961 L 7.048614501953125 7.048604965209961 L 9.462241172790527 4.6349778175354 L 1.730582237243652 1.720914840698242 M 4.76837158203125e-06 -4.76837158203125e-06 L 11.26548385620117 4.245954990386963 L 7.755724430084229 7.755715370178223 L 4.298134326934814 11.21330547332764 L 4.76837158203125e-06 -4.76837158203125e-06 Z"/></g><line class="e" y2="16" transform="translate(-216.127 1046.947) rotate(90)"/><g class="d" transform="translate(-214.5 1046.929) rotate(135)"><path class="p" d="M 4.48930025100708 10.31504917144775 L 0.8653011322021484 0.8604671359062195 L 10.36387062072754 4.440470218658447 L 7.402174472808838 7.402174949645996 L 4.48930025100708 10.31504917144775 Z"/><path class="r" d="M 1.730582237243652 1.720914840698242 L 4.680450439453125 9.416769027709961 L 7.048614501953125 7.048604965209961 L 9.462241172790527 4.6349778175354 L 1.730582237243652 1.720914840698242 M 4.76837158203125e-06 -4.76837158203125e-06 L 11.26548385620117 4.245954990386963 L 7.755724430084229 7.755715370178223 L 4.298134326934814 11.21330547332764 L 4.76837158203125e-06 -4.76837158203125e-06 Z"/></g><path class="e" d="M0,0V38.258" transform="translate(-216.127 1046.947) rotate(90)"/></g><g transform="translate(8589.5 2103.429) rotate(90)"><g class="d" transform="translate(-203.5 1034) rotate(45)"><path class="p" d="M 4.48930025100708 10.31504917144775 L 0.8653011322021484 0.8604671359062195 L 10.36387062072754 4.440470218658447 L 7.402174472808838 7.402174949645996 L 4.48930025100708 10.31504917144775 Z"/><path class="r" d="M 1.730582237243652 1.720914840698242 L 4.680450439453125 9.416769027709961 L 7.048614501953125 7.048604965209961 L 9.462241172790527 4.6349778175354 L 1.730582237243652 1.720914840698242 M 4.76837158203125e-06 -4.76837158203125e-06 L 11.26548385620117 4.245954990386963 L 7.755724430084229 7.755715370178223 L 4.298134326934814 11.21330547332764 L 4.76837158203125e-06 -4.76837158203125e-06 Z"/></g><line class="e" y2="16" transform="translate(-203.482 1035.627)"/><line class="e" x1="0.018" y2="28.873" transform="translate(-203.5 1035.627)"/><g class="d" transform="translate(-203.5 1034) rotate(45)"><path class="p" d="M 4.48930025100708 10.31504917144775 L 0.8653011322021484 0.8604671359062195 L 10.36387062072754 4.440470218658447 L 7.402174472808838 7.402174949645996 L 4.48930025100708 10.31504917144775 Z"/><path class="r" d="M 1.730582237243652 1.720914840698242 L 4.680450439453125 9.416769027709961 L 7.048614501953125 7.048604965209961 L 9.462241172790527 4.6349778175354 L 1.730582237243652 1.720914840698242 M 4.76837158203125e-06 -4.76837158203125e-06 L 11.26548385620117 4.245954990386963 L 7.755724430084229 7.755715370178223 L 4.298134326934814 11.21330547332764 L 4.76837158203125e-06 -4.76837158203125e-06 Z"/></g><line class="e" y2="16" transform="translate(-203.482 1035.627)"/><line class="e" x1="0.018" y2="28.873" transform="translate(-203.5 1035.627)"/></g><path class="e" d="M2.512,1.5V95.3" transform="translate(7522.988 1804.447)"/><text class="m" transform="translate(7613 1813)"><tspan x="0" y="0">-0.90 + -0.70 = -1.60</tspan></text><text class="m" transform="translate(7613 1859)"><tspan x="0" y="0">-0.90 + -0.30 = -1.20</tspan></text><text class="m" transform="translate(7613 1905)"><tspan x="0" y="0">-0.90 + -0.70 = -1.60</tspan></text><g transform="translate(8589.5 2150.429) rotate(90)"><g class="d" transform="translate(-203.5 1034) rotate(45)"><path class="p" d="M 4.48930025100708 10.31504917144775 L 0.8653011322021484 0.8604671359062195 L 10.36387062072754 4.440470218658447 L 7.402174472808838 7.402174949645996 L 4.48930025100708 10.31504917144775 Z"/><path class="r" d="M 1.730582237243652 1.720914840698242 L 4.680450439453125 9.416769027709961 L 7.048614501953125 7.048604965209961 L 9.462241172790527 4.6349778175354 L 1.730582237243652 1.720914840698242 M 4.76837158203125e-06 -4.76837158203125e-06 L 11.26548385620117 4.245954990386963 L 7.755724430084229 7.755715370178223 L 4.298134326934814 11.21330547332764 L 4.76837158203125e-06 -4.76837158203125e-06 Z"/></g><line class="e" y2="16" transform="translate(-203.482 1035.627)"/><line class="e" x1="0.018" y2="28.873" transform="translate(-203.5 1035.627)"/><g class="d" transform="translate(-203.5 1034) rotate(45)"><path class="p" d="M 4.48930025100708 10.31504917144775 L 0.8653011322021484 0.8604671359062195 L 10.36387062072754 4.440470218658447 L 7.402174472808838 7.402174949645996 L 4.48930025100708 10.31504917144775 Z"/><path class="r" d="M 1.730582237243652 1.720914840698242 L 4.680450439453125 9.416769027709961 L 7.048614501953125 7.048604965209961 L 9.462241172790527 4.6349778175354 L 1.730582237243652 1.720914840698242 M 4.76837158203125e-06 -4.76837158203125e-06 L 11.26548385620117 4.245954990386963 L 7.755724430084229 7.755715370178223 L 4.298134326934814 11.21330547332764 L 4.76837158203125e-06 -4.76837158203125e-06 Z"/></g><line class="e" y2="16" transform="translate(-203.482 1035.627)"/><line class="e" x1="0.018" y2="28.873" transform="translate(-203.5 1035.627)"/></g><g class="o" transform="translate(7561 1930)"><circle class="p" cx="20" cy="20" r="20"/><circle class="q" cx="20" cy="20" r="19"/></g><text class="m" transform="translate(7581 1957)"><tspan x="-6.021" y="0">A</tspan></text><g class="n" transform="translate(7561 1973)"><circle class="p" cx="20" cy="20" r="20"/><circle class="q" cx="20" cy="20" r="19.5"/></g><text class="m" transform="translate(7581 2000)"><tspan x="-6.021" y="0">B</tspan></text><g class="n" transform="translate(7561 2019)"><circle class="p" cx="20" cy="20" r="20"/><circle class="q" cx="20" cy="20" r="19.5"/></g><text class="m" transform="translate(7581 2046)"><tspan x="-6.021" y="0">C</tspan></text><path class="e" d="M.018,0" transform="translate(7553.873 1992.929) rotate(90)"/><g transform="translate(7770 946)"><g class="d" transform="translate(-214.5 1046.929) rotate(135)"><path class="p" d="M 4.48930025100708 10.31504917144775 L 0.8653011322021484 0.8604671359062195 L 10.36387062072754 4.440470218658447 L 7.402174472808838 7.402174949645996 L 4.48930025100708 10.31504917144775 Z"/><path class="r" d="M 1.730582237243652 1.720914840698242 L 4.680450439453125 9.416769027709961 L 7.048614501953125 7.048604965209961 L 9.462241172790527 4.6349778175354 L 1.730582237243652 1.720914840698242 M 4.76837158203125e-06 -4.76837158203125e-06 L 11.26548385620117 4.245954990386963 L 7.755724430084229 7.755715370178223 L 4.298134326934814 11.21330547332764 L 4.76837158203125e-06 -4.76837158203125e-06 Z"/></g><line class="e" y2="16" transform="translate(-216.127 1046.947) rotate(90)"/><g class="d" transform="translate(-214.5 1046.929) rotate(135)"><path class="p" d="M 4.48930025100708 10.31504917144775 L 0.8653011322021484 0.8604671359062195 L 10.36387062072754 4.440470218658447 L 7.402174472808838 7.402174949645996 L 4.48930025100708 10.31504917144775 Z"/><path class="r" d="M 1.730582237243652 1.720914840698242 L 4.680450439453125 9.416769027709961 L 7.048614501953125 7.048604965209961 L 9.462241172790527 4.6349778175354 L 1.730582237243652 1.720914840698242 M 4.76837158203125e-06 -4.76837158203125e-06 L 11.26548385620117 4.245954990386963 L 7.755724430084229 7.755715370178223 L 4.298134326934814 11.21330547332764 L 4.76837158203125e-06 -4.76837158203125e-06 Z"/></g><path class="e" d="M0,0V38.258" transform="translate(-216.127 1046.947) rotate(90)"/></g><g transform="translate(8589.5 2244.429) rotate(90)"><g class="d" transform="translate(-203.5 1034) rotate(45)"><path class="p" d="M 4.48930025100708 10.31504917144775 L 0.8653011322021484 0.8604671359062195 L 10.36387062072754 4.440470218658447 L 7.402174472808838 7.402174949645996 L 4.48930025100708 10.31504917144775 Z"/><path class="r" d="M 1.730582237243652 1.720914840698242 L 4.680450439453125 9.416769027709961 L 7.048614501953125 7.048604965209961 L 9.462241172790527 4.6349778175354 L 1.730582237243652 1.720914840698242 M 4.76837158203125e-06 -4.76837158203125e-06 L 11.26548385620117 4.245954990386963 L 7.755724430084229 7.755715370178223 L 4.298134326934814 11.21330547332764 L 4.76837158203125e-06 -4.76837158203125e-06 Z"/></g><line class="e" y2="16" transform="translate(-203.482 1035.627)"/><line class="e" x1="0.018" y2="28.873" transform="translate(-203.5 1035.627)"/><g class="d" transform="translate(-203.5 1034) rotate(45)"><path class="p" d="M 4.48930025100708 10.31504917144775 L 0.8653011322021484 0.8604671359062195 L 10.36387062072754 4.440470218658447 L 7.402174472808838 7.402174949645996 L 4.48930025100708 10.31504917144775 Z"/><path class="r" d="M 1.730582237243652 1.720914840698242 L 4.680450439453125 9.416769027709961 L 7.048614501953125 7.048604965209961 L 9.462241172790527 4.6349778175354 L 1.730582237243652 1.720914840698242 M 4.76837158203125e-06 -4.76837158203125e-06 L 11.26548385620117 4.245954990386963 L 7.755724430084229 7.755715370178223 L 4.298134326934814 11.21330547332764 L 4.76837158203125e-06 -4.76837158203125e-06 Z"/></g><line class="e" y2="16" transform="translate(-203.482 1035.627)"/><line class="e" x1="0.018" y2="28.873" transform="translate(-203.5 1035.627)"/></g><path class="e" d="M2.512,1.5V95.3" transform="translate(7522.988 1945.447)"/><text class="m" transform="translate(7613 1957)"><tspan x="0" y="0">-0.95 + -0.01 = </tspan><tspan class="i" y="0">-0.95</tspan></text><text class="m" transform="translate(7613 2000)"><tspan x="0" y="0">-0.95 + -1.00 = -1.95</tspan></text><text class="m" transform="translate(7613 2046)"><tspan x="0" y="0">-0.95 + -0.70 = -1.65</tspan></text><path class="e" d="M0,0V15.232" transform="translate(7130.848 1800.947) rotate(90)"/><g class="n" transform="translate(7131 1781)"><circle class="p" cx="20" cy="20" r="20"/><circle class="q" cx="20" cy="20" r="19.5"/></g><text class="m" transform="translate(7151 1808)"><tspan x="-6.021" y="0">B</tspan></text><path class="e" d="M0,0V15.232" transform="translate(7130.848 1847.947) rotate(90)"/><g class="n" transform="translate(7131 1828)"><circle class="p" cx="20" cy="20" r="20"/><circle class="q" cx="20" cy="20" r="19.5"/></g><text class="m" transform="translate(7151 1855)"><tspan x="-6.021" y="0">C</tspan></text><path class="e" d="M0,0V15.232" transform="translate(7366.848 1850.947) rotate(90)"/><g class="n" transform="translate(7312 1832)"><circle class="p" cx="20" cy="20" r="20"/><circle class="q" cx="20" cy="20" r="19.5"/></g><text class="m" transform="translate(7332 1859)"><tspan x="-6.021" y="0">S</tspan></text><g class="n" transform="translate(7367 1831)"><circle class="p" cx="20" cy="20" r="20"/><circle class="q" cx="20" cy="20" r="19.5"/></g><text class="m" transform="translate(7387 1860)"><tspan x="-6.021" y="0">A</tspan></text><path class="e" d="M0,0V15.232" transform="translate(7420.848 1851.947) rotate(90)"/><g class="n" transform="translate(7421 1832)"><circle class="p" cx="20" cy="20" r="20"/><circle class="q" cx="20" cy="20" r="19.5"/></g><text class="m" transform="translate(7441 1859)"><tspan x="-6.021" y="0">B</tspan></text><path class="e" d="M0,0V15.232" transform="translate(7475.848 1852.947) rotate(90)"/><g class="n" transform="translate(7476 1833)"><circle class="p" cx="20" cy="20" r="20"/><circle class="q" cx="20" cy="20" r="19.5"/></g><text class="m" transform="translate(7496 1860)"><tspan x="-6.021" y="0">B</tspan></text><path class="e" d="M0,0V15.232" transform="translate(7366.848 1991.947) rotate(90)"/><g class="n" transform="translate(7312 1973)"><circle class="p" cx="20" cy="20" r="20"/><circle class="q" cx="20" cy="20" r="19.5"/></g><text class="m" transform="translate(7332 2000)"><tspan x="-6.021" y="0">S</tspan></text><g class="n" transform="translate(7367 1972)"><circle class="p" cx="20" cy="20" r="20"/><circle class="q" cx="20" cy="20" r="19.5"/></g><text class="m" transform="translate(7387 1999)"><tspan x="-6.021" y="0">A</tspan></text><path class="e" d="M0,0V15.232" transform="translate(7420.848 1992.947) rotate(90)"/><g class="n" transform="translate(7421 1973)"><circle class="p" cx="20" cy="20" r="20"/><circle class="q" cx="20" cy="20" r="19.5"/></g><text class="m" transform="translate(7441 2000)"><tspan x="-6.021" y="0">B</tspan></text><path class="e" d="M0,0V15.232" transform="translate(7475.848 1993.947) rotate(90)"/><g class="n" transform="translate(7476 1974)"><circle class="p" cx="20" cy="20" r="20"/><circle class="q" cx="20" cy="20" r="19.5"/></g><text class="m" transform="translate(7496 2001)"><tspan x="-6.021" y="0">C</tspan></text></g></svg>