<svg xmlns="http://www.w3.org/2000/svg" viewBox="0 0 915 290"><defs><style>.a,.q{fill:#9dffa8;}.a,.b,.d,.e,.h,.j,.k{opacity:0.502;}.b,.d,.g,.n,.o,.p,.x{fill:#020000;}.b,.d,.g,.n{font-size:20px;}.b,.n,.x{font-family:Hack-Regular, Hack;}.c{font-size:10px;}.d,.g{font-family:Menlo-Regular, Menlo;}.f{fill:#fb9dff;}.h,.l,.z{fill:#707070;}.aa,.i,.k,.v{fill:none;}.i,.k,.s,.v{stroke:#707070;}.j,.r{fill:#10ebfd;}.m{fill:#9db4ff;}.o,.p,.x{font-size:15px;}.o{font-family:Hack-Italic, Hack;}.o,.p{font-style:italic;}.p{font-family:Menlo-Italic, Menlo;}.s,.t{fill:#fff;}.t{stroke:#fff;}.u{fill:#95abf4;}.v,.w{opacity:0.237;}.x{opacity:0.497;}.y,.z{stroke:none;}</style></defs><g transform="translate(-40 -467)"><rect class="a" width="40" height="40" transform="translate(230 467)"/><text class="b" transform="translate(250 494)"><tspan x="-12.041" y="0">W</tspan><tspan class="c" y="0">q1</tspan></text><rect class="a" width="40" height="40" transform="translate(230 533)"/><text class="d" transform="translate(250 561)"><tspan x="-12.041" y="0">W</tspan><tspan class="c" y="0">k1</tspan></text><rect class="a" width="40" height="40" transform="translate(230 602)"/><text class="b" transform="translate(250 629)"><tspan x="-12.041" y="0">W</tspan><tspan class="c" y="0">v1</tspan></text><g class="e" transform="translate(624 883)"><rect class="f" width="86" height="52" transform="translate(-331 -399)"/><text class="g" transform="translate(-287 -366)"><tspan x="-36.123" y="0">MatMul</tspan></text></g><g class="e" transform="translate(624 951)"><rect class="f" width="86" height="52" transform="translate(-331 -399)"/><text class="g" transform="translate(-287 -366)"><tspan x="-36.123" y="0">MatMul</tspan></text></g><g class="e" transform="translate(624 1019)"><rect class="f" width="86" height="52" transform="translate(-331 -399)"/><text class="g" transform="translate(-287 -366)"><tspan x="-36.123" y="0">MatMul</tspan></text></g><g class="h" transform="translate(291.232 491.56) rotate(135)"><path class="y" d="M 4.624250411987305 10.18009090423584 L 0.89665687084198 0.8917896747589111 L 10.22691440582275 4.577427387237549 L 7.402166843414307 7.40216588973999 L 4.624250411987305 10.18009090423584 Z"/><path class="z" d="M 1.793312072753906 1.783587455749512 L 4.806203842163086 9.291015625 L 7.048606872558594 7.048605918884277 L 9.334651947021484 4.762567520141602 L 1.793312072753906 1.783587455749512 M -2.86102294921875e-06 -3.814697265625e-06 L 11.11915683746338 4.392285823822021 L 7.755717277526855 7.755715847015381 L 4.442286968231201 11.0691556930542 L -2.86102294921875e-06 -3.814697265625e-06 Z"/></g><g class="e" transform="translate(290.605 491.578) rotate(90)"><line class="i" y2="19" transform="translate(0 0)"/></g><g class="h" transform="translate(291.232 561.56) rotate(135)"><path class="y" d="M 4.624250411987305 10.18009090423584 L 0.89665687084198 0.8917896747589111 L 10.22691440582275 4.577427387237549 L 7.402166843414307 7.40216588973999 L 4.624250411987305 10.18009090423584 Z"/><path class="z" d="M 1.793312072753906 1.783587455749512 L 4.806203842163086 9.291015625 L 7.048606872558594 7.048605918884277 L 9.334651947021484 4.762567520141602 L 1.793312072753906 1.783587455749512 M -2.86102294921875e-06 -3.814697265625e-06 L 11.11915683746338 4.392285823822021 L 7.755717277526855 7.755715847015381 L 4.442286968231201 11.0691556930542 L -2.86102294921875e-06 -3.814697265625e-06 Z"/></g><g class="e" transform="translate(290.605 561.578) rotate(90)"><line class="i" y2="19" transform="translate(0 0)"/></g><g class="h" transform="translate(291.232 632.56) rotate(135)"><path class="y" d="M 4.624250411987305 10.18009090423584 L 0.89665687084198 0.8917896747589111 L 10.22691440582275 4.577427387237549 L 7.402166843414307 7.40216588973999 L 4.624250411987305 10.18009090423584 Z"/><path class="z" d="M 1.793312072753906 1.783587455749512 L 4.806203842163086 9.291015625 L 7.048606872558594 7.048605918884277 L 9.334651947021484 4.762567520141602 L 1.793312072753906 1.783587455749512 M -2.86102294921875e-06 -3.814697265625e-06 L 11.11915683746338 4.392285823822021 L 7.755717277526855 7.755715847015381 L 4.442286968231201 11.0691556930542 L -2.86102294921875e-06 -3.814697265625e-06 Z"/></g><g class="e" transform="translate(290.605 632.578) rotate(90)"><line class="i" y2="19" transform="translate(0 0)"/></g><rect class="j" width="90" height="52" transform="translate(409 553)"/><text class="d" transform="translate(454 586)"><tspan x="-36.123" y="0">Attend</tspan></text><line class="k" x2="15" transform="translate(379.5 506.5)"/><g class="e" transform="translate(170.893 261.393) rotate(90)"><g class="l" transform="translate(317.167 -239.107) rotate(45)"><path class="y" d="M 4.79009485244751 10.35495471954346 L 0.9132568836212158 0.9083845615386963 L 10.40186786651611 4.743190288543701 L 7.572525501251221 7.572524547576904 L 4.79009485244751 10.35495471954346 Z"/><path class="z" d="M 1.826522827148438 1.816766738891602 L 4.967541694641113 9.470388412475586 L 7.218965530395508 7.218964099884033 L 9.514205932617188 4.923730373382568 L 1.826522827148438 1.816766738891602 M -4.76837158203125e-06 4.76837158203125e-06 L 11.28951549530029 4.562644481658936 L 7.926075458526611 7.926074028015137 L 4.612645149230957 11.23950386047363 L -4.76837158203125e-06 4.76837158203125e-06 Z"/></g><g transform="translate(317.185 -238.466)"><line class="i" y2="15"/></g></g><line class="k" x2="15" transform="translate(379.5 578.5)"/><line class="k" x2="15" transform="translate(379.5 649.5)"/><line class="k" y2="143" transform="translate(394.5 506.5)"/><rect class="m" width="40" height="40" transform="translate(165 529)"/><text class="n" transform="translate(184 556)"><tspan x="-6.021" y="0">Q</tspan></text><rect class="m" width="40" height="40" transform="translate(165 597)"/><text class="g" transform="translate(184 624)"><tspan x="-6.021" y="0">K</tspan></text><text class="o" transform="translate(185 584)"><tspan x="-13.546" y="0">q.d</tspan></text><text class="p" transform="translate(184 652)"><tspan x="-13.546" y="0">n.d</tspan></text><rect class="m" width="40" height="40" transform="translate(165 668)"/><text class="n" transform="translate(184 695)"><tspan x="-6.021" y="0">V</tspan></text><text class="p" transform="translate(184 723)"><tspan x="-13.546" y="0">n.v</tspan></text><rect class="m" width="40" height="40" transform="translate(40 597)"/><text class="n" transform="translate(60 624)"><tspan x="-6.021" y="0">U</tspan></text><text class="o" transform="translate(60 652)"><tspan x="-13.546" y="0">n.d</tspan></text><text class="p" transform="translate(97 753)"><tspan x="-54.185" y="0">n = q, d = v</tspan></text><rect class="q" width="40" height="40" transform="translate(212 503)"/><text class="n" transform="translate(232 530)"><tspan x="-12.041" y="0">W</tspan><tspan class="c" y="0">qh</tspan></text><rect class="q" width="40" height="40" transform="translate(212 569)"/><text class="g" transform="translate(232 597)"><tspan x="-12.041" y="0">W</tspan><tspan class="c" y="0">kh</tspan></text><rect class="q" width="40" height="40" transform="translate(212 638)"/><text class="n" transform="translate(232 665)"><tspan x="-12.041" y="0">W</tspan><tspan class="c" y="0">vh</tspan></text><line class="i" x2="42" transform="translate(86.5 618.5)"/><g transform="translate(-79.875 230.393) rotate(90)"><g class="l" transform="translate(317.167 -239.107) rotate(45)"><path class="y" d="M 4.624250411987305 10.18009090423584 L 0.89665687084198 0.8917896747589111 L 10.22691440582275 4.577427387237549 L 7.402166843414307 7.40216588973999 L 4.624250411987305 10.18009090423584 Z"/><path class="z" d="M 1.793312072753906 1.783587455749512 L 4.806203842163086 9.291015625 L 7.048606872558594 7.048605918884277 L 9.334651947021484 4.762567520141602 L 1.793312072753906 1.783587455749512 M -2.86102294921875e-06 -3.814697265625e-06 L 11.11915683746338 4.392285823822021 L 7.755717277526855 7.755715847015381 L 4.442286968231201 11.0691556930542 L -2.86102294921875e-06 -3.814697265625e-06 Z"/></g><g transform="translate(317.185 -238.479)"><line class="i" y2="30"/></g></g><line class="i" y2="142" transform="translate(128.5 547.5)"/><g transform="translate(-79.875 372.393) rotate(90)"><g class="l" transform="translate(317.167 -239.107) rotate(45)"><path class="y" d="M 4.624250411987305 10.18009090423584 L 0.89665687084198 0.8917896747589111 L 10.22691440582275 4.577427387237549 L 7.402166843414307 7.40216588973999 L 4.624250411987305 10.18009090423584 Z"/><path class="z" d="M 1.793312072753906 1.783587455749512 L 4.806203842163086 9.291015625 L 7.048606872558594 7.048605918884277 L 9.334651947021484 4.762567520141602 L 1.793312072753906 1.783587455749512 M -2.86102294921875e-06 -3.814697265625e-06 L 11.11915683746338 4.392285823822021 L 7.755717277526855 7.755715847015381 L 4.442286968231201 11.0691556930542 L -2.86102294921875e-06 -3.814697265625e-06 Z"/></g><g transform="translate(317.185 -238.479)"><line class="i" y2="30" transform="translate(0)"/></g></g><g transform="translate(-79.875 301.393) rotate(90)"><g class="l" transform="translate(317.167 -239.107) rotate(45)"><path class="y" d="M 4.624250411987305 10.18009090423584 L 0.89665687084198 0.8917896747589111 L 10.22691440582275 4.577427387237549 L 7.402166843414307 7.40216588973999 L 4.624250411987305 10.18009090423584 Z"/><path class="z" d="M 1.793312072753906 1.783587455749512 L 4.806203842163086 9.291015625 L 7.048606872558594 7.048605918884277 L 9.334651947021484 4.762567520141602 L 1.793312072753906 1.783587455749512 M -2.86102294921875e-06 -3.814697265625e-06 L 11.11915683746338 4.392285823822021 L 7.755717277526855 7.755715847015381 L 4.442286968231201 11.0691556930542 L -2.86102294921875e-06 -3.814697265625e-06 Z"/></g><g transform="translate(317.185 -238.479)"><line class="i" y2="30"/></g></g><g transform="translate(-79.875 230.393) rotate(90)"><g class="l" transform="translate(317.167 -239.107) rotate(45)"><path class="y" d="M 4.624250411987305 10.18009090423584 L 0.89665687084198 0.8917896747589111 L 10.22691440582275 4.577427387237549 L 7.402166843414307 7.40216588973999 L 4.624250411987305 10.18009090423584 Z"/><path class="z" d="M 1.793312072753906 1.783587455749512 L 4.806203842163086 9.291015625 L 7.048606872558594 7.048605918884277 L 9.334651947021484 4.762567520141602 L 1.793312072753906 1.783587455749512 M -2.86102294921875e-06 -3.814697265625e-06 L 11.11915683746338 4.392285823822021 L 7.755717277526855 7.755715847015381 L 4.442286968231201 11.0691556930542 L -2.86102294921875e-06 -3.814697265625e-06 Z"/></g></g><g transform="translate(606 919)"><rect class="f" width="86" height="52" transform="translate(-331 -399)"/><text class="g" transform="translate(-287 -366)"><tspan x="-36.123" y="0">MatMul</tspan></text></g><g transform="translate(606 987)"><rect class="f" width="86" height="52" transform="translate(-331 -399)"/><text class="g" transform="translate(-287 -366)"><tspan x="-36.123" y="0">MatMul</tspan></text></g><g transform="translate(606 1055)"><rect class="f" width="86" height="52" transform="translate(-331 -399)"/><text class="g" transform="translate(-287 -366)"><tspan x="-36.123" y="0">MatMul</tspan></text></g><g class="l" transform="translate(273.232 527.56) rotate(135)"><path class="y" d="M 4.624250411987305 10.18009090423584 L 0.89665687084198 0.8917896747589111 L 10.22691440582275 4.577427387237549 L 7.402166843414307 7.40216588973999 L 4.624250411987305 10.18009090423584 Z"/><path class="z" d="M 1.793312072753906 1.783587455749512 L 4.806203842163086 9.291015625 L 7.048606872558594 7.048605918884277 L 9.334651947021484 4.762567520141602 L 1.793312072753906 1.783587455749512 M -2.86102294921875e-06 -3.814697265625e-06 L 11.11915683746338 4.392285823822021 L 7.755717277526855 7.755715847015381 L 4.442286968231201 11.0691556930542 L -2.86102294921875e-06 -3.814697265625e-06 Z"/></g><g transform="translate(272.605 527.578) rotate(90)"><line class="i" y2="19" transform="translate(0 0)"/></g><g class="l" transform="translate(273.232 597.56) rotate(135)"><path class="y" d="M 4.624250411987305 10.18009090423584 L 0.89665687084198 0.8917896747589111 L 10.22691440582275 4.577427387237549 L 7.402166843414307 7.40216588973999 L 4.624250411987305 10.18009090423584 Z"/><path class="z" d="M 1.793312072753906 1.783587455749512 L 4.806203842163086 9.291015625 L 7.048606872558594 7.048605918884277 L 9.334651947021484 4.762567520141602 L 1.793312072753906 1.783587455749512 M -2.86102294921875e-06 -3.814697265625e-06 L 11.11915683746338 4.392285823822021 L 7.755717277526855 7.755715847015381 L 4.442286968231201 11.0691556930542 L -2.86102294921875e-06 -3.814697265625e-06 Z"/></g><g transform="translate(272.605 597.578) rotate(90)"><line class="i" y2="19" transform="translate(0 0)"/></g><g class="l" transform="translate(273.232 668.56) rotate(135)"><path class="y" d="M 4.624250411987305 10.18009090423584 L 0.89665687084198 0.8917896747589111 L 10.22691440582275 4.577427387237549 L 7.402166843414307 7.40216588973999 L 4.624250411987305 10.18009090423584 Z"/><path class="z" d="M 1.793312072753906 1.783587455749512 L 4.806203842163086 9.291015625 L 7.048606872558594 7.048605918884277 L 9.334651947021484 4.762567520141602 L 1.793312072753906 1.783587455749512 M -2.86102294921875e-06 -3.814697265625e-06 L 11.11915683746338 4.392285823822021 L 7.755717277526855 7.755715847015381 L 4.442286968231201 11.0691556930542 L -2.86102294921875e-06 -3.814697265625e-06 Z"/></g><g transform="translate(272.605 668.578) rotate(90)"><line class="i" y2="19" transform="translate(0 0)"/></g><g class="l" transform="translate(273.232 558.56) rotate(135)"><path class="y" d="M 4.624250411987305 10.18009090423584 L 0.89665687084198 0.8917896747589111 L 10.22691440582275 4.577427387237549 L 7.402166843414307 7.40216588973999 L 4.624250411987305 10.18009090423584 Z"/><path class="z" d="M 1.793312072753906 1.783587455749512 L 4.806203842163086 9.291015625 L 7.048606872558594 7.048605918884277 L 9.334651947021484 4.762567520141602 L 1.793312072753906 1.783587455749512 M -2.86102294921875e-06 -3.814697265625e-06 L 11.11915683746338 4.392285823822021 L 7.755717277526855 7.755715847015381 L 4.442286968231201 11.0691556930542 L -2.86102294921875e-06 -3.814697265625e-06 Z"/></g><g transform="translate(272.605 558.578) rotate(90)"><line class="i" y2="65" transform="translate(0 0)"/></g><g class="l" transform="translate(273.232 628.56) rotate(135)"><path class="y" d="M 4.624250411987305 10.18009090423584 L 0.89665687084198 0.8917896747589111 L 10.22691440582275 4.577427387237549 L 7.402166843414307 7.40216588973999 L 4.624250411987305 10.18009090423584 Z"/><path class="z" d="M 1.793312072753906 1.783587455749512 L 4.806203842163086 9.291015625 L 7.048606872558594 7.048605918884277 L 9.334651947021484 4.762567520141602 L 1.793312072753906 1.783587455749512 M -2.86102294921875e-06 -3.814697265625e-06 L 11.11915683746338 4.392285823822021 L 7.755717277526855 7.755715847015381 L 4.442286968231201 11.0691556930542 L -2.86102294921875e-06 -3.814697265625e-06 Z"/></g><g transform="translate(272.605 628.578) rotate(90)"><line class="i" y2="65" transform="translate(0 0)"/></g><g class="l" transform="translate(273.232 699.56) rotate(135)"><path class="y" d="M 4.624250411987305 10.18009090423584 L 0.89665687084198 0.8917896747589111 L 10.22691440582275 4.577427387237549 L 7.402166843414307 7.40216588973999 L 4.624250411987305 10.18009090423584 Z"/><path class="z" d="M 1.793312072753906 1.783587455749512 L 4.806203842163086 9.291015625 L 7.048606872558594 7.048605918884277 L 9.334651947021484 4.762567520141602 L 1.793312072753906 1.783587455749512 M -2.86102294921875e-06 -3.814697265625e-06 L 11.11915683746338 4.392285823822021 L 7.755717277526855 7.755715847015381 L 4.442286968231201 11.0691556930542 L -2.86102294921875e-06 -3.814697265625e-06 Z"/></g><g transform="translate(272.605 699.578) rotate(90)"><line class="i" y2="65" transform="translate(0 0)"/></g><rect class="r" width="90" height="52" transform="translate(391 589)"/><text class="g" transform="translate(436 622)"><tspan x="-36.123" y="0">Attend</tspan></text><line class="i" x2="15" transform="translate(361.5 542.5)"/><g transform="translate(152.893 297.393) rotate(90)"><g class="l" transform="translate(317.167 -239.107) rotate(45)"><path class="y" d="M 4.79009485244751 10.35495471954346 L 0.9132568836212158 0.9083845615386963 L 10.40186786651611 4.743190288543701 L 7.572525501251221 7.572524547576904 L 4.79009485244751 10.35495471954346 Z"/><path class="z" d="M 1.826522827148438 1.816766738891602 L 4.967541694641113 9.470388412475586 L 7.218965530395508 7.218964099884033 L 9.514205932617188 4.923730373382568 L 1.826522827148438 1.816766738891602 M -4.76837158203125e-06 4.76837158203125e-06 L 11.28951549530029 4.562644481658936 L 7.926075458526611 7.926074028015137 L 4.612645149230957 11.23950386047363 L -4.76837158203125e-06 4.76837158203125e-06 Z"/></g><g transform="translate(317.185 -238.466)"><line class="i" y2="15"/></g></g><line class="i" x2="15" transform="translate(361.5 614.5)"/><line class="i" x2="15" transform="translate(361.5 685.5)"/><line class="i" y2="143" transform="translate(376.5 542.5)"/><line class="i" x2="47" transform="translate(481.5 632.5)"/><line class="i" y2="42" transform="translate(528.5 632.5)"/><g transform="translate(361.733 887.371)"><g class="l" transform="translate(317.167 -239.107) rotate(45)"><path class="y" d="M 4.624250411987305 10.18009090423584 L 0.89665687084198 0.8917896747589111 L 10.22691440582275 4.577427387237549 L 7.402166843414307 7.40216588973999 L 4.624250411987305 10.18009090423584 Z"/><path class="z" d="M 1.793312072753906 1.783587455749512 L 4.806203842163086 9.291015625 L 7.048606872558594 7.048605918884277 L 9.334651947021484 4.762567520141602 L 1.793312072753906 1.783587455749512 M -2.86102294921875e-06 -3.814697265625e-06 L 11.11915683746338 4.392285823822021 L 7.755717277526855 7.755715847015381 L 4.442286968231201 11.0691556930542 L -2.86102294921875e-06 -3.814697265625e-06 Z"/></g><g transform="translate(317.185 -238.479)"><line class="i" y2="26" transform="translate(0)"/></g></g><rect class="q" width="40" height="40" transform="translate(714 578)"/><text class="n" transform="translate(734 607)"><tspan x="-9.031" y="0">W</tspan><tspan class="c" y="0">o</tspan></text><text class="p" transform="translate(632 704)"><tspan x="-31.608" y="0">q.(h*w)</tspan></text><text class="p" transform="translate(733 571)"><tspan x="-31.608" y="0">(h*w).v</tspan></text><g class="s" transform="translate(555 593.992)"><rect class="y" width="154.712" height="51.199"/><rect class="aa" x="0.5" y="0.5" width="153.712" height="50.199"/></g><g class="t" transform="translate(561.601 591.629)"><rect class="y" width="140.41" height="55.451"/><rect class="aa" x="0.5" y="0.5" width="139.41" height="54.451"/></g><rect class="u" width="49" height="40" transform="translate(560 600)"/><text class="n" transform="translate(586 628)"><tspan x="-9.031" y="0">U</tspan><tspan class="c" y="0">1</tspan></text><rect class="u" width="49" height="40" transform="translate(655 600)"/><text class="n" transform="translate(680 627)"><tspan x="-9.031" y="0">U</tspan><tspan class="c" y="0">h</tspan></text><text class="n" transform="translate(632 619)"><tspan x="-18.062" y="0">...</tspan></text><line class="i" x2="150" transform="translate(528.5 674.5)"/><text class="p" transform="translate(586 656)"><tspan x="-13.546" y="0">q.w</tspan></text><g transform="translate(543.125 280.393) rotate(90)"><g class="l" transform="translate(317.167 -239.107) rotate(45)"><path class="y" d="M 4.624250411987305 10.18009090423584 L 0.89665687084198 0.8917896747589111 L 10.22691440582275 4.577427387237549 L 7.402166843414307 7.40216588973999 L 4.624250411987305 10.18009090423584 Z"/><path class="z" d="M 1.793312072753906 1.783587455749512 L 4.806203842163086 9.291015625 L 7.048606872558594 7.048605918884277 L 9.334651947021484 4.762567520141602 L 1.793312072753906 1.783587455749512 M -2.86102294921875e-06 -3.814697265625e-06 L 11.11915683746338 4.392285823822021 L 7.755717277526855 7.755715847015381 L 4.442286968231201 11.0691556930542 L -2.86102294921875e-06 -3.814697265625e-06 Z"/></g><g transform="translate(317.185 -238.479)"><line class="i" y2="26" transform="translate(0)"/></g></g><rect class="u" width="40" height="40" transform="translate(900 594)"/><text class="n" transform="translate(920 621)"><tspan x="-9.031" y="0">U</tspan><tspan class="c" y="0">a</tspan></text><text class="o" transform="translate(923 652)"><tspan x="-31.608" y="0">q.v=n.d</tspan></text><line class="v" y2="20" transform="translate(524.5 557.5)"/><g class="w" transform="translate(897.103 344.785) rotate(180)"><g class="l" transform="translate(317.167 -239.107) rotate(45)"><path class="y" d="M 4.624250411987305 10.18009090423584 L 0.89665687084198 0.8917896747589111 L 10.22691440582275 4.577427387237549 L 7.402166843414307 7.40216588973999 L 4.624250411987305 10.18009090423584 Z"/><path class="z" d="M 1.793312072753906 1.783587455749512 L 4.806203842163086 9.291015625 L 7.048606872558594 7.048605918884277 L 9.334651947021484 4.762567520141602 L 1.793312072753906 1.783587455749512 M -2.86102294921875e-06 -3.814697265625e-06 L 11.11915683746338 4.392285823822021 L 7.755717277526855 7.755715847015381 L 4.442286968231201 11.0691556930542 L -2.86102294921875e-06 -3.814697265625e-06 Z"/></g><g transform="translate(317.185 -238.479)"><line class="i" y2="26" transform="translate(0)"/></g></g><text class="x" transform="matrix(0.469, -0.883, 0.883, 0.469, 491.181, 609.286)"><tspan x="-13.546" y="0">...</tspan></text><line class="v" x2="55" transform="translate(524.5 557.5)"/><line class="v" x2="21" transform="translate(503.5 577.5)"/><g transform="translate(606 919)"><rect class="f" width="86" height="52" transform="translate(-331 -399)"/><text class="g" transform="translate(-287 -366)"><tspan x="-36.123" y="0">MatMul</tspan></text></g><g transform="translate(1115 987)"><rect class="f" width="86" height="52" transform="translate(-331 -399)"/><text class="g" transform="translate(-287 -366)"><tspan x="-36.123" y="0">MatMul</tspan></text></g><g transform="translate(272.605 699.578) rotate(90)"><line class="i" y2="65" transform="translate(0 0)"/></g><g class="l" transform="translate(781.232 630.56) rotate(135)"><path class="y" d="M 4.624250411987305 10.18009090423584 L 0.89665687084198 0.8917896747589111 L 10.22691440582275 4.577427387237549 L 7.402166843414307 7.40216588973999 L 4.624250411987305 10.18009090423584 Z"/><path class="z" d="M 1.793312072753906 1.783587455749512 L 4.806203842163086 9.291015625 L 7.048606872558594 7.048605918884277 L 9.334651947021484 4.762567520141602 L 1.793312072753906 1.783587455749512 M -2.86102294921875e-06 -3.814697265625e-06 L 11.11915683746338 4.392285823822021 L 7.755717277526855 7.755715847015381 L 4.442286968231201 11.0691556930542 L -2.86102294921875e-06 -3.814697265625e-06 Z"/></g><g transform="translate(780.605 630.578) rotate(90)"><line class="i" y2="65" transform="translate(0 0)"/></g><g transform="translate(780.605 630.578) rotate(90)"><line class="i" y2="65" transform="translate(0 0)"/></g><g transform="translate(660.125 296.393) rotate(90)"><g class="l" transform="translate(317.167 -239.107) rotate(45)"><path class="y" d="M 4.624250411987305 10.18009090423584 L 0.89665687084198 0.8917896747589111 L 10.22691440582275 4.577427387237549 L 7.402166843414307 7.40216588973999 L 4.624250411987305 10.18009090423584 Z"/><path class="z" d="M 1.793312072753906 1.783587455749512 L 4.806203842163086 9.291015625 L 7.048606872558594 7.048605918884277 L 9.334651947021484 4.762567520141602 L 1.793312072753906 1.783587455749512 M -2.86102294921875e-06 -3.814697265625e-06 L 11.11915683746338 4.392285823822021 L 7.755717277526855 7.755715847015381 L 4.442286968231201 11.0691556930542 L -2.86102294921875e-06 -3.814697265625e-06 Z"/></g><g transform="translate(317.185 -238.479)"><line class="i" y2="26" transform="translate(0)"/></g></g></g></svg>