<svg xmlns="http://www.w3.org/2000/svg" viewBox="0 0 269 678.501"><defs><style>.a,.d,.e,.f,.g{opacity:0.503;}.b,.n{fill:#707070;}.c,.g,.l,.o{fill:none;}.c,.d,.g,.h{stroke:#707070;}.d,.f,.h,.j{fill:#fff;}.e,.i{fill:#020000;}.e,.i,.k{font-size:20px;font-family:Hack-Regular, Hack;}.f,.j{stroke:#29dd3d;stroke-width:2px;}.l{stroke:#fff;}.m,.n{stroke:none;}</style></defs><g transform="translate(-4822 -2389)"><g class="a" transform="translate(5941.5 2765.429) rotate(90)"><g class="b" transform="translate(-203.5 1034) rotate(45)"><path class="m" d="M 4.48930025100708 10.31504917144775 L 0.8653011322021484 0.8604671359062195 L 10.36387062072754 4.440470218658447 L 7.402174472808838 7.402174949645996 L 4.48930025100708 10.31504917144775 Z"/><path class="n" d="M 1.730582237243652 1.720914840698242 L 4.680450439453125 9.416769027709961 L 7.048614501953125 7.048604965209961 L 9.462241172790527 4.6349778175354 L 1.730582237243652 1.720914840698242 M 4.76837158203125e-06 -4.76837158203125e-06 L 11.26548385620117 4.245954990386963 L 7.755724430084229 7.755715370178223 L 4.298134326934814 11.21330547332764 L 4.76837158203125e-06 -4.76837158203125e-06 Z"/></g><line class="c" y2="16" transform="translate(-203.482 1035.627)"/><line class="c" x1="0.018" y2="28.873" transform="translate(-203.5 1035.627)"/><g class="b" transform="translate(-203.5 1034) rotate(45)"><path class="m" d="M 4.48930025100708 10.31504917144775 L 0.8653011322021484 0.8604671359062195 L 10.36387062072754 4.440470218658447 L 7.402174472808838 7.402174949645996 L 4.48930025100708 10.31504917144775 Z"/><path class="n" d="M 1.730582237243652 1.720914840698242 L 4.680450439453125 9.416769027709961 L 7.048614501953125 7.048604965209961 L 9.462241172790527 4.6349778175354 L 1.730582237243652 1.720914840698242 M 4.76837158203125e-06 -4.76837158203125e-06 L 11.26548385620117 4.245954990386963 L 7.755724430084229 7.755715370178223 L 4.298134326934814 11.21330547332764 L 4.76837158203125e-06 -4.76837158203125e-06 Z"/></g><line class="c" y2="16" transform="translate(-203.482 1035.627)"/><line class="c" x1="0.018" y2="28.873" transform="translate(-203.5 1035.627)"/></g><g class="d" transform="translate(4828 2633)"><circle class="m" cx="20" cy="20" r="20"/><circle class="o" cx="20" cy="20" r="19.5"/></g><text class="e" transform="translate(4848 2660)"><tspan x="-6.021" y="0">S</tspan></text><g class="f" transform="translate(4916 2542)"><circle class="m" cx="20" cy="20" r="20"/><circle class="o" cx="20" cy="20" r="19"/></g><text class="e" transform="translate(4936 2569)"><tspan x="-6.021" y="0">A</tspan></text><g class="d" transform="translate(4916 2633)"><circle class="m" cx="20" cy="20" r="20"/><circle class="o" cx="20" cy="20" r="19.5"/></g><text class="e" transform="translate(4936 2660)"><tspan x="-6.021" y="0">B</tspan></text><g class="f" transform="translate(4916 2724)"><circle class="m" cx="20" cy="20" r="20"/><circle class="o" cx="20" cy="20" r="19"/></g><text class="e" transform="translate(4936 2751)"><tspan x="-6.021" y="0">C</tspan></text><path class="g" d="M.018,0" transform="translate(4905.873 2652.929) rotate(90)"/><g class="a" transform="translate(5122 1606)"><g class="b" transform="translate(-214.5 1046.929) rotate(135)"><path class="m" d="M 4.48930025100708 10.31504917144775 L 0.8653011322021484 0.8604671359062195 L 10.36387062072754 4.440470218658447 L 7.402174472808838 7.402174949645996 L 4.48930025100708 10.31504917144775 Z"/><path class="n" d="M 1.730582237243652 1.720914840698242 L 4.680450439453125 9.416769027709961 L 7.048614501953125 7.048604965209961 L 9.462241172790527 4.6349778175354 L 1.730582237243652 1.720914840698242 M 4.76837158203125e-06 -4.76837158203125e-06 L 11.26548385620117 4.245954990386963 L 7.755724430084229 7.755715370178223 L 4.298134326934814 11.21330547332764 L 4.76837158203125e-06 -4.76837158203125e-06 Z"/></g><line class="c" y2="16" transform="translate(-216.127 1046.947) rotate(90)"/><g class="b" transform="translate(-214.5 1046.929) rotate(135)"><path class="m" d="M 4.48930025100708 10.31504917144775 L 0.8653011322021484 0.8604671359062195 L 10.36387062072754 4.440470218658447 L 7.402174472808838 7.402174949645996 L 4.48930025100708 10.31504917144775 Z"/><path class="n" d="M 1.730582237243652 1.720914840698242 L 4.680450439453125 9.416769027709961 L 7.048614501953125 7.048604965209961 L 9.462241172790527 4.6349778175354 L 1.730582237243652 1.720914840698242 M 4.76837158203125e-06 -4.76837158203125e-06 L 11.26548385620117 4.245954990386963 L 7.755724430084229 7.755715370178223 L 4.298134326934814 11.21330547332764 L 4.76837158203125e-06 -4.76837158203125e-06 Z"/></g><path class="c" d="M0,0V38.258" transform="translate(-216.127 1046.947) rotate(90)"/></g><g class="a" transform="translate(5941.5 2947.429) rotate(90)"><g class="b" transform="translate(-203.5 1034) rotate(45)"><path class="m" d="M 4.48930025100708 10.31504917144775 L 0.8653011322021484 0.8604671359062195 L 10.36387062072754 4.440470218658447 L 7.402174472808838 7.402174949645996 L 4.48930025100708 10.31504917144775 Z"/><path class="n" d="M 1.730582237243652 1.720914840698242 L 4.680450439453125 9.416769027709961 L 7.048614501953125 7.048604965209961 L 9.462241172790527 4.6349778175354 L 1.730582237243652 1.720914840698242 M 4.76837158203125e-06 -4.76837158203125e-06 L 11.26548385620117 4.245954990386963 L 7.755724430084229 7.755715370178223 L 4.298134326934814 11.21330547332764 L 4.76837158203125e-06 -4.76837158203125e-06 Z"/></g><line class="c" y2="16" transform="translate(-203.482 1035.627)"/><line class="c" x1="0.018" y2="28.873" transform="translate(-203.5 1035.627)"/><g class="b" transform="translate(-203.5 1034) rotate(45)"><path class="m" d="M 4.48930025100708 10.31504917144775 L 0.8653011322021484 0.8604671359062195 L 10.36387062072754 4.440470218658447 L 7.402174472808838 7.402174949645996 L 4.48930025100708 10.31504917144775 Z"/><path class="n" d="M 1.730582237243652 1.720914840698242 L 4.680450439453125 9.416769027709961 L 7.048614501953125 7.048604965209961 L 9.462241172790527 4.6349778175354 L 1.730582237243652 1.720914840698242 M 4.76837158203125e-06 -4.76837158203125e-06 L 11.26548385620117 4.245954990386963 L 7.755724430084229 7.755715370178223 L 4.298134326934814 11.21330547332764 L 4.76837158203125e-06 -4.76837158203125e-06 Z"/></g><line class="c" y2="16" transform="translate(-203.482 1035.627)"/><line class="c" x1="0.018" y2="28.873" transform="translate(-203.5 1035.627)"/></g><path class="g" d="M13.013,1.5V183.838" transform="translate(4863.987 2560.5)"/><text class="e" transform="translate(4932 2605)"><tspan x="-30.103" y="0">-0.39</tspan></text><text class="e" transform="translate(4932 2696)"><tspan x="-30.103" y="0">-0.60</tspan></text><text class="e" transform="translate(4932 2789)"><tspan x="-30.103" y="0">-0.45</tspan></text><g transform="translate(6069.5 2672.429) rotate(90)"><g class="b" transform="translate(-203.5 1034) rotate(45)"><path class="m" d="M 4.48930025100708 10.31504917144775 L 0.8653011322021484 0.8604671359062195 L 10.36387062072754 4.440470218658447 L 7.402174472808838 7.402174949645996 L 4.48930025100708 10.31504917144775 Z"/><path class="n" d="M 1.730582237243652 1.720914840698242 L 4.680450439453125 9.416769027709961 L 7.048614501953125 7.048604965209961 L 9.462241172790527 4.6349778175354 L 1.730582237243652 1.720914840698242 M 4.76837158203125e-06 -4.76837158203125e-06 L 11.26548385620117 4.245954990386963 L 7.755724430084229 7.755715370178223 L 4.298134326934814 11.21330547332764 L 4.76837158203125e-06 -4.76837158203125e-06 Z"/></g><line class="c" y2="16" transform="translate(-203.482 1035.627)"/><line class="c" x1="0.018" y2="28.873" transform="translate(-203.5 1035.627)"/><g class="b" transform="translate(-203.5 1034) rotate(45)"><path class="m" d="M 4.48930025100708 10.31504917144775 L 0.8653011322021484 0.8604671359062195 L 10.36387062072754 4.440470218658447 L 7.402174472808838 7.402174949645996 L 4.48930025100708 10.31504917144775 Z"/><path class="n" d="M 1.730582237243652 1.720914840698242 L 4.680450439453125 9.416769027709961 L 7.048614501953125 7.048604965209961 L 9.462241172790527 4.6349778175354 L 1.730582237243652 1.720914840698242 M 4.76837158203125e-06 -4.76837158203125e-06 L 11.26548385620117 4.245954990386963 L 7.755724430084229 7.755715370178223 L 4.298134326934814 11.21330547332764 L 4.76837158203125e-06 -4.76837158203125e-06 Z"/></g><line class="c" y2="16" transform="translate(-203.482 1035.627)"/><line class="c" x1="0.018" y2="28.873" transform="translate(-203.5 1035.627)"/></g><g class="h" transform="translate(5044 2449)"><circle class="m" cx="20" cy="20" r="20"/><circle class="o" cx="20" cy="20" r="19.5"/></g><text class="i" transform="translate(5064 2476)"><tspan x="-6.021" y="0">A</tspan></text><g class="j" transform="translate(5044 2540)"><circle class="m" cx="20" cy="20" r="20"/><circle class="o" cx="20" cy="20" r="19"/></g><text class="i" transform="translate(5064 2567)"><tspan x="-6.021" y="0">B</tspan></text><g class="h" transform="translate(5044 2631)"><circle class="m" cx="20" cy="20" r="20"/><circle class="o" cx="20" cy="20" r="19.5"/></g><text class="i" transform="translate(5064 2658)"><tspan x="-6.021" y="0">C</tspan></text><path class="c" d="M.018,0" transform="translate(5033.873 2559.929) rotate(90)"/><g transform="translate(5250 1513)"><g class="b" transform="translate(-214.5 1046.929) rotate(135)"><path class="m" d="M 4.48930025100708 10.31504917144775 L 0.8653011322021484 0.8604671359062195 L 10.36387062072754 4.440470218658447 L 7.402174472808838 7.402174949645996 L 4.48930025100708 10.31504917144775 Z"/><path class="n" d="M 1.730582237243652 1.720914840698242 L 4.680450439453125 9.416769027709961 L 7.048614501953125 7.048604965209961 L 9.462241172790527 4.6349778175354 L 1.730582237243652 1.720914840698242 M 4.76837158203125e-06 -4.76837158203125e-06 L 11.26548385620117 4.245954990386963 L 7.755724430084229 7.755715370178223 L 4.298134326934814 11.21330547332764 L 4.76837158203125e-06 -4.76837158203125e-06 Z"/></g><line class="c" y2="16" transform="translate(-216.127 1046.947) rotate(90)"/><g class="b" transform="translate(-214.5 1046.929) rotate(135)"><path class="m" d="M 4.48930025100708 10.31504917144775 L 0.8653011322021484 0.8604671359062195 L 10.36387062072754 4.440470218658447 L 7.402174472808838 7.402174949645996 L 4.48930025100708 10.31504917144775 Z"/><path class="n" d="M 1.730582237243652 1.720914840698242 L 4.680450439453125 9.416769027709961 L 7.048614501953125 7.048604965209961 L 9.462241172790527 4.6349778175354 L 1.730582237243652 1.720914840698242 M 4.76837158203125e-06 -4.76837158203125e-06 L 11.26548385620117 4.245954990386963 L 7.755724430084229 7.755715370178223 L 4.298134326934814 11.21330547332764 L 4.76837158203125e-06 -4.76837158203125e-06 Z"/></g><path class="c" d="M0,0V64.292" transform="translate(-216.127 1046.947) rotate(90)"/></g><g transform="translate(6069.5 2854.429) rotate(90)"><g class="b" transform="translate(-203.5 1034) rotate(45)"><path class="m" d="M 4.48930025100708 10.31504917144775 L 0.8653011322021484 0.8604671359062195 L 10.36387062072754 4.440470218658447 L 7.402174472808838 7.402174949645996 L 4.48930025100708 10.31504917144775 Z"/><path class="n" d="M 1.730582237243652 1.720914840698242 L 4.680450439453125 9.416769027709961 L 7.048614501953125 7.048604965209961 L 9.462241172790527 4.6349778175354 L 1.730582237243652 1.720914840698242 M 4.76837158203125e-06 -4.76837158203125e-06 L 11.26548385620117 4.245954990386963 L 7.755724430084229 7.755715370178223 L 4.298134326934814 11.21330547332764 L 4.76837158203125e-06 -4.76837158203125e-06 Z"/></g><line class="c" y2="16" transform="translate(-203.482 1035.627)"/><line class="c" x1="0.018" y2="28.873" transform="translate(-203.5 1035.627)"/><g class="b" transform="translate(-203.5 1034) rotate(45)"><path class="m" d="M 4.48930025100708 10.31504917144775 L 0.8653011322021484 0.8604671359062195 L 10.36387062072754 4.440470218658447 L 7.402174472808838 7.402174949645996 L 4.48930025100708 10.31504917144775 Z"/><path class="n" d="M 1.730582237243652 1.720914840698242 L 4.680450439453125 9.416769027709961 L 7.048614501953125 7.048604965209961 L 9.462241172790527 4.6349778175354 L 1.730582237243652 1.720914840698242 M 4.76837158203125e-06 -4.76837158203125e-06 L 11.26548385620117 4.245954990386963 L 7.755724430084229 7.755715370178223 L 4.298134326934814 11.21330547332764 L 4.76837158203125e-06 -4.76837158203125e-06 Z"/></g><line class="c" y2="16" transform="translate(-203.482 1035.627)"/><line class="c" x1="0.018" y2="28.873" transform="translate(-203.5 1035.627)"/></g><path class="c" d="M13.013,1.5V183.838" transform="translate(4991.986 2467.5)"/><text class="i" transform="translate(5060 2512)"><tspan x="-30.103" y="0">-1.39</tspan></text><text class="i" transform="translate(5060 2603)"><tspan x="-30.103" y="0">-0.40</tspan></text><text class="i" transform="translate(5060 2696)"><tspan x="-30.103" y="0">-1.39</tspan></text><g transform="translate(6069.5 3038.429) rotate(90)"><g class="b" transform="translate(-203.5 1034) rotate(45)"><path class="m" d="M 4.48930025100708 10.31504917144775 L 0.8653011322021484 0.8604671359062195 L 10.36387062072754 4.440470218658447 L 7.402174472808838 7.402174949645996 L 4.48930025100708 10.31504917144775 Z"/><path class="n" d="M 1.730582237243652 1.720914840698242 L 4.680450439453125 9.416769027709961 L 7.048614501953125 7.048604965209961 L 9.462241172790527 4.6349778175354 L 1.730582237243652 1.720914840698242 M 4.76837158203125e-06 -4.76837158203125e-06 L 11.26548385620117 4.245954990386963 L 7.755724430084229 7.755715370178223 L 4.298134326934814 11.21330547332764 L 4.76837158203125e-06 -4.76837158203125e-06 Z"/></g><line class="c" y2="16" transform="translate(-203.482 1035.627)"/><line class="c" x1="0.018" y2="28.873" transform="translate(-203.5 1035.627)"/><g class="b" transform="translate(-203.5 1034) rotate(45)"><path class="m" d="M 4.48930025100708 10.31504917144775 L 0.8653011322021484 0.8604671359062195 L 10.36387062072754 4.440470218658447 L 7.402174472808838 7.402174949645996 L 4.48930025100708 10.31504917144775 Z"/><path class="n" d="M 1.730582237243652 1.720914840698242 L 4.680450439453125 9.416769027709961 L 7.048614501953125 7.048604965209961 L 9.462241172790527 4.6349778175354 L 1.730582237243652 1.720914840698242 M 4.76837158203125e-06 -4.76837158203125e-06 L 11.26548385620117 4.245954990386963 L 7.755724430084229 7.755715370178223 L 4.298134326934814 11.21330547332764 L 4.76837158203125e-06 -4.76837158203125e-06 Z"/></g><line class="c" y2="16" transform="translate(-203.482 1035.627)"/><line class="c" x1="0.018" y2="28.873" transform="translate(-203.5 1035.627)"/></g><g class="h" transform="translate(5044 2724)"><circle class="m" cx="20" cy="20" r="20"/><circle class="o" cx="20" cy="20" r="19.5"/></g><text class="i" transform="translate(5064 2751)"><tspan x="-6.021" y="0">A</tspan></text><g class="h" transform="translate(5044 2815)"><circle class="m" cx="20" cy="20" r="20"/><circle class="o" cx="20" cy="20" r="19.5"/></g><text class="i" transform="translate(5064 2842)"><tspan x="-6.021" y="0">B</tspan></text><g class="j" transform="translate(5044 2906)"><circle class="m" cx="20" cy="20" r="20"/><circle class="o" cx="20" cy="20" r="19"/></g><text class="i" transform="translate(5064 2933)"><tspan x="-6.021" y="0">C</tspan></text><path class="c" d="M.018,0" transform="translate(5033.873 2834.929) rotate(90)"/><g transform="translate(5252 1697)"><g class="b" transform="translate(-214.5 1046.929) rotate(135)"><path class="m" d="M 4.48930025100708 10.31504917144775 L 0.8653011322021484 0.8604671359062195 L 10.36387062072754 4.440470218658447 L 7.402174472808838 7.402174949645996 L 4.48930025100708 10.31504917144775 Z"/><path class="n" d="M 1.730582237243652 1.720914840698242 L 4.680450439453125 9.416769027709961 L 7.048614501953125 7.048604965209961 L 9.462241172790527 4.6349778175354 L 1.730582237243652 1.720914840698242 M 4.76837158203125e-06 -4.76837158203125e-06 L 11.26548385620117 4.245954990386963 L 7.755724430084229 7.755715370178223 L 4.298134326934814 11.21330547332764 L 4.76837158203125e-06 -4.76837158203125e-06 Z"/></g><line class="c" y2="16" transform="translate(-216.127 1046.947) rotate(90)"/><g class="b" transform="translate(-214.5 1046.929) rotate(135)"><path class="m" d="M 4.48930025100708 10.31504917144775 L 0.8653011322021484 0.8604671359062195 L 10.36387062072754 4.440470218658447 L 7.402174472808838 7.402174949645996 L 4.48930025100708 10.31504917144775 Z"/><path class="n" d="M 1.730582237243652 1.720914840698242 L 4.680450439453125 9.416769027709961 L 7.048614501953125 7.048604965209961 L 9.462241172790527 4.6349778175354 L 1.730582237243652 1.720914840698242 M 4.76837158203125e-06 -4.76837158203125e-06 L 11.26548385620117 4.245954990386963 L 7.755724430084229 7.755715370178223 L 4.298134326934814 11.21330547332764 L 4.76837158203125e-06 -4.76837158203125e-06 Z"/></g><path class="c" d="M0,0V64.292" transform="translate(-216.127 1046.947) rotate(90)"/></g><g transform="translate(6069.5 3129.429) rotate(90)"><g class="b" transform="translate(-203.5 1034) rotate(45)"><path class="m" d="M 4.48930025100708 10.31504917144775 L 0.8653011322021484 0.8604671359062195 L 10.36387062072754 4.440470218658447 L 7.402174472808838 7.402174949645996 L 4.48930025100708 10.31504917144775 Z"/><path class="n" d="M 1.730582237243652 1.720914840698242 L 4.680450439453125 9.416769027709961 L 7.048614501953125 7.048604965209961 L 9.462241172790527 4.6349778175354 L 1.730582237243652 1.720914840698242 M 4.76837158203125e-06 -4.76837158203125e-06 L 11.26548385620117 4.245954990386963 L 7.755724430084229 7.755715370178223 L 4.298134326934814 11.21330547332764 L 4.76837158203125e-06 -4.76837158203125e-06 Z"/></g><line class="c" y2="16" transform="translate(-203.482 1035.627)"/><line class="c" x1="0.018" y2="28.873" transform="translate(-203.5 1035.627)"/><g class="b" transform="translate(-203.5 1034) rotate(45)"><path class="m" d="M 4.48930025100708 10.31504917144775 L 0.8653011322021484 0.8604671359062195 L 10.36387062072754 4.440470218658447 L 7.402174472808838 7.402174949645996 L 4.48930025100708 10.31504917144775 Z"/><path class="n" d="M 1.730582237243652 1.720914840698242 L 4.680450439453125 9.416769027709961 L 7.048614501953125 7.048604965209961 L 9.462241172790527 4.6349778175354 L 1.730582237243652 1.720914840698242 M 4.76837158203125e-06 -4.76837158203125e-06 L 11.26548385620117 4.245954990386963 L 7.755724430084229 7.755715370178223 L 4.298134326934814 11.21330547332764 L 4.76837158203125e-06 -4.76837158203125e-06 Z"/></g><line class="c" y2="16" transform="translate(-203.482 1035.627)"/><line class="c" x1="0.018" y2="28.873" transform="translate(-203.5 1035.627)"/></g><path class="c" d="M13.013,1.5V183.838" transform="translate(4991.986 2742.5)"/><text class="i" transform="translate(5060 2787)"><tspan x="-30.103" y="0">-0.97</tspan></text><text class="i" transform="translate(5060 2878)"><tspan x="-30.103" y="0">-0.97</tspan></text><text class="k" transform="translate(5060 2971)"><tspan x="-30.103" y="0">-0.84</tspan></text><text class="i" transform="translate(4928 2408)"><tspan x="-12.041" y="0">1.</tspan></text><text class="i" transform="translate(5060 2408)"><tspan x="-12.041" y="0">2.</tspan></text><line class="l" x1="2" y2="678" transform="translate(4822.5 2389.5)"/></g></svg>