<svg xmlns="http://www.w3.org/2000/svg" viewBox="0 0 1013 1122"><defs><style>.a,.e{fill:#020000;font-size:20px;}.a{font-family:Menlo-Regular, Menlo;}.b,.f,.i{fill:#fff;}.b,.d{stroke:#707070;}.c,.m{fill:#707070;}.d,.l{fill:none;}.e{font-family:Hack-Regular, Hack;}.f{stroke:#fb9dff;}.g{fill:#fb9dff;}.g,.h,.j{font-family:Hack-Bold, Hack;font-weight:700;}.i{stroke:#29dd3d;}.j{fill:#29dd3d;}.k,.m{stroke:none;}</style></defs><g transform="translate(775.5 -937)"><text class="a" transform="translate(-469 956)"><tspan x="-36.123" y="0">Prefix</tspan></text><text class="a" transform="translate(-40 956)"><tspan x="-78.267" y="0">Possibilities</tspan></text><g class="b" transform="translate(-509 1028)"><circle class="k" cx="20" cy="20" r="20"/><circle class="l" cx="20" cy="20" r="19.5"/></g><g transform="translate(949.5 1209.429) rotate(90)"><g class="c" transform="translate(-203.5 1034) rotate(45)"><path class="k" d="M 4.48930025100708 10.31504917144775 L 0.8653011322021484 0.8604671359062195 L 10.36387062072754 4.440470218658447 L 7.402174472808838 7.402174949645996 L 4.48930025100708 10.31504917144775 Z"/><path class="m" d="M 1.730582237243652 1.720914840698242 L 4.680450439453125 9.416769027709961 L 7.048614501953125 7.048604965209961 L 9.462241172790527 4.6349778175354 L 1.730582237243652 1.720914840698242 M 4.76837158203125e-06 -4.76837158203125e-06 L 11.26548385620117 4.245954990386963 L 7.755724430084229 7.755715370178223 L 4.298134326934814 11.21330547332764 L 4.76837158203125e-06 -4.76837158203125e-06 Z"/></g><line class="d" y2="16" transform="translate(-203.482 1035.627)"/><line class="d" x1="0.018" y2="28.873" transform="translate(-203.5 1035.627)"/><g class="c" transform="translate(-203.5 1034) rotate(45)"><path class="k" d="M 4.48930025100708 10.31504917144775 L 0.8653011322021484 0.8604671359062195 L 10.36387062072754 4.440470218658447 L 7.402174472808838 7.402174949645996 L 4.48930025100708 10.31504917144775 Z"/><path class="m" d="M 1.730582237243652 1.720914840698242 L 4.680450439453125 9.416769027709961 L 7.048614501953125 7.048604965209961 L 9.462241172790527 4.6349778175354 L 1.730582237243652 1.720914840698242 M 4.76837158203125e-06 -4.76837158203125e-06 L 11.26548385620117 4.245954990386963 L 7.755724430084229 7.755715370178223 L 4.298134326934814 11.21330547332764 L 4.76837158203125e-06 -4.76837158203125e-06 Z"/></g><line class="d" y2="16" transform="translate(-203.482 1035.627)"/><line class="d" x1="0.018" y2="28.873" transform="translate(-203.5 1035.627)"/></g><text class="e" transform="translate(-489 1055)"><tspan x="-6.021" y="0">S</tspan></text><g class="b" transform="translate(-164 1032)"><circle class="k" cx="20" cy="20" r="20"/><circle class="l" cx="20" cy="20" r="19.5"/></g><text class="e" transform="translate(-144 1059)"><tspan x="-6.021" y="0">S</tspan></text><g class="f" transform="translate(-79 986)"><circle class="k" cx="20" cy="20" r="20"/><circle class="l" cx="20" cy="20" r="19.5"/></g><text class="e" transform="translate(-59 1013)"><tspan x="-6.021" y="0">A</tspan></text><g class="b" transform="translate(-79 1032)"><circle class="k" cx="20" cy="20" r="20"/><circle class="l" cx="20" cy="20" r="19.5"/></g><text class="e" transform="translate(-59 1059)"><tspan x="-6.021" y="0">B</tspan></text><g class="f" transform="translate(-79 1078)"><circle class="k" cx="20" cy="20" r="20"/><circle class="l" cx="20" cy="20" r="19.5"/></g><text class="e" transform="translate(-59 1105)"><tspan x="-6.021" y="0">C</tspan></text><path class="d" d="M.018,0" transform="translate(-86.127 1051.929) rotate(90)"/><g transform="translate(130 5)"><g class="c" transform="translate(-214.5 1046.929) rotate(135)"><path class="k" d="M 4.48930025100708 10.31504917144775 L 0.8653011322021484 0.8604671359062195 L 10.36387062072754 4.440470218658447 L 7.402174472808838 7.402174949645996 L 4.48930025100708 10.31504917144775 Z"/><path class="m" d="M 1.730582237243652 1.720914840698242 L 4.680450439453125 9.416769027709961 L 7.048614501953125 7.048604965209961 L 9.462241172790527 4.6349778175354 L 1.730582237243652 1.720914840698242 M 4.76837158203125e-06 -4.76837158203125e-06 L 11.26548385620117 4.245954990386963 L 7.755724430084229 7.755715370178223 L 4.298134326934814 11.21330547332764 L 4.76837158203125e-06 -4.76837158203125e-06 Z"/></g><line class="d" y2="16" transform="translate(-216.127 1046.947) rotate(90)"/><g class="c" transform="translate(-214.5 1046.929) rotate(135)"><path class="k" d="M 4.48930025100708 10.31504917144775 L 0.8653011322021484 0.8604671359062195 L 10.36387062072754 4.440470218658447 L 7.402174472808838 7.402174949645996 L 4.48930025100708 10.31504917144775 Z"/><path class="m" d="M 1.730582237243652 1.720914840698242 L 4.680450439453125 9.416769027709961 L 7.048614501953125 7.048604965209961 L 9.462241172790527 4.6349778175354 L 1.730582237243652 1.720914840698242 M 4.76837158203125e-06 -4.76837158203125e-06 L 11.26548385620117 4.245954990386963 L 7.755724430084229 7.755715370178223 L 4.298134326934814 11.21330547332764 L 4.76837158203125e-06 -4.76837158203125e-06 Z"/></g><path class="d" d="M0,0V38.258" transform="translate(-216.127 1046.947) rotate(90)"/></g><g transform="translate(949.5 1303.429) rotate(90)"><g class="c" transform="translate(-203.5 1034) rotate(45)"><path class="k" d="M 4.48930025100708 10.31504917144775 L 0.8653011322021484 0.8604671359062195 L 10.36387062072754 4.440470218658447 L 7.402174472808838 7.402174949645996 L 4.48930025100708 10.31504917144775 Z"/><path class="m" d="M 1.730582237243652 1.720914840698242 L 4.680450439453125 9.416769027709961 L 7.048614501953125 7.048604965209961 L 9.462241172790527 4.6349778175354 L 1.730582237243652 1.720914840698242 M 4.76837158203125e-06 -4.76837158203125e-06 L 11.26548385620117 4.245954990386963 L 7.755724430084229 7.755715370178223 L 4.298134326934814 11.21330547332764 L 4.76837158203125e-06 -4.76837158203125e-06 Z"/></g><line class="d" y2="16" transform="translate(-203.482 1035.627)"/><line class="d" x1="0.018" y2="28.873" transform="translate(-203.5 1035.627)"/><g class="c" transform="translate(-203.5 1034) rotate(45)"><path class="k" d="M 4.48930025100708 10.31504917144775 L 0.8653011322021484 0.8604671359062195 L 10.36387062072754 4.440470218658447 L 7.402174472808838 7.402174949645996 L 4.48930025100708 10.31504917144775 Z"/><path class="m" d="M 1.730582237243652 1.720914840698242 L 4.680450439453125 9.416769027709961 L 7.048614501953125 7.048604965209961 L 9.462241172790527 4.6349778175354 L 1.730582237243652 1.720914840698242 M 4.76837158203125e-06 -4.76837158203125e-06 L 11.26548385620117 4.245954990386963 L 7.755724430084229 7.755715370178223 L 4.298134326934814 11.21330547332764 L 4.76837158203125e-06 -4.76837158203125e-06 Z"/></g><line class="d" y2="16" transform="translate(-203.482 1035.627)"/><line class="d" x1="0.018" y2="28.873" transform="translate(-203.5 1035.627)"/></g><path class="d" d="M2.512,1.5V95.3" transform="translate(-117.012 1004.447)"/><text class="a" transform="translate(-713 957)"><tspan x="-24.082" y="0">Step</tspan></text><text class="e" transform="translate(-713 1054)"><tspan x="-12.041" y="0">1.</tspan></text><path class="d" d="M0,0V15.232" transform="translate(-509.153 1178.947) rotate(90)"/><g class="b" transform="translate(-564 1160)"><circle class="k" cx="20" cy="20" r="20"/><circle class="l" cx="20" cy="20" r="19.5"/></g><text class="e" transform="translate(-544 1187)"><tspan x="-6.021" y="0">S</tspan></text><g class="b" transform="translate(-509 1159)"><circle class="k" cx="20" cy="20" r="20"/><circle class="l" cx="20" cy="20" r="19.5"/></g><text class="e" transform="translate(-489 1188)"><tspan x="-6.021" y="0">A</tspan></text><path class="d" d="M0,0V15.232" transform="translate(-509.153 1224.947) rotate(90)"/><g class="b" transform="translate(-564 1206)"><circle class="k" cx="20" cy="20" r="20"/><circle class="l" cx="20" cy="20" r="19.5"/></g><text class="e" transform="translate(-544 1233)"><tspan x="-6.021" y="0">S</tspan></text><g class="b" transform="translate(-509 1205)"><circle class="k" cx="20" cy="20" r="20"/><circle class="l" cx="20" cy="20" r="19.5"/></g><text class="e" transform="translate(-489 1234)"><tspan x="-6.021" y="0">C</tspan></text><text class="e" transform="translate(-713 1184)"><tspan x="-12.041" y="0">2.</tspan></text><text class="e" transform="translate(-2 1011)"><tspan x="-30.103" y="0">-0.39</tspan></text><text class="e" transform="translate(-2 1059)"><tspan x="-30.103" y="0">-0.60</tspan></text><text class="e" transform="translate(-2 1105)"><tspan x="-30.103" y="0">-0.45</tspan></text><text class="e" transform="translate(-413 1185)"><tspan x="-30.103" y="0">-0.39</tspan></text><text class="e" transform="translate(-413 1231)"><tspan x="-30.103" y="0">-0.45</tspan></text><text class="e" transform="translate(-413 1054)"><tspan x="-24.082" y="0">0.00</tspan></text><g transform="translate(949.5 1383.429) rotate(90)"><g class="c" transform="translate(-203.5 1034) rotate(45)"><path class="k" d="M 4.48930025100708 10.31504917144775 L 0.8653011322021484 0.8604671359062195 L 10.36387062072754 4.440470218658447 L 7.402174472808838 7.402174949645996 L 4.48930025100708 10.31504917144775 Z"/><path class="m" d="M 1.730582237243652 1.720914840698242 L 4.680450439453125 9.416769027709961 L 7.048614501953125 7.048604965209961 L 9.462241172790527 4.6349778175354 L 1.730582237243652 1.720914840698242 M 4.76837158203125e-06 -4.76837158203125e-06 L 11.26548385620117 4.245954990386963 L 7.755724430084229 7.755715370178223 L 4.298134326934814 11.21330547332764 L 4.76837158203125e-06 -4.76837158203125e-06 Z"/></g><line class="d" y2="16" transform="translate(-203.482 1035.627)"/><line class="d" x1="0.018" y2="28.873" transform="translate(-203.5 1035.627)"/><g class="c" transform="translate(-203.5 1034) rotate(45)"><path class="k" d="M 4.48930025100708 10.31504917144775 L 0.8653011322021484 0.8604671359062195 L 10.36387062072754 4.440470218658447 L 7.402174472808838 7.402174949645996 L 4.48930025100708 10.31504917144775 Z"/><path class="m" d="M 1.730582237243652 1.720914840698242 L 4.680450439453125 9.416769027709961 L 7.048614501953125 7.048604965209961 L 9.462241172790527 4.6349778175354 L 1.730582237243652 1.720914840698242 M 4.76837158203125e-06 -4.76837158203125e-06 L 11.26548385620117 4.245954990386963 L 7.755724430084229 7.755715370178223 L 4.298134326934814 11.21330547332764 L 4.76837158203125e-06 -4.76837158203125e-06 Z"/></g><line class="d" y2="16" transform="translate(-203.482 1035.627)"/><line class="d" x1="0.018" y2="28.873" transform="translate(-203.5 1035.627)"/></g><g class="b" transform="translate(-79 1160)"><circle class="k" cx="20" cy="20" r="20"/><circle class="l" cx="20" cy="20" r="19.5"/></g><text class="e" transform="translate(-59 1187)"><tspan x="-6.021" y="0">A</tspan></text><g class="f" transform="translate(-79 1206)"><circle class="k" cx="20" cy="20" r="20"/><circle class="l" cx="20" cy="20" r="19.5"/></g><text class="e" transform="translate(-59 1233)"><tspan x="-6.021" y="0">B</tspan></text><g class="b" transform="translate(-79 1252)"><circle class="k" cx="20" cy="20" r="20"/><circle class="l" cx="20" cy="20" r="19.5"/></g><text class="e" transform="translate(-59 1279)"><tspan x="-6.021" y="0">C</tspan></text><path class="d" d="M.018,0" transform="translate(-86.127 1225.929) rotate(90)"/><g transform="translate(130 179)"><g class="c" transform="translate(-214.5 1046.929) rotate(135)"><path class="k" d="M 4.48930025100708 10.31504917144775 L 0.8653011322021484 0.8604671359062195 L 10.36387062072754 4.440470218658447 L 7.402174472808838 7.402174949645996 L 4.48930025100708 10.31504917144775 Z"/><path class="m" d="M 1.730582237243652 1.720914840698242 L 4.680450439453125 9.416769027709961 L 7.048614501953125 7.048604965209961 L 9.462241172790527 4.6349778175354 L 1.730582237243652 1.720914840698242 M 4.76837158203125e-06 -4.76837158203125e-06 L 11.26548385620117 4.245954990386963 L 7.755724430084229 7.755715370178223 L 4.298134326934814 11.21330547332764 L 4.76837158203125e-06 -4.76837158203125e-06 Z"/></g><line class="d" y2="16" transform="translate(-216.127 1046.947) rotate(90)"/><g class="c" transform="translate(-214.5 1046.929) rotate(135)"><path class="k" d="M 4.48930025100708 10.31504917144775 L 0.8653011322021484 0.8604671359062195 L 10.36387062072754 4.440470218658447 L 7.402174472808838 7.402174949645996 L 4.48930025100708 10.31504917144775 Z"/><path class="m" d="M 1.730582237243652 1.720914840698242 L 4.680450439453125 9.416769027709961 L 7.048614501953125 7.048604965209961 L 9.462241172790527 4.6349778175354 L 1.730582237243652 1.720914840698242 M 4.76837158203125e-06 -4.76837158203125e-06 L 11.26548385620117 4.245954990386963 L 7.755724430084229 7.755715370178223 L 4.298134326934814 11.21330547332764 L 4.76837158203125e-06 -4.76837158203125e-06 Z"/></g><path class="d" d="M0,0V38.258" transform="translate(-216.127 1046.947) rotate(90)"/></g><g transform="translate(949.5 1477.429) rotate(90)"><g class="c" transform="translate(-203.5 1034) rotate(45)"><path class="k" d="M 4.48930025100708 10.31504917144775 L 0.8653011322021484 0.8604671359062195 L 10.36387062072754 4.440470218658447 L 7.402174472808838 7.402174949645996 L 4.48930025100708 10.31504917144775 Z"/><path class="m" d="M 1.730582237243652 1.720914840698242 L 4.680450439453125 9.416769027709961 L 7.048614501953125 7.048604965209961 L 9.462241172790527 4.6349778175354 L 1.730582237243652 1.720914840698242 M 4.76837158203125e-06 -4.76837158203125e-06 L 11.26548385620117 4.245954990386963 L 7.755724430084229 7.755715370178223 L 4.298134326934814 11.21330547332764 L 4.76837158203125e-06 -4.76837158203125e-06 Z"/></g><line class="d" y2="16" transform="translate(-203.482 1035.627)"/><line class="d" x1="0.018" y2="28.873" transform="translate(-203.5 1035.627)"/><g class="c" transform="translate(-203.5 1034) rotate(45)"><path class="k" d="M 4.48930025100708 10.31504917144775 L 0.8653011322021484 0.8604671359062195 L 10.36387062072754 4.440470218658447 L 7.402174472808838 7.402174949645996 L 4.48930025100708 10.31504917144775 Z"/><path class="m" d="M 1.730582237243652 1.720914840698242 L 4.680450439453125 9.416769027709961 L 7.048614501953125 7.048604965209961 L 9.462241172790527 4.6349778175354 L 1.730582237243652 1.720914840698242 M 4.76837158203125e-06 -4.76837158203125e-06 L 11.26548385620117 4.245954990386963 L 7.755724430084229 7.755715370178223 L 4.298134326934814 11.21330547332764 L 4.76837158203125e-06 -4.76837158203125e-06 Z"/></g><line class="d" y2="16" transform="translate(-203.482 1035.627)"/><line class="d" x1="0.018" y2="28.873" transform="translate(-203.5 1035.627)"/></g><path class="d" d="M2.512,1.5V95.3" transform="translate(-117.012 1178.447)"/><text class="e" transform="translate(99 1187)"><tspan x="-126.431" y="0">-0.39 + -1.00 = -1.39</tspan></text><line class="d" x2="1013" transform="translate(-775.5 968.5)"/><path class="d" d="M0,0V15.232" transform="translate(-164.153 1226.947) rotate(90)"/><g class="b" transform="translate(-219 1208)"><circle class="k" cx="20" cy="20" r="20"/><circle class="l" cx="20" cy="20" r="19.5"/></g><text class="e" transform="translate(-199 1235)"><tspan x="-6.021" y="0">S</tspan></text><g class="b" transform="translate(-164 1207)"><circle class="k" cx="20" cy="20" r="20"/><circle class="l" cx="20" cy="20" r="19.5"/></g><text class="e" transform="translate(-144 1236)"><tspan x="-6.021" y="0">A</tspan></text><g transform="translate(948.5 1531.429) rotate(90)"><g class="c" transform="translate(-203.5 1034) rotate(45)"><path class="k" d="M 4.48930025100708 10.31504917144775 L 0.8653011322021484 0.8604671359062195 L 10.36387062072754 4.440470218658447 L 7.402174472808838 7.402174949645996 L 4.48930025100708 10.31504917144775 Z"/><path class="m" d="M 1.730582237243652 1.720914840698242 L 4.680450439453125 9.416769027709961 L 7.048614501953125 7.048604965209961 L 9.462241172790527 4.6349778175354 L 1.730582237243652 1.720914840698242 M 4.76837158203125e-06 -4.76837158203125e-06 L 11.26548385620117 4.245954990386963 L 7.755724430084229 7.755715370178223 L 4.298134326934814 11.21330547332764 L 4.76837158203125e-06 -4.76837158203125e-06 Z"/></g><line class="d" y2="16" transform="translate(-203.482 1035.627)"/><line class="d" x1="0.018" y2="28.873" transform="translate(-203.5 1035.627)"/><g class="c" transform="translate(-203.5 1034) rotate(45)"><path class="k" d="M 4.48930025100708 10.31504917144775 L 0.8653011322021484 0.8604671359062195 L 10.36387062072754 4.440470218658447 L 7.402174472808838 7.402174949645996 L 4.48930025100708 10.31504917144775 Z"/><path class="m" d="M 1.730582237243652 1.720914840698242 L 4.680450439453125 9.416769027709961 L 7.048614501953125 7.048604965209961 L 9.462241172790527 4.6349778175354 L 1.730582237243652 1.720914840698242 M 4.76837158203125e-06 -4.76837158203125e-06 L 11.26548385620117 4.245954990386963 L 7.755724430084229 7.755715370178223 L 4.298134326934814 11.21330547332764 L 4.76837158203125e-06 -4.76837158203125e-06 Z"/></g><line class="d" y2="16" transform="translate(-203.482 1035.627)"/><line class="d" x1="0.018" y2="28.873" transform="translate(-203.5 1035.627)"/></g><g class="b" transform="translate(-80 1308)"><circle class="k" cx="20" cy="20" r="20"/><circle class="l" cx="20" cy="20" r="19.5"/></g><text class="e" transform="translate(-60 1335)"><tspan x="-6.021" y="0">A</tspan></text><g class="b" transform="translate(-80 1354)"><circle class="k" cx="20" cy="20" r="20"/><circle class="l" cx="20" cy="20" r="19.5"/></g><text class="e" transform="translate(-60 1381)"><tspan x="-6.021" y="0">B</tspan></text><g class="f" transform="translate(-80 1400)"><circle class="k" cx="20" cy="20" r="20"/><circle class="l" cx="20" cy="20" r="19.5"/></g><text class="e" transform="translate(-60 1427)"><tspan x="-6.021" y="0">C</tspan></text><path class="d" d="M.018,0" transform="translate(-87.127 1373.929) rotate(90)"/><g transform="translate(129 327)"><g class="c" transform="translate(-214.5 1046.929) rotate(135)"><path class="k" d="M 4.48930025100708 10.31504917144775 L 0.8653011322021484 0.8604671359062195 L 10.36387062072754 4.440470218658447 L 7.402174472808838 7.402174949645996 L 4.48930025100708 10.31504917144775 Z"/><path class="m" d="M 1.730582237243652 1.720914840698242 L 4.680450439453125 9.416769027709961 L 7.048614501953125 7.048604965209961 L 9.462241172790527 4.6349778175354 L 1.730582237243652 1.720914840698242 M 4.76837158203125e-06 -4.76837158203125e-06 L 11.26548385620117 4.245954990386963 L 7.755724430084229 7.755715370178223 L 4.298134326934814 11.21330547332764 L 4.76837158203125e-06 -4.76837158203125e-06 Z"/></g><line class="d" y2="16" transform="translate(-216.127 1046.947) rotate(90)"/><g class="c" transform="translate(-214.5 1046.929) rotate(135)"><path class="k" d="M 4.48930025100708 10.31504917144775 L 0.8653011322021484 0.8604671359062195 L 10.36387062072754 4.440470218658447 L 7.402174472808838 7.402174949645996 L 4.48930025100708 10.31504917144775 Z"/><path class="m" d="M 1.730582237243652 1.720914840698242 L 4.680450439453125 9.416769027709961 L 7.048614501953125 7.048604965209961 L 9.462241172790527 4.6349778175354 L 1.730582237243652 1.720914840698242 M 4.76837158203125e-06 -4.76837158203125e-06 L 11.26548385620117 4.245954990386963 L 7.755724430084229 7.755715370178223 L 4.298134326934814 11.21330547332764 L 4.76837158203125e-06 -4.76837158203125e-06 Z"/></g><path class="d" d="M0,0V38.258" transform="translate(-216.127 1046.947) rotate(90)"/></g><g transform="translate(948.5 1625.429) rotate(90)"><g class="c" transform="translate(-203.5 1034) rotate(45)"><path class="k" d="M 4.48930025100708 10.31504917144775 L 0.8653011322021484 0.8604671359062195 L 10.36387062072754 4.440470218658447 L 7.402174472808838 7.402174949645996 L 4.48930025100708 10.31504917144775 Z"/><path class="m" d="M 1.730582237243652 1.720914840698242 L 4.680450439453125 9.416769027709961 L 7.048614501953125 7.048604965209961 L 9.462241172790527 4.6349778175354 L 1.730582237243652 1.720914840698242 M 4.76837158203125e-06 -4.76837158203125e-06 L 11.26548385620117 4.245954990386963 L 7.755724430084229 7.755715370178223 L 4.298134326934814 11.21330547332764 L 4.76837158203125e-06 -4.76837158203125e-06 Z"/></g><line class="d" y2="16" transform="translate(-203.482 1035.627)"/><line class="d" x1="0.018" y2="28.873" transform="translate(-203.5 1035.627)"/><g class="c" transform="translate(-203.5 1034) rotate(45)"><path class="k" d="M 4.48930025100708 10.31504917144775 L 0.8653011322021484 0.8604671359062195 L 10.36387062072754 4.440470218658447 L 7.402174472808838 7.402174949645996 L 4.48930025100708 10.31504917144775 Z"/><path class="m" d="M 1.730582237243652 1.720914840698242 L 4.680450439453125 9.416769027709961 L 7.048614501953125 7.048604965209961 L 9.462241172790527 4.6349778175354 L 1.730582237243652 1.720914840698242 M 4.76837158203125e-06 -4.76837158203125e-06 L 11.26548385620117 4.245954990386963 L 7.755724430084229 7.755715370178223 L 4.298134326934814 11.21330547332764 L 4.76837158203125e-06 -4.76837158203125e-06 Z"/></g><line class="d" y2="16" transform="translate(-203.482 1035.627)"/><line class="d" x1="0.018" y2="28.873" transform="translate(-203.5 1035.627)"/></g><path class="d" d="M2.512,1.5V95.3" transform="translate(-118.012 1326.447)"/><path class="d" d="M0,0V15.232" transform="translate(-165.153 1374.947) rotate(90)"/><g class="b" transform="translate(-220 1356)"><circle class="k" cx="20" cy="20" r="20"/><circle class="l" cx="20" cy="20" r="19.5"/></g><text class="e" transform="translate(-200 1383)"><tspan x="-6.021" y="0">S</tspan></text><g class="b" transform="translate(-165 1355)"><circle class="k" cx="20" cy="20" r="20"/><circle class="l" cx="20" cy="20" r="19.5"/></g><text class="e" transform="translate(-145 1384)"><tspan x="-6.021" y="0">C</tspan></text><text class="e" transform="translate(99 1233)"><tspan x="-126.431" y="0">-0.39 + -0.01 = </tspan><tspan class="g" y="0">-0.40</tspan></text><text class="e" transform="translate(99 1279)"><tspan x="-126.431" y="0">-0.39 + -1.00 = -1.39</tspan></text><text class="e" transform="translate(100 1335)"><tspan x="-126.431" y="0">-0.45 + -0.52 = -0.97</tspan></text><text class="e" transform="translate(100 1381)"><tspan x="-126.431" y="0">-0.45 + -0.52 = -0.97</tspan></text><text class="e" transform="translate(100 1427)"><tspan x="-126.431" y="0">-0.45 + -0.39 = </tspan><tspan class="g" y="0">-0.84</tspan></text><text class="e" transform="translate(-713 1491)"><tspan x="-12.041" y="0">3.</tspan></text><path class="d" d="M0,0V15.232" transform="translate(-563.153 1491.947) rotate(90)"/><g class="b" transform="translate(-618 1473)"><circle class="k" cx="20" cy="20" r="20"/><circle class="l" cx="20" cy="20" r="19.5"/></g><text class="e" transform="translate(-598 1500)"><tspan x="-6.021" y="0">S</tspan></text><g class="b" transform="translate(-563 1472)"><circle class="k" cx="20" cy="20" r="20"/><circle class="l" cx="20" cy="20" r="19.5"/></g><text class="e" transform="translate(-543 1501)"><tspan x="-6.021" y="0">A</tspan></text><text class="e" transform="translate(-421 1500)"><tspan x="-30.103" y="0">-0.40</tspan></text><text class="e" transform="translate(-421 1546)"><tspan x="-30.103" y="0">-0.84</tspan></text><path class="d" d="M0,0V15.232" transform="translate(-509.153 1492.947) rotate(90)"/><g class="b" transform="translate(-509 1473)"><circle class="k" cx="20" cy="20" r="20"/><circle class="l" cx="20" cy="20" r="19.5"/></g><text class="e" transform="translate(-489 1500)"><tspan x="-6.021" y="0">A</tspan></text><path class="d" d="M0,0V15.232" transform="translate(-563.153 1538.947) rotate(90)"/><g class="b" transform="translate(-618 1520)"><circle class="k" cx="20" cy="20" r="20"/><circle class="l" cx="20" cy="20" r="19.5"/></g><text class="e" transform="translate(-598 1547)"><tspan x="-6.021" y="0">S</tspan></text><g class="b" transform="translate(-563 1519)"><circle class="k" cx="20" cy="20" r="20"/><circle class="l" cx="20" cy="20" r="19.5"/></g><text class="e" transform="translate(-543 1546)"><tspan x="-6.021" y="0">C</tspan></text><path class="d" d="M0,0V15.232" transform="translate(-509.153 1539.947) rotate(90)"/><g class="b" transform="translate(-509 1520)"><circle class="k" cx="20" cy="20" r="20"/><circle class="l" cx="20" cy="20" r="19.5"/></g><text class="e" transform="translate(-489 1547)"><tspan x="-6.021" y="0">C</tspan></text><g transform="translate(949.5 1702.429) rotate(90)"><g class="c" transform="translate(-203.5 1034) rotate(45)"><path class="k" d="M 4.48930025100708 10.31504917144775 L 0.8653011322021484 0.8604671359062195 L 10.36387062072754 4.440470218658447 L 7.402174472808838 7.402174949645996 L 4.48930025100708 10.31504917144775 Z"/><path class="m" d="M 1.730582237243652 1.720914840698242 L 4.680450439453125 9.416769027709961 L 7.048614501953125 7.048604965209961 L 9.462241172790527 4.6349778175354 L 1.730582237243652 1.720914840698242 M 4.76837158203125e-06 -4.76837158203125e-06 L 11.26548385620117 4.245954990386963 L 7.755724430084229 7.755715370178223 L 4.298134326934814 11.21330547332764 L 4.76837158203125e-06 -4.76837158203125e-06 Z"/></g><line class="d" y2="16" transform="translate(-203.482 1035.627)"/><line class="d" x1="0.018" y2="28.873" transform="translate(-203.5 1035.627)"/><g class="c" transform="translate(-203.5 1034) rotate(45)"><path class="k" d="M 4.48930025100708 10.31504917144775 L 0.8653011322021484 0.8604671359062195 L 10.36387062072754 4.440470218658447 L 7.402174472808838 7.402174949645996 L 4.48930025100708 10.31504917144775 Z"/><path class="m" d="M 1.730582237243652 1.720914840698242 L 4.680450439453125 9.416769027709961 L 7.048614501953125 7.048604965209961 L 9.462241172790527 4.6349778175354 L 1.730582237243652 1.720914840698242 M 4.76837158203125e-06 -4.76837158203125e-06 L 11.26548385620117 4.245954990386963 L 7.755724430084229 7.755715370178223 L 4.298134326934814 11.21330547332764 L 4.76837158203125e-06 -4.76837158203125e-06 Z"/></g><line class="d" y2="16" transform="translate(-203.482 1035.627)"/><line class="d" x1="0.018" y2="28.873" transform="translate(-203.5 1035.627)"/></g><g class="b" transform="translate(-79 1479)"><circle class="k" cx="20" cy="20" r="20"/><circle class="l" cx="20" cy="20" r="19.5"/></g><text class="e" transform="translate(-59 1506)"><tspan x="-6.021" y="0">A</tspan></text><g class="f" transform="translate(-79 1525)"><circle class="k" cx="20" cy="20" r="20"/><circle class="l" cx="20" cy="20" r="19.5"/></g><text class="e" transform="translate(-59 1552)"><tspan x="-6.021" y="0">B</tspan></text><g class="b" transform="translate(-79 1571)"><circle class="k" cx="20" cy="20" r="20"/><circle class="l" cx="20" cy="20" r="19.5"/></g><text class="e" transform="translate(-59 1598)"><tspan x="-6.021" y="0">C</tspan></text><path class="d" d="M.018,0" transform="translate(-86.127 1544.929) rotate(90)"/><g transform="translate(130 498)"><g class="c" transform="translate(-214.5 1046.929) rotate(135)"><path class="k" d="M 4.48930025100708 10.31504917144775 L 0.8653011322021484 0.8604671359062195 L 10.36387062072754 4.440470218658447 L 7.402174472808838 7.402174949645996 L 4.48930025100708 10.31504917144775 Z"/><path class="m" d="M 1.730582237243652 1.720914840698242 L 4.680450439453125 9.416769027709961 L 7.048614501953125 7.048604965209961 L 9.462241172790527 4.6349778175354 L 1.730582237243652 1.720914840698242 M 4.76837158203125e-06 -4.76837158203125e-06 L 11.26548385620117 4.245954990386963 L 7.755724430084229 7.755715370178223 L 4.298134326934814 11.21330547332764 L 4.76837158203125e-06 -4.76837158203125e-06 Z"/></g><line class="d" y2="16" transform="translate(-216.127 1046.947) rotate(90)"/><g class="c" transform="translate(-214.5 1046.929) rotate(135)"><path class="k" d="M 4.48930025100708 10.31504917144775 L 0.8653011322021484 0.8604671359062195 L 10.36387062072754 4.440470218658447 L 7.402174472808838 7.402174949645996 L 4.48930025100708 10.31504917144775 Z"/><path class="m" d="M 1.730582237243652 1.720914840698242 L 4.680450439453125 9.416769027709961 L 7.048614501953125 7.048604965209961 L 9.462241172790527 4.6349778175354 L 1.730582237243652 1.720914840698242 M 4.76837158203125e-06 -4.76837158203125e-06 L 11.26548385620117 4.245954990386963 L 7.755724430084229 7.755715370178223 L 4.298134326934814 11.21330547332764 L 4.76837158203125e-06 -4.76837158203125e-06 Z"/></g><path class="d" d="M0,0V38.258" transform="translate(-216.127 1046.947) rotate(90)"/></g><g transform="translate(949.5 1796.429) rotate(90)"><g class="c" transform="translate(-203.5 1034) rotate(45)"><path class="k" d="M 4.48930025100708 10.31504917144775 L 0.8653011322021484 0.8604671359062195 L 10.36387062072754 4.440470218658447 L 7.402174472808838 7.402174949645996 L 4.48930025100708 10.31504917144775 Z"/><path class="m" d="M 1.730582237243652 1.720914840698242 L 4.680450439453125 9.416769027709961 L 7.048614501953125 7.048604965209961 L 9.462241172790527 4.6349778175354 L 1.730582237243652 1.720914840698242 M 4.76837158203125e-06 -4.76837158203125e-06 L 11.26548385620117 4.245954990386963 L 7.755724430084229 7.755715370178223 L 4.298134326934814 11.21330547332764 L 4.76837158203125e-06 -4.76837158203125e-06 Z"/></g><line class="d" y2="16" transform="translate(-203.482 1035.627)"/><line class="d" x1="0.018" y2="28.873" transform="translate(-203.5 1035.627)"/><g class="c" transform="translate(-203.5 1034) rotate(45)"><path class="k" d="M 4.48930025100708 10.31504917144775 L 0.8653011322021484 0.8604671359062195 L 10.36387062072754 4.440470218658447 L 7.402174472808838 7.402174949645996 L 4.48930025100708 10.31504917144775 Z"/><path class="m" d="M 1.730582237243652 1.720914840698242 L 4.680450439453125 9.416769027709961 L 7.048614501953125 7.048604965209961 L 9.462241172790527 4.6349778175354 L 1.730582237243652 1.720914840698242 M 4.76837158203125e-06 -4.76837158203125e-06 L 11.26548385620117 4.245954990386963 L 7.755724430084229 7.755715370178223 L 4.298134326934814 11.21330547332764 L 4.76837158203125e-06 -4.76837158203125e-06 Z"/></g><line class="d" y2="16" transform="translate(-203.482 1035.627)"/><line class="d" x1="0.018" y2="28.873" transform="translate(-203.5 1035.627)"/></g><path class="d" d="M2.512,1.5V95.3" transform="translate(-117.012 1497.447)"/><text class="e" transform="translate(-27 1506)"><tspan x="0" y="0">-0.40 + -0.70 = -1.10</tspan></text><text class="e" transform="translate(-27 1552)"><tspan x="0" y="0">-0.40 + -0.30 =</tspan><tspan class="h" y="0"> </tspan><tspan class="g" y="0">-0.70</tspan></text><text class="e" transform="translate(-27 1598)"><tspan x="0" y="0">-0.40 + -0.70 = -1.10</tspan></text><path class="d" d="M0,0V15.232" transform="translate(-219.153 1544.947) rotate(90)"/><g class="b" transform="translate(-274 1526)"><circle class="k" cx="20" cy="20" r="20"/><circle class="l" cx="20" cy="20" r="19.5"/></g><text class="e" transform="translate(-254 1553)"><tspan x="-6.021" y="0">S</tspan></text><g class="b" transform="translate(-219 1525)"><circle class="k" cx="20" cy="20" r="20"/><circle class="l" cx="20" cy="20" r="19.5"/></g><text class="e" transform="translate(-199 1554)"><tspan x="-6.021" y="0">A</tspan></text><path class="d" d="M0,0V15.232" transform="translate(-165.153 1545.947) rotate(90)"/><g class="b" transform="translate(-165 1526)"><circle class="k" cx="20" cy="20" r="20"/><circle class="l" cx="20" cy="20" r="19.5"/></g><text class="e" transform="translate(-145 1553)"><tspan x="-6.021" y="0">A</tspan></text><g transform="translate(949.5 1843.429) rotate(90)"><g class="c" transform="translate(-203.5 1034) rotate(45)"><path class="k" d="M 4.48930025100708 10.31504917144775 L 0.8653011322021484 0.8604671359062195 L 10.36387062072754 4.440470218658447 L 7.402174472808838 7.402174949645996 L 4.48930025100708 10.31504917144775 Z"/><path class="m" d="M 1.730582237243652 1.720914840698242 L 4.680450439453125 9.416769027709961 L 7.048614501953125 7.048604965209961 L 9.462241172790527 4.6349778175354 L 1.730582237243652 1.720914840698242 M 4.76837158203125e-06 -4.76837158203125e-06 L 11.26548385620117 4.245954990386963 L 7.755724430084229 7.755715370178223 L 4.298134326934814 11.21330547332764 L 4.76837158203125e-06 -4.76837158203125e-06 Z"/></g><line class="d" y2="16" transform="translate(-203.482 1035.627)"/><line class="d" x1="0.018" y2="28.873" transform="translate(-203.5 1035.627)"/><g class="c" transform="translate(-203.5 1034) rotate(45)"><path class="k" d="M 4.48930025100708 10.31504917144775 L 0.8653011322021484 0.8604671359062195 L 10.36387062072754 4.440470218658447 L 7.402174472808838 7.402174949645996 L 4.48930025100708 10.31504917144775 Z"/><path class="m" d="M 1.730582237243652 1.720914840698242 L 4.680450439453125 9.416769027709961 L 7.048614501953125 7.048604965209961 L 9.462241172790527 4.6349778175354 L 1.730582237243652 1.720914840698242 M 4.76837158203125e-06 -4.76837158203125e-06 L 11.26548385620117 4.245954990386963 L 7.755724430084229 7.755715370178223 L 4.298134326934814 11.21330547332764 L 4.76837158203125e-06 -4.76837158203125e-06 Z"/></g><line class="d" y2="16" transform="translate(-203.482 1035.627)"/><line class="d" x1="0.018" y2="28.873" transform="translate(-203.5 1035.627)"/></g><g class="b" transform="translate(-79 1623)"><circle class="k" cx="20" cy="20" r="20"/><circle class="l" cx="20" cy="20" r="19.5"/></g><text class="e" transform="translate(-59 1650)"><tspan x="-6.021" y="0">A</tspan></text><g class="f" transform="translate(-79 1666)"><circle class="k" cx="20" cy="20" r="20"/><circle class="l" cx="20" cy="20" r="19.5"/></g><text class="e" transform="translate(-59 1693)"><tspan x="-6.021" y="0">B</tspan></text><g class="b" transform="translate(-79 1712)"><circle class="k" cx="20" cy="20" r="20"/><circle class="l" cx="20" cy="20" r="19.5"/></g><text class="e" transform="translate(-59 1739)"><tspan x="-6.021" y="0">C</tspan></text><path class="d" d="M.018,0" transform="translate(-86.127 1685.929) rotate(90)"/><g transform="translate(130 639)"><g class="c" transform="translate(-214.5 1046.929) rotate(135)"><path class="k" d="M 4.48930025100708 10.31504917144775 L 0.8653011322021484 0.8604671359062195 L 10.36387062072754 4.440470218658447 L 7.402174472808838 7.402174949645996 L 4.48930025100708 10.31504917144775 Z"/><path class="m" d="M 1.730582237243652 1.720914840698242 L 4.680450439453125 9.416769027709961 L 7.048614501953125 7.048604965209961 L 9.462241172790527 4.6349778175354 L 1.730582237243652 1.720914840698242 M 4.76837158203125e-06 -4.76837158203125e-06 L 11.26548385620117 4.245954990386963 L 7.755724430084229 7.755715370178223 L 4.298134326934814 11.21330547332764 L 4.76837158203125e-06 -4.76837158203125e-06 Z"/></g><line class="d" y2="16" transform="translate(-216.127 1046.947) rotate(90)"/><g class="c" transform="translate(-214.5 1046.929) rotate(135)"><path class="k" d="M 4.48930025100708 10.31504917144775 L 0.8653011322021484 0.8604671359062195 L 10.36387062072754 4.440470218658447 L 7.402174472808838 7.402174949645996 L 4.48930025100708 10.31504917144775 Z"/><path class="m" d="M 1.730582237243652 1.720914840698242 L 4.680450439453125 9.416769027709961 L 7.048614501953125 7.048604965209961 L 9.462241172790527 4.6349778175354 L 1.730582237243652 1.720914840698242 M 4.76837158203125e-06 -4.76837158203125e-06 L 11.26548385620117 4.245954990386963 L 7.755724430084229 7.755715370178223 L 4.298134326934814 11.21330547332764 L 4.76837158203125e-06 -4.76837158203125e-06 Z"/></g><path class="d" d="M0,0V38.258" transform="translate(-216.127 1046.947) rotate(90)"/></g><g transform="translate(949.5 1937.429) rotate(90)"><g class="c" transform="translate(-203.5 1034) rotate(45)"><path class="k" d="M 4.48930025100708 10.31504917144775 L 0.8653011322021484 0.8604671359062195 L 10.36387062072754 4.440470218658447 L 7.402174472808838 7.402174949645996 L 4.48930025100708 10.31504917144775 Z"/><path class="m" d="M 1.730582237243652 1.720914840698242 L 4.680450439453125 9.416769027709961 L 7.048614501953125 7.048604965209961 L 9.462241172790527 4.6349778175354 L 1.730582237243652 1.720914840698242 M 4.76837158203125e-06 -4.76837158203125e-06 L 11.26548385620117 4.245954990386963 L 7.755724430084229 7.755715370178223 L 4.298134326934814 11.21330547332764 L 4.76837158203125e-06 -4.76837158203125e-06 Z"/></g><line class="d" y2="16" transform="translate(-203.482 1035.627)"/><line class="d" x1="0.018" y2="28.873" transform="translate(-203.5 1035.627)"/><g class="c" transform="translate(-203.5 1034) rotate(45)"><path class="k" d="M 4.48930025100708 10.31504917144775 L 0.8653011322021484 0.8604671359062195 L 10.36387062072754 4.440470218658447 L 7.402174472808838 7.402174949645996 L 4.48930025100708 10.31504917144775 Z"/><path class="m" d="M 1.730582237243652 1.720914840698242 L 4.680450439453125 9.416769027709961 L 7.048614501953125 7.048604965209961 L 9.462241172790527 4.6349778175354 L 1.730582237243652 1.720914840698242 M 4.76837158203125e-06 -4.76837158203125e-06 L 11.26548385620117 4.245954990386963 L 7.755724430084229 7.755715370178223 L 4.298134326934814 11.21330547332764 L 4.76837158203125e-06 -4.76837158203125e-06 Z"/></g><line class="d" y2="16" transform="translate(-203.482 1035.627)"/><line class="d" x1="0.018" y2="28.873" transform="translate(-203.5 1035.627)"/></g><path class="d" d="M2.512,1.5V95.3" transform="translate(-117.012 1638.447)"/><text class="e" transform="translate(-27 1650)"><tspan x="0" y="0">-0.84 + -2.00 = -2.84</tspan></text><text class="e" transform="translate(-27 1693)"><tspan x="0" y="0">-0.84 + -0.00 = </tspan><tspan class="g" y="0">-0.84</tspan></text><text class="e" transform="translate(-27 1739)"><tspan x="0" y="0">-0.84 + -2.00 = -2.84</tspan></text><path class="d" d="M0,0V15.232" transform="translate(-219.153 1685.947) rotate(90)"/><g class="b" transform="translate(-274 1667)"><circle class="k" cx="20" cy="20" r="20"/><circle class="l" cx="20" cy="20" r="19.5"/></g><text class="e" transform="translate(-254 1694)"><tspan x="-6.021" y="0">S</tspan></text><g class="b" transform="translate(-219 1666)"><circle class="k" cx="20" cy="20" r="20"/><circle class="l" cx="20" cy="20" r="19.5"/></g><text class="e" transform="translate(-199 1695)"><tspan x="-6.021" y="0">C</tspan></text><path class="d" d="M0,0V15.232" transform="translate(-165.153 1686.947) rotate(90)"/><g class="b" transform="translate(-165 1667)"><circle class="k" cx="20" cy="20" r="20"/><circle class="l" cx="20" cy="20" r="19.5"/></g><text class="e" transform="translate(-145 1694)"><tspan x="-6.021" y="0">C</tspan></text><text class="e" transform="translate(-713 1798)"><tspan x="-12.041" y="0">4.</tspan></text><path class="d" d="M0,0V15.232" transform="translate(-618.153 1798.947) rotate(90)"/><g class="b" transform="translate(-673 1780)"><circle class="k" cx="20" cy="20" r="20"/><circle class="l" cx="20" cy="20" r="19.5"/></g><text class="e" transform="translate(-653 1807)"><tspan x="-6.021" y="0">S</tspan></text><g class="b" transform="translate(-618 1779)"><circle class="k" cx="20" cy="20" r="20"/><circle class="l" cx="20" cy="20" r="19.5"/></g><text class="e" transform="translate(-598 1808)"><tspan x="-6.021" y="0">A</tspan></text><text class="e" transform="translate(-421 1807)"><tspan x="-30.103" y="0">-0.70</tspan></text><text class="e" transform="translate(-421 1853)"><tspan x="-30.103" y="0">-0.84</tspan></text><path class="d" d="M0,0V15.232" transform="translate(-564.153 1799.947) rotate(90)"/><g class="b" transform="translate(-564 1780)"><circle class="k" cx="20" cy="20" r="20"/><circle class="l" cx="20" cy="20" r="19.5"/></g><text class="e" transform="translate(-544 1807)"><tspan x="-6.021" y="0">A</tspan></text><path class="d" d="M0,0V15.232" transform="translate(-618.153 1845.947) rotate(90)"/><g class="b" transform="translate(-673 1827)"><circle class="k" cx="20" cy="20" r="20"/><circle class="l" cx="20" cy="20" r="19.5"/></g><text class="e" transform="translate(-653 1854)"><tspan x="-6.021" y="0">S</tspan></text><g class="b" transform="translate(-618 1826)"><circle class="k" cx="20" cy="20" r="20"/><circle class="l" cx="20" cy="20" r="19.5"/></g><text class="e" transform="translate(-598 1853)"><tspan x="-6.021" y="0">C</tspan></text><path class="d" d="M0,0V15.232" transform="translate(-564.153 1846.947) rotate(90)"/><g class="b" transform="translate(-564 1827)"><circle class="k" cx="20" cy="20" r="20"/><circle class="l" cx="20" cy="20" r="19.5"/></g><text class="e" transform="translate(-544 1854)"><tspan x="-6.021" y="0">C</tspan></text><g transform="translate(949.5 2009.429) rotate(90)"><g class="c" transform="translate(-203.5 1034) rotate(45)"><path class="k" d="M 4.48930025100708 10.31504917144775 L 0.8653011322021484 0.8604671359062195 L 10.36387062072754 4.440470218658447 L 7.402174472808838 7.402174949645996 L 4.48930025100708 10.31504917144775 Z"/><path class="m" d="M 1.730582237243652 1.720914840698242 L 4.680450439453125 9.416769027709961 L 7.048614501953125 7.048604965209961 L 9.462241172790527 4.6349778175354 L 1.730582237243652 1.720914840698242 M 4.76837158203125e-06 -4.76837158203125e-06 L 11.26548385620117 4.245954990386963 L 7.755724430084229 7.755715370178223 L 4.298134326934814 11.21330547332764 L 4.76837158203125e-06 -4.76837158203125e-06 Z"/></g><line class="d" y2="16" transform="translate(-203.482 1035.627)"/><line class="d" x1="0.018" y2="28.873" transform="translate(-203.5 1035.627)"/><g class="c" transform="translate(-203.5 1034) rotate(45)"><path class="k" d="M 4.48930025100708 10.31504917144775 L 0.8653011322021484 0.8604671359062195 L 10.36387062072754 4.440470218658447 L 7.402174472808838 7.402174949645996 L 4.48930025100708 10.31504917144775 Z"/><path class="m" d="M 1.730582237243652 1.720914840698242 L 4.680450439453125 9.416769027709961 L 7.048614501953125 7.048604965209961 L 9.462241172790527 4.6349778175354 L 1.730582237243652 1.720914840698242 M 4.76837158203125e-06 -4.76837158203125e-06 L 11.26548385620117 4.245954990386963 L 7.755724430084229 7.755715370178223 L 4.298134326934814 11.21330547332764 L 4.76837158203125e-06 -4.76837158203125e-06 Z"/></g><line class="d" y2="16" transform="translate(-203.482 1035.627)"/><line class="d" x1="0.018" y2="28.873" transform="translate(-203.5 1035.627)"/></g><g class="b" transform="translate(-79 1786)"><circle class="k" cx="20" cy="20" r="20"/><circle class="l" cx="20" cy="20" r="19.5"/></g><text class="e" transform="translate(-59 1813)"><tspan x="-6.021" y="0">A</tspan></text><g class="b" transform="translate(-79 1832)"><circle class="k" cx="20" cy="20" r="20"/><circle class="l" cx="20" cy="20" r="19.5"/></g><text class="e" transform="translate(-59 1859)"><tspan x="-6.021" y="0">B</tspan></text><g class="b" transform="translate(-79 1878)"><circle class="k" cx="20" cy="20" r="20"/><circle class="l" cx="20" cy="20" r="19.5"/></g><text class="e" transform="translate(-59 1905)"><tspan x="-6.021" y="0">C</tspan></text><path class="d" d="M.018,0" transform="translate(-86.127 1851.929) rotate(90)"/><g transform="translate(130 805)"><g class="c" transform="translate(-214.5 1046.929) rotate(135)"><path class="k" d="M 4.48930025100708 10.31504917144775 L 0.8653011322021484 0.8604671359062195 L 10.36387062072754 4.440470218658447 L 7.402174472808838 7.402174949645996 L 4.48930025100708 10.31504917144775 Z"/><path class="m" d="M 1.730582237243652 1.720914840698242 L 4.680450439453125 9.416769027709961 L 7.048614501953125 7.048604965209961 L 9.462241172790527 4.6349778175354 L 1.730582237243652 1.720914840698242 M 4.76837158203125e-06 -4.76837158203125e-06 L 11.26548385620117 4.245954990386963 L 7.755724430084229 7.755715370178223 L 4.298134326934814 11.21330547332764 L 4.76837158203125e-06 -4.76837158203125e-06 Z"/></g><line class="d" y2="16" transform="translate(-216.127 1046.947) rotate(90)"/><g class="c" transform="translate(-214.5 1046.929) rotate(135)"><path class="k" d="M 4.48930025100708 10.31504917144775 L 0.8653011322021484 0.8604671359062195 L 10.36387062072754 4.440470218658447 L 7.402174472808838 7.402174949645996 L 4.48930025100708 10.31504917144775 Z"/><path class="m" d="M 1.730582237243652 1.720914840698242 L 4.680450439453125 9.416769027709961 L 7.048614501953125 7.048604965209961 L 9.462241172790527 4.6349778175354 L 1.730582237243652 1.720914840698242 M 4.76837158203125e-06 -4.76837158203125e-06 L 11.26548385620117 4.245954990386963 L 7.755724430084229 7.755715370178223 L 4.298134326934814 11.21330547332764 L 4.76837158203125e-06 -4.76837158203125e-06 Z"/></g><path class="d" d="M0,0V38.258" transform="translate(-216.127 1046.947) rotate(90)"/></g><g transform="translate(949.5 2103.429) rotate(90)"><g class="c" transform="translate(-203.5 1034) rotate(45)"><path class="k" d="M 4.48930025100708 10.31504917144775 L 0.8653011322021484 0.8604671359062195 L 10.36387062072754 4.440470218658447 L 7.402174472808838 7.402174949645996 L 4.48930025100708 10.31504917144775 Z"/><path class="m" d="M 1.730582237243652 1.720914840698242 L 4.680450439453125 9.416769027709961 L 7.048614501953125 7.048604965209961 L 9.462241172790527 4.6349778175354 L 1.730582237243652 1.720914840698242 M 4.76837158203125e-06 -4.76837158203125e-06 L 11.26548385620117 4.245954990386963 L 7.755724430084229 7.755715370178223 L 4.298134326934814 11.21330547332764 L 4.76837158203125e-06 -4.76837158203125e-06 Z"/></g><line class="d" y2="16" transform="translate(-203.482 1035.627)"/><line class="d" x1="0.018" y2="28.873" transform="translate(-203.5 1035.627)"/><g class="c" transform="translate(-203.5 1034) rotate(45)"><path class="k" d="M 4.48930025100708 10.31504917144775 L 0.8653011322021484 0.8604671359062195 L 10.36387062072754 4.440470218658447 L 7.402174472808838 7.402174949645996 L 4.48930025100708 10.31504917144775 Z"/><path class="m" d="M 1.730582237243652 1.720914840698242 L 4.680450439453125 9.416769027709961 L 7.048614501953125 7.048604965209961 L 9.462241172790527 4.6349778175354 L 1.730582237243652 1.720914840698242 M 4.76837158203125e-06 -4.76837158203125e-06 L 11.26548385620117 4.245954990386963 L 7.755724430084229 7.755715370178223 L 4.298134326934814 11.21330547332764 L 4.76837158203125e-06 -4.76837158203125e-06 Z"/></g><line class="d" y2="16" transform="translate(-203.482 1035.627)"/><line class="d" x1="0.018" y2="28.873" transform="translate(-203.5 1035.627)"/></g><path class="d" d="M2.512,1.5V95.3" transform="translate(-117.012 1804.447)"/><text class="e" transform="translate(-27 1813)"><tspan x="0" y="0">-0.70 + -0.70 = -1.40</tspan></text><text class="e" transform="translate(-27 1859)"><tspan x="0" y="0">-0.70 + -0.30 = -1.00</tspan></text><text class="e" transform="translate(-27 1905)"><tspan x="0" y="0">-0.70 + -0.70 = -1.40</tspan></text><g transform="translate(949.5 2150.429) rotate(90)"><g class="c" transform="translate(-203.5 1034) rotate(45)"><path class="k" d="M 4.48930025100708 10.31504917144775 L 0.8653011322021484 0.8604671359062195 L 10.36387062072754 4.440470218658447 L 7.402174472808838 7.402174949645996 L 4.48930025100708 10.31504917144775 Z"/><path class="m" d="M 1.730582237243652 1.720914840698242 L 4.680450439453125 9.416769027709961 L 7.048614501953125 7.048604965209961 L 9.462241172790527 4.6349778175354 L 1.730582237243652 1.720914840698242 M 4.76837158203125e-06 -4.76837158203125e-06 L 11.26548385620117 4.245954990386963 L 7.755724430084229 7.755715370178223 L 4.298134326934814 11.21330547332764 L 4.76837158203125e-06 -4.76837158203125e-06 Z"/></g><line class="d" y2="16" transform="translate(-203.482 1035.627)"/><line class="d" x1="0.018" y2="28.873" transform="translate(-203.5 1035.627)"/><g class="c" transform="translate(-203.5 1034) rotate(45)"><path class="k" d="M 4.48930025100708 10.31504917144775 L 0.8653011322021484 0.8604671359062195 L 10.36387062072754 4.440470218658447 L 7.402174472808838 7.402174949645996 L 4.48930025100708 10.31504917144775 Z"/><path class="m" d="M 1.730582237243652 1.720914840698242 L 4.680450439453125 9.416769027709961 L 7.048614501953125 7.048604965209961 L 9.462241172790527 4.6349778175354 L 1.730582237243652 1.720914840698242 M 4.76837158203125e-06 -4.76837158203125e-06 L 11.26548385620117 4.245954990386963 L 7.755724430084229 7.755715370178223 L 4.298134326934814 11.21330547332764 L 4.76837158203125e-06 -4.76837158203125e-06 Z"/></g><line class="d" y2="16" transform="translate(-203.482 1035.627)"/><line class="d" x1="0.018" y2="28.873" transform="translate(-203.5 1035.627)"/></g><g class="i" transform="translate(-79 1930)"><circle class="k" cx="20" cy="20" r="20"/><circle class="l" cx="20" cy="20" r="19.5"/></g><text class="e" transform="translate(-59 1957)"><tspan x="-6.021" y="0">A</tspan></text><g class="b" transform="translate(-79 1973)"><circle class="k" cx="20" cy="20" r="20"/><circle class="l" cx="20" cy="20" r="19.5"/></g><text class="e" transform="translate(-59 2000)"><tspan x="-6.021" y="0">B</tspan></text><g class="b" transform="translate(-79 2019)"><circle class="k" cx="20" cy="20" r="20"/><circle class="l" cx="20" cy="20" r="19.5"/></g><text class="e" transform="translate(-59 2046)"><tspan x="-6.021" y="0">C</tspan></text><path class="d" d="M.018,0" transform="translate(-86.127 1992.929) rotate(90)"/><g transform="translate(130 946)"><g class="c" transform="translate(-214.5 1046.929) rotate(135)"><path class="k" d="M 4.48930025100708 10.31504917144775 L 0.8653011322021484 0.8604671359062195 L 10.36387062072754 4.440470218658447 L 7.402174472808838 7.402174949645996 L 4.48930025100708 10.31504917144775 Z"/><path class="m" d="M 1.730582237243652 1.720914840698242 L 4.680450439453125 9.416769027709961 L 7.048614501953125 7.048604965209961 L 9.462241172790527 4.6349778175354 L 1.730582237243652 1.720914840698242 M 4.76837158203125e-06 -4.76837158203125e-06 L 11.26548385620117 4.245954990386963 L 7.755724430084229 7.755715370178223 L 4.298134326934814 11.21330547332764 L 4.76837158203125e-06 -4.76837158203125e-06 Z"/></g><line class="d" y2="16" transform="translate(-216.127 1046.947) rotate(90)"/><g class="c" transform="translate(-214.5 1046.929) rotate(135)"><path class="k" d="M 4.48930025100708 10.31504917144775 L 0.8653011322021484 0.8604671359062195 L 10.36387062072754 4.440470218658447 L 7.402174472808838 7.402174949645996 L 4.48930025100708 10.31504917144775 Z"/><path class="m" d="M 1.730582237243652 1.720914840698242 L 4.680450439453125 9.416769027709961 L 7.048614501953125 7.048604965209961 L 9.462241172790527 4.6349778175354 L 1.730582237243652 1.720914840698242 M 4.76837158203125e-06 -4.76837158203125e-06 L 11.26548385620117 4.245954990386963 L 7.755724430084229 7.755715370178223 L 4.298134326934814 11.21330547332764 L 4.76837158203125e-06 -4.76837158203125e-06 Z"/></g><path class="d" d="M0,0V38.258" transform="translate(-216.127 1046.947) rotate(90)"/></g><g transform="translate(949.5 2244.429) rotate(90)"><g class="c" transform="translate(-203.5 1034) rotate(45)"><path class="k" d="M 4.48930025100708 10.31504917144775 L 0.8653011322021484 0.8604671359062195 L 10.36387062072754 4.440470218658447 L 7.402174472808838 7.402174949645996 L 4.48930025100708 10.31504917144775 Z"/><path class="m" d="M 1.730582237243652 1.720914840698242 L 4.680450439453125 9.416769027709961 L 7.048614501953125 7.048604965209961 L 9.462241172790527 4.6349778175354 L 1.730582237243652 1.720914840698242 M 4.76837158203125e-06 -4.76837158203125e-06 L 11.26548385620117 4.245954990386963 L 7.755724430084229 7.755715370178223 L 4.298134326934814 11.21330547332764 L 4.76837158203125e-06 -4.76837158203125e-06 Z"/></g><line class="d" y2="16" transform="translate(-203.482 1035.627)"/><line class="d" x1="0.018" y2="28.873" transform="translate(-203.5 1035.627)"/><g class="c" transform="translate(-203.5 1034) rotate(45)"><path class="k" d="M 4.48930025100708 10.31504917144775 L 0.8653011322021484 0.8604671359062195 L 10.36387062072754 4.440470218658447 L 7.402174472808838 7.402174949645996 L 4.48930025100708 10.31504917144775 Z"/><path class="m" d="M 1.730582237243652 1.720914840698242 L 4.680450439453125 9.416769027709961 L 7.048614501953125 7.048604965209961 L 9.462241172790527 4.6349778175354 L 1.730582237243652 1.720914840698242 M 4.76837158203125e-06 -4.76837158203125e-06 L 11.26548385620117 4.245954990386963 L 7.755724430084229 7.755715370178223 L 4.298134326934814 11.21330547332764 L 4.76837158203125e-06 -4.76837158203125e-06 Z"/></g><line class="d" y2="16" transform="translate(-203.482 1035.627)"/><line class="d" x1="0.018" y2="28.873" transform="translate(-203.5 1035.627)"/></g><path class="d" d="M2.512,1.5V95.3" transform="translate(-117.012 1945.447)"/><text class="e" transform="translate(-27 1957)"><tspan x="0" y="0">-0.84 + -0.01 = </tspan><tspan class="j" y="0">-0.85</tspan></text><text class="e" transform="translate(-27 2000)"><tspan x="0" y="0">-0.84 + -1.00 = -1.84</tspan></text><text class="e" transform="translate(-27 2046)"><tspan x="0" y="0">-0.84 + -0.70 = -1.54</tspan></text><path class="d" d="M0,0V15.232" transform="translate(-509.153 1800.947) rotate(90)"/><g class="b" transform="translate(-509 1781)"><circle class="k" cx="20" cy="20" r="20"/><circle class="l" cx="20" cy="20" r="19.5"/></g><text class="e" transform="translate(-489 1808)"><tspan x="-6.021" y="0">B</tspan></text><path class="d" d="M0,0V15.232" transform="translate(-509.153 1847.947) rotate(90)"/><g class="b" transform="translate(-509 1828)"><circle class="k" cx="20" cy="20" r="20"/><circle class="l" cx="20" cy="20" r="19.5"/></g><text class="e" transform="translate(-489 1855)"><tspan x="-6.021" y="0">B</tspan></text><path class="d" d="M0,0V15.232" transform="translate(-273.153 1850.947) rotate(90)"/><g class="b" transform="translate(-328 1832)"><circle class="k" cx="20" cy="20" r="20"/><circle class="l" cx="20" cy="20" r="19.5"/></g><text class="e" transform="translate(-308 1859)"><tspan x="-6.021" y="0">S</tspan></text><g class="b" transform="translate(-273 1831)"><circle class="k" cx="20" cy="20" r="20"/><circle class="l" cx="20" cy="20" r="19.5"/></g><text class="e" transform="translate(-253 1860)"><tspan x="-6.021" y="0">A</tspan></text><path class="d" d="M0,0V15.232" transform="translate(-219.153 1851.947) rotate(90)"/><g class="b" transform="translate(-219 1832)"><circle class="k" cx="20" cy="20" r="20"/><circle class="l" cx="20" cy="20" r="19.5"/></g><text class="e" transform="translate(-199 1859)"><tspan x="-6.021" y="0">A</tspan></text><path class="d" d="M0,0V15.232" transform="translate(-164.153 1852.947) rotate(90)"/><g class="b" transform="translate(-164 1833)"><circle class="k" cx="20" cy="20" r="20"/><circle class="l" cx="20" cy="20" r="19.5"/></g><text class="e" transform="translate(-144 1860)"><tspan x="-6.021" y="0">B</tspan></text><path class="d" d="M0,0V15.232" transform="translate(-273.153 1991.947) rotate(90)"/><g class="b" transform="translate(-328 1973)"><circle class="k" cx="20" cy="20" r="20"/><circle class="l" cx="20" cy="20" r="19.5"/></g><text class="e" transform="translate(-308 2000)"><tspan x="-6.021" y="0">S</tspan></text><g class="b" transform="translate(-273 1972)"><circle class="k" cx="20" cy="20" r="20"/><circle class="l" cx="20" cy="20" r="19.5"/></g><text class="e" transform="translate(-253 1999)"><tspan x="-6.021" y="0">C</tspan></text><path class="d" d="M0,0V15.232" transform="translate(-219.153 1992.947) rotate(90)"/><g class="b" transform="translate(-219 1973)"><circle class="k" cx="20" cy="20" r="20"/><circle class="l" cx="20" cy="20" r="19.5"/></g><text class="e" transform="translate(-199 2000)"><tspan x="-6.021" y="0">C</tspan></text><path class="d" d="M0,0V15.232" transform="translate(-164.153 1993.947) rotate(90)"/><g class="b" transform="translate(-164 1974)"><circle class="k" cx="20" cy="20" r="20"/><circle class="l" cx="20" cy="20" r="19.5"/></g><text class="e" transform="translate(-144 2001)"><tspan x="-6.021" y="0">B</tspan></text></g></svg>