<svg xmlns="http://www.w3.org/2000/svg" viewBox="0 0 1013 815"><defs><style>.a,.f,.j{fill:#020000;}.a,.f,.j,.o{font-size:20px;}.a{font-family:Menlo-Regular, Menlo;}.b,.g,.k,.l{fill:#fff;}.b,.e,.h,.k{stroke:#707070;}.b,.c,.f,.g,.h{opacity:0.504;}.d,.r{fill:#707070;}.e,.h,.q{fill:none;}.f,.j,.o{font-family:Hack-Regular, Hack;}.g,.l{stroke:#29dd3d;stroke-width:2px;}.i,.n{fill:#29dd3d;}.i,.m{font-family:Hack-Bold, Hack;font-weight:700;}.p,.r{stroke:none;}</style></defs><g transform="translate(-5751.5 -937)"><text class="a" transform="translate(6058 956)"><tspan x="-36.123" y="0">Prefix</tspan></text><text class="a" transform="translate(6548 956)"><tspan x="-60.205" y="0">Hypotheses</tspan></text><g class="b" transform="translate(6018 1028)"><circle class="p" cx="20" cy="20" r="20"/><circle class="q" cx="20" cy="20" r="19.5"/></g><g class="c" transform="translate(7476.5 1209.429) rotate(90)"><g class="d" transform="translate(-203.5 1034) rotate(45)"><path class="p" d="M 4.48930025100708 10.31504917144775 L 0.8653011322021484 0.8604671359062195 L 10.36387062072754 4.440470218658447 L 7.402174472808838 7.402174949645996 L 4.48930025100708 10.31504917144775 Z"/><path class="r" d="M 1.730582237243652 1.720914840698242 L 4.680450439453125 9.416769027709961 L 7.048614501953125 7.048604965209961 L 9.462241172790527 4.6349778175354 L 1.730582237243652 1.720914840698242 M 4.76837158203125e-06 -4.76837158203125e-06 L 11.26548385620117 4.245954990386963 L 7.755724430084229 7.755715370178223 L 4.298134326934814 11.21330547332764 L 4.76837158203125e-06 -4.76837158203125e-06 Z"/></g><line class="e" y2="16" transform="translate(-203.482 1035.627)"/><line class="e" x1="0.018" y2="28.873" transform="translate(-203.5 1035.627)"/><g class="d" transform="translate(-203.5 1034) rotate(45)"><path class="p" d="M 4.48930025100708 10.31504917144775 L 0.8653011322021484 0.8604671359062195 L 10.36387062072754 4.440470218658447 L 7.402174472808838 7.402174949645996 L 4.48930025100708 10.31504917144775 Z"/><path class="r" d="M 1.730582237243652 1.720914840698242 L 4.680450439453125 9.416769027709961 L 7.048614501953125 7.048604965209961 L 9.462241172790527 4.6349778175354 L 1.730582237243652 1.720914840698242 M 4.76837158203125e-06 -4.76837158203125e-06 L 11.26548385620117 4.245954990386963 L 7.755724430084229 7.755715370178223 L 4.298134326934814 11.21330547332764 L 4.76837158203125e-06 -4.76837158203125e-06 Z"/></g><line class="e" y2="16" transform="translate(-203.482 1035.627)"/><line class="e" x1="0.018" y2="28.873" transform="translate(-203.5 1035.627)"/></g><text class="f" transform="translate(6038 1055)"><tspan x="-6.021" y="0">S</tspan></text><g class="b" transform="translate(6363 1032)"><circle class="p" cx="20" cy="20" r="20"/><circle class="q" cx="20" cy="20" r="19.5"/></g><text class="f" transform="translate(6383 1059)"><tspan x="-6.021" y="0">S</tspan></text><g class="g" transform="translate(6448 986)"><circle class="p" cx="20" cy="20" r="20"/><circle class="q" cx="20" cy="20" r="19"/></g><text class="f" transform="translate(6468 1013)"><tspan x="-6.021" y="0">A</tspan></text><g class="b" transform="translate(6448 1032)"><circle class="p" cx="20" cy="20" r="20"/><circle class="q" cx="20" cy="20" r="19.5"/></g><text class="f" transform="translate(6468 1059)"><tspan x="-6.021" y="0">B</tspan></text><g class="g" transform="translate(6448 1078)"><circle class="p" cx="20" cy="20" r="20"/><circle class="q" cx="20" cy="20" r="19"/></g><text class="f" transform="translate(6468 1105)"><tspan x="-6.021" y="0">C</tspan></text><path class="h" d="M.018,0" transform="translate(6440.873 1051.929) rotate(90)"/><g class="c" transform="translate(6657 5)"><g class="d" transform="translate(-214.5 1046.929) rotate(135)"><path class="p" d="M 4.48930025100708 10.31504917144775 L 0.8653011322021484 0.8604671359062195 L 10.36387062072754 4.440470218658447 L 7.402174472808838 7.402174949645996 L 4.48930025100708 10.31504917144775 Z"/><path class="r" d="M 1.730582237243652 1.720914840698242 L 4.680450439453125 9.416769027709961 L 7.048614501953125 7.048604965209961 L 9.462241172790527 4.6349778175354 L 1.730582237243652 1.720914840698242 M 4.76837158203125e-06 -4.76837158203125e-06 L 11.26548385620117 4.245954990386963 L 7.755724430084229 7.755715370178223 L 4.298134326934814 11.21330547332764 L 4.76837158203125e-06 -4.76837158203125e-06 Z"/></g><line class="e" y2="16" transform="translate(-216.127 1046.947) rotate(90)"/><g class="d" transform="translate(-214.5 1046.929) rotate(135)"><path class="p" d="M 4.48930025100708 10.31504917144775 L 0.8653011322021484 0.8604671359062195 L 10.36387062072754 4.440470218658447 L 7.402174472808838 7.402174949645996 L 4.48930025100708 10.31504917144775 Z"/><path class="r" d="M 1.730582237243652 1.720914840698242 L 4.680450439453125 9.416769027709961 L 7.048614501953125 7.048604965209961 L 9.462241172790527 4.6349778175354 L 1.730582237243652 1.720914840698242 M 4.76837158203125e-06 -4.76837158203125e-06 L 11.26548385620117 4.245954990386963 L 7.755724430084229 7.755715370178223 L 4.298134326934814 11.21330547332764 L 4.76837158203125e-06 -4.76837158203125e-06 Z"/></g><path class="e" d="M0,0V38.258" transform="translate(-216.127 1046.947) rotate(90)"/></g><g class="c" transform="translate(7476.5 1303.429) rotate(90)"><g class="d" transform="translate(-203.5 1034) rotate(45)"><path class="p" d="M 4.48930025100708 10.31504917144775 L 0.8653011322021484 0.8604671359062195 L 10.36387062072754 4.440470218658447 L 7.402174472808838 7.402174949645996 L 4.48930025100708 10.31504917144775 Z"/><path class="r" d="M 1.730582237243652 1.720914840698242 L 4.680450439453125 9.416769027709961 L 7.048614501953125 7.048604965209961 L 9.462241172790527 4.6349778175354 L 1.730582237243652 1.720914840698242 M 4.76837158203125e-06 -4.76837158203125e-06 L 11.26548385620117 4.245954990386963 L 7.755724430084229 7.755715370178223 L 4.298134326934814 11.21330547332764 L 4.76837158203125e-06 -4.76837158203125e-06 Z"/></g><line class="e" y2="16" transform="translate(-203.482 1035.627)"/><line class="e" x1="0.018" y2="28.873" transform="translate(-203.5 1035.627)"/><g class="d" transform="translate(-203.5 1034) rotate(45)"><path class="p" d="M 4.48930025100708 10.31504917144775 L 0.8653011322021484 0.8604671359062195 L 10.36387062072754 4.440470218658447 L 7.402174472808838 7.402174949645996 L 4.48930025100708 10.31504917144775 Z"/><path class="r" d="M 1.730582237243652 1.720914840698242 L 4.680450439453125 9.416769027709961 L 7.048614501953125 7.048604965209961 L 9.462241172790527 4.6349778175354 L 1.730582237243652 1.720914840698242 M 4.76837158203125e-06 -4.76837158203125e-06 L 11.26548385620117 4.245954990386963 L 7.755724430084229 7.755715370178223 L 4.298134326934814 11.21330547332764 L 4.76837158203125e-06 -4.76837158203125e-06 Z"/></g><line class="e" y2="16" transform="translate(-203.482 1035.627)"/><line class="e" x1="0.018" y2="28.873" transform="translate(-203.5 1035.627)"/></g><path class="h" d="M2.512,1.5V95.3" transform="translate(6409.988 1004.447)"/><text class="a" transform="translate(5814 957)"><tspan x="-24.082" y="0">Step</tspan></text><text class="f" transform="translate(5814 1054)"><tspan x="-12.041" y="0">1.</tspan></text><path class="h" d="M0,0V15.232" transform="translate(6017.848 1178.947) rotate(90)"/><g class="b" transform="translate(5963 1160)"><circle class="p" cx="20" cy="20" r="20"/><circle class="q" cx="20" cy="20" r="19.5"/></g><text class="f" transform="translate(5983 1187)"><tspan x="-6.021" y="0">S</tspan></text><g class="b" transform="translate(6018 1159)"><circle class="p" cx="20" cy="20" r="20"/><circle class="q" cx="20" cy="20" r="19.5"/></g><text class="f" transform="translate(6038 1188)"><tspan x="-6.021" y="0">A</tspan></text><path class="h" d="M0,0V15.232" transform="translate(6017.848 1224.947) rotate(90)"/><g class="b" transform="translate(5963 1206)"><circle class="p" cx="20" cy="20" r="20"/><circle class="q" cx="20" cy="20" r="19.5"/></g><text class="f" transform="translate(5983 1233)"><tspan x="-6.021" y="0">S</tspan></text><g class="b" transform="translate(6018 1205)"><circle class="p" cx="20" cy="20" r="20"/><circle class="q" cx="20" cy="20" r="19.5"/></g><text class="f" transform="translate(6038 1234)"><tspan x="-6.021" y="0">C</tspan></text><text class="f" transform="translate(5814 1184)"><tspan x="-12.041" y="0">2.</tspan></text><text class="f" transform="translate(6525 1011)"><tspan x="-30.103" y="0">-0.39</tspan></text><text class="f" transform="translate(6525 1059)"><tspan x="-30.103" y="0">-0.60</tspan></text><text class="f" transform="translate(6525 1105)"><tspan x="-30.103" y="0">-0.45</tspan></text><text class="f" transform="translate(6114 1185)"><tspan x="-30.103" y="0">-0.39</tspan></text><text class="f" transform="translate(6114 1231)"><tspan x="-30.103" y="0">-0.45</tspan></text><text class="f" transform="translate(6114 1054)"><tspan x="-24.082" y="0">0.00</tspan></text><g class="c" transform="translate(7476.5 1383.429) rotate(90)"><g class="d" transform="translate(-203.5 1034) rotate(45)"><path class="p" d="M 4.48930025100708 10.31504917144775 L 0.8653011322021484 0.8604671359062195 L 10.36387062072754 4.440470218658447 L 7.402174472808838 7.402174949645996 L 4.48930025100708 10.31504917144775 Z"/><path class="r" d="M 1.730582237243652 1.720914840698242 L 4.680450439453125 9.416769027709961 L 7.048614501953125 7.048604965209961 L 9.462241172790527 4.6349778175354 L 1.730582237243652 1.720914840698242 M 4.76837158203125e-06 -4.76837158203125e-06 L 11.26548385620117 4.245954990386963 L 7.755724430084229 7.755715370178223 L 4.298134326934814 11.21330547332764 L 4.76837158203125e-06 -4.76837158203125e-06 Z"/></g><line class="e" y2="16" transform="translate(-203.482 1035.627)"/><line class="e" x1="0.018" y2="28.873" transform="translate(-203.5 1035.627)"/><g class="d" transform="translate(-203.5 1034) rotate(45)"><path class="p" d="M 4.48930025100708 10.31504917144775 L 0.8653011322021484 0.8604671359062195 L 10.36387062072754 4.440470218658447 L 7.402174472808838 7.402174949645996 L 4.48930025100708 10.31504917144775 Z"/><path class="r" d="M 1.730582237243652 1.720914840698242 L 4.680450439453125 9.416769027709961 L 7.048614501953125 7.048604965209961 L 9.462241172790527 4.6349778175354 L 1.730582237243652 1.720914840698242 M 4.76837158203125e-06 -4.76837158203125e-06 L 11.26548385620117 4.245954990386963 L 7.755724430084229 7.755715370178223 L 4.298134326934814 11.21330547332764 L 4.76837158203125e-06 -4.76837158203125e-06 Z"/></g><line class="e" y2="16" transform="translate(-203.482 1035.627)"/><line class="e" x1="0.018" y2="28.873" transform="translate(-203.5 1035.627)"/></g><g class="b" transform="translate(6448 1160)"><circle class="p" cx="20" cy="20" r="20"/><circle class="q" cx="20" cy="20" r="19.5"/></g><text class="f" transform="translate(6468 1187)"><tspan x="-6.021" y="0">A</tspan></text><g class="g" transform="translate(6448 1206)"><circle class="p" cx="20" cy="20" r="20"/><circle class="q" cx="20" cy="20" r="19"/></g><text class="f" transform="translate(6468 1233)"><tspan x="-6.021" y="0">B</tspan></text><g class="b" transform="translate(6448 1252)"><circle class="p" cx="20" cy="20" r="20"/><circle class="q" cx="20" cy="20" r="19.5"/></g><text class="f" transform="translate(6468 1279)"><tspan x="-6.021" y="0">C</tspan></text><path class="h" d="M.018,0" transform="translate(6440.873 1225.929) rotate(90)"/><g class="c" transform="translate(6657 179)"><g class="d" transform="translate(-214.5 1046.929) rotate(135)"><path class="p" d="M 4.48930025100708 10.31504917144775 L 0.8653011322021484 0.8604671359062195 L 10.36387062072754 4.440470218658447 L 7.402174472808838 7.402174949645996 L 4.48930025100708 10.31504917144775 Z"/><path class="r" d="M 1.730582237243652 1.720914840698242 L 4.680450439453125 9.416769027709961 L 7.048614501953125 7.048604965209961 L 9.462241172790527 4.6349778175354 L 1.730582237243652 1.720914840698242 M 4.76837158203125e-06 -4.76837158203125e-06 L 11.26548385620117 4.245954990386963 L 7.755724430084229 7.755715370178223 L 4.298134326934814 11.21330547332764 L 4.76837158203125e-06 -4.76837158203125e-06 Z"/></g><line class="e" y2="16" transform="translate(-216.127 1046.947) rotate(90)"/><g class="d" transform="translate(-214.5 1046.929) rotate(135)"><path class="p" d="M 4.48930025100708 10.31504917144775 L 0.8653011322021484 0.8604671359062195 L 10.36387062072754 4.440470218658447 L 7.402174472808838 7.402174949645996 L 4.48930025100708 10.31504917144775 Z"/><path class="r" d="M 1.730582237243652 1.720914840698242 L 4.680450439453125 9.416769027709961 L 7.048614501953125 7.048604965209961 L 9.462241172790527 4.6349778175354 L 1.730582237243652 1.720914840698242 M 4.76837158203125e-06 -4.76837158203125e-06 L 11.26548385620117 4.245954990386963 L 7.755724430084229 7.755715370178223 L 4.298134326934814 11.21330547332764 L 4.76837158203125e-06 -4.76837158203125e-06 Z"/></g><path class="e" d="M0,0V38.258" transform="translate(-216.127 1046.947) rotate(90)"/></g><g class="c" transform="translate(7476.5 1477.429) rotate(90)"><g class="d" transform="translate(-203.5 1034) rotate(45)"><path class="p" d="M 4.48930025100708 10.31504917144775 L 0.8653011322021484 0.8604671359062195 L 10.36387062072754 4.440470218658447 L 7.402174472808838 7.402174949645996 L 4.48930025100708 10.31504917144775 Z"/><path class="r" d="M 1.730582237243652 1.720914840698242 L 4.680450439453125 9.416769027709961 L 7.048614501953125 7.048604965209961 L 9.462241172790527 4.6349778175354 L 1.730582237243652 1.720914840698242 M 4.76837158203125e-06 -4.76837158203125e-06 L 11.26548385620117 4.245954990386963 L 7.755724430084229 7.755715370178223 L 4.298134326934814 11.21330547332764 L 4.76837158203125e-06 -4.76837158203125e-06 Z"/></g><line class="e" y2="16" transform="translate(-203.482 1035.627)"/><line class="e" x1="0.018" y2="28.873" transform="translate(-203.5 1035.627)"/><g class="d" transform="translate(-203.5 1034) rotate(45)"><path class="p" d="M 4.48930025100708 10.31504917144775 L 0.8653011322021484 0.8604671359062195 L 10.36387062072754 4.440470218658447 L 7.402174472808838 7.402174949645996 L 4.48930025100708 10.31504917144775 Z"/><path class="r" d="M 1.730582237243652 1.720914840698242 L 4.680450439453125 9.416769027709961 L 7.048614501953125 7.048604965209961 L 9.462241172790527 4.6349778175354 L 1.730582237243652 1.720914840698242 M 4.76837158203125e-06 -4.76837158203125e-06 L 11.26548385620117 4.245954990386963 L 7.755724430084229 7.755715370178223 L 4.298134326934814 11.21330547332764 L 4.76837158203125e-06 -4.76837158203125e-06 Z"/></g><line class="e" y2="16" transform="translate(-203.482 1035.627)"/><line class="e" x1="0.018" y2="28.873" transform="translate(-203.5 1035.627)"/></g><path class="h" d="M2.512,1.5V95.3" transform="translate(6409.988 1178.447)"/><text class="f" transform="translate(6626 1187)"><tspan x="-126.431" y="0">-0.39 + -1.00 = -1.39</tspan></text><line class="e" x2="1013" transform="translate(5751.5 968.5)"/><path class="h" d="M0,0V15.232" transform="translate(6362.848 1226.947) rotate(90)"/><g class="b" transform="translate(6308 1208)"><circle class="p" cx="20" cy="20" r="20"/><circle class="q" cx="20" cy="20" r="19.5"/></g><text class="f" transform="translate(6328 1235)"><tspan x="-6.021" y="0">S</tspan></text><g class="b" transform="translate(6363 1207)"><circle class="p" cx="20" cy="20" r="20"/><circle class="q" cx="20" cy="20" r="19.5"/></g><text class="f" transform="translate(6383 1236)"><tspan x="-6.021" y="0">A</tspan></text><g class="c" transform="translate(7475.5 1531.429) rotate(90)"><g class="d" transform="translate(-203.5 1034) rotate(45)"><path class="p" d="M 4.48930025100708 10.31504917144775 L 0.8653011322021484 0.8604671359062195 L 10.36387062072754 4.440470218658447 L 7.402174472808838 7.402174949645996 L 4.48930025100708 10.31504917144775 Z"/><path class="r" d="M 1.730582237243652 1.720914840698242 L 4.680450439453125 9.416769027709961 L 7.048614501953125 7.048604965209961 L 9.462241172790527 4.6349778175354 L 1.730582237243652 1.720914840698242 M 4.76837158203125e-06 -4.76837158203125e-06 L 11.26548385620117 4.245954990386963 L 7.755724430084229 7.755715370178223 L 4.298134326934814 11.21330547332764 L 4.76837158203125e-06 -4.76837158203125e-06 Z"/></g><line class="e" y2="16" transform="translate(-203.482 1035.627)"/><line class="e" x1="0.018" y2="28.873" transform="translate(-203.5 1035.627)"/><g class="d" transform="translate(-203.5 1034) rotate(45)"><path class="p" d="M 4.48930025100708 10.31504917144775 L 0.8653011322021484 0.8604671359062195 L 10.36387062072754 4.440470218658447 L 7.402174472808838 7.402174949645996 L 4.48930025100708 10.31504917144775 Z"/><path class="r" d="M 1.730582237243652 1.720914840698242 L 4.680450439453125 9.416769027709961 L 7.048614501953125 7.048604965209961 L 9.462241172790527 4.6349778175354 L 1.730582237243652 1.720914840698242 M 4.76837158203125e-06 -4.76837158203125e-06 L 11.26548385620117 4.245954990386963 L 7.755724430084229 7.755715370178223 L 4.298134326934814 11.21330547332764 L 4.76837158203125e-06 -4.76837158203125e-06 Z"/></g><line class="e" y2="16" transform="translate(-203.482 1035.627)"/><line class="e" x1="0.018" y2="28.873" transform="translate(-203.5 1035.627)"/></g><g class="b" transform="translate(6447 1308)"><circle class="p" cx="20" cy="20" r="20"/><circle class="q" cx="20" cy="20" r="19.5"/></g><text class="f" transform="translate(6467 1335)"><tspan x="-6.021" y="0">A</tspan></text><g class="b" transform="translate(6447 1354)"><circle class="p" cx="20" cy="20" r="20"/><circle class="q" cx="20" cy="20" r="19.5"/></g><text class="f" transform="translate(6467 1381)"><tspan x="-6.021" y="0">B</tspan></text><g class="g" transform="translate(6447 1400)"><circle class="p" cx="20" cy="20" r="20"/><circle class="q" cx="20" cy="20" r="19"/></g><text class="f" transform="translate(6467 1427)"><tspan x="-6.021" y="0">C</tspan></text><path class="h" d="M.018,0" transform="translate(6439.873 1373.929) rotate(90)"/><g class="c" transform="translate(6656 327)"><g class="d" transform="translate(-214.5 1046.929) rotate(135)"><path class="p" d="M 4.48930025100708 10.31504917144775 L 0.8653011322021484 0.8604671359062195 L 10.36387062072754 4.440470218658447 L 7.402174472808838 7.402174949645996 L 4.48930025100708 10.31504917144775 Z"/><path class="r" d="M 1.730582237243652 1.720914840698242 L 4.680450439453125 9.416769027709961 L 7.048614501953125 7.048604965209961 L 9.462241172790527 4.6349778175354 L 1.730582237243652 1.720914840698242 M 4.76837158203125e-06 -4.76837158203125e-06 L 11.26548385620117 4.245954990386963 L 7.755724430084229 7.755715370178223 L 4.298134326934814 11.21330547332764 L 4.76837158203125e-06 -4.76837158203125e-06 Z"/></g><line class="e" y2="16" transform="translate(-216.127 1046.947) rotate(90)"/><g class="d" transform="translate(-214.5 1046.929) rotate(135)"><path class="p" d="M 4.48930025100708 10.31504917144775 L 0.8653011322021484 0.8604671359062195 L 10.36387062072754 4.440470218658447 L 7.402174472808838 7.402174949645996 L 4.48930025100708 10.31504917144775 Z"/><path class="r" d="M 1.730582237243652 1.720914840698242 L 4.680450439453125 9.416769027709961 L 7.048614501953125 7.048604965209961 L 9.462241172790527 4.6349778175354 L 1.730582237243652 1.720914840698242 M 4.76837158203125e-06 -4.76837158203125e-06 L 11.26548385620117 4.245954990386963 L 7.755724430084229 7.755715370178223 L 4.298134326934814 11.21330547332764 L 4.76837158203125e-06 -4.76837158203125e-06 Z"/></g><path class="e" d="M0,0V38.258" transform="translate(-216.127 1046.947) rotate(90)"/></g><g class="c" transform="translate(7475.5 1625.429) rotate(90)"><g class="d" transform="translate(-203.5 1034) rotate(45)"><path class="p" d="M 4.48930025100708 10.31504917144775 L 0.8653011322021484 0.8604671359062195 L 10.36387062072754 4.440470218658447 L 7.402174472808838 7.402174949645996 L 4.48930025100708 10.31504917144775 Z"/><path class="r" d="M 1.730582237243652 1.720914840698242 L 4.680450439453125 9.416769027709961 L 7.048614501953125 7.048604965209961 L 9.462241172790527 4.6349778175354 L 1.730582237243652 1.720914840698242 M 4.76837158203125e-06 -4.76837158203125e-06 L 11.26548385620117 4.245954990386963 L 7.755724430084229 7.755715370178223 L 4.298134326934814 11.21330547332764 L 4.76837158203125e-06 -4.76837158203125e-06 Z"/></g><line class="e" y2="16" transform="translate(-203.482 1035.627)"/><line class="e" x1="0.018" y2="28.873" transform="translate(-203.5 1035.627)"/><g class="d" transform="translate(-203.5 1034) rotate(45)"><path class="p" d="M 4.48930025100708 10.31504917144775 L 0.8653011322021484 0.8604671359062195 L 10.36387062072754 4.440470218658447 L 7.402174472808838 7.402174949645996 L 4.48930025100708 10.31504917144775 Z"/><path class="r" d="M 1.730582237243652 1.720914840698242 L 4.680450439453125 9.416769027709961 L 7.048614501953125 7.048604965209961 L 9.462241172790527 4.6349778175354 L 1.730582237243652 1.720914840698242 M 4.76837158203125e-06 -4.76837158203125e-06 L 11.26548385620117 4.245954990386963 L 7.755724430084229 7.755715370178223 L 4.298134326934814 11.21330547332764 L 4.76837158203125e-06 -4.76837158203125e-06 Z"/></g><line class="e" y2="16" transform="translate(-203.482 1035.627)"/><line class="e" x1="0.018" y2="28.873" transform="translate(-203.5 1035.627)"/></g><path class="h" d="M2.512,1.5V95.3" transform="translate(6408.988 1326.447)"/><path class="h" d="M0,0V15.232" transform="translate(6361.848 1374.947) rotate(90)"/><g class="b" transform="translate(6307 1356)"><circle class="p" cx="20" cy="20" r="20"/><circle class="q" cx="20" cy="20" r="19.5"/></g><text class="f" transform="translate(6327 1383)"><tspan x="-6.021" y="0">S</tspan></text><g class="b" transform="translate(6362 1355)"><circle class="p" cx="20" cy="20" r="20"/><circle class="q" cx="20" cy="20" r="19.5"/></g><text class="f" transform="translate(6382 1384)"><tspan x="-6.021" y="0">C</tspan></text><text class="f" transform="translate(6626 1233)"><tspan x="-126.431" y="0">-0.39 + -0.01 = </tspan><tspan class="i" y="0">-0.40</tspan></text><text class="f" transform="translate(6626 1279)"><tspan x="-126.431" y="0">-0.39 + -1.00 = -1.39</tspan></text><text class="f" transform="translate(6627 1335)"><tspan x="-126.431" y="0">-0.45 + -0.52 = -0.97</tspan></text><text class="f" transform="translate(6627 1381)"><tspan x="-126.431" y="0">-0.45 + -0.52 = -0.97</tspan></text><text class="f" transform="translate(6627 1427)"><tspan x="-126.431" y="0">-0.45 + -0.39 = </tspan><tspan class="i" y="0">-0.84</tspan></text><text class="j" transform="translate(5814 1491)"><tspan x="-12.041" y="0">3.</tspan></text><path class="e" d="M0,0V15.232" transform="translate(5963.847 1491.947) rotate(90)"/><g class="k" transform="translate(5909 1473)"><circle class="p" cx="20" cy="20" r="20"/><circle class="q" cx="20" cy="20" r="19.5"/></g><text class="j" transform="translate(5929 1500)"><tspan x="-6.021" y="0">S</tspan></text><g class="k" transform="translate(5964 1472)"><circle class="p" cx="20" cy="20" r="20"/><circle class="q" cx="20" cy="20" r="19.5"/></g><text class="j" transform="translate(5984 1501)"><tspan x="-6.021" y="0">A</tspan></text><text class="j" transform="translate(6106 1500)"><tspan x="-30.103" y="0">-0.40</tspan></text><text class="j" transform="translate(6106 1546)"><tspan x="-30.103" y="0">-0.84</tspan></text><path class="e" d="M0,0V15.232" transform="translate(6017.848 1492.947) rotate(90)"/><g class="k" transform="translate(6018 1473)"><circle class="p" cx="20" cy="20" r="20"/><circle class="q" cx="20" cy="20" r="19.5"/></g><text class="j" transform="translate(6038 1500)"><tspan x="-6.021" y="0">B</tspan></text><path class="e" d="M0,0V15.232" transform="translate(5963.847 1538.947) rotate(90)"/><g class="k" transform="translate(5909 1520)"><circle class="p" cx="20" cy="20" r="20"/><circle class="q" cx="20" cy="20" r="19.5"/></g><text class="j" transform="translate(5929 1547)"><tspan x="-6.021" y="0">S</tspan></text><g class="k" transform="translate(5964 1519)"><circle class="p" cx="20" cy="20" r="20"/><circle class="q" cx="20" cy="20" r="19.5"/></g><text class="j" transform="translate(5984 1546)"><tspan x="-6.021" y="0">C</tspan></text><path class="e" d="M0,0V15.232" transform="translate(6017.848 1539.947) rotate(90)"/><g class="k" transform="translate(6018 1520)"><circle class="p" cx="20" cy="20" r="20"/><circle class="q" cx="20" cy="20" r="19.5"/></g><text class="j" transform="translate(6038 1547)"><tspan x="-6.021" y="0">C</tspan></text><g transform="translate(7476.5 1702.429) rotate(90)"><g class="d" transform="translate(-203.5 1034) rotate(45)"><path class="p" d="M 4.48930025100708 10.31504917144775 L 0.8653011322021484 0.8604671359062195 L 10.36387062072754 4.440470218658447 L 7.402174472808838 7.402174949645996 L 4.48930025100708 10.31504917144775 Z"/><path class="r" d="M 1.730582237243652 1.720914840698242 L 4.680450439453125 9.416769027709961 L 7.048614501953125 7.048604965209961 L 9.462241172790527 4.6349778175354 L 1.730582237243652 1.720914840698242 M 4.76837158203125e-06 -4.76837158203125e-06 L 11.26548385620117 4.245954990386963 L 7.755724430084229 7.755715370178223 L 4.298134326934814 11.21330547332764 L 4.76837158203125e-06 -4.76837158203125e-06 Z"/></g><line class="e" y2="16" transform="translate(-203.482 1035.627)"/><line class="e" x1="0.018" y2="28.873" transform="translate(-203.5 1035.627)"/><g class="d" transform="translate(-203.5 1034) rotate(45)"><path class="p" d="M 4.48930025100708 10.31504917144775 L 0.8653011322021484 0.8604671359062195 L 10.36387062072754 4.440470218658447 L 7.402174472808838 7.402174949645996 L 4.48930025100708 10.31504917144775 Z"/><path class="r" d="M 1.730582237243652 1.720914840698242 L 4.680450439453125 9.416769027709961 L 7.048614501953125 7.048604965209961 L 9.462241172790527 4.6349778175354 L 1.730582237243652 1.720914840698242 M 4.76837158203125e-06 -4.76837158203125e-06 L 11.26548385620117 4.245954990386963 L 7.755724430084229 7.755715370178223 L 4.298134326934814 11.21330547332764 L 4.76837158203125e-06 -4.76837158203125e-06 Z"/></g><line class="e" y2="16" transform="translate(-203.482 1035.627)"/><line class="e" x1="0.018" y2="28.873" transform="translate(-203.5 1035.627)"/></g><g class="k" transform="translate(6448 1479)"><circle class="p" cx="20" cy="20" r="20"/><circle class="q" cx="20" cy="20" r="19.5"/></g><text class="j" transform="translate(6468 1506)"><tspan x="-6.021" y="0">A</tspan></text><g class="l" transform="translate(6448 1525)"><circle class="p" cx="20" cy="20" r="20"/><circle class="q" cx="20" cy="20" r="19"/></g><text class="j" transform="translate(6468 1552)"><tspan x="-6.021" y="0">B</tspan></text><g class="l" transform="translate(6448 1571)"><circle class="p" cx="20" cy="20" r="20"/><circle class="q" cx="20" cy="20" r="19"/></g><text class="j" transform="translate(6468 1598)"><tspan x="-6.021" y="0">C</tspan></text><path class="e" d="M.018,0" transform="translate(6440.873 1544.929) rotate(90)"/><g transform="translate(6657 498)"><g class="d" transform="translate(-214.5 1046.929) rotate(135)"><path class="p" d="M 4.48930025100708 10.31504917144775 L 0.8653011322021484 0.8604671359062195 L 10.36387062072754 4.440470218658447 L 7.402174472808838 7.402174949645996 L 4.48930025100708 10.31504917144775 Z"/><path class="r" d="M 1.730582237243652 1.720914840698242 L 4.680450439453125 9.416769027709961 L 7.048614501953125 7.048604965209961 L 9.462241172790527 4.6349778175354 L 1.730582237243652 1.720914840698242 M 4.76837158203125e-06 -4.76837158203125e-06 L 11.26548385620117 4.245954990386963 L 7.755724430084229 7.755715370178223 L 4.298134326934814 11.21330547332764 L 4.76837158203125e-06 -4.76837158203125e-06 Z"/></g><line class="e" y2="16" transform="translate(-216.127 1046.947) rotate(90)"/><g class="d" transform="translate(-214.5 1046.929) rotate(135)"><path class="p" d="M 4.48930025100708 10.31504917144775 L 0.8653011322021484 0.8604671359062195 L 10.36387062072754 4.440470218658447 L 7.402174472808838 7.402174949645996 L 4.48930025100708 10.31504917144775 Z"/><path class="r" d="M 1.730582237243652 1.720914840698242 L 4.680450439453125 9.416769027709961 L 7.048614501953125 7.048604965209961 L 9.462241172790527 4.6349778175354 L 1.730582237243652 1.720914840698242 M 4.76837158203125e-06 -4.76837158203125e-06 L 11.26548385620117 4.245954990386963 L 7.755724430084229 7.755715370178223 L 4.298134326934814 11.21330547332764 L 4.76837158203125e-06 -4.76837158203125e-06 Z"/></g><path class="e" d="M0,0V38.258" transform="translate(-216.127 1046.947) rotate(90)"/></g><g transform="translate(7476.5 1796.429) rotate(90)"><g class="d" transform="translate(-203.5 1034) rotate(45)"><path class="p" d="M 4.48930025100708 10.31504917144775 L 0.8653011322021484 0.8604671359062195 L 10.36387062072754 4.440470218658447 L 7.402174472808838 7.402174949645996 L 4.48930025100708 10.31504917144775 Z"/><path class="r" d="M 1.730582237243652 1.720914840698242 L 4.680450439453125 9.416769027709961 L 7.048614501953125 7.048604965209961 L 9.462241172790527 4.6349778175354 L 1.730582237243652 1.720914840698242 M 4.76837158203125e-06 -4.76837158203125e-06 L 11.26548385620117 4.245954990386963 L 7.755724430084229 7.755715370178223 L 4.298134326934814 11.21330547332764 L 4.76837158203125e-06 -4.76837158203125e-06 Z"/></g><line class="e" y2="16" transform="translate(-203.482 1035.627)"/><line class="e" x1="0.018" y2="28.873" transform="translate(-203.5 1035.627)"/><g class="d" transform="translate(-203.5 1034) rotate(45)"><path class="p" d="M 4.48930025100708 10.31504917144775 L 0.8653011322021484 0.8604671359062195 L 10.36387062072754 4.440470218658447 L 7.402174472808838 7.402174949645996 L 4.48930025100708 10.31504917144775 Z"/><path class="r" d="M 1.730582237243652 1.720914840698242 L 4.680450439453125 9.416769027709961 L 7.048614501953125 7.048604965209961 L 9.462241172790527 4.6349778175354 L 1.730582237243652 1.720914840698242 M 4.76837158203125e-06 -4.76837158203125e-06 L 11.26548385620117 4.245954990386963 L 7.755724430084229 7.755715370178223 L 4.298134326934814 11.21330547332764 L 4.76837158203125e-06 -4.76837158203125e-06 Z"/></g><line class="e" y2="16" transform="translate(-203.482 1035.627)"/><line class="e" x1="0.018" y2="28.873" transform="translate(-203.5 1035.627)"/></g><path class="e" d="M2.512,1.5V95.3" transform="translate(6409.988 1497.447)"/><text class="j" transform="translate(6500 1506)"><tspan x="0" y="0">-0.40 + -0.70 = -1.10</tspan></text><text class="j" transform="translate(6500 1552)"><tspan x="0" y="0">-0.40 + -0.50 =</tspan><tspan class="m" y="0"> </tspan><tspan class="i" y="0">-0.90</tspan></text><text class="j" transform="translate(6500 1598)"><tspan x="0" y="0">-0.40 + -0.55 =</tspan><tspan class="n" y="0"> </tspan><tspan class="i" y="0">-0.95</tspan></text><path class="e" d="M0,0V15.232" transform="translate(6307.848 1544.947) rotate(90)"/><g class="k" transform="translate(6253 1526)"><circle class="p" cx="20" cy="20" r="20"/><circle class="q" cx="20" cy="20" r="19.5"/></g><text class="j" transform="translate(6273 1553)"><tspan x="-6.021" y="0">S</tspan></text><g class="k" transform="translate(6308 1525)"><circle class="p" cx="20" cy="20" r="20"/><circle class="q" cx="20" cy="20" r="19.5"/></g><text class="j" transform="translate(6328 1554)"><tspan x="-6.021" y="0">A</tspan></text><path class="e" d="M0,0V15.232" transform="translate(6361.848 1545.947) rotate(90)"/><g class="k" transform="translate(6362 1526)"><circle class="p" cx="20" cy="20" r="20"/><circle class="q" cx="20" cy="20" r="19.5"/></g><text class="j" transform="translate(6382 1553)"><tspan x="-6.021" y="0">B</tspan></text><g transform="translate(7476.5 1843.429) rotate(90)"><g class="d" transform="translate(-203.5 1034) rotate(45)"><path class="p" d="M 4.48930025100708 10.31504917144775 L 0.8653011322021484 0.8604671359062195 L 10.36387062072754 4.440470218658447 L 7.402174472808838 7.402174949645996 L 4.48930025100708 10.31504917144775 Z"/><path class="r" d="M 1.730582237243652 1.720914840698242 L 4.680450439453125 9.416769027709961 L 7.048614501953125 7.048604965209961 L 9.462241172790527 4.6349778175354 L 1.730582237243652 1.720914840698242 M 4.76837158203125e-06 -4.76837158203125e-06 L 11.26548385620117 4.245954990386963 L 7.755724430084229 7.755715370178223 L 4.298134326934814 11.21330547332764 L 4.76837158203125e-06 -4.76837158203125e-06 Z"/></g><line class="e" y2="16" transform="translate(-203.482 1035.627)"/><line class="e" x1="0.018" y2="28.873" transform="translate(-203.5 1035.627)"/><g class="d" transform="translate(-203.5 1034) rotate(45)"><path class="p" d="M 4.48930025100708 10.31504917144775 L 0.8653011322021484 0.8604671359062195 L 10.36387062072754 4.440470218658447 L 7.402174472808838 7.402174949645996 L 4.48930025100708 10.31504917144775 Z"/><path class="r" d="M 1.730582237243652 1.720914840698242 L 4.680450439453125 9.416769027709961 L 7.048614501953125 7.048604965209961 L 9.462241172790527 4.6349778175354 L 1.730582237243652 1.720914840698242 M 4.76837158203125e-06 -4.76837158203125e-06 L 11.26548385620117 4.245954990386963 L 7.755724430084229 7.755715370178223 L 4.298134326934814 11.21330547332764 L 4.76837158203125e-06 -4.76837158203125e-06 Z"/></g><line class="e" y2="16" transform="translate(-203.482 1035.627)"/><line class="e" x1="0.018" y2="28.873" transform="translate(-203.5 1035.627)"/></g><g class="k" transform="translate(6448 1623)"><circle class="p" cx="20" cy="20" r="20"/><circle class="q" cx="20" cy="20" r="19.5"/></g><text class="j" transform="translate(6468 1650)"><tspan x="-6.021" y="0">A</tspan></text><g class="k" transform="translate(6448 1666)"><circle class="p" cx="20" cy="20" r="20"/><circle class="q" cx="20" cy="20" r="19.5"/></g><text class="j" transform="translate(6468 1693)"><tspan x="-6.021" y="0">B</tspan></text><g class="k" transform="translate(6448 1712)"><circle class="p" cx="20" cy="20" r="20"/><circle class="q" cx="20" cy="20" r="19.5"/></g><text class="j" transform="translate(6468 1739)"><tspan x="-6.021" y="0">C</tspan></text><path class="e" d="M.018,0" transform="translate(6440.873 1685.929) rotate(90)"/><g transform="translate(6657 639)"><g class="d" transform="translate(-214.5 1046.929) rotate(135)"><path class="p" d="M 4.48930025100708 10.31504917144775 L 0.8653011322021484 0.8604671359062195 L 10.36387062072754 4.440470218658447 L 7.402174472808838 7.402174949645996 L 4.48930025100708 10.31504917144775 Z"/><path class="r" d="M 1.730582237243652 1.720914840698242 L 4.680450439453125 9.416769027709961 L 7.048614501953125 7.048604965209961 L 9.462241172790527 4.6349778175354 L 1.730582237243652 1.720914840698242 M 4.76837158203125e-06 -4.76837158203125e-06 L 11.26548385620117 4.245954990386963 L 7.755724430084229 7.755715370178223 L 4.298134326934814 11.21330547332764 L 4.76837158203125e-06 -4.76837158203125e-06 Z"/></g><line class="e" y2="16" transform="translate(-216.127 1046.947) rotate(90)"/><g class="d" transform="translate(-214.5 1046.929) rotate(135)"><path class="p" d="M 4.48930025100708 10.31504917144775 L 0.8653011322021484 0.8604671359062195 L 10.36387062072754 4.440470218658447 L 7.402174472808838 7.402174949645996 L 4.48930025100708 10.31504917144775 Z"/><path class="r" d="M 1.730582237243652 1.720914840698242 L 4.680450439453125 9.416769027709961 L 7.048614501953125 7.048604965209961 L 9.462241172790527 4.6349778175354 L 1.730582237243652 1.720914840698242 M 4.76837158203125e-06 -4.76837158203125e-06 L 11.26548385620117 4.245954990386963 L 7.755724430084229 7.755715370178223 L 4.298134326934814 11.21330547332764 L 4.76837158203125e-06 -4.76837158203125e-06 Z"/></g><path class="e" d="M0,0V38.258" transform="translate(-216.127 1046.947) rotate(90)"/></g><g transform="translate(7476.5 1937.429) rotate(90)"><g class="d" transform="translate(-203.5 1034) rotate(45)"><path class="p" d="M 4.48930025100708 10.31504917144775 L 0.8653011322021484 0.8604671359062195 L 10.36387062072754 4.440470218658447 L 7.402174472808838 7.402174949645996 L 4.48930025100708 10.31504917144775 Z"/><path class="r" d="M 1.730582237243652 1.720914840698242 L 4.680450439453125 9.416769027709961 L 7.048614501953125 7.048604965209961 L 9.462241172790527 4.6349778175354 L 1.730582237243652 1.720914840698242 M 4.76837158203125e-06 -4.76837158203125e-06 L 11.26548385620117 4.245954990386963 L 7.755724430084229 7.755715370178223 L 4.298134326934814 11.21330547332764 L 4.76837158203125e-06 -4.76837158203125e-06 Z"/></g><line class="e" y2="16" transform="translate(-203.482 1035.627)"/><line class="e" x1="0.018" y2="28.873" transform="translate(-203.5 1035.627)"/><g class="d" transform="translate(-203.5 1034) rotate(45)"><path class="p" d="M 4.48930025100708 10.31504917144775 L 0.8653011322021484 0.8604671359062195 L 10.36387062072754 4.440470218658447 L 7.402174472808838 7.402174949645996 L 4.48930025100708 10.31504917144775 Z"/><path class="r" d="M 1.730582237243652 1.720914840698242 L 4.680450439453125 9.416769027709961 L 7.048614501953125 7.048604965209961 L 9.462241172790527 4.6349778175354 L 1.730582237243652 1.720914840698242 M 4.76837158203125e-06 -4.76837158203125e-06 L 11.26548385620117 4.245954990386963 L 7.755724430084229 7.755715370178223 L 4.298134326934814 11.21330547332764 L 4.76837158203125e-06 -4.76837158203125e-06 Z"/></g><line class="e" y2="16" transform="translate(-203.482 1035.627)"/><line class="e" x1="0.018" y2="28.873" transform="translate(-203.5 1035.627)"/></g><path class="e" d="M2.512,1.5V95.3" transform="translate(6409.988 1638.447)"/><text class="j" transform="translate(6500 1650)"><tspan x="0" y="0">-0.84 + -0.66 = -1.50</tspan></text><text class="o" transform="translate(6500 1693)"><tspan x="0" y="0">-0.84 + -0.51 = -1.35</tspan></text><text class="j" transform="translate(6500 1739)"><tspan x="0" y="0">-0.84 + -0.56 = -1.40</tspan></text><path class="e" d="M0,0V15.232" transform="translate(6307.848 1685.947) rotate(90)"/><g class="k" transform="translate(6253 1667)"><circle class="p" cx="20" cy="20" r="20"/><circle class="q" cx="20" cy="20" r="19.5"/></g><text class="j" transform="translate(6273 1694)"><tspan x="-6.021" y="0">S</tspan></text><g class="k" transform="translate(6308 1666)"><circle class="p" cx="20" cy="20" r="20"/><circle class="q" cx="20" cy="20" r="19.5"/></g><text class="j" transform="translate(6328 1695)"><tspan x="-6.021" y="0">C</tspan></text><path class="e" d="M0,0V15.232" transform="translate(6361.848 1686.947) rotate(90)"/><g class="k" transform="translate(6362 1667)"><circle class="p" cx="20" cy="20" r="20"/><circle class="q" cx="20" cy="20" r="19.5"/></g><text class="j" transform="translate(6382 1694)"><tspan x="-6.021" y="0">C</tspan></text></g></svg>