<svg xmlns="http://www.w3.org/2000/svg" viewBox="0 0 526 678.501"><defs><style>.a,.i{fill:#707070;}.b,.g,.j{fill:none;}.b,.c{stroke:#707070;}.c,.e{fill:#fff;}.d{fill:#020000;}.d,.f{font-size:20px;font-family:Hack-Regular, Hack;}.e{stroke:#29dd3d;stroke-width:2px;}.g{stroke:#fff;}.h,.i{stroke:none;}</style></defs><g transform="translate(-8193 -2389)"><g transform="translate(-33 -28)"><g transform="translate(9343.5 2793.429) rotate(90)"><g class="a" transform="translate(-203.5 1034) rotate(45)"><path class="h" d="M 4.48930025100708 10.31504917144775 L 0.8653011322021484 0.8604671359062195 L 10.36387062072754 4.440470218658447 L 7.402174472808838 7.402174949645996 L 4.48930025100708 10.31504917144775 Z"/><path class="i" d="M 1.730582237243652 1.720914840698242 L 4.680450439453125 9.416769027709961 L 7.048614501953125 7.048604965209961 L 9.462241172790527 4.6349778175354 L 1.730582237243652 1.720914840698242 M 4.76837158203125e-06 -4.76837158203125e-06 L 11.26548385620117 4.245954990386963 L 7.755724430084229 7.755715370178223 L 4.298134326934814 11.21330547332764 L 4.76837158203125e-06 -4.76837158203125e-06 Z"/></g><line class="b" y2="16" transform="translate(-203.482 1035.627)"/><line class="b" x1="0.018" y2="28.873" transform="translate(-203.5 1035.627)"/><g class="a" transform="translate(-203.5 1034) rotate(45)"><path class="h" d="M 4.48930025100708 10.31504917144775 L 0.8653011322021484 0.8604671359062195 L 10.36387062072754 4.440470218658447 L 7.402174472808838 7.402174949645996 L 4.48930025100708 10.31504917144775 Z"/><path class="i" d="M 1.730582237243652 1.720914840698242 L 4.680450439453125 9.416769027709961 L 7.048614501953125 7.048604965209961 L 9.462241172790527 4.6349778175354 L 1.730582237243652 1.720914840698242 M 4.76837158203125e-06 -4.76837158203125e-06 L 11.26548385620117 4.245954990386963 L 7.755724430084229 7.755715370178223 L 4.298134326934814 11.21330547332764 L 4.76837158203125e-06 -4.76837158203125e-06 Z"/></g><line class="b" y2="16" transform="translate(-203.482 1035.627)"/><line class="b" x1="0.018" y2="28.873" transform="translate(-203.5 1035.627)"/></g><g class="c" transform="translate(8230 2661)"><circle class="h" cx="20" cy="20" r="20"/><circle class="j" cx="20" cy="20" r="19.5"/></g><text class="d" transform="translate(8250 2688)"><tspan x="-6.021" y="0">S</tspan></text><g class="e" transform="translate(8318 2570)"><circle class="h" cx="20" cy="20" r="20"/><circle class="j" cx="20" cy="20" r="19"/></g><text class="d" transform="translate(8338 2597)"><tspan x="-6.021" y="0">A</tspan></text><g class="c" transform="translate(8318 2661)"><circle class="h" cx="20" cy="20" r="20"/><circle class="j" cx="20" cy="20" r="19.5"/></g><text class="d" transform="translate(8338 2688)"><tspan x="-6.021" y="0">B</tspan></text><g class="e" transform="translate(8318 2752)"><circle class="h" cx="20" cy="20" r="20"/><circle class="j" cx="20" cy="20" r="19"/></g><text class="d" transform="translate(8338 2779)"><tspan x="-6.021" y="0">C</tspan></text><path class="b" d="M.018,0" transform="translate(8307.873 2680.929) rotate(90)"/><g transform="translate(8524 1634)"><g class="a" transform="translate(-214.5 1046.929) rotate(135)"><path class="h" d="M 4.48930025100708 10.31504917144775 L 0.8653011322021484 0.8604671359062195 L 10.36387062072754 4.440470218658447 L 7.402174472808838 7.402174949645996 L 4.48930025100708 10.31504917144775 Z"/><path class="i" d="M 1.730582237243652 1.720914840698242 L 4.680450439453125 9.416769027709961 L 7.048614501953125 7.048604965209961 L 9.462241172790527 4.6349778175354 L 1.730582237243652 1.720914840698242 M 4.76837158203125e-06 -4.76837158203125e-06 L 11.26548385620117 4.245954990386963 L 7.755724430084229 7.755715370178223 L 4.298134326934814 11.21330547332764 L 4.76837158203125e-06 -4.76837158203125e-06 Z"/></g><line class="b" y2="16" transform="translate(-216.127 1046.947) rotate(90)"/><g class="a" transform="translate(-214.5 1046.929) rotate(135)"><path class="h" d="M 4.48930025100708 10.31504917144775 L 0.8653011322021484 0.8604671359062195 L 10.36387062072754 4.440470218658447 L 7.402174472808838 7.402174949645996 L 4.48930025100708 10.31504917144775 Z"/><path class="i" d="M 1.730582237243652 1.720914840698242 L 4.680450439453125 9.416769027709961 L 7.048614501953125 7.048604965209961 L 9.462241172790527 4.6349778175354 L 1.730582237243652 1.720914840698242 M 4.76837158203125e-06 -4.76837158203125e-06 L 11.26548385620117 4.245954990386963 L 7.755724430084229 7.755715370178223 L 4.298134326934814 11.21330547332764 L 4.76837158203125e-06 -4.76837158203125e-06 Z"/></g><path class="b" d="M0,0V38.258" transform="translate(-216.127 1046.947) rotate(90)"/></g><g transform="translate(9343.5 2975.429) rotate(90)"><g class="a" transform="translate(-203.5 1034) rotate(45)"><path class="h" d="M 4.48930025100708 10.31504917144775 L 0.8653011322021484 0.8604671359062195 L 10.36387062072754 4.440470218658447 L 7.402174472808838 7.402174949645996 L 4.48930025100708 10.31504917144775 Z"/><path class="i" d="M 1.730582237243652 1.720914840698242 L 4.680450439453125 9.416769027709961 L 7.048614501953125 7.048604965209961 L 9.462241172790527 4.6349778175354 L 1.730582237243652 1.720914840698242 M 4.76837158203125e-06 -4.76837158203125e-06 L 11.26548385620117 4.245954990386963 L 7.755724430084229 7.755715370178223 L 4.298134326934814 11.21330547332764 L 4.76837158203125e-06 -4.76837158203125e-06 Z"/></g><line class="b" y2="16" transform="translate(-203.482 1035.627)"/><line class="b" x1="0.018" y2="28.873" transform="translate(-203.5 1035.627)"/><g class="a" transform="translate(-203.5 1034) rotate(45)"><path class="h" d="M 4.48930025100708 10.31504917144775 L 0.8653011322021484 0.8604671359062195 L 10.36387062072754 4.440470218658447 L 7.402174472808838 7.402174949645996 L 4.48930025100708 10.31504917144775 Z"/><path class="i" d="M 1.730582237243652 1.720914840698242 L 4.680450439453125 9.416769027709961 L 7.048614501953125 7.048604965209961 L 9.462241172790527 4.6349778175354 L 1.730582237243652 1.720914840698242 M 4.76837158203125e-06 -4.76837158203125e-06 L 11.26548385620117 4.245954990386963 L 7.755724430084229 7.755715370178223 L 4.298134326934814 11.21330547332764 L 4.76837158203125e-06 -4.76837158203125e-06 Z"/></g><line class="b" y2="16" transform="translate(-203.482 1035.627)"/><line class="b" x1="0.018" y2="28.873" transform="translate(-203.5 1035.627)"/></g><path class="b" d="M13.013,1.5V183.838" transform="translate(8265.986 2588.5)"/><text class="d" transform="translate(8334 2633)"><tspan x="-30.103" y="0">-0.39</tspan></text><text class="d" transform="translate(8334 2724)"><tspan x="-30.103" y="0">-0.60</tspan></text><text class="d" transform="translate(8334 2817)"><tspan x="-30.103" y="0">-0.45</tspan></text><g transform="translate(9471.5 2700.429) rotate(90)"><g class="a" transform="translate(-203.5 1034) rotate(45)"><path class="h" d="M 4.48930025100708 10.31504917144775 L 0.8653011322021484 0.8604671359062195 L 10.36387062072754 4.440470218658447 L 7.402174472808838 7.402174949645996 L 4.48930025100708 10.31504917144775 Z"/><path class="i" d="M 1.730582237243652 1.720914840698242 L 4.680450439453125 9.416769027709961 L 7.048614501953125 7.048604965209961 L 9.462241172790527 4.6349778175354 L 1.730582237243652 1.720914840698242 M 4.76837158203125e-06 -4.76837158203125e-06 L 11.26548385620117 4.245954990386963 L 7.755724430084229 7.755715370178223 L 4.298134326934814 11.21330547332764 L 4.76837158203125e-06 -4.76837158203125e-06 Z"/></g><line class="b" y2="16" transform="translate(-203.482 1035.627)"/><line class="b" x1="0.018" y2="28.873" transform="translate(-203.5 1035.627)"/><g class="a" transform="translate(-203.5 1034) rotate(45)"><path class="h" d="M 4.48930025100708 10.31504917144775 L 0.8653011322021484 0.8604671359062195 L 10.36387062072754 4.440470218658447 L 7.402174472808838 7.402174949645996 L 4.48930025100708 10.31504917144775 Z"/><path class="i" d="M 1.730582237243652 1.720914840698242 L 4.680450439453125 9.416769027709961 L 7.048614501953125 7.048604965209961 L 9.462241172790527 4.6349778175354 L 1.730582237243652 1.720914840698242 M 4.76837158203125e-06 -4.76837158203125e-06 L 11.26548385620117 4.245954990386963 L 7.755724430084229 7.755715370178223 L 4.298134326934814 11.21330547332764 L 4.76837158203125e-06 -4.76837158203125e-06 Z"/></g><line class="b" y2="16" transform="translate(-203.482 1035.627)"/><line class="b" x1="0.018" y2="28.873" transform="translate(-203.5 1035.627)"/></g><g class="c" transform="translate(8446 2477)"><circle class="h" cx="20" cy="20" r="20"/><circle class="j" cx="20" cy="20" r="19.5"/></g><text class="d" transform="translate(8466 2504)"><tspan x="-6.021" y="0">A</tspan></text><g class="e" transform="translate(8446 2568)"><circle class="h" cx="20" cy="20" r="20"/><circle class="j" cx="20" cy="20" r="19"/></g><text class="d" transform="translate(8466 2595)"><tspan x="-6.021" y="0">B</tspan></text><g class="c" transform="translate(8446 2659)"><circle class="h" cx="20" cy="20" r="20"/><circle class="j" cx="20" cy="20" r="19.5"/></g><text class="d" transform="translate(8466 2686)"><tspan x="-6.021" y="0">C</tspan></text><path class="b" d="M.018,0" transform="translate(8435.873 2587.929) rotate(90)"/><g transform="translate(8652 1541)"><g class="a" transform="translate(-214.5 1046.929) rotate(135)"><path class="h" d="M 4.48930025100708 10.31504917144775 L 0.8653011322021484 0.8604671359062195 L 10.36387062072754 4.440470218658447 L 7.402174472808838 7.402174949645996 L 4.48930025100708 10.31504917144775 Z"/><path class="i" d="M 1.730582237243652 1.720914840698242 L 4.680450439453125 9.416769027709961 L 7.048614501953125 7.048604965209961 L 9.462241172790527 4.6349778175354 L 1.730582237243652 1.720914840698242 M 4.76837158203125e-06 -4.76837158203125e-06 L 11.26548385620117 4.245954990386963 L 7.755724430084229 7.755715370178223 L 4.298134326934814 11.21330547332764 L 4.76837158203125e-06 -4.76837158203125e-06 Z"/></g><line class="b" y2="16" transform="translate(-216.127 1046.947) rotate(90)"/><g class="a" transform="translate(-214.5 1046.929) rotate(135)"><path class="h" d="M 4.48930025100708 10.31504917144775 L 0.8653011322021484 0.8604671359062195 L 10.36387062072754 4.440470218658447 L 7.402174472808838 7.402174949645996 L 4.48930025100708 10.31504917144775 Z"/><path class="i" d="M 1.730582237243652 1.720914840698242 L 4.680450439453125 9.416769027709961 L 7.048614501953125 7.048604965209961 L 9.462241172790527 4.6349778175354 L 1.730582237243652 1.720914840698242 M 4.76837158203125e-06 -4.76837158203125e-06 L 11.26548385620117 4.245954990386963 L 7.755724430084229 7.755715370178223 L 4.298134326934814 11.21330547332764 L 4.76837158203125e-06 -4.76837158203125e-06 Z"/></g><path class="b" d="M0,0V64.292" transform="translate(-216.127 1046.947) rotate(90)"/></g><g transform="translate(9471.5 2882.429) rotate(90)"><g class="a" transform="translate(-203.5 1034) rotate(45)"><path class="h" d="M 4.48930025100708 10.31504917144775 L 0.8653011322021484 0.8604671359062195 L 10.36387062072754 4.440470218658447 L 7.402174472808838 7.402174949645996 L 4.48930025100708 10.31504917144775 Z"/><path class="i" d="M 1.730582237243652 1.720914840698242 L 4.680450439453125 9.416769027709961 L 7.048614501953125 7.048604965209961 L 9.462241172790527 4.6349778175354 L 1.730582237243652 1.720914840698242 M 4.76837158203125e-06 -4.76837158203125e-06 L 11.26548385620117 4.245954990386963 L 7.755724430084229 7.755715370178223 L 4.298134326934814 11.21330547332764 L 4.76837158203125e-06 -4.76837158203125e-06 Z"/></g><line class="b" y2="16" transform="translate(-203.482 1035.627)"/><line class="b" x1="0.018" y2="28.873" transform="translate(-203.5 1035.627)"/><g class="a" transform="translate(-203.5 1034) rotate(45)"><path class="h" d="M 4.48930025100708 10.31504917144775 L 0.8653011322021484 0.8604671359062195 L 10.36387062072754 4.440470218658447 L 7.402174472808838 7.402174949645996 L 4.48930025100708 10.31504917144775 Z"/><path class="i" d="M 1.730582237243652 1.720914840698242 L 4.680450439453125 9.416769027709961 L 7.048614501953125 7.048604965209961 L 9.462241172790527 4.6349778175354 L 1.730582237243652 1.720914840698242 M 4.76837158203125e-06 -4.76837158203125e-06 L 11.26548385620117 4.245954990386963 L 7.755724430084229 7.755715370178223 L 4.298134326934814 11.21330547332764 L 4.76837158203125e-06 -4.76837158203125e-06 Z"/></g><line class="b" y2="16" transform="translate(-203.482 1035.627)"/><line class="b" x1="0.018" y2="28.873" transform="translate(-203.5 1035.627)"/></g><path class="b" d="M13.013,1.5V183.838" transform="translate(8393.986 2495.5)"/><text class="d" transform="translate(8462 2540)"><tspan x="-30.103" y="0">-1.39</tspan></text><text class="d" transform="translate(8462 2631)"><tspan x="-30.103" y="0">-0.40</tspan></text><text class="d" transform="translate(8462 2724)"><tspan x="-30.103" y="0">-1.39</tspan></text><g transform="translate(9471.5 3066.429) rotate(90)"><g class="a" transform="translate(-203.5 1034) rotate(45)"><path class="h" d="M 4.48930025100708 10.31504917144775 L 0.8653011322021484 0.8604671359062195 L 10.36387062072754 4.440470218658447 L 7.402174472808838 7.402174949645996 L 4.48930025100708 10.31504917144775 Z"/><path class="i" d="M 1.730582237243652 1.720914840698242 L 4.680450439453125 9.416769027709961 L 7.048614501953125 7.048604965209961 L 9.462241172790527 4.6349778175354 L 1.730582237243652 1.720914840698242 M 4.76837158203125e-06 -4.76837158203125e-06 L 11.26548385620117 4.245954990386963 L 7.755724430084229 7.755715370178223 L 4.298134326934814 11.21330547332764 L 4.76837158203125e-06 -4.76837158203125e-06 Z"/></g><line class="b" y2="16" transform="translate(-203.482 1035.627)"/><line class="b" x1="0.018" y2="28.873" transform="translate(-203.5 1035.627)"/><g class="a" transform="translate(-203.5 1034) rotate(45)"><path class="h" d="M 4.48930025100708 10.31504917144775 L 0.8653011322021484 0.8604671359062195 L 10.36387062072754 4.440470218658447 L 7.402174472808838 7.402174949645996 L 4.48930025100708 10.31504917144775 Z"/><path class="i" d="M 1.730582237243652 1.720914840698242 L 4.680450439453125 9.416769027709961 L 7.048614501953125 7.048604965209961 L 9.462241172790527 4.6349778175354 L 1.730582237243652 1.720914840698242 M 4.76837158203125e-06 -4.76837158203125e-06 L 11.26548385620117 4.245954990386963 L 7.755724430084229 7.755715370178223 L 4.298134326934814 11.21330547332764 L 4.76837158203125e-06 -4.76837158203125e-06 Z"/></g><line class="b" y2="16" transform="translate(-203.482 1035.627)"/><line class="b" x1="0.018" y2="28.873" transform="translate(-203.5 1035.627)"/></g><g class="c" transform="translate(8446 2752)"><circle class="h" cx="20" cy="20" r="20"/><circle class="j" cx="20" cy="20" r="19.5"/></g><text class="d" transform="translate(8466 2779)"><tspan x="-6.021" y="0">A</tspan></text><g class="c" transform="translate(8446 2843)"><circle class="h" cx="20" cy="20" r="20"/><circle class="j" cx="20" cy="20" r="19.5"/></g><text class="d" transform="translate(8466 2870)"><tspan x="-6.021" y="0">B</tspan></text><g class="e" transform="translate(8446 2934)"><circle class="h" cx="20" cy="20" r="20"/><circle class="j" cx="20" cy="20" r="19"/></g><text class="d" transform="translate(8466 2961)"><tspan x="-6.021" y="0">C</tspan></text><path class="b" d="M.018,0" transform="translate(8435.873 2862.929) rotate(90)"/><g transform="translate(8654 1725)"><g class="a" transform="translate(-214.5 1046.929) rotate(135)"><path class="h" d="M 4.48930025100708 10.31504917144775 L 0.8653011322021484 0.8604671359062195 L 10.36387062072754 4.440470218658447 L 7.402174472808838 7.402174949645996 L 4.48930025100708 10.31504917144775 Z"/><path class="i" d="M 1.730582237243652 1.720914840698242 L 4.680450439453125 9.416769027709961 L 7.048614501953125 7.048604965209961 L 9.462241172790527 4.6349778175354 L 1.730582237243652 1.720914840698242 M 4.76837158203125e-06 -4.76837158203125e-06 L 11.26548385620117 4.245954990386963 L 7.755724430084229 7.755715370178223 L 4.298134326934814 11.21330547332764 L 4.76837158203125e-06 -4.76837158203125e-06 Z"/></g><line class="b" y2="16" transform="translate(-216.127 1046.947) rotate(90)"/><g class="a" transform="translate(-214.5 1046.929) rotate(135)"><path class="h" d="M 4.48930025100708 10.31504917144775 L 0.8653011322021484 0.8604671359062195 L 10.36387062072754 4.440470218658447 L 7.402174472808838 7.402174949645996 L 4.48930025100708 10.31504917144775 Z"/><path class="i" d="M 1.730582237243652 1.720914840698242 L 4.680450439453125 9.416769027709961 L 7.048614501953125 7.048604965209961 L 9.462241172790527 4.6349778175354 L 1.730582237243652 1.720914840698242 M 4.76837158203125e-06 -4.76837158203125e-06 L 11.26548385620117 4.245954990386963 L 7.755724430084229 7.755715370178223 L 4.298134326934814 11.21330547332764 L 4.76837158203125e-06 -4.76837158203125e-06 Z"/></g><path class="b" d="M0,0V64.292" transform="translate(-216.127 1046.947) rotate(90)"/></g><g transform="translate(9471.5 3157.429) rotate(90)"><g class="a" transform="translate(-203.5 1034) rotate(45)"><path class="h" d="M 4.48930025100708 10.31504917144775 L 0.8653011322021484 0.8604671359062195 L 10.36387062072754 4.440470218658447 L 7.402174472808838 7.402174949645996 L 4.48930025100708 10.31504917144775 Z"/><path class="i" d="M 1.730582237243652 1.720914840698242 L 4.680450439453125 9.416769027709961 L 7.048614501953125 7.048604965209961 L 9.462241172790527 4.6349778175354 L 1.730582237243652 1.720914840698242 M 4.76837158203125e-06 -4.76837158203125e-06 L 11.26548385620117 4.245954990386963 L 7.755724430084229 7.755715370178223 L 4.298134326934814 11.21330547332764 L 4.76837158203125e-06 -4.76837158203125e-06 Z"/></g><line class="b" y2="16" transform="translate(-203.482 1035.627)"/><line class="b" x1="0.018" y2="28.873" transform="translate(-203.5 1035.627)"/><g class="a" transform="translate(-203.5 1034) rotate(45)"><path class="h" d="M 4.48930025100708 10.31504917144775 L 0.8653011322021484 0.8604671359062195 L 10.36387062072754 4.440470218658447 L 7.402174472808838 7.402174949645996 L 4.48930025100708 10.31504917144775 Z"/><path class="i" d="M 1.730582237243652 1.720914840698242 L 4.680450439453125 9.416769027709961 L 7.048614501953125 7.048604965209961 L 9.462241172790527 4.6349778175354 L 1.730582237243652 1.720914840698242 M 4.76837158203125e-06 -4.76837158203125e-06 L 11.26548385620117 4.245954990386963 L 7.755724430084229 7.755715370178223 L 4.298134326934814 11.21330547332764 L 4.76837158203125e-06 -4.76837158203125e-06 Z"/></g><line class="b" y2="16" transform="translate(-203.482 1035.627)"/><line class="b" x1="0.018" y2="28.873" transform="translate(-203.5 1035.627)"/></g><path class="b" d="M13.013,1.5V183.838" transform="translate(8393.986 2770.5)"/><text class="d" transform="translate(8462 2815)"><tspan x="-30.103" y="0">-0.97</tspan></text><text class="d" transform="translate(8462 2906)"><tspan x="-30.103" y="0">-0.97</tspan></text><text class="f" transform="translate(8462 2999)"><tspan x="-30.103" y="0">-0.84</tspan></text><g transform="translate(9599.5 2700.429) rotate(90)"><g class="a" transform="translate(-203.5 1034) rotate(45)"><path class="h" d="M 4.48930025100708 10.31504917144775 L 0.8653011322021484 0.8604671359062195 L 10.36387062072754 4.440470218658447 L 7.402174472808838 7.402174949645996 L 4.48930025100708 10.31504917144775 Z"/><path class="i" d="M 1.730582237243652 1.720914840698242 L 4.680450439453125 9.416769027709961 L 7.048614501953125 7.048604965209961 L 9.462241172790527 4.6349778175354 L 1.730582237243652 1.720914840698242 M 4.76837158203125e-06 -4.76837158203125e-06 L 11.26548385620117 4.245954990386963 L 7.755724430084229 7.755715370178223 L 4.298134326934814 11.21330547332764 L 4.76837158203125e-06 -4.76837158203125e-06 Z"/></g><line class="b" y2="16" transform="translate(-203.482 1035.627)"/><line class="b" x1="0.018" y2="28.873" transform="translate(-203.5 1035.627)"/><g class="a" transform="translate(-203.5 1034) rotate(45)"><path class="h" d="M 4.48930025100708 10.31504917144775 L 0.8653011322021484 0.8604671359062195 L 10.36387062072754 4.440470218658447 L 7.402174472808838 7.402174949645996 L 4.48930025100708 10.31504917144775 Z"/><path class="i" d="M 1.730582237243652 1.720914840698242 L 4.680450439453125 9.416769027709961 L 7.048614501953125 7.048604965209961 L 9.462241172790527 4.6349778175354 L 1.730582237243652 1.720914840698242 M 4.76837158203125e-06 -4.76837158203125e-06 L 11.26548385620117 4.245954990386963 L 7.755724430084229 7.755715370178223 L 4.298134326934814 11.21330547332764 L 4.76837158203125e-06 -4.76837158203125e-06 Z"/></g><line class="b" y2="16" transform="translate(-203.482 1035.627)"/><line class="b" x1="0.018" y2="28.873" transform="translate(-203.5 1035.627)"/></g><g class="c" transform="translate(8574 2477)"><circle class="h" cx="20" cy="20" r="20"/><circle class="j" cx="20" cy="20" r="19.5"/></g><text class="d" transform="translate(8594 2504)"><tspan x="-6.021" y="0">A</tspan></text><g class="e" transform="translate(8574 2568)"><circle class="h" cx="20" cy="20" r="20"/><circle class="j" cx="20" cy="20" r="19"/></g><text class="d" transform="translate(8594 2595)"><tspan x="-6.021" y="0">B</tspan></text><g class="e" transform="translate(8574 2659)"><circle class="h" cx="20" cy="20" r="20"/><circle class="j" cx="20" cy="20" r="19"/></g><text class="d" transform="translate(8594 2686)"><tspan x="-6.021" y="0">C</tspan></text><path class="b" d="M.018,0" transform="translate(8563.873 2587.929) rotate(90)"/><g transform="translate(8780 1541)"><g class="a" transform="translate(-214.5 1046.929) rotate(135)"><path class="h" d="M 4.48930025100708 10.31504917144775 L 0.8653011322021484 0.8604671359062195 L 10.36387062072754 4.440470218658447 L 7.402174472808838 7.402174949645996 L 4.48930025100708 10.31504917144775 Z"/><path class="i" d="M 1.730582237243652 1.720914840698242 L 4.680450439453125 9.416769027709961 L 7.048614501953125 7.048604965209961 L 9.462241172790527 4.6349778175354 L 1.730582237243652 1.720914840698242 M 4.76837158203125e-06 -4.76837158203125e-06 L 11.26548385620117 4.245954990386963 L 7.755724430084229 7.755715370178223 L 4.298134326934814 11.21330547332764 L 4.76837158203125e-06 -4.76837158203125e-06 Z"/></g><line class="b" y2="16" transform="translate(-216.127 1046.947) rotate(90)"/><g class="a" transform="translate(-214.5 1046.929) rotate(135)"><path class="h" d="M 4.48930025100708 10.31504917144775 L 0.8653011322021484 0.8604671359062195 L 10.36387062072754 4.440470218658447 L 7.402174472808838 7.402174949645996 L 4.48930025100708 10.31504917144775 Z"/><path class="i" d="M 1.730582237243652 1.720914840698242 L 4.680450439453125 9.416769027709961 L 7.048614501953125 7.048604965209961 L 9.462241172790527 4.6349778175354 L 1.730582237243652 1.720914840698242 M 4.76837158203125e-06 -4.76837158203125e-06 L 11.26548385620117 4.245954990386963 L 7.755724430084229 7.755715370178223 L 4.298134326934814 11.21330547332764 L 4.76837158203125e-06 -4.76837158203125e-06 Z"/></g><path class="b" d="M0,0V64.292" transform="translate(-216.127 1046.947) rotate(90)"/></g><g transform="translate(9599.5 2882.429) rotate(90)"><g class="a" transform="translate(-203.5 1034) rotate(45)"><path class="h" d="M 4.48930025100708 10.31504917144775 L 0.8653011322021484 0.8604671359062195 L 10.36387062072754 4.440470218658447 L 7.402174472808838 7.402174949645996 L 4.48930025100708 10.31504917144775 Z"/><path class="i" d="M 1.730582237243652 1.720914840698242 L 4.680450439453125 9.416769027709961 L 7.048614501953125 7.048604965209961 L 9.462241172790527 4.6349778175354 L 1.730582237243652 1.720914840698242 M 4.76837158203125e-06 -4.76837158203125e-06 L 11.26548385620117 4.245954990386963 L 7.755724430084229 7.755715370178223 L 4.298134326934814 11.21330547332764 L 4.76837158203125e-06 -4.76837158203125e-06 Z"/></g><line class="b" y2="16" transform="translate(-203.482 1035.627)"/><line class="b" x1="0.018" y2="28.873" transform="translate(-203.5 1035.627)"/><g class="a" transform="translate(-203.5 1034) rotate(45)"><path class="h" d="M 4.48930025100708 10.31504917144775 L 0.8653011322021484 0.8604671359062195 L 10.36387062072754 4.440470218658447 L 7.402174472808838 7.402174949645996 L 4.48930025100708 10.31504917144775 Z"/><path class="i" d="M 1.730582237243652 1.720914840698242 L 4.680450439453125 9.416769027709961 L 7.048614501953125 7.048604965209961 L 9.462241172790527 4.6349778175354 L 1.730582237243652 1.720914840698242 M 4.76837158203125e-06 -4.76837158203125e-06 L 11.26548385620117 4.245954990386963 L 7.755724430084229 7.755715370178223 L 4.298134326934814 11.21330547332764 L 4.76837158203125e-06 -4.76837158203125e-06 Z"/></g><line class="b" y2="16" transform="translate(-203.482 1035.627)"/><line class="b" x1="0.018" y2="28.873" transform="translate(-203.5 1035.627)"/></g><path class="b" d="M13.013,1.5V183.838" transform="translate(8521.986 2495.5)"/><text class="d" transform="translate(8590 2540)"><tspan x="-30.103" y="0">-1.10</tspan></text><text class="d" transform="translate(8590 2631)"><tspan x="-30.103" y="0">-0.90</tspan></text><text class="d" transform="translate(8590 2724)"><tspan x="-30.103" y="0">-0.95</tspan></text><g transform="translate(9599.5 3066.429) rotate(90)"><g class="a" transform="translate(-203.5 1034) rotate(45)"><path class="h" d="M 4.48930025100708 10.31504917144775 L 0.8653011322021484 0.8604671359062195 L 10.36387062072754 4.440470218658447 L 7.402174472808838 7.402174949645996 L 4.48930025100708 10.31504917144775 Z"/><path class="i" d="M 1.730582237243652 1.720914840698242 L 4.680450439453125 9.416769027709961 L 7.048614501953125 7.048604965209961 L 9.462241172790527 4.6349778175354 L 1.730582237243652 1.720914840698242 M 4.76837158203125e-06 -4.76837158203125e-06 L 11.26548385620117 4.245954990386963 L 7.755724430084229 7.755715370178223 L 4.298134326934814 11.21330547332764 L 4.76837158203125e-06 -4.76837158203125e-06 Z"/></g><line class="b" y2="16" transform="translate(-203.482 1035.627)"/><line class="b" x1="0.018" y2="28.873" transform="translate(-203.5 1035.627)"/><g class="a" transform="translate(-203.5 1034) rotate(45)"><path class="h" d="M 4.48930025100708 10.31504917144775 L 0.8653011322021484 0.8604671359062195 L 10.36387062072754 4.440470218658447 L 7.402174472808838 7.402174949645996 L 4.48930025100708 10.31504917144775 Z"/><path class="i" d="M 1.730582237243652 1.720914840698242 L 4.680450439453125 9.416769027709961 L 7.048614501953125 7.048604965209961 L 9.462241172790527 4.6349778175354 L 1.730582237243652 1.720914840698242 M 4.76837158203125e-06 -4.76837158203125e-06 L 11.26548385620117 4.245954990386963 L 7.755724430084229 7.755715370178223 L 4.298134326934814 11.21330547332764 L 4.76837158203125e-06 -4.76837158203125e-06 Z"/></g><line class="b" y2="16" transform="translate(-203.482 1035.627)"/><line class="b" x1="0.018" y2="28.873" transform="translate(-203.5 1035.627)"/></g><g class="c" transform="translate(8574 2843)"><circle class="h" cx="20" cy="20" r="20"/><circle class="j" cx="20" cy="20" r="19.5"/></g><text class="d" transform="translate(8594 2870)"><tspan x="-6.021" y="0">A</tspan></text><g class="c" transform="translate(8574 2934)"><circle class="h" cx="20" cy="20" r="20"/><circle class="j" cx="20" cy="20" r="19.5"/></g><text class="d" transform="translate(8594 2961)"><tspan x="-6.021" y="0">B</tspan></text><g class="c" transform="translate(8574 3025)"><circle class="h" cx="20" cy="20" r="20"/><circle class="j" cx="20" cy="20" r="19.5"/></g><text class="d" transform="translate(8594 3052)"><tspan x="-6.021" y="0">C</tspan></text><path class="b" d="M.018,0" transform="translate(8563.873 2953.929) rotate(90)"/><g transform="translate(8780 1907)"><g class="a" transform="translate(-214.5 1046.929) rotate(135)"><path class="h" d="M 4.48930025100708 10.31504917144775 L 0.8653011322021484 0.8604671359062195 L 10.36387062072754 4.440470218658447 L 7.402174472808838 7.402174949645996 L 4.48930025100708 10.31504917144775 Z"/><path class="i" d="M 1.730582237243652 1.720914840698242 L 4.680450439453125 9.416769027709961 L 7.048614501953125 7.048604965209961 L 9.462241172790527 4.6349778175354 L 1.730582237243652 1.720914840698242 M 4.76837158203125e-06 -4.76837158203125e-06 L 11.26548385620117 4.245954990386963 L 7.755724430084229 7.755715370178223 L 4.298134326934814 11.21330547332764 L 4.76837158203125e-06 -4.76837158203125e-06 Z"/></g><line class="b" y2="16" transform="translate(-216.127 1046.947) rotate(90)"/><g class="a" transform="translate(-214.5 1046.929) rotate(135)"><path class="h" d="M 4.48930025100708 10.31504917144775 L 0.8653011322021484 0.8604671359062195 L 10.36387062072754 4.440470218658447 L 7.402174472808838 7.402174949645996 L 4.48930025100708 10.31504917144775 Z"/><path class="i" d="M 1.730582237243652 1.720914840698242 L 4.680450439453125 9.416769027709961 L 7.048614501953125 7.048604965209961 L 9.462241172790527 4.6349778175354 L 1.730582237243652 1.720914840698242 M 4.76837158203125e-06 -4.76837158203125e-06 L 11.26548385620117 4.245954990386963 L 7.755724430084229 7.755715370178223 L 4.298134326934814 11.21330547332764 L 4.76837158203125e-06 -4.76837158203125e-06 Z"/></g><path class="b" d="M0,0V64.292" transform="translate(-216.127 1046.947) rotate(90)"/></g><g transform="translate(9599.5 3248.429) rotate(90)"><g class="a" transform="translate(-203.5 1034) rotate(45)"><path class="h" d="M 4.48930025100708 10.31504917144775 L 0.8653011322021484 0.8604671359062195 L 10.36387062072754 4.440470218658447 L 7.402174472808838 7.402174949645996 L 4.48930025100708 10.31504917144775 Z"/><path class="i" d="M 1.730582237243652 1.720914840698242 L 4.680450439453125 9.416769027709961 L 7.048614501953125 7.048604965209961 L 9.462241172790527 4.6349778175354 L 1.730582237243652 1.720914840698242 M 4.76837158203125e-06 -4.76837158203125e-06 L 11.26548385620117 4.245954990386963 L 7.755724430084229 7.755715370178223 L 4.298134326934814 11.21330547332764 L 4.76837158203125e-06 -4.76837158203125e-06 Z"/></g><line class="b" y2="16" transform="translate(-203.482 1035.627)"/><line class="b" x1="0.018" y2="28.873" transform="translate(-203.5 1035.627)"/><g class="a" transform="translate(-203.5 1034) rotate(45)"><path class="h" d="M 4.48930025100708 10.31504917144775 L 0.8653011322021484 0.8604671359062195 L 10.36387062072754 4.440470218658447 L 7.402174472808838 7.402174949645996 L 4.48930025100708 10.31504917144775 Z"/><path class="i" d="M 1.730582237243652 1.720914840698242 L 4.680450439453125 9.416769027709961 L 7.048614501953125 7.048604965209961 L 9.462241172790527 4.6349778175354 L 1.730582237243652 1.720914840698242 M 4.76837158203125e-06 -4.76837158203125e-06 L 11.26548385620117 4.245954990386963 L 7.755724430084229 7.755715370178223 L 4.298134326934814 11.21330547332764 L 4.76837158203125e-06 -4.76837158203125e-06 Z"/></g><line class="b" y2="16" transform="translate(-203.482 1035.627)"/><line class="b" x1="0.018" y2="28.873" transform="translate(-203.5 1035.627)"/></g><path class="b" d="M13.013,1.5V183.838" transform="translate(8521.986 2861.5)"/><text class="d" transform="translate(8590 2906)"><tspan x="-30.103" y="0">-1.50</tspan></text><text class="d" transform="translate(8590 2997)"><tspan x="-30.103" y="0">-1.35</tspan></text><text class="d" transform="translate(8590 3090)"><tspan x="-30.103" y="0">-1.40</tspan></text><g class="a" transform="translate(8696.5 2770.929) rotate(135)"><path class="h" d="M 4.48930025100708 10.31504917144775 L 0.8653011322021484 0.8604671359062195 L 10.36387062072754 4.440470218658447 L 7.402174472808838 7.402174949645996 L 4.48930025100708 10.31504917144775 Z"/><path class="i" d="M 1.730582237243652 1.720914840698242 L 4.680450439453125 9.416769027709961 L 7.048614501953125 7.048604965209961 L 9.462241172790527 4.6349778175354 L 1.730582237243652 1.720914840698242 M 4.76837158203125e-06 -4.76837158203125e-06 L 11.26548385620117 4.245954990386963 L 7.755724430084229 7.755715370178223 L 4.298134326934814 11.21330547332764 L 4.76837158203125e-06 -4.76837158203125e-06 Z"/></g><line class="b" y2="16" transform="translate(8694.873 2770.947) rotate(90)"/><line class="b" x1="0.018" y2="28.873" transform="translate(8694.873 2770.929) rotate(90)"/><g class="a" transform="translate(8696.5 2770.929) rotate(135)"><path class="h" d="M 4.48930025100708 10.31504917144775 L 0.8653011322021484 0.8604671359062195 L 10.36387062072754 4.440470218658447 L 7.402174472808838 7.402174949645996 L 4.48930025100708 10.31504917144775 Z"/><path class="i" d="M 1.730582237243652 1.720914840698242 L 4.680450439453125 9.416769027709961 L 7.048614501953125 7.048604965209961 L 9.462241172790527 4.6349778175354 L 1.730582237243652 1.720914840698242 M 4.76837158203125e-06 -4.76837158203125e-06 L 11.26548385620117 4.245954990386963 L 7.755724430084229 7.755715370178223 L 4.298134326934814 11.21330547332764 L 4.76837158203125e-06 -4.76837158203125e-06 Z"/></g><line class="b" y2="16" transform="translate(8694.873 2770.947) rotate(90)"/><line class="b" x1="0.018" y2="28.873" transform="translate(8694.873 2770.929) rotate(90)"/><line class="b" x1="18.373" transform="translate(8627.5 2679.5)"/><g class="e" transform="translate(8705 2751)"><circle class="h" cx="20" cy="20" r="20"/><circle class="j" cx="20" cy="20" r="19"/></g><text class="d" transform="translate(8725 2778)"><tspan x="-6.021" y="0">A</tspan></text><g class="c" transform="translate(8705 2842)"><circle class="h" cx="20" cy="20" r="20"/><circle class="j" cx="20" cy="20" r="19.5"/></g><text class="d" transform="translate(8725 2869)"><tspan x="-6.021" y="0">B</tspan></text><g class="c" transform="translate(8705 2933)"><circle class="h" cx="20" cy="20" r="20"/><circle class="j" cx="20" cy="20" r="19.5"/></g><text class="d" transform="translate(8725 2960)"><tspan x="-6.021" y="0">C</tspan></text><path class="b" d="M.018,0" transform="translate(8694.873 2861.929) rotate(90)"/><g transform="translate(8913.775 1814)"><g class="a" transform="translate(-217.276 1046.929) rotate(135)"><path class="h" d="M 4.098401069641113 9.899669647216797 L 0.8281266689300537 0.8233292102813721 L 9.948268890380859 4.049800872802734 L 6.999034881591797 6.999035358428955 L 4.098401069641113 9.899669647216797 Z"/><path class="i" d="M 1.656229019165039 1.646659851074219 L 4.301793575286865 8.989156723022461 L 6.645474910736084 6.645475387573242 L 9.034161567687988 4.256782054901123 L 1.656229019165039 1.646659851074219 M -4.76837158203125e-06 -4.76837158203125e-06 L 10.86234474182129 3.842815399169922 L 7.352584838867188 7.352585792541504 L 3.894994735717773 10.81017589569092 L -4.76837158203125e-06 -4.76837158203125e-06 Z"/></g><line class="b" y2="15.168" transform="translate(-218.819 1046.947) rotate(90)"/><g class="a" transform="translate(-217.276 1046.929) rotate(135)"><path class="h" d="M 4.098401069641113 9.899669647216797 L 0.8281266689300537 0.8233292102813721 L 9.948268890380859 4.049800872802734 L 6.999034881591797 6.999035358428955 L 4.098401069641113 9.899669647216797 Z"/><path class="i" d="M 1.656229019165039 1.646659851074219 L 4.301793575286865 8.989156723022461 L 6.645474910736084 6.645475387573242 L 9.034161567687988 4.256782054901123 L 1.656229019165039 1.646659851074219 M -4.76837158203125e-06 -4.76837158203125e-06 L 10.86234474182129 3.842815399169922 L 7.352584838867188 7.352585792541504 L 3.894994735717773 10.81017589569092 L -4.76837158203125e-06 -4.76837158203125e-06 Z"/></g><path class="b" d="M0,0V48" transform="translate(-220.691 1046.947) rotate(90)"/></g><g transform="translate(9730.5 3156.429) rotate(90)"><g class="a" transform="translate(-203.5 1034) rotate(45)"><path class="h" d="M 4.48930025100708 10.31504917144775 L 0.8653011322021484 0.8604671359062195 L 10.36387062072754 4.440470218658447 L 7.402174472808838 7.402174949645996 L 4.48930025100708 10.31504917144775 Z"/><path class="i" d="M 1.730582237243652 1.720914840698242 L 4.680450439453125 9.416769027709961 L 7.048614501953125 7.048604965209961 L 9.462241172790527 4.6349778175354 L 1.730582237243652 1.720914840698242 M 4.76837158203125e-06 -4.76837158203125e-06 L 11.26548385620117 4.245954990386963 L 7.755724430084229 7.755715370178223 L 4.298134326934814 11.21330547332764 L 4.76837158203125e-06 -4.76837158203125e-06 Z"/></g><line class="b" y2="16" transform="translate(-203.482 1035.627)"/><line class="b" x1="0.018" y2="28.873" transform="translate(-203.5 1035.627)"/><g class="a" transform="translate(-203.5 1034) rotate(45)"><path class="h" d="M 4.48930025100708 10.31504917144775 L 0.8653011322021484 0.8604671359062195 L 10.36387062072754 4.440470218658447 L 7.402174472808838 7.402174949645996 L 4.48930025100708 10.31504917144775 Z"/><path class="i" d="M 1.730582237243652 1.720914840698242 L 4.680450439453125 9.416769027709961 L 7.048614501953125 7.048604965209961 L 9.462241172790527 4.6349778175354 L 1.730582237243652 1.720914840698242 M 4.76837158203125e-06 -4.76837158203125e-06 L 11.26548385620117 4.245954990386963 L 7.755724430084229 7.755715370178223 L 4.298134326934814 11.21330547332764 L 4.76837158203125e-06 -4.76837158203125e-06 Z"/></g><line class="b" y2="16" transform="translate(-203.482 1035.627)"/><line class="b" x1="0.018" y2="28.873" transform="translate(-203.5 1035.627)"/></g><path class="b" d="M13.013,1.5V183.838" transform="translate(8652.986 2769.5)"/><text class="d" transform="translate(8721 2814)"><tspan x="-30.103" y="0">-0.95</tspan></text><text class="d" transform="translate(8721 2905)"><tspan x="-30.103" y="0">-1.95</tspan></text><text class="d" transform="translate(8721 2998)"><tspan x="-30.103" y="0">-1.65</tspan></text><g transform="translate(9727.5 2700.429) rotate(90)"><g class="a" transform="translate(-203.5 1034) rotate(45)"><path class="h" d="M 4.48930025100708 10.31504917144775 L 0.8653011322021484 0.8604671359062195 L 10.36387062072754 4.440470218658447 L 7.402174472808838 7.402174949645996 L 4.48930025100708 10.31504917144775 Z"/><path class="i" d="M 1.730582237243652 1.720914840698242 L 4.680450439453125 9.416769027709961 L 7.048614501953125 7.048604965209961 L 9.462241172790527 4.6349778175354 L 1.730582237243652 1.720914840698242 M 4.76837158203125e-06 -4.76837158203125e-06 L 11.26548385620117 4.245954990386963 L 7.755724430084229 7.755715370178223 L 4.298134326934814 11.21330547332764 L 4.76837158203125e-06 -4.76837158203125e-06 Z"/></g><line class="b" y2="16" transform="translate(-203.482 1035.627)"/><line class="b" x1="0.018" y2="28.873" transform="translate(-203.5 1035.627)"/><g class="a" transform="translate(-203.5 1034) rotate(45)"><path class="h" d="M 4.48930025100708 10.31504917144775 L 0.8653011322021484 0.8604671359062195 L 10.36387062072754 4.440470218658447 L 7.402174472808838 7.402174949645996 L 4.48930025100708 10.31504917144775 Z"/><path class="i" d="M 1.730582237243652 1.720914840698242 L 4.680450439453125 9.416769027709961 L 7.048614501953125 7.048604965209961 L 9.462241172790527 4.6349778175354 L 1.730582237243652 1.720914840698242 M 4.76837158203125e-06 -4.76837158203125e-06 L 11.26548385620117 4.245954990386963 L 7.755724430084229 7.755715370178223 L 4.298134326934814 11.21330547332764 L 4.76837158203125e-06 -4.76837158203125e-06 Z"/></g><line class="b" y2="16" transform="translate(-203.482 1035.627)"/><line class="b" x1="0.018" y2="28.873" transform="translate(-203.5 1035.627)"/></g><g class="c" transform="translate(8702 2477)"><circle class="h" cx="20" cy="20" r="20"/><circle class="j" cx="20" cy="20" r="19.5"/></g><text class="d" transform="translate(8722 2504)"><tspan x="-6.021" y="0">A</tspan></text><g class="c" transform="translate(8702 2568)"><circle class="h" cx="20" cy="20" r="20"/><circle class="j" cx="20" cy="20" r="19.5"/></g><text class="d" transform="translate(8722 2595)"><tspan x="-6.021" y="0">B</tspan></text><g class="c" transform="translate(8702 2659)"><circle class="h" cx="20" cy="20" r="20"/><circle class="j" cx="20" cy="20" r="19.5"/></g><text class="d" transform="translate(8722 2686)"><tspan x="-6.021" y="0">C</tspan></text><path class="b" d="M.018,0" transform="translate(8691.873 2587.929) rotate(90)"/><g transform="translate(8908 1541)"><g class="a" transform="translate(-214.5 1046.929) rotate(135)"><path class="h" d="M 4.48930025100708 10.31504917144775 L 0.8653011322021484 0.8604671359062195 L 10.36387062072754 4.440470218658447 L 7.402174472808838 7.402174949645996 L 4.48930025100708 10.31504917144775 Z"/><path class="i" d="M 1.730582237243652 1.720914840698242 L 4.680450439453125 9.416769027709961 L 7.048614501953125 7.048604965209961 L 9.462241172790527 4.6349778175354 L 1.730582237243652 1.720914840698242 M 4.76837158203125e-06 -4.76837158203125e-06 L 11.26548385620117 4.245954990386963 L 7.755724430084229 7.755715370178223 L 4.298134326934814 11.21330547332764 L 4.76837158203125e-06 -4.76837158203125e-06 Z"/></g><line class="b" y2="16" transform="translate(-216.127 1046.947) rotate(90)"/><g class="a" transform="translate(-214.5 1046.929) rotate(135)"><path class="h" d="M 4.48930025100708 10.31504917144775 L 0.8653011322021484 0.8604671359062195 L 10.36387062072754 4.440470218658447 L 7.402174472808838 7.402174949645996 L 4.48930025100708 10.31504917144775 Z"/><path class="i" d="M 1.730582237243652 1.720914840698242 L 4.680450439453125 9.416769027709961 L 7.048614501953125 7.048604965209961 L 9.462241172790527 4.6349778175354 L 1.730582237243652 1.720914840698242 M 4.76837158203125e-06 -4.76837158203125e-06 L 11.26548385620117 4.245954990386963 L 7.755724430084229 7.755715370178223 L 4.298134326934814 11.21330547332764 L 4.76837158203125e-06 -4.76837158203125e-06 Z"/></g><path class="b" d="M0,0V64.292" transform="translate(-216.127 1046.947) rotate(90)"/></g><g transform="translate(9727.5 2882.429) rotate(90)"><g class="a" transform="translate(-203.5 1034) rotate(45)"><path class="h" d="M 4.48930025100708 10.31504917144775 L 0.8653011322021484 0.8604671359062195 L 10.36387062072754 4.440470218658447 L 7.402174472808838 7.402174949645996 L 4.48930025100708 10.31504917144775 Z"/><path class="i" d="M 1.730582237243652 1.720914840698242 L 4.680450439453125 9.416769027709961 L 7.048614501953125 7.048604965209961 L 9.462241172790527 4.6349778175354 L 1.730582237243652 1.720914840698242 M 4.76837158203125e-06 -4.76837158203125e-06 L 11.26548385620117 4.245954990386963 L 7.755724430084229 7.755715370178223 L 4.298134326934814 11.21330547332764 L 4.76837158203125e-06 -4.76837158203125e-06 Z"/></g><line class="b" y2="16" transform="translate(-203.482 1035.627)"/><line class="b" x1="0.018" y2="28.873" transform="translate(-203.5 1035.627)"/><g class="a" transform="translate(-203.5 1034) rotate(45)"><path class="h" d="M 4.48930025100708 10.31504917144775 L 0.8653011322021484 0.8604671359062195 L 10.36387062072754 4.440470218658447 L 7.402174472808838 7.402174949645996 L 4.48930025100708 10.31504917144775 Z"/><path class="i" d="M 1.730582237243652 1.720914840698242 L 4.680450439453125 9.416769027709961 L 7.048614501953125 7.048604965209961 L 9.462241172790527 4.6349778175354 L 1.730582237243652 1.720914840698242 M 4.76837158203125e-06 -4.76837158203125e-06 L 11.26548385620117 4.245954990386963 L 7.755724430084229 7.755715370178223 L 4.298134326934814 11.21330547332764 L 4.76837158203125e-06 -4.76837158203125e-06 Z"/></g><line class="b" y2="16" transform="translate(-203.482 1035.627)"/><line class="b" x1="0.018" y2="28.873" transform="translate(-203.5 1035.627)"/></g><path class="b" d="M13.013,1.5V183.838" transform="translate(8649.986 2495.5)"/><text class="d" transform="translate(8718 2540)"><tspan x="-30.103" y="0">-1.60</tspan></text><text class="d" transform="translate(8718 2631)"><tspan x="-30.103" y="0">-1.20</tspan></text><text class="d" transform="translate(8718 2724)"><tspan x="-30.103" y="0">-1.60</tspan></text><text class="d" transform="translate(8330 2436)"><tspan x="-12.041" y="0">1.</tspan></text><text class="d" transform="translate(8462 2436)"><tspan x="-12.041" y="0">2.</tspan></text><text class="d" transform="translate(8594 2436)"><tspan x="-12.041" y="0">3.</tspan></text><text class="d" transform="translate(8710 2436)"><tspan x="-12.041" y="0">4.</tspan></text><path class="b" d="M13.013,1.5V183.838" transform="translate(8631.986 2677.5)"/></g><line class="g" x1="2" y2="678" transform="translate(8193.5 2389.5)"/></g></svg>