<svg xmlns="http://www.w3.org/2000/svg" viewBox="0 0 1013 503"><defs><style>.a,.f,.j{fill:#020000;font-size:20px;}.a{font-family:Menlo-Regular, Menlo;}.b,.g,.i,.k{fill:#fff;}.b,.e,.h,.i{stroke:#707070;}.b,.c,.f,.g,.h{opacity:0.5;}.d,.o{fill:#707070;}.e,.h,.n{fill:none;}.f,.j{font-family:Hack-Regular, Hack;}.g,.k{stroke:#29dd3d;stroke-width:2px;}.l{fill:#29dd3d;font-family:Hack-Bold, Hack;font-weight:700;}.m,.o{stroke:none;}</style></defs><g transform="translate(-4638.5 -937)"><text class="a" transform="translate(4945 956)"><tspan x="-36.123" y="0">Prefix</tspan></text><text class="a" transform="translate(5435 956)"><tspan x="-60.205" y="0">Hypotheses</tspan></text><g class="b" transform="translate(4905 1028)"><circle class="m" cx="20" cy="20" r="20"/><circle class="n" cx="20" cy="20" r="19.5"/></g><g class="c" transform="translate(6363.5 1209.429) rotate(90)"><g class="d" transform="translate(-203.5 1034) rotate(45)"><path class="m" d="M 4.48930025100708 10.31504917144775 L 0.8653011322021484 0.8604671359062195 L 10.36387062072754 4.440470218658447 L 7.402174472808838 7.402174949645996 L 4.48930025100708 10.31504917144775 Z"/><path class="o" d="M 1.730582237243652 1.720914840698242 L 4.680450439453125 9.416769027709961 L 7.048614501953125 7.048604965209961 L 9.462241172790527 4.6349778175354 L 1.730582237243652 1.720914840698242 M 4.76837158203125e-06 -4.76837158203125e-06 L 11.26548385620117 4.245954990386963 L 7.755724430084229 7.755715370178223 L 4.298134326934814 11.21330547332764 L 4.76837158203125e-06 -4.76837158203125e-06 Z"/></g><line class="e" y2="16" transform="translate(-203.482 1035.627)"/><line class="e" x1="0.018" y2="28.873" transform="translate(-203.5 1035.627)"/><g class="d" transform="translate(-203.5 1034) rotate(45)"><path class="m" d="M 4.48930025100708 10.31504917144775 L 0.8653011322021484 0.8604671359062195 L 10.36387062072754 4.440470218658447 L 7.402174472808838 7.402174949645996 L 4.48930025100708 10.31504917144775 Z"/><path class="o" d="M 1.730582237243652 1.720914840698242 L 4.680450439453125 9.416769027709961 L 7.048614501953125 7.048604965209961 L 9.462241172790527 4.6349778175354 L 1.730582237243652 1.720914840698242 M 4.76837158203125e-06 -4.76837158203125e-06 L 11.26548385620117 4.245954990386963 L 7.755724430084229 7.755715370178223 L 4.298134326934814 11.21330547332764 L 4.76837158203125e-06 -4.76837158203125e-06 Z"/></g><line class="e" y2="16" transform="translate(-203.482 1035.627)"/><line class="e" x1="0.018" y2="28.873" transform="translate(-203.5 1035.627)"/></g><text class="f" transform="translate(4925 1055)"><tspan x="-6.021" y="0">S</tspan></text><g class="b" transform="translate(5250 1032)"><circle class="m" cx="20" cy="20" r="20"/><circle class="n" cx="20" cy="20" r="19.5"/></g><text class="f" transform="translate(5270 1059)"><tspan x="-6.021" y="0">S</tspan></text><g class="g" transform="translate(5335 986)"><circle class="m" cx="20" cy="20" r="20"/><circle class="n" cx="20" cy="20" r="19"/></g><text class="f" transform="translate(5355 1013)"><tspan x="-6.021" y="0">A</tspan></text><g class="b" transform="translate(5335 1032)"><circle class="m" cx="20" cy="20" r="20"/><circle class="n" cx="20" cy="20" r="19.5"/></g><text class="f" transform="translate(5355 1059)"><tspan x="-6.021" y="0">B</tspan></text><g class="g" transform="translate(5335 1078)"><circle class="m" cx="20" cy="20" r="20"/><circle class="n" cx="20" cy="20" r="19"/></g><text class="f" transform="translate(5355 1105)"><tspan x="-6.021" y="0">C</tspan></text><path class="h" d="M.018,0" transform="translate(5327.873 1051.929) rotate(90)"/><g class="c" transform="translate(5544 5)"><g class="d" transform="translate(-214.5 1046.929) rotate(135)"><path class="m" d="M 4.48930025100708 10.31504917144775 L 0.8653011322021484 0.8604671359062195 L 10.36387062072754 4.440470218658447 L 7.402174472808838 7.402174949645996 L 4.48930025100708 10.31504917144775 Z"/><path class="o" d="M 1.730582237243652 1.720914840698242 L 4.680450439453125 9.416769027709961 L 7.048614501953125 7.048604965209961 L 9.462241172790527 4.6349778175354 L 1.730582237243652 1.720914840698242 M 4.76837158203125e-06 -4.76837158203125e-06 L 11.26548385620117 4.245954990386963 L 7.755724430084229 7.755715370178223 L 4.298134326934814 11.21330547332764 L 4.76837158203125e-06 -4.76837158203125e-06 Z"/></g><line class="e" y2="16" transform="translate(-216.127 1046.947) rotate(90)"/><g class="d" transform="translate(-214.5 1046.929) rotate(135)"><path class="m" d="M 4.48930025100708 10.31504917144775 L 0.8653011322021484 0.8604671359062195 L 10.36387062072754 4.440470218658447 L 7.402174472808838 7.402174949645996 L 4.48930025100708 10.31504917144775 Z"/><path class="o" d="M 1.730582237243652 1.720914840698242 L 4.680450439453125 9.416769027709961 L 7.048614501953125 7.048604965209961 L 9.462241172790527 4.6349778175354 L 1.730582237243652 1.720914840698242 M 4.76837158203125e-06 -4.76837158203125e-06 L 11.26548385620117 4.245954990386963 L 7.755724430084229 7.755715370178223 L 4.298134326934814 11.21330547332764 L 4.76837158203125e-06 -4.76837158203125e-06 Z"/></g><path class="e" d="M0,0V38.258" transform="translate(-216.127 1046.947) rotate(90)"/></g><g class="c" transform="translate(6363.5 1303.429) rotate(90)"><g class="d" transform="translate(-203.5 1034) rotate(45)"><path class="m" d="M 4.48930025100708 10.31504917144775 L 0.8653011322021484 0.8604671359062195 L 10.36387062072754 4.440470218658447 L 7.402174472808838 7.402174949645996 L 4.48930025100708 10.31504917144775 Z"/><path class="o" d="M 1.730582237243652 1.720914840698242 L 4.680450439453125 9.416769027709961 L 7.048614501953125 7.048604965209961 L 9.462241172790527 4.6349778175354 L 1.730582237243652 1.720914840698242 M 4.76837158203125e-06 -4.76837158203125e-06 L 11.26548385620117 4.245954990386963 L 7.755724430084229 7.755715370178223 L 4.298134326934814 11.21330547332764 L 4.76837158203125e-06 -4.76837158203125e-06 Z"/></g><line class="e" y2="16" transform="translate(-203.482 1035.627)"/><line class="e" x1="0.018" y2="28.873" transform="translate(-203.5 1035.627)"/><g class="d" transform="translate(-203.5 1034) rotate(45)"><path class="m" d="M 4.48930025100708 10.31504917144775 L 0.8653011322021484 0.8604671359062195 L 10.36387062072754 4.440470218658447 L 7.402174472808838 7.402174949645996 L 4.48930025100708 10.31504917144775 Z"/><path class="o" d="M 1.730582237243652 1.720914840698242 L 4.680450439453125 9.416769027709961 L 7.048614501953125 7.048604965209961 L 9.462241172790527 4.6349778175354 L 1.730582237243652 1.720914840698242 M 4.76837158203125e-06 -4.76837158203125e-06 L 11.26548385620117 4.245954990386963 L 7.755724430084229 7.755715370178223 L 4.298134326934814 11.21330547332764 L 4.76837158203125e-06 -4.76837158203125e-06 Z"/></g><line class="e" y2="16" transform="translate(-203.482 1035.627)"/><line class="e" x1="0.018" y2="28.873" transform="translate(-203.5 1035.627)"/></g><path class="h" d="M2.512,1.5V95.3" transform="translate(5296.988 1004.447)"/><text class="a" transform="translate(4701 957)"><tspan x="-24.082" y="0">Step</tspan></text><text class="f" transform="translate(4701 1054)"><tspan x="-12.041" y="0">1.</tspan></text><path class="e" d="M0,0V15.232" transform="translate(4904.848 1178.947) rotate(90)"/><g class="i" transform="translate(4850 1160)"><circle class="m" cx="20" cy="20" r="20"/><circle class="n" cx="20" cy="20" r="19.5"/></g><text class="j" transform="translate(4870 1187)"><tspan x="-6.021" y="0">S</tspan></text><g class="i" transform="translate(4905 1159)"><circle class="m" cx="20" cy="20" r="20"/><circle class="n" cx="20" cy="20" r="19.5"/></g><text class="j" transform="translate(4925 1188)"><tspan x="-6.021" y="0">A</tspan></text><path class="e" d="M0,0V15.232" transform="translate(4904.848 1224.947) rotate(90)"/><g class="i" transform="translate(4850 1206)"><circle class="m" cx="20" cy="20" r="20"/><circle class="n" cx="20" cy="20" r="19.5"/></g><text class="j" transform="translate(4870 1233)"><tspan x="-6.021" y="0">S</tspan></text><g class="i" transform="translate(4905 1205)"><circle class="m" cx="20" cy="20" r="20"/><circle class="n" cx="20" cy="20" r="19.5"/></g><text class="j" transform="translate(4925 1234)"><tspan x="-6.021" y="0">C</tspan></text><text class="j" transform="translate(4701 1184)"><tspan x="-12.041" y="0">2.</tspan></text><text class="f" transform="translate(5412 1011)"><tspan x="-30.103" y="0">-0.39</tspan></text><text class="f" transform="translate(5412 1059)"><tspan x="-30.103" y="0">-0.60</tspan></text><text class="f" transform="translate(5412 1105)"><tspan x="-30.103" y="0">-0.45</tspan></text><text class="j" transform="translate(5001 1185)"><tspan x="-30.103" y="0">-0.39</tspan></text><text class="j" transform="translate(5001 1231)"><tspan x="-30.103" y="0">-0.45</tspan></text><text class="f" transform="translate(5001 1054)"><tspan x="-24.082" y="0">0.00</tspan></text><g transform="translate(6363.5 1383.429) rotate(90)"><g class="d" transform="translate(-203.5 1034) rotate(45)"><path class="m" d="M 4.48930025100708 10.31504917144775 L 0.8653011322021484 0.8604671359062195 L 10.36387062072754 4.440470218658447 L 7.402174472808838 7.402174949645996 L 4.48930025100708 10.31504917144775 Z"/><path class="o" d="M 1.730582237243652 1.720914840698242 L 4.680450439453125 9.416769027709961 L 7.048614501953125 7.048604965209961 L 9.462241172790527 4.6349778175354 L 1.730582237243652 1.720914840698242 M 4.76837158203125e-06 -4.76837158203125e-06 L 11.26548385620117 4.245954990386963 L 7.755724430084229 7.755715370178223 L 4.298134326934814 11.21330547332764 L 4.76837158203125e-06 -4.76837158203125e-06 Z"/></g><line class="e" y2="16" transform="translate(-203.482 1035.627)"/><line class="e" x1="0.018" y2="28.873" transform="translate(-203.5 1035.627)"/><g class="d" transform="translate(-203.5 1034) rotate(45)"><path class="m" d="M 4.48930025100708 10.31504917144775 L 0.8653011322021484 0.8604671359062195 L 10.36387062072754 4.440470218658447 L 7.402174472808838 7.402174949645996 L 4.48930025100708 10.31504917144775 Z"/><path class="o" d="M 1.730582237243652 1.720914840698242 L 4.680450439453125 9.416769027709961 L 7.048614501953125 7.048604965209961 L 9.462241172790527 4.6349778175354 L 1.730582237243652 1.720914840698242 M 4.76837158203125e-06 -4.76837158203125e-06 L 11.26548385620117 4.245954990386963 L 7.755724430084229 7.755715370178223 L 4.298134326934814 11.21330547332764 L 4.76837158203125e-06 -4.76837158203125e-06 Z"/></g><line class="e" y2="16" transform="translate(-203.482 1035.627)"/><line class="e" x1="0.018" y2="28.873" transform="translate(-203.5 1035.627)"/></g><g class="i" transform="translate(5335 1160)"><circle class="m" cx="20" cy="20" r="20"/><circle class="n" cx="20" cy="20" r="19.5"/></g><text class="j" transform="translate(5355 1187)"><tspan x="-6.021" y="0">A</tspan></text><g class="k" transform="translate(5335 1206)"><circle class="m" cx="20" cy="20" r="20"/><circle class="n" cx="20" cy="20" r="19"/></g><text class="j" transform="translate(5355 1233)"><tspan x="-6.021" y="0">B</tspan></text><g class="i" transform="translate(5335 1252)"><circle class="m" cx="20" cy="20" r="20"/><circle class="n" cx="20" cy="20" r="19.5"/></g><text class="j" transform="translate(5355 1279)"><tspan x="-6.021" y="0">C</tspan></text><path class="e" d="M.018,0" transform="translate(5327.873 1225.929) rotate(90)"/><g transform="translate(5544 179)"><g class="d" transform="translate(-214.5 1046.929) rotate(135)"><path class="m" d="M 4.48930025100708 10.31504917144775 L 0.8653011322021484 0.8604671359062195 L 10.36387062072754 4.440470218658447 L 7.402174472808838 7.402174949645996 L 4.48930025100708 10.31504917144775 Z"/><path class="o" d="M 1.730582237243652 1.720914840698242 L 4.680450439453125 9.416769027709961 L 7.048614501953125 7.048604965209961 L 9.462241172790527 4.6349778175354 L 1.730582237243652 1.720914840698242 M 4.76837158203125e-06 -4.76837158203125e-06 L 11.26548385620117 4.245954990386963 L 7.755724430084229 7.755715370178223 L 4.298134326934814 11.21330547332764 L 4.76837158203125e-06 -4.76837158203125e-06 Z"/></g><line class="e" y2="16" transform="translate(-216.127 1046.947) rotate(90)"/><g class="d" transform="translate(-214.5 1046.929) rotate(135)"><path class="m" d="M 4.48930025100708 10.31504917144775 L 0.8653011322021484 0.8604671359062195 L 10.36387062072754 4.440470218658447 L 7.402174472808838 7.402174949645996 L 4.48930025100708 10.31504917144775 Z"/><path class="o" d="M 1.730582237243652 1.720914840698242 L 4.680450439453125 9.416769027709961 L 7.048614501953125 7.048604965209961 L 9.462241172790527 4.6349778175354 L 1.730582237243652 1.720914840698242 M 4.76837158203125e-06 -4.76837158203125e-06 L 11.26548385620117 4.245954990386963 L 7.755724430084229 7.755715370178223 L 4.298134326934814 11.21330547332764 L 4.76837158203125e-06 -4.76837158203125e-06 Z"/></g><path class="e" d="M0,0V38.258" transform="translate(-216.127 1046.947) rotate(90)"/></g><g transform="translate(6363.5 1477.429) rotate(90)"><g class="d" transform="translate(-203.5 1034) rotate(45)"><path class="m" d="M 4.48930025100708 10.31504917144775 L 0.8653011322021484 0.8604671359062195 L 10.36387062072754 4.440470218658447 L 7.402174472808838 7.402174949645996 L 4.48930025100708 10.31504917144775 Z"/><path class="o" d="M 1.730582237243652 1.720914840698242 L 4.680450439453125 9.416769027709961 L 7.048614501953125 7.048604965209961 L 9.462241172790527 4.6349778175354 L 1.730582237243652 1.720914840698242 M 4.76837158203125e-06 -4.76837158203125e-06 L 11.26548385620117 4.245954990386963 L 7.755724430084229 7.755715370178223 L 4.298134326934814 11.21330547332764 L 4.76837158203125e-06 -4.76837158203125e-06 Z"/></g><line class="e" y2="16" transform="translate(-203.482 1035.627)"/><line class="e" x1="0.018" y2="28.873" transform="translate(-203.5 1035.627)"/><g class="d" transform="translate(-203.5 1034) rotate(45)"><path class="m" d="M 4.48930025100708 10.31504917144775 L 0.8653011322021484 0.8604671359062195 L 10.36387062072754 4.440470218658447 L 7.402174472808838 7.402174949645996 L 4.48930025100708 10.31504917144775 Z"/><path class="o" d="M 1.730582237243652 1.720914840698242 L 4.680450439453125 9.416769027709961 L 7.048614501953125 7.048604965209961 L 9.462241172790527 4.6349778175354 L 1.730582237243652 1.720914840698242 M 4.76837158203125e-06 -4.76837158203125e-06 L 11.26548385620117 4.245954990386963 L 7.755724430084229 7.755715370178223 L 4.298134326934814 11.21330547332764 L 4.76837158203125e-06 -4.76837158203125e-06 Z"/></g><line class="e" y2="16" transform="translate(-203.482 1035.627)"/><line class="e" x1="0.018" y2="28.873" transform="translate(-203.5 1035.627)"/></g><path class="e" d="M2.512,1.5V95.3" transform="translate(5296.988 1178.447)"/><text class="j" transform="translate(5513 1187)"><tspan x="-126.431" y="0">-0.39 + -1.00 = -1.39</tspan></text><line class="e" x2="1013" transform="translate(4638.5 968.5)"/><path class="e" d="M0,0V15.232" transform="translate(5249.848 1226.947) rotate(90)"/><g class="i" transform="translate(5195 1208)"><circle class="m" cx="20" cy="20" r="20"/><circle class="n" cx="20" cy="20" r="19.5"/></g><text class="j" transform="translate(5215 1235)"><tspan x="-6.021" y="0">S</tspan></text><g class="i" transform="translate(5250 1207)"><circle class="m" cx="20" cy="20" r="20"/><circle class="n" cx="20" cy="20" r="19.5"/></g><text class="j" transform="translate(5270 1236)"><tspan x="-6.021" y="0">A</tspan></text><g transform="translate(6362.5 1531.429) rotate(90)"><g class="d" transform="translate(-203.5 1034) rotate(45)"><path class="m" d="M 4.48930025100708 10.31504917144775 L 0.8653011322021484 0.8604671359062195 L 10.36387062072754 4.440470218658447 L 7.402174472808838 7.402174949645996 L 4.48930025100708 10.31504917144775 Z"/><path class="o" d="M 1.730582237243652 1.720914840698242 L 4.680450439453125 9.416769027709961 L 7.048614501953125 7.048604965209961 L 9.462241172790527 4.6349778175354 L 1.730582237243652 1.720914840698242 M 4.76837158203125e-06 -4.76837158203125e-06 L 11.26548385620117 4.245954990386963 L 7.755724430084229 7.755715370178223 L 4.298134326934814 11.21330547332764 L 4.76837158203125e-06 -4.76837158203125e-06 Z"/></g><line class="e" y2="16" transform="translate(-203.482 1035.627)"/><line class="e" x1="0.018" y2="28.873" transform="translate(-203.5 1035.627)"/><g class="d" transform="translate(-203.5 1034) rotate(45)"><path class="m" d="M 4.48930025100708 10.31504917144775 L 0.8653011322021484 0.8604671359062195 L 10.36387062072754 4.440470218658447 L 7.402174472808838 7.402174949645996 L 4.48930025100708 10.31504917144775 Z"/><path class="o" d="M 1.730582237243652 1.720914840698242 L 4.680450439453125 9.416769027709961 L 7.048614501953125 7.048604965209961 L 9.462241172790527 4.6349778175354 L 1.730582237243652 1.720914840698242 M 4.76837158203125e-06 -4.76837158203125e-06 L 11.26548385620117 4.245954990386963 L 7.755724430084229 7.755715370178223 L 4.298134326934814 11.21330547332764 L 4.76837158203125e-06 -4.76837158203125e-06 Z"/></g><line class="e" y2="16" transform="translate(-203.482 1035.627)"/><line class="e" x1="0.018" y2="28.873" transform="translate(-203.5 1035.627)"/></g><g class="i" transform="translate(5334 1308)"><circle class="m" cx="20" cy="20" r="20"/><circle class="n" cx="20" cy="20" r="19.5"/></g><text class="j" transform="translate(5354 1335)"><tspan x="-6.021" y="0">A</tspan></text><g class="i" transform="translate(5334 1354)"><circle class="m" cx="20" cy="20" r="20"/><circle class="n" cx="20" cy="20" r="19.5"/></g><text class="j" transform="translate(5354 1381)"><tspan x="-6.021" y="0">B</tspan></text><g class="k" transform="translate(5334 1400)"><circle class="m" cx="20" cy="20" r="20"/><circle class="n" cx="20" cy="20" r="19"/></g><text class="j" transform="translate(5354 1427)"><tspan x="-6.021" y="0">C</tspan></text><path class="e" d="M.018,0" transform="translate(5326.873 1373.929) rotate(90)"/><g transform="translate(5543 327)"><g class="d" transform="translate(-214.5 1046.929) rotate(135)"><path class="m" d="M 4.48930025100708 10.31504917144775 L 0.8653011322021484 0.8604671359062195 L 10.36387062072754 4.440470218658447 L 7.402174472808838 7.402174949645996 L 4.48930025100708 10.31504917144775 Z"/><path class="o" d="M 1.730582237243652 1.720914840698242 L 4.680450439453125 9.416769027709961 L 7.048614501953125 7.048604965209961 L 9.462241172790527 4.6349778175354 L 1.730582237243652 1.720914840698242 M 4.76837158203125e-06 -4.76837158203125e-06 L 11.26548385620117 4.245954990386963 L 7.755724430084229 7.755715370178223 L 4.298134326934814 11.21330547332764 L 4.76837158203125e-06 -4.76837158203125e-06 Z"/></g><line class="e" y2="16" transform="translate(-216.127 1046.947) rotate(90)"/><g class="d" transform="translate(-214.5 1046.929) rotate(135)"><path class="m" d="M 4.48930025100708 10.31504917144775 L 0.8653011322021484 0.8604671359062195 L 10.36387062072754 4.440470218658447 L 7.402174472808838 7.402174949645996 L 4.48930025100708 10.31504917144775 Z"/><path class="o" d="M 1.730582237243652 1.720914840698242 L 4.680450439453125 9.416769027709961 L 7.048614501953125 7.048604965209961 L 9.462241172790527 4.6349778175354 L 1.730582237243652 1.720914840698242 M 4.76837158203125e-06 -4.76837158203125e-06 L 11.26548385620117 4.245954990386963 L 7.755724430084229 7.755715370178223 L 4.298134326934814 11.21330547332764 L 4.76837158203125e-06 -4.76837158203125e-06 Z"/></g><path class="e" d="M0,0V38.258" transform="translate(-216.127 1046.947) rotate(90)"/></g><g transform="translate(6362.5 1625.429) rotate(90)"><g class="d" transform="translate(-203.5 1034) rotate(45)"><path class="m" d="M 4.48930025100708 10.31504917144775 L 0.8653011322021484 0.8604671359062195 L 10.36387062072754 4.440470218658447 L 7.402174472808838 7.402174949645996 L 4.48930025100708 10.31504917144775 Z"/><path class="o" d="M 1.730582237243652 1.720914840698242 L 4.680450439453125 9.416769027709961 L 7.048614501953125 7.048604965209961 L 9.462241172790527 4.6349778175354 L 1.730582237243652 1.720914840698242 M 4.76837158203125e-06 -4.76837158203125e-06 L 11.26548385620117 4.245954990386963 L 7.755724430084229 7.755715370178223 L 4.298134326934814 11.21330547332764 L 4.76837158203125e-06 -4.76837158203125e-06 Z"/></g><line class="e" y2="16" transform="translate(-203.482 1035.627)"/><line class="e" x1="0.018" y2="28.873" transform="translate(-203.5 1035.627)"/><g class="d" transform="translate(-203.5 1034) rotate(45)"><path class="m" d="M 4.48930025100708 10.31504917144775 L 0.8653011322021484 0.8604671359062195 L 10.36387062072754 4.440470218658447 L 7.402174472808838 7.402174949645996 L 4.48930025100708 10.31504917144775 Z"/><path class="o" d="M 1.730582237243652 1.720914840698242 L 4.680450439453125 9.416769027709961 L 7.048614501953125 7.048604965209961 L 9.462241172790527 4.6349778175354 L 1.730582237243652 1.720914840698242 M 4.76837158203125e-06 -4.76837158203125e-06 L 11.26548385620117 4.245954990386963 L 7.755724430084229 7.755715370178223 L 4.298134326934814 11.21330547332764 L 4.76837158203125e-06 -4.76837158203125e-06 Z"/></g><line class="e" y2="16" transform="translate(-203.482 1035.627)"/><line class="e" x1="0.018" y2="28.873" transform="translate(-203.5 1035.627)"/></g><path class="e" d="M2.512,1.5V95.3" transform="translate(5295.988 1326.447)"/><path class="e" d="M0,0V15.232" transform="translate(5248.848 1374.947) rotate(90)"/><g class="i" transform="translate(5194 1356)"><circle class="m" cx="20" cy="20" r="20"/><circle class="n" cx="20" cy="20" r="19.5"/></g><text class="j" transform="translate(5214 1383)"><tspan x="-6.021" y="0">S</tspan></text><g class="i" transform="translate(5249 1355)"><circle class="m" cx="20" cy="20" r="20"/><circle class="n" cx="20" cy="20" r="19.5"/></g><text class="j" transform="translate(5269 1384)"><tspan x="-6.021" y="0">C</tspan></text><text class="j" transform="translate(5513 1233)"><tspan x="-126.431" y="0">-0.39 + -0.01 = </tspan><tspan class="l" y="0">-0.40</tspan></text><text class="j" transform="translate(5513 1279)"><tspan x="-126.431" y="0">-0.39 + -1.00 = -1.39</tspan></text><text class="j" transform="translate(5514 1335)"><tspan x="-126.431" y="0">-0.45 + -0.52 = -0.97</tspan></text><text class="j" transform="translate(5514 1381)"><tspan x="-126.431" y="0">-0.45 + -0.52 = -0.97</tspan></text><text class="j" transform="translate(5514 1427)"><tspan x="-126.431" y="0">-0.45 + -0.39 = </tspan><tspan class="l" y="0">-0.84</tspan></text></g></svg>