<svg xmlns="http://www.w3.org/2000/svg" viewBox="0 0 772 1030"><defs><style>.a{fill:#f7f7f7;}.a,.c,.g{stroke:#707070;}.b,.o{fill:#707070;}.c,.n{fill:none;}.d{fill:#9db4ff;}.e,.h{fill:#020000;font-size:20px;}.e{font-family:Menlo-Regular, Menlo;}.f{font-size:10px;}.g{fill:#fff;}.h{font-family:Hack-Regular, Hack;}.i{fill:#10ebfd;}.j{fill:#9dffa8;}.k{fill:#ff9d9d;}.l{fill:#fb9dff;}.m,.o{stroke:none;}</style></defs><g transform="translate(457 297)"><g class="a" transform="translate(-13 -19)"><rect class="m" width="275" height="549"/><rect class="n" x="0.5" y="0.5" width="274" height="548"/></g><g class="b" transform="translate(126.5 -42) rotate(45)"><path class="m" d="M 4.48930025100708 10.31504917144775 L 0.8653011322021484 0.8604671359062195 L 10.36387062072754 4.440470218658447 L 7.402174472808838 7.402174949645996 L 4.48930025100708 10.31504917144775 Z"/><path class="o" d="M 1.730582237243652 1.720914840698242 L 4.680450439453125 9.416769027709961 L 7.048614501953125 7.048604965209961 L 9.462241172790527 4.6349778175354 L 1.730582237243652 1.720914840698242 M 4.76837158203125e-06 -4.76837158203125e-06 L 11.26548385620117 4.245954990386963 L 7.755724430084229 7.755715370178223 L 4.298134326934814 11.21330547332764 L 4.76837158203125e-06 -4.76837158203125e-06 Z"/></g><path class="c" d="M0,0V121.569" transform="translate(126.518 -36.373)"/><g class="a" transform="translate(-389 186)"><rect class="m" width="275" height="341"/><rect class="n" x="0.5" y="0.5" width="274" height="340"/></g><line class="c" y2="110" transform="translate(-246.5 161.5)"/><line class="c" x1="0.018" y2="78.873" transform="translate(-246.5 345.627)"/><rect class="d" width="208" height="40" transform="translate(-350 611)"/><text class="e" transform="translate(-246 638)"><tspan x="-90.308" y="0">Input Embedding</tspan></text><path class="d" d="M0,0H208V40H0Z" transform="translate(22 611)"/><text class="e" transform="translate(126 638)"><tspan x="-96.328" y="0">Output Embedding</tspan></text><g class="b" transform="translate(-246.5 661.893) rotate(45)"><path class="m" d="M 4.48930025100708 10.31504917144775 L 0.8653011322021484 0.8604671359062195 L 10.36387062072754 4.440470218658447 L 7.402174472808838 7.402174949645996 L 4.48930025100708 10.31504917144775 Z"/><path class="o" d="M 1.730582237243652 1.720914840698242 L 4.680450439453125 9.416769027709961 L 7.048614501953125 7.048604965209961 L 9.462241172790527 4.6349778175354 L 1.730582237243652 1.720914840698242 M 4.76837158203125e-06 -4.76837158203125e-06 L 11.26548385620117 4.245954990386963 L 7.755724430084229 7.755715370178223 L 4.298134326934814 11.21330547332764 L 4.76837158203125e-06 -4.76837158203125e-06 Z"/></g><g transform="translate(-246.5 662.521)"><line class="c" y2="30"/></g><g class="b" transform="translate(-246.5 661.893) rotate(45)"><path class="m" d="M 4.48930025100708 10.31504917144775 L 0.8653011322021484 0.8604671359062195 L 10.36387062072754 4.440470218658447 L 7.402174472808838 7.402174949645996 L 4.48930025100708 10.31504917144775 Z"/><path class="o" d="M 1.730582237243652 1.720914840698242 L 4.680450439453125 9.416769027709961 L 7.048614501953125 7.048604965209961 L 9.462241172790527 4.6349778175354 L 1.730582237243652 1.720914840698242 M 4.76837158203125e-06 -4.76837158203125e-06 L 11.26548385620117 4.245954990386963 L 7.755724430084229 7.755715370178223 L 4.298134326934814 11.21330547332764 L 4.76837158203125e-06 -4.76837158203125e-06 Z"/></g><g transform="translate(-246.5 662.521)"><line class="c" y2="30"/></g><g class="b" transform="translate(125.5 658.893) rotate(45)"><path class="m" d="M 4.48930025100708 10.31504917144775 L 0.8653011322021484 0.8604671359062195 L 10.36387062072754 4.440470218658447 L 7.402174472808838 7.402174949645996 L 4.48930025100708 10.31504917144775 Z"/><path class="o" d="M 1.730582237243652 1.720914840698242 L 4.680450439453125 9.416769027709961 L 7.048614501953125 7.048604965209961 L 9.462241172790527 4.6349778175354 L 1.730582237243652 1.720914840698242 M 4.76837158203125e-06 -4.76837158203125e-06 L 11.26548385620117 4.245954990386963 L 7.755724430084229 7.755715370178223 L 4.298134326934814 11.21330547332764 L 4.76837158203125e-06 -4.76837158203125e-06 Z"/></g><g transform="translate(125.5 659.521)"><line class="c" y2="30"/></g><g class="b" transform="translate(125.5 658.893) rotate(45)"><path class="m" d="M 4.48930025100708 10.31504917144775 L 0.8653011322021484 0.8604671359062195 L 10.36387062072754 4.440470218658447 L 7.402174472808838 7.402174949645996 L 4.48930025100708 10.31504917144775 Z"/><path class="o" d="M 1.730582237243652 1.720914840698242 L 4.680450439453125 9.416769027709961 L 7.048614501953125 7.048604965209961 L 9.462241172790527 4.6349778175354 L 1.730582237243652 1.720914840698242 M 4.76837158203125e-06 -4.76837158203125e-06 L 11.26548385620117 4.245954990386963 L 7.755724430084229 7.755715370178223 L 4.298134326934814 11.21330547332764 L 4.76837158203125e-06 -4.76837158203125e-06 Z"/></g><g transform="translate(125.5 659.521)"><line class="c" y2="30"/></g><text class="e" transform="translate(-246 721)"><tspan x="-36.123" y="0">Inputs</tspan></text><text class="e" transform="translate(126 716)"><tspan x="-42.144" y="0">Outputs</tspan><tspan class="f"><tspan x="-45.154" y="14">(shifted right)</tspan></tspan></text><g transform="translate(-17 536)"><g class="b" transform="translate(-229.5 48) rotate(45)"><path class="m" d="M 4.48930025100708 10.31504917144775 L 0.8653011322021484 0.8604671359062195 L 10.36387062072754 4.440470218658447 L 7.402174472808838 7.402174949645996 L 4.48930025100708 10.31504917144775 Z"/><path class="o" d="M 1.730582237243652 1.720914840698242 L 4.680450439453125 9.416769027709961 L 7.048614501953125 7.048604965209961 L 9.462241172790527 4.6349778175354 L 1.730582237243652 1.720914840698242 M 4.76837158203125e-06 -4.76837158203125e-06 L 11.26548385620117 4.245954990386963 L 7.755724430084229 7.755715370178223 L 4.298134326934814 11.21330547332764 L 4.76837158203125e-06 -4.76837158203125e-06 Z"/></g><line class="c" y2="16.479" transform="translate(-229.482 48.627)"/></g><g class="g" transform="translate(-256 559)"><circle class="m" cx="10" cy="10" r="10"/><circle class="n" cx="10" cy="10" r="9.5"/></g><text class="h" transform="translate(-246 576)"><tspan x="-6.021" y="0">+</tspan></text><g class="g" transform="translate(-325 549)"><circle class="m" cx="20" cy="20" r="20"/><circle class="n" cx="20" cy="20" r="19.5"/></g><line class="c" x2="31" y2="24" transform="translate(-320.5 557.5)"/><g transform="translate(-212.928 797.035) rotate(90)"><g class="b" transform="translate(-229.5 48) rotate(45)"><path class="m" d="M 4.48930025100708 10.31504917144775 L 0.8653011322021484 0.8604671359062195 L 10.36387062072754 4.440470218658447 L 7.402174472808838 7.402174949645996 L 4.48930025100708 10.31504917144775 Z"/><path class="o" d="M 1.730582237243652 1.720914840698242 L 4.680450439453125 9.416769027709961 L 7.048614501953125 7.048604965209961 L 9.462241172790527 4.6349778175354 L 1.730582237243652 1.720914840698242 M 4.76837158203125e-06 -4.76837158203125e-06 L 11.26548385620117 4.245954990386963 L 7.755724430084229 7.755715370178223 L 4.298134326934814 11.21330547332764 L 4.76837158203125e-06 -4.76837158203125e-06 Z"/></g><line class="c" y2="16.479" transform="translate(-229.482 48.627)"/></g><text class="e" transform="translate(-396 565)"><tspan x="-60.205" y="0">Positional</tspan><tspan x="-48.164" y="24">Encoding</tspan></text><g transform="translate(-22 302)"><path class="i" d="M0,0H145V60.864H0Z" transform="translate(-297 122)"/><text class="e" transform="translate(-225 147)"><tspan x="-60.205" y="0">Multi-Head</tspan><tspan x="-54.185" y="24">Attention</tspan></text></g><g transform="translate(-332 363)"><rect class="j" width="145" height="52" transform="translate(13)"/><text class="h" transform="translate(87 33)"><tspan x="-60.205" y="0">Add &amp; Norm</tspan></text></g><g transform="translate(-289 267)"><rect class="k" width="145" height="64" transform="translate(-29 -3)"/><text class="h" transform="translate(44 24)"><tspan x="-30.103" y="0">Feed </tspan><tspan x="-42.144" y="24">Forward</tspan></text></g><g transform="translate(-332 204)"><rect class="j" width="145" height="52" transform="translate(13)"/><text class="h" transform="translate(87 33)"><tspan x="-60.205" y="0">Add &amp; Norm</tspan></text></g><g class="b" transform="translate(-295.5 488) rotate(45)"><path class="m" d="M 4.48930025100708 10.31504917144775 L 0.8653011322021484 0.8604671359062195 L 10.36387062072754 4.440470218658447 L 7.402174472808838 7.402174949645996 L 4.48930025100708 10.31504917144775 Z"/><path class="o" d="M 1.730582237243652 1.720914840698242 L 4.680450439453125 9.416769027709961 L 7.048614501953125 7.048604965209961 L 9.462241172790527 4.6349778175354 L 1.730582237243652 1.720914840698242 M 4.76837158203125e-06 -4.76837158203125e-06 L 11.26548385620117 4.245954990386963 L 7.755724430084229 7.755715370178223 L 4.298134326934814 11.21330547332764 L 4.76837158203125e-06 -4.76837158203125e-06 Z"/></g><line class="c" y2="16" transform="translate(-295.482 489.627)"/><line class="c" y2="16" transform="translate(-295.482 489.627)"/><line class="c" x2="100.5" transform="translate(-296 505.5)"/><g class="b" transform="translate(-246.5 488) rotate(45)"><path class="m" d="M 4.48930025100708 10.31504917144775 L 0.8653011322021484 0.8604671359062195 L 10.36387062072754 4.440470218658447 L 7.402174472808838 7.402174949645996 L 4.48930025100708 10.31504917144775 Z"/><path class="o" d="M 1.730582237243652 1.720914840698242 L 4.680450439453125 9.416769027709961 L 7.048614501953125 7.048604965209961 L 9.462241172790527 4.6349778175354 L 1.730582237243652 1.720914840698242 M 4.76837158203125e-06 -4.76837158203125e-06 L 11.26548385620117 4.245954990386963 L 7.755724430084229 7.755715370178223 L 4.298134326934814 11.21330547332764 L 4.76837158203125e-06 -4.76837158203125e-06 Z"/></g><line class="c" y2="16" transform="translate(-246.482 489.627)"/><line class="c" y2="16" transform="translate(-246.482 489.627)"/><g class="b" transform="translate(-195.5 488) rotate(45)"><path class="m" d="M 4.48930025100708 10.31504917144775 L 0.8653011322021484 0.8604671359062195 L 10.36387062072754 4.440470218658447 L 7.402174472808838 7.402174949645996 L 4.48930025100708 10.31504917144775 Z"/><path class="o" d="M 1.730582237243652 1.720914840698242 L 4.680450439453125 9.416769027709961 L 7.048614501953125 7.048604965209961 L 9.462241172790527 4.6349778175354 L 1.730582237243652 1.720914840698242 M 4.76837158203125e-06 -4.76837158203125e-06 L 11.26548385620117 4.245954990386963 L 7.755724430084229 7.755715370178223 L 4.298134326934814 11.21330547332764 L 4.76837158203125e-06 -4.76837158203125e-06 Z"/></g><line class="c" y2="16" transform="translate(-195.482 489.627)"/><line class="c" y2="16" transform="translate(-195.482 489.627)"/><line class="c" x1="0.018" y2="45.873" transform="translate(-246.5 500.627)"/><g transform="translate(-276.928 618.035) rotate(90)"><g class="b" transform="translate(-229.5 48) rotate(45)"><path class="m" d="M 4.48930025100708 10.31504917144775 L 0.8653011322021484 0.8604671359062195 L 10.36387062072754 4.440470218658447 L 7.402174472808838 7.402174949645996 L 4.48930025100708 10.31504917144775 Z"/><path class="o" d="M 1.730582237243652 1.720914840698242 L 4.680450439453125 9.416769027709961 L 7.048614501953125 7.048604965209961 L 9.462241172790527 4.6349778175354 L 1.730582237243652 1.720914840698242 M 4.76837158203125e-06 -4.76837158203125e-06 L 11.26548385620117 4.245954990386963 L 7.755724430084229 7.755715370178223 L 4.298134326934814 11.21330547332764 L 4.76837158203125e-06 -4.76837158203125e-06 Z"/></g><line class="c" y2="16.479" transform="translate(-229.482 48.627)"/></g><line class="c" y2="125.5" transform="translate(-342.5 388)"/><path class="c" d="M0,0H96.5" transform="translate(-343 513.5)"/><line class="c" y2="16" transform="translate(-246.482 489.627)"/><g class="b" transform="translate(-246.5 333) rotate(45)"><path class="m" d="M 4.48930025100708 10.31504917144775 L 0.8653011322021484 0.8604671359062195 L 10.36387062072754 4.440470218658447 L 7.402174472808838 7.402174949645996 L 4.48930025100708 10.31504917144775 Z"/><path class="o" d="M 1.730582237243652 1.720914840698242 L 4.680450439453125 9.416769027709961 L 7.048614501953125 7.048604965209961 L 9.462241172790527 4.6349778175354 L 1.730582237243652 1.720914840698242 M 4.76837158203125e-06 -4.76837158203125e-06 L 11.26548385620117 4.245954990386963 L 7.755724430084229 7.755715370178223 L 4.298134326934814 11.21330547332764 L 4.76837158203125e-06 -4.76837158203125e-06 Z"/></g><line class="c" y2="16" transform="translate(-246.482 334.627)"/><line class="c" y2="16" transform="translate(-246.482 334.627)"/><g transform="translate(-276.928 463.035) rotate(90)"><g class="b" transform="translate(-229.5 48) rotate(45)"><path class="m" d="M 4.48930025100708 10.31504917144775 L 0.8653011322021484 0.8604671359062195 L 10.36387062072754 4.440470218658447 L 7.402174472808838 7.402174949645996 L 4.48930025100708 10.31504917144775 Z"/><path class="o" d="M 1.730582237243652 1.720914840698242 L 4.680450439453125 9.416769027709961 L 7.048614501953125 7.048604965209961 L 9.462241172790527 4.6349778175354 L 1.730582237243652 1.720914840698242 M 4.76837158203125e-06 -4.76837158203125e-06 L 11.26548385620117 4.245954990386963 L 7.755724430084229 7.755715370178223 L 4.298134326934814 11.21330547332764 L 4.76837158203125e-06 -4.76837158203125e-06 Z"/></g><line class="c" y2="16.479" transform="translate(-229.482 48.627)"/></g><line class="c" x2="96.5" transform="translate(-343 352.5)"/><line class="c" y2="16" transform="translate(-246.482 334.627)"/><line class="c" y2="119.5" transform="translate(-342.5 233)"/><text class="e" transform="translate(-430 368)"><tspan x="-18.062" y="0">N x</tspan></text><line class="c" x1="0.018" y2="78.873" transform="translate(125.5 316.627)"/><g transform="translate(355 536)"><g class="b" transform="translate(-229.5 48) rotate(45)"><path class="m" d="M 4.48930025100708 10.31504917144775 L 0.8653011322021484 0.8604671359062195 L 10.36387062072754 4.440470218658447 L 7.402174472808838 7.402174949645996 L 4.48930025100708 10.31504917144775 Z"/><path class="o" d="M 1.730582237243652 1.720914840698242 L 4.680450439453125 9.416769027709961 L 7.048614501953125 7.048604965209961 L 9.462241172790527 4.6349778175354 L 1.730582237243652 1.720914840698242 M 4.76837158203125e-06 -4.76837158203125e-06 L 11.26548385620117 4.245954990386963 L 7.755724430084229 7.755715370178223 L 4.298134326934814 11.21330547332764 L 4.76837158203125e-06 -4.76837158203125e-06 Z"/></g><line class="c" y2="16.479" transform="translate(-229.482 48.627)"/></g><g class="g" transform="translate(116 559)"><circle class="m" cx="10" cy="10" r="10"/><circle class="n" cx="10" cy="10" r="9.5"/></g><text class="h" transform="translate(126 576)"><tspan x="-6.021" y="0">+</tspan></text><g class="g" transform="translate(47 549)"><circle class="m" cx="20" cy="20" r="20"/><circle class="n" cx="20" cy="20" r="19.5"/></g><line class="c" x2="31" y2="24" transform="translate(51.5 557.5)"/><g transform="translate(159.072 797.035) rotate(90)"><g class="b" transform="translate(-229.5 48) rotate(45)"><path class="m" d="M 4.48930025100708 10.31504917144775 L 0.8653011322021484 0.8604671359062195 L 10.36387062072754 4.440470218658447 L 7.402174472808838 7.402174949645996 L 4.48930025100708 10.31504917144775 Z"/><path class="o" d="M 1.730582237243652 1.720914840698242 L 4.680450439453125 9.416769027709961 L 7.048614501953125 7.048604965209961 L 9.462241172790527 4.6349778175354 L 1.730582237243652 1.720914840698242 M 4.76837158203125e-06 -4.76837158203125e-06 L 11.26548385620117 4.245954990386963 L 7.755724430084229 7.755715370178223 L 4.298134326934814 11.21330547332764 L 4.76837158203125e-06 -4.76837158203125e-06 Z"/></g><line class="c" y2="16.479" transform="translate(-229.482 48.627)"/></g><text class="e" transform="translate(-24 565)"><tspan x="-60.205" y="0">Positional</tspan><tspan x="-48.164" y="24">Encoding</tspan></text><path class="i" d="M0,0H145V88.363H0Z" transform="translate(53 396.501)"/><g transform="translate(350 302)"><text class="e" transform="translate(-225 122)"><tspan x="-36.123" y="0">Masked</tspan><tspan x="-60.205" y="24">Multi-Head</tspan><tspan x="-54.185" y="48">Attention</tspan></text></g><g transform="translate(40 337)"><rect class="j" width="145" height="52" transform="translate(13)"/><text class="h" transform="translate(87 33)"><tspan x="-60.205" y="0">Add &amp; Norm</tspan></text></g><g transform="translate(83 65)"><rect class="k" width="145" height="64" transform="translate(-29 -3)"/><text class="h" transform="translate(44 24)"><tspan x="-30.103" y="0">Feed </tspan><tspan x="-42.144" y="24">Forward</tspan></text></g><g transform="translate(41)"><rect class="j" width="145" height="52" transform="translate(13)"/><text class="h" transform="translate(87 33)"><tspan x="-60.205" y="0">Add &amp; Norm</tspan></text></g><g class="b" transform="translate(76.5 488) rotate(45)"><path class="m" d="M 4.48930025100708 10.31504917144775 L 0.8653011322021484 0.8604671359062195 L 10.36387062072754 4.440470218658447 L 7.402174472808838 7.402174949645996 L 4.48930025100708 10.31504917144775 Z"/><path class="o" d="M 1.730582237243652 1.720914840698242 L 4.680450439453125 9.416769027709961 L 7.048614501953125 7.048604965209961 L 9.462241172790527 4.6349778175354 L 1.730582237243652 1.720914840698242 M 4.76837158203125e-06 -4.76837158203125e-06 L 11.26548385620117 4.245954990386963 L 7.755724430084229 7.755715370178223 L 4.298134326934814 11.21330547332764 L 4.76837158203125e-06 -4.76837158203125e-06 Z"/></g><line class="c" y2="16" transform="translate(76.518 489.627)"/><line class="c" y2="16" transform="translate(76.518 489.627)"/><line class="c" x2="100.5" transform="translate(76 505.5)"/><g class="b" transform="translate(125.5 488) rotate(45)"><path class="m" d="M 4.48930025100708 10.31504917144775 L 0.8653011322021484 0.8604671359062195 L 10.36387062072754 4.440470218658447 L 7.402174472808838 7.402174949645996 L 4.48930025100708 10.31504917144775 Z"/><path class="o" d="M 1.730582237243652 1.720914840698242 L 4.680450439453125 9.416769027709961 L 7.048614501953125 7.048604965209961 L 9.462241172790527 4.6349778175354 L 1.730582237243652 1.720914840698242 M 4.76837158203125e-06 -4.76837158203125e-06 L 11.26548385620117 4.245954990386963 L 7.755724430084229 7.755715370178223 L 4.298134326934814 11.21330547332764 L 4.76837158203125e-06 -4.76837158203125e-06 Z"/></g><line class="c" y2="16" transform="translate(125.518 489.627)"/><line class="c" y2="16" transform="translate(125.518 489.627)"/><g class="b" transform="translate(176.5 488) rotate(45)"><path class="m" d="M 4.48930025100708 10.31504917144775 L 0.8653011322021484 0.8604671359062195 L 10.36387062072754 4.440470218658447 L 7.402174472808838 7.402174949645996 L 4.48930025100708 10.31504917144775 Z"/><path class="o" d="M 1.730582237243652 1.720914840698242 L 4.680450439453125 9.416769027709961 L 7.048614501953125 7.048604965209961 L 9.462241172790527 4.6349778175354 L 1.730582237243652 1.720914840698242 M 4.76837158203125e-06 -4.76837158203125e-06 L 11.26548385620117 4.245954990386963 L 7.755724430084229 7.755715370178223 L 4.298134326934814 11.21330547332764 L 4.76837158203125e-06 -4.76837158203125e-06 Z"/></g><line class="c" y2="16" transform="translate(176.518 489.627)"/><line class="c" y2="16" transform="translate(176.518 489.627)"/><line class="c" x1="0.018" y2="45.873" transform="translate(125.5 500.627)"/><g transform="translate(95.072 589.035) rotate(90)"><g class="b" transform="translate(-229.5 48) rotate(45)"><path class="m" d="M 4.48930025100708 10.31504917144775 L 0.8653011322021484 0.8604671359062195 L 10.36387062072754 4.440470218658447 L 7.402174472808838 7.402174949645996 L 4.48930025100708 10.31504917144775 Z"/><path class="o" d="M 1.730582237243652 1.720914840698242 L 4.680450439453125 9.416769027709961 L 7.048614501953125 7.048604965209961 L 9.462241172790527 4.6349778175354 L 1.730582237243652 1.720914840698242 M 4.76837158203125e-06 -4.76837158203125e-06 L 11.26548385620117 4.245954990386963 L 7.755724430084229 7.755715370178223 L 4.298134326934814 11.21330547332764 L 4.76837158203125e-06 -4.76837158203125e-06 Z"/></g><line class="c" y2="16.479" transform="translate(-229.482 48.627)"/></g><line class="c" y2="154" transform="translate(29.5 359)"/><line class="c" x2="96.5" transform="translate(29 513.5)"/><line class="c" y2="16" transform="translate(125.518 489.627)"/><g class="b" transform="translate(125.5 131) rotate(45)"><path class="m" d="M 4.48930025100708 10.31504917144775 L 0.8653011322021484 0.8604671359062195 L 10.36387062072754 4.440470218658447 L 7.402174472808838 7.402174949645996 L 4.48930025100708 10.31504917144775 Z"/><path class="o" d="M 1.730582237243652 1.720914840698242 L 4.680450439453125 9.416769027709961 L 7.048614501953125 7.048604965209961 L 9.462241172790527 4.6349778175354 L 1.730582237243652 1.720914840698242 M 4.76837158203125e-06 -4.76837158203125e-06 L 11.26548385620117 4.245954990386963 L 7.755724430084229 7.755715370178223 L 4.298134326934814 11.21330547332764 L 4.76837158203125e-06 -4.76837158203125e-06 Z"/></g><line class="c" y2="16" transform="translate(125.518 132.627)"/><line class="c" y2="16" transform="translate(125.518 132.627)"/><line class="c" x2="96.5" transform="translate(125 316.5)"/><line class="c" x2="0.982" y2="97.873" transform="translate(125.518 132.627)"/><text class="e" transform="translate(296 275)"><tspan x="-18.062" y="0">N x</tspan></text><g transform="translate(350 98)"><path class="i" d="M0,0H145V60.864H0Z" transform="translate(-297 122)"/><text class="e" transform="translate(-225 147)"><tspan x="-60.205" y="0">Multi-Head</tspan><tspan x="-54.185" y="24">Attention</tspan></text></g><line class="c" x2="187.5" transform="translate(-247 161.5)"/><line class="c" y2="144.5" transform="translate(-59.5 162)"/><line class="c" x2="184" transform="translate(-59 306.5)"/><g class="b" transform="translate(75.5 289) rotate(45)"><path class="m" d="M 4.48930025100708 10.31504917144775 L 0.8653011322021484 0.8604671359062195 L 10.36387062072754 4.440470218658447 L 7.402174472808838 7.402174949645996 L 4.48930025100708 10.31504917144775 Z"/><path class="o" d="M 1.730582237243652 1.720914840698242 L 4.680450439453125 9.416769027709961 L 7.048614501953125 7.048604965209961 L 9.462241172790527 4.6349778175354 L 1.730582237243652 1.720914840698242 M 4.76837158203125e-06 -4.76837158203125e-06 L 11.26548385620117 4.245954990386963 L 7.755724430084229 7.755715370178223 L 4.298134326934814 11.21330547332764 L 4.76837158203125e-06 -4.76837158203125e-06 Z"/></g><line class="c" y2="16" transform="translate(75.518 290.627)"/><line class="c" y2="16" transform="translate(75.518 290.627)"/><g class="b" transform="translate(124.5 289) rotate(45)"><path class="m" d="M 4.48930025100708 10.31504917144775 L 0.8653011322021484 0.8604671359062195 L 10.36387062072754 4.440470218658447 L 7.402174472808838 7.402174949645996 L 4.48930025100708 10.31504917144775 Z"/><path class="o" d="M 1.730582237243652 1.720914840698242 L 4.680450439453125 9.416769027709961 L 7.048614501953125 7.048604965209961 L 9.462241172790527 4.6349778175354 L 1.730582237243652 1.720914840698242 M 4.76837158203125e-06 -4.76837158203125e-06 L 11.26548385620117 4.245954990386963 L 7.755724430084229 7.755715370178223 L 4.298134326934814 11.21330547332764 L 4.76837158203125e-06 -4.76837158203125e-06 Z"/></g><line class="c" y2="16" transform="translate(124.518 290.627)"/><line class="c" y2="16" transform="translate(124.518 290.627)"/><g class="b" transform="translate(175.5 289) rotate(45)"><path class="m" d="M 4.48930025100708 10.31504917144775 L 0.8653011322021484 0.8604671359062195 L 10.36387062072754 4.440470218658447 L 7.402174472808838 7.402174949645996 L 4.48930025100708 10.31504917144775 Z"/><path class="o" d="M 1.730582237243652 1.720914840698242 L 4.680450439453125 9.416769027709961 L 7.048614501953125 7.048604965209961 L 9.462241172790527 4.6349778175354 L 1.730582237243652 1.720914840698242 M 4.76837158203125e-06 -4.76837158203125e-06 L 11.26548385620117 4.245954990386963 L 7.755724430084229 7.755715370178223 L 4.298134326934814 11.21330547332764 L 4.76837158203125e-06 -4.76837158203125e-06 Z"/></g><line class="c" y2="16" transform="translate(175.518 290.627)"/><line class="c" x1="0.018" y2="25.873" transform="translate(175.5 290.627)"/><line class="c" y2="16" transform="translate(124.518 290.627)"/><g transform="translate(40 160)"><rect class="j" width="145" height="52" transform="translate(13)"/><text class="h" transform="translate(87 33)"><tspan x="-60.205" y="0">Add &amp; Norm</tspan></text></g><line class="c" y2="130" transform="translate(221.5 186.5)"/><g transform="translate(156.965 -42.928) rotate(-90)"><g class="b" transform="translate(-229.5 48) rotate(45)"><path class="m" d="M 4.48930025100708 10.31504917144775 L 0.8653011322021484 0.8604671359062195 L 10.36387062072754 4.440470218658447 L 7.402174472808838 7.402174949645996 L 4.48930025100708 10.31504917144775 Z"/><path class="o" d="M 1.730582237243652 1.720914840698242 L 4.680450439453125 9.416769027709961 L 7.048614501953125 7.048604965209961 L 9.462241172790527 4.6349778175354 L 1.730582237243652 1.720914840698242 M 4.76837158203125e-06 -4.76837158203125e-06 L 11.26548385620117 4.245954990386963 L 7.755724430084229 7.755715370178223 L 4.298134326934814 11.21330547332764 L 4.76837158203125e-06 -4.76837158203125e-06 Z"/></g><line class="c" y2="16.479" transform="translate(-229.482 48.627)"/></g><g transform="translate(95.072 263.035) rotate(90)"><g class="b" transform="translate(-229.5 48) rotate(45)"><path class="m" d="M 4.48930025100708 10.31504917144775 L 0.8653011322021484 0.8604671359062195 L 10.36387062072754 4.440470218658447 L 7.402174472808838 7.402174949645996 L 4.48930025100708 10.31504917144775 Z"/><path class="o" d="M 1.730582237243652 1.720914840698242 L 4.680450439453125 9.416769027709961 L 7.048614501953125 7.048604965209961 L 9.462241172790527 4.6349778175354 L 1.730582237243652 1.720914840698242 M 4.76837158203125e-06 -4.76837158203125e-06 L 11.26548385620117 4.245954990386963 L 7.755724430084229 7.755715370178223 L 4.298134326934814 11.21330547332764 L 4.76837158203125e-06 -4.76837158203125e-06 Z"/></g><line class="c" y2="16.479" transform="translate(-229.482 48.627)"/></g><line class="c" x2="96.5" transform="translate(29 152.5)"/><line class="c" y2="119.5" transform="translate(29.5 33)"/><rect class="l" width="145" height="52" transform="translate(53 -105)"/><text class="h" transform="translate(127 -72)"><tspan x="-36.123" y="0">Linear</tspan></text><g class="b" transform="translate(126.5 -137) rotate(45)"><path class="m" d="M 4.48930025100708 10.31504917144775 L 0.8653011322021484 0.8604671359062195 L 10.36387062072754 4.440470218658447 L 7.402174472808838 7.402174949645996 L 4.48930025100708 10.31504917144775 Z"/><path class="o" d="M 1.730582237243652 1.720914840698242 L 4.680450439453125 9.416769027709961 L 7.048614501953125 7.048604965209961 L 9.462241172790527 4.6349778175354 L 1.730582237243652 1.720914840698242 M 4.76837158203125e-06 -4.76837158203125e-06 L 11.26548385620117 4.245954990386963 L 7.755724430084229 7.755715370178223 L 4.298134326934814 11.21330547332764 L 4.76837158203125e-06 -4.76837158203125e-06 Z"/></g><line class="c" y2="16" transform="translate(126.518 -135.373)"/><line class="c" x1="0.018" y2="25.873" transform="translate(126.5 -135.373)"/><rect class="i" width="145" height="52" transform="translate(53 -196)"/><text class="h" transform="translate(127 -163)"><tspan x="-42.144" y="0">Softmax</tspan></text><g class="b" transform="translate(126.5 -238) rotate(45)"><path class="m" d="M 4.48930025100708 10.31504917144775 L 0.8653011322021484 0.8604671359062195 L 10.36387062072754 4.440470218658447 L 7.402174472808838 7.402174949645996 L 4.48930025100708 10.31504917144775 Z"/><path class="o" d="M 1.730582237243652 1.720914840698242 L 4.680450439453125 9.416769027709961 L 7.048614501953125 7.048604965209961 L 9.462241172790527 4.6349778175354 L 1.730582237243652 1.720914840698242 M 4.76837158203125e-06 -4.76837158203125e-06 L 11.26548385620117 4.245954990386963 L 7.755724430084229 7.755715370178223 L 4.298134326934814 11.21330547332764 L 4.76837158203125e-06 -4.76837158203125e-06 Z"/></g><line class="c" y2="16" transform="translate(126.518 -236.373)"/><line class="c" x1="0.018" y2="25.873" transform="translate(126.5 -236.373)"/><text class="e" transform="translate(127 -278)"><tspan x="-36.123" y="0">Output</tspan><tspan x="-78.267" y="24">Probabilities</tspan></text><g transform="translate(-93 -318)"><path class="i" d="M0,0H145V60.864H0Z" transform="translate(-297 122)"/><text class="e" transform="translate(-225 147)"><tspan x="-60.205" y="0">Multi-Head</tspan><tspan x="-54.185" y="24">Attention</tspan></text></g><g class="b" transform="translate(-366.5 -127) rotate(45)"><path class="m" d="M 4.48930025100708 10.31504917144775 L 0.8653011322021484 0.8604671359062195 L 10.36387062072754 4.440470218658447 L 7.402174472808838 7.402174949645996 L 4.48930025100708 10.31504917144775 Z"/><path class="o" d="M 1.730582237243652 1.720914840698242 L 4.680450439453125 9.416769027709961 L 7.048614501953125 7.048604965209961 L 9.462241172790527 4.6349778175354 L 1.730582237243652 1.720914840698242 M 4.76837158203125e-06 -4.76837158203125e-06 L 11.26548385620117 4.245954990386963 L 7.755724430084229 7.755715370178223 L 4.298134326934814 11.21330547332764 L 4.76837158203125e-06 -4.76837158203125e-06 Z"/></g><line class="c" y2="16" transform="translate(-366.482 -125.373)"/><line class="c" x1="0.018" y2="28.873" transform="translate(-366.5 -125.373)"/><g class="b" transform="translate(-317.5 -127) rotate(45)"><path class="m" d="M 4.48930025100708 10.31504917144775 L 0.8653011322021484 0.8604671359062195 L 10.36387062072754 4.440470218658447 L 7.402174472808838 7.402174949645996 L 4.48930025100708 10.31504917144775 Z"/><path class="o" d="M 1.730582237243652 1.720914840698242 L 4.680450439453125 9.416769027709961 L 7.048614501953125 7.048604965209961 L 9.462241172790527 4.6349778175354 L 1.730582237243652 1.720914840698242 M 4.76837158203125e-06 -4.76837158203125e-06 L 11.26548385620117 4.245954990386963 L 7.755724430084229 7.755715370178223 L 4.298134326934814 11.21330547332764 L 4.76837158203125e-06 -4.76837158203125e-06 Z"/></g><line class="c" y2="16" transform="translate(-317.482 -125.373)"/><line class="c" y2="16" transform="translate(-317.482 -125.373)"/><g class="b" transform="translate(-266.5 -127) rotate(45)"><path class="m" d="M 4.48930025100708 10.31504917144775 L 0.8653011322021484 0.8604671359062195 L 10.36387062072754 4.440470218658447 L 7.402174472808838 7.402174949645996 L 4.48930025100708 10.31504917144775 Z"/><path class="o" d="M 1.730582237243652 1.720914840698242 L 4.680450439453125 9.416769027709961 L 7.048614501953125 7.048604965209961 L 9.462241172790527 4.6349778175354 L 1.730582237243652 1.720914840698242 M 4.76837158203125e-06 -4.76837158203125e-06 L 11.26548385620117 4.245954990386963 L 7.755724430084229 7.755715370178223 L 4.298134326934814 11.21330547332764 L 4.76837158203125e-06 -4.76837158203125e-06 Z"/></g><line class="c" y2="16" transform="translate(-266.482 -125.373)"/><line class="c" x1="0.018" y2="28.873" transform="translate(-266.5 -125.373)"/><line class="c" x1="0.018" y2="22.873" transform="translate(-317.5 -119.373)"/><rect class="d" width="40" height="40" transform="translate(-387 -88)"/><text class="e" transform="translate(-367 -61)"><tspan x="-6.021" y="0">K</tspan></text><rect class="d" width="40" height="40" transform="translate(-337 -88)"/><text class="e" transform="translate(-317 -61)"><tspan x="-6.021" y="0">V</tspan></text><rect class="d" width="40" height="40" transform="translate(-285 -88)"/><text class="e" transform="translate(-265 -61)"><tspan x="-6.021" y="0">Q</tspan></text></g></svg>