<svg xmlns="http://www.w3.org/2000/svg" viewBox="0 0 292.018 339"><defs><style>.a,.n{fill:#707070;}.b,.l,.o{fill:none;}.b,.d,.f,.h,.i,.j,.l{stroke:#707070;}.c,.g,.k{fill:#020000;font-size:20px;}.c{font-family:Hack-Regular, Hack;}.d{fill:#ff9d9d;}.e{font-size:10px;}.f{fill:#fb9dff;}.g{font-family:Menlo-Italic, Menlo;font-style:italic;}.h{fill:#10ebfd;}.i{fill:#9dffa8;}.j{fill:#fff09d;}.k{font-family:Hack-Bold, Hack;font-weight:700;}.l{stroke-dasharray:2;}.m,.n{stroke:none;}</style></defs><g transform="translate(-421 582)"><g class="a" transform="translate(487.5 -445) rotate(45)"><path class="m" d="M 4.48930025100708 10.31504917144775 L 0.8653011322021484 0.8604671359062195 L 10.36387062072754 4.440470218658447 L 7.402174472808838 7.402174949645996 L 4.48930025100708 10.31504917144775 Z"/><path class="n" d="M 1.730582237243652 1.720914840698242 L 4.680450439453125 9.416769027709961 L 7.048614501953125 7.048604965209961 L 9.462241172790527 4.6349778175354 L 1.730582237243652 1.720914840698242 M 4.76837158203125e-06 -4.76837158203125e-06 L 11.26548385620117 4.245954990386963 L 7.755724430084229 7.755715370178223 L 4.298134326934814 11.21330547332764 L 4.76837158203125e-06 -4.76837158203125e-06 Z"/></g><line class="b" y2="16.479" transform="translate(487.518 -444.373)"/><g class="a" transform="translate(538.5 -445) rotate(45)"><path class="m" d="M 4.48930025100708 10.31504917144775 L 0.8653011322021484 0.8604671359062195 L 10.36387062072754 4.440470218658447 L 7.402174472808838 7.402174949645996 L 4.48930025100708 10.31504917144775 Z"/><path class="n" d="M 1.730582237243652 1.720914840698242 L 4.680450439453125 9.416769027709961 L 7.048614501953125 7.048604965209961 L 9.462241172790527 4.6349778175354 L 1.730582237243652 1.720914840698242 M 4.76837158203125e-06 -4.76837158203125e-06 L 11.26548385620117 4.245954990386963 L 7.755724430084229 7.755715370178223 L 4.298134326934814 11.21330547332764 L 4.76837158203125e-06 -4.76837158203125e-06 Z"/></g><line class="b" y2="16.479" transform="translate(538.518 -443.373)"/><g class="a" transform="translate(587.5 -445) rotate(45)"><path class="m" d="M 4.48930025100708 10.31504917144775 L 0.8653011322021484 0.8604671359062195 L 10.36387062072754 4.440470218658447 L 7.402174472808838 7.402174949645996 L 4.48930025100708 10.31504917144775 Z"/><path class="n" d="M 1.730582237243652 1.720914840698242 L 4.680450439453125 9.416769027709961 L 7.048614501953125 7.048604965209961 L 9.462241172790527 4.6349778175354 L 1.730582237243652 1.720914840698242 M 4.76837158203125e-06 -4.76837158203125e-06 L 11.26548385620117 4.245954990386963 L 7.755724430084229 7.755715370178223 L 4.298134326934814 11.21330547332764 L 4.76837158203125e-06 -4.76837158203125e-06 Z"/></g><line class="b" y2="16.479" transform="translate(587.518 -444.373)"/><g class="a" transform="translate(637.5 -445) rotate(45)"><path class="m" d="M 4.48930025100708 10.31504917144775 L 0.8653011322021484 0.8604671359062195 L 10.36387062072754 4.440470218658447 L 7.402174472808838 7.402174949645996 L 4.48930025100708 10.31504917144775 Z"/><path class="n" d="M 1.730582237243652 1.720914840698242 L 4.680450439453125 9.416769027709961 L 7.048614501953125 7.048604965209961 L 9.462241172790527 4.6349778175354 L 1.730582237243652 1.720914840698242 M 4.76837158203125e-06 -4.76837158203125e-06 L 11.26548385620117 4.245954990386963 L 7.755724430084229 7.755715370178223 L 4.298134326934814 11.21330547332764 L 4.76837158203125e-06 -4.76837158203125e-06 Z"/></g><line class="b" y2="16.479" transform="translate(637.518 -444.373)"/><g class="a" transform="translate(687.5 -445) rotate(45)"><path class="m" d="M 4.48930025100708 10.31504917144775 L 0.8653011322021484 0.8604671359062195 L 10.36387062072754 4.440470218658447 L 7.402174472808838 7.402174949645996 L 4.48930025100708 10.31504917144775 Z"/><path class="n" d="M 1.730582237243652 1.720914840698242 L 4.680450439453125 9.416769027709961 L 7.048614501953125 7.048604965209961 L 9.462241172790527 4.6349778175354 L 1.730582237243652 1.720914840698242 M 4.76837158203125e-06 -4.76837158203125e-06 L 11.26548385620117 4.245954990386963 L 7.755724430084229 7.755715370178223 L 4.298134326934814 11.21330547332764 L 4.76837158203125e-06 -4.76837158203125e-06 Z"/></g><line class="b" y2="16.479" transform="translate(687.518 -444.373)"/><text class="c" transform="translate(488 -562)"><tspan x="-18.062" y="0">die</tspan></text><text class="c" transform="translate(541 -563)"><tspan x="-30.103" y="0">Katze</tspan></text><text class="c" transform="translate(587 -563)"><tspan x="-12.041" y="0">im</tspan></text><text class="c" transform="translate(636 -563)"><tspan x="-18.062" y="0">das</tspan></text><text class="c" transform="translate(687 -563)"><tspan x="-18.062" y="0">Hut</tspan></text><g class="d" transform="translate(421 -422)"><rect class="m" width="40" height="40"/><rect class="o" x="0.5" y="0.5" width="39" height="39"/></g><text class="c" transform="translate(441 -395)"><tspan x="-9.031" y="0">h</tspan><tspan class="e" y="0">0</tspan></text><g class="f" transform="translate(468 -357)"><rect class="m" width="40" height="40"/><rect class="o" x="0.5" y="0.5" width="39" height="39"/></g><text class="g" transform="translate(488 -330)"><tspan x="-6.021" y="0">d</tspan></text><g class="a" transform="translate(487.5 -380) rotate(45)"><path class="m" d="M 4.48930025100708 10.31504917144775 L 0.8653011322021484 0.8604671359062195 L 10.36387062072754 4.440470218658447 L 7.402174472808838 7.402174949645996 L 4.48930025100708 10.31504917144775 Z"/><path class="n" d="M 1.730582237243652 1.720914840698242 L 4.680450439453125 9.416769027709961 L 7.048614501953125 7.048604965209961 L 9.462241172790527 4.6349778175354 L 1.730582237243652 1.720914840698242 M 4.76837158203125e-06 -4.76837158203125e-06 L 11.26548385620117 4.245954990386963 L 7.755724430084229 7.755715370178223 L 4.298134326934814 11.21330547332764 L 4.76837158203125e-06 -4.76837158203125e-06 Z"/></g><line class="b" y2="16.479" transform="translate(487.518 -379.373)"/><g class="d" transform="translate(468 -422)"><rect class="m" width="40" height="40"/><rect class="o" x="0.5" y="0.5" width="39" height="39"/></g><text class="c" transform="translate(488 -395)"><tspan x="-9.031" y="0">h</tspan><tspan class="e" y="0">1</tspan></text><g class="a" transform="translate(474.537 -361.893) rotate(-135)"><path class="m" d="M 4.48930025100708 10.31504917144775 L 0.8653011322021484 0.8604671359062195 L 10.36387062072754 4.440470218658447 L 7.402174472808838 7.402174949645996 L 4.48930025100708 10.31504917144775 Z"/><path class="n" d="M 1.730582237243652 1.720914840698242 L 4.680450439453125 9.416769027709961 L 7.048614501953125 7.048604965209961 L 9.462241172790527 4.6349778175354 L 1.730582237243652 1.720914840698242 M 4.76837158203125e-06 -4.76837158203125e-06 L 11.26548385620117 4.245954990386963 L 7.755724430084229 7.755715370178223 L 4.298134326934814 11.21330547332764 L 4.76837158203125e-06 -4.76837158203125e-06 Z"/></g><line class="b" y2="13.779" transform="translate(474.518 -362.521) rotate(180)"/><line class="b" y2="5.45" transform="translate(452 -376) rotate(180)"/><line class="b" x2="22.5" transform="translate(452.5 -376.5)"/><g class="f" transform="translate(518 -357)"><rect class="m" width="40" height="40"/><rect class="o" x="0.5" y="0.5" width="39" height="39"/></g><text class="g" transform="translate(538 -330)"><tspan x="-6.021" y="0">d</tspan></text><g class="a" transform="translate(537.5 -380) rotate(45)"><path class="m" d="M 4.48930025100708 10.31504917144775 L 0.8653011322021484 0.8604671359062195 L 10.36387062072754 4.440470218658447 L 7.402174472808838 7.402174949645996 L 4.48930025100708 10.31504917144775 Z"/><path class="n" d="M 1.730582237243652 1.720914840698242 L 4.680450439453125 9.416769027709961 L 7.048614501953125 7.048604965209961 L 9.462241172790527 4.6349778175354 L 1.730582237243652 1.720914840698242 M 4.76837158203125e-06 -4.76837158203125e-06 L 11.26548385620117 4.245954990386963 L 7.755724430084229 7.755715370178223 L 4.298134326934814 11.21330547332764 L 4.76837158203125e-06 -4.76837158203125e-06 Z"/></g><line class="b" y2="16.479" transform="translate(537.518 -379.373)"/><g class="d" transform="translate(518 -422)"><rect class="m" width="40" height="40"/><rect class="o" x="0.5" y="0.5" width="39" height="39"/></g><text class="c" transform="translate(538 -395)"><tspan x="-9.031" y="0">h</tspan><tspan class="e" y="0">2</tspan></text><g class="a" transform="translate(524.537 -361.893) rotate(-135)"><path class="m" d="M 4.48930025100708 10.31504917144775 L 0.8653011322021484 0.8604671359062195 L 10.36387062072754 4.440470218658447 L 7.402174472808838 7.402174949645996 L 4.48930025100708 10.31504917144775 Z"/><path class="n" d="M 1.730582237243652 1.720914840698242 L 4.680450439453125 9.416769027709961 L 7.048614501953125 7.048604965209961 L 9.462241172790527 4.6349778175354 L 1.730582237243652 1.720914840698242 M 4.76837158203125e-06 -4.76837158203125e-06 L 11.26548385620117 4.245954990386963 L 7.755724430084229 7.755715370178223 L 4.298134326934814 11.21330547332764 L 4.76837158203125e-06 -4.76837158203125e-06 Z"/></g><line class="b" y2="13.779" transform="translate(524.518 -362.521) rotate(180)"/><line class="b" y2="5.45" transform="translate(502 -376) rotate(180)"/><line class="b" x2="22.5" transform="translate(502.5 -376.5)"/><g class="f" transform="translate(568 -357)"><rect class="m" width="40" height="40"/><rect class="o" x="0.5" y="0.5" width="39" height="39"/></g><text class="g" transform="translate(588 -330)"><tspan x="-6.021" y="0">d</tspan></text><g class="a" transform="translate(587.5 -380) rotate(45)"><path class="m" d="M 4.48930025100708 10.31504917144775 L 0.8653011322021484 0.8604671359062195 L 10.36387062072754 4.440470218658447 L 7.402174472808838 7.402174949645996 L 4.48930025100708 10.31504917144775 Z"/><path class="n" d="M 1.730582237243652 1.720914840698242 L 4.680450439453125 9.416769027709961 L 7.048614501953125 7.048604965209961 L 9.462241172790527 4.6349778175354 L 1.730582237243652 1.720914840698242 M 4.76837158203125e-06 -4.76837158203125e-06 L 11.26548385620117 4.245954990386963 L 7.755724430084229 7.755715370178223 L 4.298134326934814 11.21330547332764 L 4.76837158203125e-06 -4.76837158203125e-06 Z"/></g><line class="b" y2="16.479" transform="translate(587.518 -379.373)"/><g class="d" transform="translate(568 -422)"><rect class="m" width="40" height="40"/><rect class="o" x="0.5" y="0.5" width="39" height="39"/></g><text class="c" transform="translate(588 -395)"><tspan x="-9.031" y="0">h</tspan><tspan class="e" y="0">3</tspan></text><g class="a" transform="translate(574.537 -361.893) rotate(-135)"><path class="m" d="M 4.48930025100708 10.31504917144775 L 0.8653011322021484 0.8604671359062195 L 10.36387062072754 4.440470218658447 L 7.402174472808838 7.402174949645996 L 4.48930025100708 10.31504917144775 Z"/><path class="n" d="M 1.730582237243652 1.720914840698242 L 4.680450439453125 9.416769027709961 L 7.048614501953125 7.048604965209961 L 9.462241172790527 4.6349778175354 L 1.730582237243652 1.720914840698242 M 4.76837158203125e-06 -4.76837158203125e-06 L 11.26548385620117 4.245954990386963 L 7.755724430084229 7.755715370178223 L 4.298134326934814 11.21330547332764 L 4.76837158203125e-06 -4.76837158203125e-06 Z"/></g><line class="b" y2="13.779" transform="translate(574.518 -362.521) rotate(180)"/><line class="b" y2="5.45" transform="translate(552 -376) rotate(180)"/><line class="b" x2="22.5" transform="translate(552.5 -376.5)"/><g class="f" transform="translate(618 -357)"><rect class="m" width="40" height="40"/><rect class="o" x="0.5" y="0.5" width="39" height="39"/></g><text class="g" transform="translate(640 -331)"><tspan x="-6.021" y="0">d</tspan></text><g class="a" transform="translate(637.5 -380) rotate(45)"><path class="m" d="M 4.48930025100708 10.31504917144775 L 0.8653011322021484 0.8604671359062195 L 10.36387062072754 4.440470218658447 L 7.402174472808838 7.402174949645996 L 4.48930025100708 10.31504917144775 Z"/><path class="n" d="M 1.730582237243652 1.720914840698242 L 4.680450439453125 9.416769027709961 L 7.048614501953125 7.048604965209961 L 9.462241172790527 4.6349778175354 L 1.730582237243652 1.720914840698242 M 4.76837158203125e-06 -4.76837158203125e-06 L 11.26548385620117 4.245954990386963 L 7.755724430084229 7.755715370178223 L 4.298134326934814 11.21330547332764 L 4.76837158203125e-06 -4.76837158203125e-06 Z"/></g><line class="b" y2="16.479" transform="translate(637.518 -379.373)"/><g class="d" transform="translate(618 -422)"><rect class="m" width="40" height="40"/><rect class="o" x="0.5" y="0.5" width="39" height="39"/></g><text class="c" transform="translate(638 -395)"><tspan x="-9.031" y="0">h</tspan><tspan class="e" y="0">4</tspan></text><g class="a" transform="translate(624.537 -361.893) rotate(-135)"><path class="m" d="M 4.48930025100708 10.31504917144775 L 0.8653011322021484 0.8604671359062195 L 10.36387062072754 4.440470218658447 L 7.402174472808838 7.402174949645996 L 4.48930025100708 10.31504917144775 Z"/><path class="n" d="M 1.730582237243652 1.720914840698242 L 4.680450439453125 9.416769027709961 L 7.048614501953125 7.048604965209961 L 9.462241172790527 4.6349778175354 L 1.730582237243652 1.720914840698242 M 4.76837158203125e-06 -4.76837158203125e-06 L 11.26548385620117 4.245954990386963 L 7.755724430084229 7.755715370178223 L 4.298134326934814 11.21330547332764 L 4.76837158203125e-06 -4.76837158203125e-06 Z"/></g><line class="b" y2="13.779" transform="translate(624.518 -362.521) rotate(180)"/><line class="b" y2="5.45" transform="translate(602 -376) rotate(180)"/><line class="b" x2="22.5" transform="translate(602.5 -376.5)"/><g class="f" transform="translate(668 -357)"><rect class="m" width="40" height="40"/><rect class="o" x="0.5" y="0.5" width="39" height="39"/></g><text class="g" transform="translate(688 -330)"><tspan x="-6.021" y="0">d</tspan></text><g class="a" transform="translate(687.5 -380) rotate(45)"><path class="m" d="M 4.48930025100708 10.31504917144775 L 0.8653011322021484 0.8604671359062195 L 10.36387062072754 4.440470218658447 L 7.402174472808838 7.402174949645996 L 4.48930025100708 10.31504917144775 Z"/><path class="n" d="M 1.730582237243652 1.720914840698242 L 4.680450439453125 9.416769027709961 L 7.048614501953125 7.048604965209961 L 9.462241172790527 4.6349778175354 L 1.730582237243652 1.720914840698242 M 4.76837158203125e-06 -4.76837158203125e-06 L 11.26548385620117 4.245954990386963 L 7.755724430084229 7.755715370178223 L 4.298134326934814 11.21330547332764 L 4.76837158203125e-06 -4.76837158203125e-06 Z"/></g><line class="b" y2="16.479" transform="translate(687.518 -379.373)"/><g class="a" transform="translate(674.537 -361.893) rotate(-135)"><path class="m" d="M 4.48930025100708 10.31504917144775 L 0.8653011322021484 0.8604671359062195 L 10.36387062072754 4.440470218658447 L 7.402174472808838 7.402174949645996 L 4.48930025100708 10.31504917144775 Z"/><path class="n" d="M 1.730582237243652 1.720914840698242 L 4.680450439453125 9.416769027709961 L 7.048614501953125 7.048604965209961 L 9.462241172790527 4.6349778175354 L 1.730582237243652 1.720914840698242 M 4.76837158203125e-06 -4.76837158203125e-06 L 11.26548385620117 4.245954990386963 L 7.755724430084229 7.755715370178223 L 4.298134326934814 11.21330547332764 L 4.76837158203125e-06 -4.76837158203125e-06 Z"/></g><line class="b" y2="13.779" transform="translate(674.518 -362.521) rotate(180)"/><line class="b" y2="5.45" transform="translate(652 -376) rotate(180)"/><line class="b" x2="22.5" transform="translate(652.5 -376.5)"/><g class="d" transform="translate(668 -423)"><rect class="m" width="40" height="40"/><rect class="o" x="0.5" y="0.5" width="39" height="39"/></g><text class="c" transform="translate(688 -396)"><tspan x="-9.031" y="0">h</tspan><tspan class="e" y="0">5</tspan></text><g class="h" transform="translate(468 -489)"><rect class="m" width="40" height="40"/><rect class="o" x="0.5" y="0.5" width="39" height="39"/></g><text class="g" transform="translate(488 -462)"><tspan x="-6.021" y="0">g</tspan></text><g class="a" transform="translate(487.5 -509) rotate(45)"><path class="m" d="M 4.48930025100708 10.31504917144775 L 0.8653011322021484 0.8604671359062195 L 10.36387062072754 4.440470218658447 L 7.402174472808838 7.402174949645996 L 4.48930025100708 10.31504917144775 Z"/><path class="n" d="M 1.730582237243652 1.720914840698242 L 4.680450439453125 9.416769027709961 L 7.048614501953125 7.048604965209961 L 9.462241172790527 4.6349778175354 L 1.730582237243652 1.720914840698242 M 4.76837158203125e-06 -4.76837158203125e-06 L 11.26548385620117 4.245954990386963 L 7.755724430084229 7.755715370178223 L 4.298134326934814 11.21330547332764 L 4.76837158203125e-06 -4.76837158203125e-06 Z"/></g><line class="b" y2="16.479" transform="translate(487.518 -508.373)"/><g class="i" transform="translate(468 -552)"><rect class="m" width="40" height="40"/><rect class="o" x="0.5" y="0.5" width="39" height="39"/></g><text class="c" transform="translate(488 -525)"><tspan x="-9.031" y="0">Y</tspan><tspan class="e" y="0">1</tspan></text><g class="j" transform="translate(570 -283)"><rect class="m" width="40" height="40"/><rect class="o" x="0.5" y="0.5" width="39" height="39"/></g><text class="k" transform="translate(590 -256)"><tspan x="-6.021" y="0">z</tspan></text><g class="a" transform="translate(489.5 -315) rotate(45)"><path class="m" d="M 4.48930025100708 10.31504917144775 L 0.8653011322021484 0.8604671359062195 L 10.36387062072754 4.440470218658447 L 7.402174472808838 7.402174949645996 L 4.48930025100708 10.31504917144775 Z"/><path class="n" d="M 1.730582237243652 1.720914840698242 L 4.680450439453125 9.416769027709961 L 7.048614501953125 7.048604965209961 L 9.462241172790527 4.6349778175354 L 1.730582237243652 1.720914840698242 M 4.76837158203125e-06 -4.76837158203125e-06 L 11.26548385620117 4.245954990386963 L 7.755724430084229 7.755715370178223 L 4.298134326934814 11.21330547332764 L 4.76837158203125e-06 -4.76837158203125e-06 Z"/></g><line class="b" y2="16" transform="translate(489.518 -313.373)"/><line class="b" y2="16" transform="translate(489.518 -313.373)"/><line class="b" x2="223.5" transform="translate(489 -297.5)"/><g class="a" transform="translate(538.5 -315) rotate(45)"><path class="m" d="M 4.48930025100708 10.31504917144775 L 0.8653011322021484 0.8604671359062195 L 10.36387062072754 4.440470218658447 L 7.402174472808838 7.402174949645996 L 4.48930025100708 10.31504917144775 Z"/><path class="n" d="M 1.730582237243652 1.720914840698242 L 4.680450439453125 9.416769027709961 L 7.048614501953125 7.048604965209961 L 9.462241172790527 4.6349778175354 L 1.730582237243652 1.720914840698242 M 4.76837158203125e-06 -4.76837158203125e-06 L 11.26548385620117 4.245954990386963 L 7.755724430084229 7.755715370178223 L 4.298134326934814 11.21330547332764 L 4.76837158203125e-06 -4.76837158203125e-06 Z"/></g><line class="b" y2="16" transform="translate(538.518 -313.373)"/><line class="b" y2="16" transform="translate(538.518 -313.373)"/><g class="a" transform="translate(589.5 -315) rotate(45)"><path class="m" d="M 4.48930025100708 10.31504917144775 L 0.8653011322021484 0.8604671359062195 L 10.36387062072754 4.440470218658447 L 7.402174472808838 7.402174949645996 L 4.48930025100708 10.31504917144775 Z"/><path class="n" d="M 1.730582237243652 1.720914840698242 L 4.680450439453125 9.416769027709961 L 7.048614501953125 7.048604965209961 L 9.462241172790527 4.6349778175354 L 1.730582237243652 1.720914840698242 M 4.76837158203125e-06 -4.76837158203125e-06 L 11.26548385620117 4.245954990386963 L 7.755724430084229 7.755715370178223 L 4.298134326934814 11.21330547332764 L 4.76837158203125e-06 -4.76837158203125e-06 Z"/></g><line class="b" y2="16" transform="translate(589.518 -313.373)"/><line class="b" y2="16" transform="translate(589.518 -313.373)"/><g class="a" transform="translate(639.5 -315) rotate(45)"><path class="m" d="M 4.48930025100708 10.31504917144775 L 0.8653011322021484 0.8604671359062195 L 10.36387062072754 4.440470218658447 L 7.402174472808838 7.402174949645996 L 4.48930025100708 10.31504917144775 Z"/><path class="n" d="M 1.730582237243652 1.720914840698242 L 4.680450439453125 9.416769027709961 L 7.048614501953125 7.048604965209961 L 9.462241172790527 4.6349778175354 L 1.730582237243652 1.720914840698242 M 4.76837158203125e-06 -4.76837158203125e-06 L 11.26548385620117 4.245954990386963 L 7.755724430084229 7.755715370178223 L 4.298134326934814 11.21330547332764 L 4.76837158203125e-06 -4.76837158203125e-06 Z"/></g><line class="b" y2="16" transform="translate(639.518 -313.373)"/><line class="b" y2="16" transform="translate(639.518 -313.373)"/><g class="a" transform="translate(689.5 -315) rotate(45)"><path class="m" d="M 4.48930025100708 10.31504917144775 L 0.8653011322021484 0.8604671359062195 L 10.36387062072754 4.440470218658447 L 7.402174472808838 7.402174949645996 L 4.48930025100708 10.31504917144775 Z"/><path class="n" d="M 1.730582237243652 1.720914840698242 L 4.680450439453125 9.416769027709961 L 7.048614501953125 7.048604965209961 L 9.462241172790527 4.6349778175354 L 1.730582237243652 1.720914840698242 M 4.76837158203125e-06 -4.76837158203125e-06 L 11.26548385620117 4.245954990386963 L 7.755724430084229 7.755715370178223 L 4.298134326934814 11.21330547332764 L 4.76837158203125e-06 -4.76837158203125e-06 Z"/></g><line class="b" y2="16" transform="translate(689.518 -313.373)"/><line class="b" y2="16" transform="translate(689.518 -313.373)"/><line class="b" y2="16.479" transform="translate(589.518 -301.373)"/><g class="a" transform="translate(502.5 -445) rotate(45)"><path class="m" d="M 4.48930025100708 10.31504917144775 L 0.8653011322021484 0.8604671359062195 L 10.36387062072754 4.440470218658447 L 7.402174472808838 7.402174949645996 L 4.48930025100708 10.31504917144775 Z"/><path class="n" d="M 1.730582237243652 1.720914840698242 L 4.680450439453125 9.416769027709961 L 7.048614501953125 7.048604965209961 L 9.462241172790527 4.6349778175354 L 1.730582237243652 1.720914840698242 M 4.76837158203125e-06 -4.76837158203125e-06 L 11.26548385620117 4.245954990386963 L 7.755724430084229 7.755715370178223 L 4.298134326934814 11.21330547332764 L 4.76837158203125e-06 -4.76837158203125e-06 Z"/></g><line class="b" y2="16" transform="translate(502.518 -443.373)"/><line class="b" y2="16" transform="translate(502.518 -443.373)"/><line class="b" x2="10.5" transform="translate(502 -427.5)"/><line class="l" y2="130.5" transform="translate(512.518 -428)"/><g class="h" transform="translate(468 -489)"><rect class="m" width="40" height="40"/><rect class="o" x="0.5" y="0.5" width="39" height="39"/></g><text class="g" transform="translate(488 -462)"><tspan x="-6.021" y="0">g</tspan></text><g class="a" transform="translate(487.5 -509) rotate(45)"><path class="m" d="M 4.48930025100708 10.31504917144775 L 0.8653011322021484 0.8604671359062195 L 10.36387062072754 4.440470218658447 L 7.402174472808838 7.402174949645996 L 4.48930025100708 10.31504917144775 Z"/><path class="n" d="M 1.730582237243652 1.720914840698242 L 4.680450439453125 9.416769027709961 L 7.048614501953125 7.048604965209961 L 9.462241172790527 4.6349778175354 L 1.730582237243652 1.720914840698242 M 4.76837158203125e-06 -4.76837158203125e-06 L 11.26548385620117 4.245954990386963 L 7.755724430084229 7.755715370178223 L 4.298134326934814 11.21330547332764 L 4.76837158203125e-06 -4.76837158203125e-06 Z"/></g><line class="b" y2="16.479" transform="translate(487.518 -508.373)"/><g class="i" transform="translate(468 -552)"><rect class="m" width="40" height="40"/><rect class="o" x="0.5" y="0.5" width="39" height="39"/></g><text class="c" transform="translate(488 -525)"><tspan x="-9.031" y="0">Y</tspan><tspan class="e" y="0">1</tspan></text><g class="a" transform="translate(502.5 -445) rotate(45)"><path class="m" d="M 4.48930025100708 10.31504917144775 L 0.8653011322021484 0.8604671359062195 L 10.36387062072754 4.440470218658447 L 7.402174472808838 7.402174949645996 L 4.48930025100708 10.31504917144775 Z"/><path class="n" d="M 1.730582237243652 1.720914840698242 L 4.680450439453125 9.416769027709961 L 7.048614501953125 7.048604965209961 L 9.462241172790527 4.6349778175354 L 1.730582237243652 1.720914840698242 M 4.76837158203125e-06 -4.76837158203125e-06 L 11.26548385620117 4.245954990386963 L 7.755724430084229 7.755715370178223 L 4.298134326934814 11.21330547332764 L 4.76837158203125e-06 -4.76837158203125e-06 Z"/></g><line class="b" y2="16" transform="translate(502.518 -443.373)"/><line class="l" y2="130.5" transform="translate(512.518 -428)"/><line class="b" x2="10.5" transform="translate(552 -427.5)"/><g class="h" transform="translate(518 -489)"><rect class="m" width="40" height="40"/><rect class="o" x="0.5" y="0.5" width="39" height="39"/></g><text class="g" transform="translate(538 -462)"><tspan x="-6.021" y="0">g</tspan></text><g class="a" transform="translate(537.5 -509) rotate(45)"><path class="m" d="M 4.48930025100708 10.31504917144775 L 0.8653011322021484 0.8604671359062195 L 10.36387062072754 4.440470218658447 L 7.402174472808838 7.402174949645996 L 4.48930025100708 10.31504917144775 Z"/><path class="n" d="M 1.730582237243652 1.720914840698242 L 4.680450439453125 9.416769027709961 L 7.048614501953125 7.048604965209961 L 9.462241172790527 4.6349778175354 L 1.730582237243652 1.720914840698242 M 4.76837158203125e-06 -4.76837158203125e-06 L 11.26548385620117 4.245954990386963 L 7.755724430084229 7.755715370178223 L 4.298134326934814 11.21330547332764 L 4.76837158203125e-06 -4.76837158203125e-06 Z"/></g><line class="b" y2="16.479" transform="translate(537.518 -508.373)"/><g class="i" transform="translate(518 -552)"><rect class="m" width="40" height="40"/><rect class="o" x="0.5" y="0.5" width="39" height="39"/></g><text class="c" transform="translate(538 -525)"><tspan x="-9.031" y="0">Y</tspan><tspan class="e" y="0">1</tspan></text><g class="a" transform="translate(552.5 -445) rotate(45)"><path class="m" d="M 4.48930025100708 10.31504917144775 L 0.8653011322021484 0.8604671359062195 L 10.36387062072754 4.440470218658447 L 7.402174472808838 7.402174949645996 L 4.48930025100708 10.31504917144775 Z"/><path class="n" d="M 1.730582237243652 1.720914840698242 L 4.680450439453125 9.416769027709961 L 7.048614501953125 7.048604965209961 L 9.462241172790527 4.6349778175354 L 1.730582237243652 1.720914840698242 M 4.76837158203125e-06 -4.76837158203125e-06 L 11.26548385620117 4.245954990386963 L 7.755724430084229 7.755715370178223 L 4.298134326934814 11.21330547332764 L 4.76837158203125e-06 -4.76837158203125e-06 Z"/></g><line class="b" y2="16" transform="translate(552.518 -443.373)"/><line class="l" y2="130.5" transform="translate(562.518 -428)"/><line class="b" x2="10.5" transform="translate(602 -427.5)"/><g class="h" transform="translate(568 -489)"><rect class="m" width="40" height="40"/><rect class="o" x="0.5" y="0.5" width="39" height="39"/></g><text class="g" transform="translate(588 -462)"><tspan x="-6.021" y="0">g</tspan></text><g class="a" transform="translate(587.5 -509) rotate(45)"><path class="m" d="M 4.48930025100708 10.31504917144775 L 0.8653011322021484 0.8604671359062195 L 10.36387062072754 4.440470218658447 L 7.402174472808838 7.402174949645996 L 4.48930025100708 10.31504917144775 Z"/><path class="n" d="M 1.730582237243652 1.720914840698242 L 4.680450439453125 9.416769027709961 L 7.048614501953125 7.048604965209961 L 9.462241172790527 4.6349778175354 L 1.730582237243652 1.720914840698242 M 4.76837158203125e-06 -4.76837158203125e-06 L 11.26548385620117 4.245954990386963 L 7.755724430084229 7.755715370178223 L 4.298134326934814 11.21330547332764 L 4.76837158203125e-06 -4.76837158203125e-06 Z"/></g><line class="b" y2="16.479" transform="translate(587.518 -508.373)"/><g class="i" transform="translate(568 -552)"><rect class="m" width="40" height="40"/><rect class="o" x="0.5" y="0.5" width="39" height="39"/></g><text class="c" transform="translate(588 -525)"><tspan x="-9.031" y="0">Y</tspan><tspan class="e" y="0">1</tspan></text><g class="a" transform="translate(602.5 -445) rotate(45)"><path class="m" d="M 4.48930025100708 10.31504917144775 L 0.8653011322021484 0.8604671359062195 L 10.36387062072754 4.440470218658447 L 7.402174472808838 7.402174949645996 L 4.48930025100708 10.31504917144775 Z"/><path class="n" d="M 1.730582237243652 1.720914840698242 L 4.680450439453125 9.416769027709961 L 7.048614501953125 7.048604965209961 L 9.462241172790527 4.6349778175354 L 1.730582237243652 1.720914840698242 M 4.76837158203125e-06 -4.76837158203125e-06 L 11.26548385620117 4.245954990386963 L 7.755724430084229 7.755715370178223 L 4.298134326934814 11.21330547332764 L 4.76837158203125e-06 -4.76837158203125e-06 Z"/></g><line class="b" y2="16" transform="translate(602.518 -443.373)"/><line class="l" y2="130.5" transform="translate(612.518 -428)"/><line class="b" x2="10.5" transform="translate(652 -427.5)"/><g class="h" transform="translate(618 -489)"><rect class="m" width="40" height="40"/><rect class="o" x="0.5" y="0.5" width="39" height="39"/></g><text class="g" transform="translate(638 -462)"><tspan x="-6.021" y="0">g</tspan></text><g class="a" transform="translate(637.5 -509) rotate(45)"><path class="m" d="M 4.48930025100708 10.31504917144775 L 0.8653011322021484 0.8604671359062195 L 10.36387062072754 4.440470218658447 L 7.402174472808838 7.402174949645996 L 4.48930025100708 10.31504917144775 Z"/><path class="n" d="M 1.730582237243652 1.720914840698242 L 4.680450439453125 9.416769027709961 L 7.048614501953125 7.048604965209961 L 9.462241172790527 4.6349778175354 L 1.730582237243652 1.720914840698242 M 4.76837158203125e-06 -4.76837158203125e-06 L 11.26548385620117 4.245954990386963 L 7.755724430084229 7.755715370178223 L 4.298134326934814 11.21330547332764 L 4.76837158203125e-06 -4.76837158203125e-06 Z"/></g><line class="b" y2="16.479" transform="translate(637.518 -508.373)"/><g class="i" transform="translate(618 -552)"><rect class="m" width="40" height="40"/><rect class="o" x="0.5" y="0.5" width="39" height="39"/></g><text class="c" transform="translate(638 -525)"><tspan x="-9.031" y="0">Y</tspan><tspan class="e" y="0">1</tspan></text><g class="a" transform="translate(652.5 -445) rotate(45)"><path class="m" d="M 4.48930025100708 10.31504917144775 L 0.8653011322021484 0.8604671359062195 L 10.36387062072754 4.440470218658447 L 7.402174472808838 7.402174949645996 L 4.48930025100708 10.31504917144775 Z"/><path class="n" d="M 1.730582237243652 1.720914840698242 L 4.680450439453125 9.416769027709961 L 7.048614501953125 7.048604965209961 L 9.462241172790527 4.6349778175354 L 1.730582237243652 1.720914840698242 M 4.76837158203125e-06 -4.76837158203125e-06 L 11.26548385620117 4.245954990386963 L 7.755724430084229 7.755715370178223 L 4.298134326934814 11.21330547332764 L 4.76837158203125e-06 -4.76837158203125e-06 Z"/></g><line class="b" y2="16" transform="translate(652.518 -443.373)"/><line class="l" y2="130.5" transform="translate(662.518 -428)"/><line class="b" x2="10.5" transform="translate(702 -427.5)"/><g class="h" transform="translate(668 -489)"><rect class="m" width="40" height="40"/><rect class="o" x="0.5" y="0.5" width="39" height="39"/></g><text class="g" transform="translate(688 -462)"><tspan x="-6.021" y="0">g</tspan></text><g class="a" transform="translate(687.5 -509) rotate(45)"><path class="m" d="M 4.48930025100708 10.31504917144775 L 0.8653011322021484 0.8604671359062195 L 10.36387062072754 4.440470218658447 L 7.402174472808838 7.402174949645996 L 4.48930025100708 10.31504917144775 Z"/><path class="n" d="M 1.730582237243652 1.720914840698242 L 4.680450439453125 9.416769027709961 L 7.048614501953125 7.048604965209961 L 9.462241172790527 4.6349778175354 L 1.730582237243652 1.720914840698242 M 4.76837158203125e-06 -4.76837158203125e-06 L 11.26548385620117 4.245954990386963 L 7.755724430084229 7.755715370178223 L 4.298134326934814 11.21330547332764 L 4.76837158203125e-06 -4.76837158203125e-06 Z"/></g><line class="b" y2="16.479" transform="translate(687.518 -508.373)"/><g class="i" transform="translate(668 -552)"><rect class="m" width="40" height="40"/><rect class="o" x="0.5" y="0.5" width="39" height="39"/></g><text class="c" transform="translate(688 -525)"><tspan x="-9.031" y="0">Y</tspan><tspan class="e" y="0">1</tspan></text><g class="a" transform="translate(702.5 -445) rotate(45)"><path class="m" d="M 4.48930025100708 10.31504917144775 L 0.8653011322021484 0.8604671359062195 L 10.36387062072754 4.440470218658447 L 7.402174472808838 7.402174949645996 L 4.48930025100708 10.31504917144775 Z"/><path class="n" d="M 1.730582237243652 1.720914840698242 L 4.680450439453125 9.416769027709961 L 7.048614501953125 7.048604965209961 L 9.462241172790527 4.6349778175354 L 1.730582237243652 1.720914840698242 M 4.76837158203125e-06 -4.76837158203125e-06 L 11.26548385620117 4.245954990386963 L 7.755724430084229 7.755715370178223 L 4.298134326934814 11.21330547332764 L 4.76837158203125e-06 -4.76837158203125e-06 Z"/></g><line class="b" y2="16" transform="translate(702.518 -443.373)"/><line class="l" y2="130.5" transform="translate(712.518 -428)"/><g class="a" transform="translate(525.537 -491.893) rotate(-135)"><path class="m" d="M 4.48930025100708 10.31504917144775 L 0.8653011322021484 0.8604671359062195 L 10.36387062072754 4.440470218658447 L 7.402174472808838 7.402174949645996 L 4.48930025100708 10.31504917144775 Z"/><path class="n" d="M 1.730582237243652 1.720914840698242 L 4.680450439453125 9.416769027709961 L 7.048614501953125 7.048604965209961 L 9.462241172790527 4.6349778175354 L 1.730582237243652 1.720914840698242 M 4.76837158203125e-06 -4.76837158203125e-06 L 11.26548385620117 4.245954990386963 L 7.755724430084229 7.755715370178223 L 4.298134326934814 11.21330547332764 L 4.76837158203125e-06 -4.76837158203125e-06 Z"/></g><line class="b" y2="13.779" transform="translate(525.518 -492.521) rotate(180)"/><line class="b" y2="5.45" transform="translate(503 -506) rotate(180)"/><line class="b" x2="22.5" transform="translate(503.5 -506.5)"/><line class="b" y2="130" transform="translate(516.5 -506.5)"/><g class="a" transform="translate(575.537 -491.893) rotate(-135)"><path class="m" d="M 4.48930025100708 10.31504917144775 L 0.8653011322021484 0.8604671359062195 L 10.36387062072754 4.440470218658447 L 7.402174472808838 7.402174949645996 L 4.48930025100708 10.31504917144775 Z"/><path class="n" d="M 1.730582237243652 1.720914840698242 L 4.680450439453125 9.416769027709961 L 7.048614501953125 7.048604965209961 L 9.462241172790527 4.6349778175354 L 1.730582237243652 1.720914840698242 M 4.76837158203125e-06 -4.76837158203125e-06 L 11.26548385620117 4.245954990386963 L 7.755724430084229 7.755715370178223 L 4.298134326934814 11.21330547332764 L 4.76837158203125e-06 -4.76837158203125e-06 Z"/></g><line class="b" y2="13.779" transform="translate(575.518 -492.521) rotate(180)"/><line class="b" y2="5.45" transform="translate(553 -506) rotate(180)"/><line class="b" x2="22.5" transform="translate(553.5 -506.5)"/><line class="b" y2="130" transform="translate(566.5 -506.5)"/><g class="a" transform="translate(624.537 -491.893) rotate(-135)"><path class="m" d="M 4.48930025100708 10.31504917144775 L 0.8653011322021484 0.8604671359062195 L 10.36387062072754 4.440470218658447 L 7.402174472808838 7.402174949645996 L 4.48930025100708 10.31504917144775 Z"/><path class="n" d="M 1.730582237243652 1.720914840698242 L 4.680450439453125 9.416769027709961 L 7.048614501953125 7.048604965209961 L 9.462241172790527 4.6349778175354 L 1.730582237243652 1.720914840698242 M 4.76837158203125e-06 -4.76837158203125e-06 L 11.26548385620117 4.245954990386963 L 7.755724430084229 7.755715370178223 L 4.298134326934814 11.21330547332764 L 4.76837158203125e-06 -4.76837158203125e-06 Z"/></g><line class="b" y2="13.779" transform="translate(624.518 -492.521) rotate(180)"/><line class="b" y2="5.45" transform="translate(602 -506) rotate(180)"/><line class="b" x2="22.5" transform="translate(602.5 -506.5)"/><line class="b" y2="130" transform="translate(615.5 -506.5)"/><g class="a" transform="translate(675.537 -491.893) rotate(-135)"><path class="m" d="M 4.48930025100708 10.31504917144775 L 0.8653011322021484 0.8604671359062195 L 10.36387062072754 4.440470218658447 L 7.402174472808838 7.402174949645996 L 4.48930025100708 10.31504917144775 Z"/><path class="n" d="M 1.730582237243652 1.720914840698242 L 4.680450439453125 9.416769027709961 L 7.048614501953125 7.048604965209961 L 9.462241172790527 4.6349778175354 L 1.730582237243652 1.720914840698242 M 4.76837158203125e-06 -4.76837158203125e-06 L 11.26548385620117 4.245954990386963 L 7.755724430084229 7.755715370178223 L 4.298134326934814 11.21330547332764 L 4.76837158203125e-06 -4.76837158203125e-06 Z"/></g><line class="b" y2="13.779" transform="translate(675.518 -492.521) rotate(180)"/><line class="b" y2="5.45" transform="translate(653 -506) rotate(180)"/><line class="b" x2="22.5" transform="translate(653.5 -506.5)"/><line class="b" y2="130" transform="translate(666.5 -506.5)"/></g></svg>