<svg xmlns="http://www.w3.org/2000/svg" viewBox="0 0 400 850"><defs><style>.a{fill:#f7f7f7;}.a,.c,.g{stroke:#707070;}.b,.o{fill:#707070;}.c,.n{fill:none;}.d{fill:#9db4ff;}.e,.h{fill:#020000;font-size:20px;}.e{font-family:Menlo-Regular, Menlo;}.f{font-size:10px;}.g{fill:#fff;}.h{font-family:Hack-Regular, Hack;}.i{fill:#10ebfd;}.j{fill:#9dffa8;}.k{fill:#ff9d9d;}.l{fill:#fb9dff;}.m,.o{stroke:none;}</style></defs><g transform="translate(-1301 142)"><g class="a" transform="translate(1373 144)"><rect class="m" width="275" height="361"/><rect class="n" x="0.5" y="0.5" width="274" height="360"/></g><g class="b" transform="translate(1512.5 113) rotate(45)"><path class="m" d="M 4.48930025100708 10.31504917144775 L 0.8653011322021484 0.8604671359062195 L 10.36387062072754 4.440470218658447 L 7.402174472808838 7.402174949645996 L 4.48930025100708 10.31504917144775 Z"/><path class="o" d="M 1.730582237243652 1.720914840698242 L 4.680450439453125 9.416769027709961 L 7.048614501953125 7.048604965209961 L 9.462241172790527 4.6349778175354 L 1.730582237243652 1.720914840698242 M 4.76837158203125e-06 -4.76837158203125e-06 L 11.26548385620117 4.245954990386963 L 7.755724430084229 7.755715370178223 L 4.298134326934814 11.21330547332764 L 4.76837158203125e-06 -4.76837158203125e-06 Z"/></g><path class="c" d="M0,0V121.569" transform="translate(1512.518 118.627)"/><path class="d" d="M0,0H208V40H0Z" transform="translate(1408 586)"/><text class="e" transform="translate(1512 613)"><tspan x="-96.328" y="0">Output Embedding</tspan></text><g class="b" transform="translate(1511.5 633.893) rotate(45)"><path class="m" d="M 4.48930025100708 10.31504917144775 L 0.8653011322021484 0.8604671359062195 L 10.36387062072754 4.440470218658447 L 7.402174472808838 7.402174949645996 L 4.48930025100708 10.31504917144775 Z"/><path class="o" d="M 1.730582237243652 1.720914840698242 L 4.680450439453125 9.416769027709961 L 7.048614501953125 7.048604965209961 L 9.462241172790527 4.6349778175354 L 1.730582237243652 1.720914840698242 M 4.76837158203125e-06 -4.76837158203125e-06 L 11.26548385620117 4.245954990386963 L 7.755724430084229 7.755715370178223 L 4.298134326934814 11.21330547332764 L 4.76837158203125e-06 -4.76837158203125e-06 Z"/></g><g transform="translate(1511.5 634.521)"><line class="c" y2="30"/></g><g class="b" transform="translate(1511.5 633.893) rotate(45)"><path class="m" d="M 4.48930025100708 10.31504917144775 L 0.8653011322021484 0.8604671359062195 L 10.36387062072754 4.440470218658447 L 7.402174472808838 7.402174949645996 L 4.48930025100708 10.31504917144775 Z"/><path class="o" d="M 1.730582237243652 1.720914840698242 L 4.680450439453125 9.416769027709961 L 7.048614501953125 7.048604965209961 L 9.462241172790527 4.6349778175354 L 1.730582237243652 1.720914840698242 M 4.76837158203125e-06 -4.76837158203125e-06 L 11.26548385620117 4.245954990386963 L 7.755724430084229 7.755715370178223 L 4.298134326934814 11.21330547332764 L 4.76837158203125e-06 -4.76837158203125e-06 Z"/></g><g transform="translate(1511.5 634.521)"><line class="c" y2="30"/></g><text class="e" transform="translate(1512 691)"><tspan x="-42.144" y="0">Outputs</tspan><tspan class="f"><tspan x="-45.154" y="14">(shifted right)</tspan></tspan></text><line class="c" x1="0.018" y2="78.873" transform="translate(1511.5 291.627)"/><g transform="translate(1741 511)"><g class="b" transform="translate(-229.5 48) rotate(45)"><path class="m" d="M 4.48930025100708 10.31504917144775 L 0.8653011322021484 0.8604671359062195 L 10.36387062072754 4.440470218658447 L 7.402174472808838 7.402174949645996 L 4.48930025100708 10.31504917144775 Z"/><path class="o" d="M 1.730582237243652 1.720914840698242 L 4.680450439453125 9.416769027709961 L 7.048614501953125 7.048604965209961 L 9.462241172790527 4.6349778175354 L 1.730582237243652 1.720914840698242 M 4.76837158203125e-06 -4.76837158203125e-06 L 11.26548385620117 4.245954990386963 L 7.755724430084229 7.755715370178223 L 4.298134326934814 11.21330547332764 L 4.76837158203125e-06 -4.76837158203125e-06 Z"/></g><line class="c" y2="16.479" transform="translate(-229.482 48.627)"/></g><g class="g" transform="translate(1502 534)"><circle class="m" cx="10" cy="10" r="10"/><circle class="n" cx="10" cy="10" r="9.5"/></g><text class="h" transform="translate(1512 551)"><tspan x="-6.021" y="0">+</tspan></text><g class="g" transform="translate(1433 524)"><circle class="m" cx="20" cy="20" r="20"/><circle class="n" cx="20" cy="20" r="19.5"/></g><line class="c" x2="31" y2="24" transform="translate(1437.5 532.5)"/><g transform="translate(1545.072 772.035) rotate(90)"><g class="b" transform="translate(-229.5 48) rotate(45)"><path class="m" d="M 4.48930025100708 10.31504917144775 L 0.8653011322021484 0.8604671359062195 L 10.36387062072754 4.440470218658447 L 7.402174472808838 7.402174949645996 L 4.48930025100708 10.31504917144775 Z"/><path class="o" d="M 1.730582237243652 1.720914840698242 L 4.680450439453125 9.416769027709961 L 7.048614501953125 7.048604965209961 L 9.462241172790527 4.6349778175354 L 1.730582237243652 1.720914840698242 M 4.76837158203125e-06 -4.76837158203125e-06 L 11.26548385620117 4.245954990386963 L 7.755724430084229 7.755715370178223 L 4.298134326934814 11.21330547332764 L 4.76837158203125e-06 -4.76837158203125e-06 Z"/></g><line class="c" y2="16.479" transform="translate(-229.482 48.627)"/></g><text class="e" transform="translate(1362 540)"><tspan x="-60.205" y="0">Positional</tspan><tspan x="-48.164" y="24">Encoding</tspan></text><path class="i" d="M0,0H145V88.363H0Z" transform="translate(1439 371.501)"/><g transform="translate(1736 277)"><text class="e" transform="translate(-225 122)"><tspan x="-36.123" y="0">Masked</tspan><tspan x="-60.205" y="24">Multi-Head</tspan><tspan x="-54.185" y="48">Attention</tspan></text></g><g transform="translate(1426 312)"><rect class="j" width="145" height="52" transform="translate(13)"/><text class="h" transform="translate(87 33)"><tspan x="-60.205" y="0">Add &amp; Norm</tspan></text></g><g transform="translate(1469 220)"><rect class="k" width="145" height="64" transform="translate(-29 -3)"/><text class="h" transform="translate(44 24)"><tspan x="-30.103" y="0">Feed </tspan><tspan x="-42.144" y="24">Forward</tspan></text></g><g transform="translate(1427 155)"><rect class="j" width="145" height="52" transform="translate(13)"/><text class="h" transform="translate(87 33)"><tspan x="-60.205" y="0">Add &amp; Norm</tspan></text></g><g class="b" transform="translate(1462.5 463) rotate(45)"><path class="m" d="M 4.48930025100708 10.31504917144775 L 0.8653011322021484 0.8604671359062195 L 10.36387062072754 4.440470218658447 L 7.402174472808838 7.402174949645996 L 4.48930025100708 10.31504917144775 Z"/><path class="o" d="M 1.730582237243652 1.720914840698242 L 4.680450439453125 9.416769027709961 L 7.048614501953125 7.048604965209961 L 9.462241172790527 4.6349778175354 L 1.730582237243652 1.720914840698242 M 4.76837158203125e-06 -4.76837158203125e-06 L 11.26548385620117 4.245954990386963 L 7.755724430084229 7.755715370178223 L 4.298134326934814 11.21330547332764 L 4.76837158203125e-06 -4.76837158203125e-06 Z"/></g><line class="c" y2="16" transform="translate(1462.518 464.627)"/><line class="c" y2="16" transform="translate(1462.518 464.627)"/><line class="c" x2="100.5" transform="translate(1462 480.5)"/><g class="b" transform="translate(1511.5 463) rotate(45)"><path class="m" d="M 4.48930025100708 10.31504917144775 L 0.8653011322021484 0.8604671359062195 L 10.36387062072754 4.440470218658447 L 7.402174472808838 7.402174949645996 L 4.48930025100708 10.31504917144775 Z"/><path class="o" d="M 1.730582237243652 1.720914840698242 L 4.680450439453125 9.416769027709961 L 7.048614501953125 7.048604965209961 L 9.462241172790527 4.6349778175354 L 1.730582237243652 1.720914840698242 M 4.76837158203125e-06 -4.76837158203125e-06 L 11.26548385620117 4.245954990386963 L 7.755724430084229 7.755715370178223 L 4.298134326934814 11.21330547332764 L 4.76837158203125e-06 -4.76837158203125e-06 Z"/></g><line class="c" y2="16" transform="translate(1511.518 464.627)"/><line class="c" y2="16" transform="translate(1511.518 464.627)"/><g class="b" transform="translate(1562.5 463) rotate(45)"><path class="m" d="M 4.48930025100708 10.31504917144775 L 0.8653011322021484 0.8604671359062195 L 10.36387062072754 4.440470218658447 L 7.402174472808838 7.402174949645996 L 4.48930025100708 10.31504917144775 Z"/><path class="o" d="M 1.730582237243652 1.720914840698242 L 4.680450439453125 9.416769027709961 L 7.048614501953125 7.048604965209961 L 9.462241172790527 4.6349778175354 L 1.730582237243652 1.720914840698242 M 4.76837158203125e-06 -4.76837158203125e-06 L 11.26548385620117 4.245954990386963 L 7.755724430084229 7.755715370178223 L 4.298134326934814 11.21330547332764 L 4.76837158203125e-06 -4.76837158203125e-06 Z"/></g><line class="c" y2="16" transform="translate(1562.518 464.627)"/><line class="c" y2="16" transform="translate(1562.518 464.627)"/><line class="c" x1="0.018" y2="45.873" transform="translate(1511.5 475.627)"/><g transform="translate(1481.072 564.035) rotate(90)"><g class="b" transform="translate(-229.5 48) rotate(45)"><path class="m" d="M 4.48930025100708 10.31504917144775 L 0.8653011322021484 0.8604671359062195 L 10.36387062072754 4.440470218658447 L 7.402174472808838 7.402174949645996 L 4.48930025100708 10.31504917144775 Z"/><path class="o" d="M 1.730582237243652 1.720914840698242 L 4.680450439453125 9.416769027709961 L 7.048614501953125 7.048604965209961 L 9.462241172790527 4.6349778175354 L 1.730582237243652 1.720914840698242 M 4.76837158203125e-06 -4.76837158203125e-06 L 11.26548385620117 4.245954990386963 L 7.755724430084229 7.755715370178223 L 4.298134326934814 11.21330547332764 L 4.76837158203125e-06 -4.76837158203125e-06 Z"/></g><line class="c" y2="16.479" transform="translate(-229.482 48.627)"/></g><line class="c" y2="154" transform="translate(1415.5 334)"/><line class="c" x2="96.5" transform="translate(1415 488.5)"/><line class="c" y2="16" transform="translate(1511.518 464.627)"/><g class="b" transform="translate(1511.5 286) rotate(45)"><path class="m" d="M 4.48930025100708 10.31504917144775 L 0.8653011322021484 0.8604671359062195 L 10.36387062072754 4.440470218658447 L 7.402174472808838 7.402174949645996 L 4.48930025100708 10.31504917144775 Z"/><path class="o" d="M 1.730582237243652 1.720914840698242 L 4.680450439453125 9.416769027709961 L 7.048614501953125 7.048604965209961 L 9.462241172790527 4.6349778175354 L 1.730582237243652 1.720914840698242 M 4.76837158203125e-06 -4.76837158203125e-06 L 11.26548385620117 4.245954990386963 L 7.755724430084229 7.755715370178223 L 4.298134326934814 11.21330547332764 L 4.76837158203125e-06 -4.76837158203125e-06 Z"/></g><line class="c" y2="16" transform="translate(1511.518 287.627)"/><line class="c" y2="16" transform="translate(1511.518 287.627)"/><text class="e" transform="translate(1682 250)"><tspan x="-18.062" y="0">N x</tspan></text><g transform="translate(1481.072 418.035) rotate(90)"><g class="b" transform="translate(-229.5 48) rotate(45)"><path class="m" d="M 4.48930025100708 10.31504917144775 L 0.8653011322021484 0.8604671359062195 L 10.36387062072754 4.440470218658447 L 7.402174472808838 7.402174949645996 L 4.48930025100708 10.31504917144775 Z"/><path class="o" d="M 1.730582237243652 1.720914840698242 L 4.680450439453125 9.416769027709961 L 7.048614501953125 7.048604965209961 L 9.462241172790527 4.6349778175354 L 1.730582237243652 1.720914840698242 M 4.76837158203125e-06 -4.76837158203125e-06 L 11.26548385620117 4.245954990386963 L 7.755724430084229 7.755715370178223 L 4.298134326934814 11.21330547332764 L 4.76837158203125e-06 -4.76837158203125e-06 Z"/></g><line class="c" y2="16.479" transform="translate(-229.482 48.627)"/></g><line class="c" y2="119.5" transform="translate(1415.5 188)"/><rect class="l" width="145" height="52" transform="translate(1439 50)"/><text class="h" transform="translate(1513 83)"><tspan x="-36.123" y="0">Linear</tspan></text><g class="b" transform="translate(1512.5 18) rotate(45)"><path class="m" d="M 4.48930025100708 10.31504917144775 L 0.8653011322021484 0.8604671359062195 L 10.36387062072754 4.440470218658447 L 7.402174472808838 7.402174949645996 L 4.48930025100708 10.31504917144775 Z"/><path class="o" d="M 1.730582237243652 1.720914840698242 L 4.680450439453125 9.416769027709961 L 7.048614501953125 7.048604965209961 L 9.462241172790527 4.6349778175354 L 1.730582237243652 1.720914840698242 M 4.76837158203125e-06 -4.76837158203125e-06 L 11.26548385620117 4.245954990386963 L 7.755724430084229 7.755715370178223 L 4.298134326934814 11.21330547332764 L 4.76837158203125e-06 -4.76837158203125e-06 Z"/></g><line class="c" y2="16" transform="translate(1512.518 19.627)"/><line class="c" x1="0.018" y2="25.873" transform="translate(1512.5 19.627)"/><rect class="i" width="145" height="52" transform="translate(1439 -41)"/><text class="h" transform="translate(1513 -8)"><tspan x="-42.144" y="0">Softmax</tspan></text><g class="b" transform="translate(1512.5 -83) rotate(45)"><path class="m" d="M 4.48930025100708 10.31504917144775 L 0.8653011322021484 0.8604671359062195 L 10.36387062072754 4.440470218658447 L 7.402174472808838 7.402174949645996 L 4.48930025100708 10.31504917144775 Z"/><path class="o" d="M 1.730582237243652 1.720914840698242 L 4.680450439453125 9.416769027709961 L 7.048614501953125 7.048604965209961 L 9.462241172790527 4.6349778175354 L 1.730582237243652 1.720914840698242 M 4.76837158203125e-06 -4.76837158203125e-06 L 11.26548385620117 4.245954990386963 L 7.755724430084229 7.755715370178223 L 4.298134326934814 11.21330547332764 L 4.76837158203125e-06 -4.76837158203125e-06 Z"/></g><line class="c" y2="16" transform="translate(1512.518 -81.373)"/><line class="c" x1="0.018" y2="25.873" transform="translate(1512.5 -81.373)"/><text class="e" transform="translate(1513 -123)"><tspan x="-36.123" y="0">Output</tspan><tspan x="-78.267" y="24">Probabilities</tspan></text><line class="c" x2="96.5" transform="translate(1415 307.5)"/></g></svg>