<svg xmlns="http://www.w3.org/2000/svg" viewBox="0 0 915 290"><defs><style>.a,.q{fill:#9dffa8;}.a,.b,.d,.e,.h,.j,.k{opacity:0.502;}.b,.d,.g,.n,.o,.p,.x{fill:#020000;}.b,.d,.g,.n{font-size:20px;}.b,.n,.x{font-family:Hack-Regular, Hack;}.c{font-size:10px;}.d,.g{font-family:Menlo-Regular, Menlo;}.f{fill:#fb9dff;}.h,.l,.z{fill:#707070;}.aa,.i,.k,.v{fill:none;}.i,.k,.s,.v{stroke:#707070;}.j,.r{fill:#10ebfd;}.m{fill:#9db4ff;}.o,.p,.x{font-size:15px;}.o{font-family:Hack-Italic, Hack;}.o,.p{font-style:italic;}.p{font-family:Menlo-Italic, Menlo;}.s,.t{fill:#fff;}.t{stroke:#fff;}.u{fill:#95abf4;}.v,.w{opacity:0.237;}.x{opacity:0.497;}.y,.z{stroke:none;}</style></defs><g transform="translate(-21 -177)"><rect class="a" width="40" height="40" transform="translate(211 177)"/><text class="b" transform="translate(231 204)"><tspan x="-12.041" y="0">W</tspan><tspan class="c" y="0">q1</tspan></text><rect class="a" width="40" height="40" transform="translate(211 243)"/><text class="d" transform="translate(231 271)"><tspan x="-12.041" y="0">W</tspan><tspan class="c" y="0">k1</tspan></text><rect class="a" width="40" height="40" transform="translate(211 312)"/><text class="b" transform="translate(231 339)"><tspan x="-12.041" y="0">W</tspan><tspan class="c" y="0">v1</tspan></text><g class="e" transform="translate(605 593)"><rect class="f" width="86" height="52" transform="translate(-331 -399)"/><text class="g" transform="translate(-287 -366)"><tspan x="-36.123" y="0">MatMul</tspan></text></g><g class="e" transform="translate(605 661)"><rect class="f" width="86" height="52" transform="translate(-331 -399)"/><text class="g" transform="translate(-287 -366)"><tspan x="-36.123" y="0">MatMul</tspan></text></g><g class="e" transform="translate(605 729)"><rect class="f" width="86" height="52" transform="translate(-331 -399)"/><text class="g" transform="translate(-287 -366)"><tspan x="-36.123" y="0">MatMul</tspan></text></g><g class="h" transform="translate(272.232 201.56) rotate(135)"><path class="y" d="M 4.624250411987305 10.18009090423584 L 0.89665687084198 0.8917896747589111 L 10.22691440582275 4.577427387237549 L 7.402166843414307 7.40216588973999 L 4.624250411987305 10.18009090423584 Z"/><path class="z" d="M 1.793312072753906 1.783587455749512 L 4.806203842163086 9.291015625 L 7.048606872558594 7.048605918884277 L 9.334651947021484 4.762567520141602 L 1.793312072753906 1.783587455749512 M -2.86102294921875e-06 -3.814697265625e-06 L 11.11915683746338 4.392285823822021 L 7.755717277526855 7.755715847015381 L 4.442286968231201 11.0691556930542 L -2.86102294921875e-06 -3.814697265625e-06 Z"/></g><g class="e" transform="translate(271.605 201.578) rotate(90)"><line class="i" y2="19" transform="translate(0 0)"/></g><g class="h" transform="translate(272.232 271.56) rotate(135)"><path class="y" d="M 4.624250411987305 10.18009090423584 L 0.89665687084198 0.8917896747589111 L 10.22691440582275 4.577427387237549 L 7.402166843414307 7.40216588973999 L 4.624250411987305 10.18009090423584 Z"/><path class="z" d="M 1.793312072753906 1.783587455749512 L 4.806203842163086 9.291015625 L 7.048606872558594 7.048605918884277 L 9.334651947021484 4.762567520141602 L 1.793312072753906 1.783587455749512 M -2.86102294921875e-06 -3.814697265625e-06 L 11.11915683746338 4.392285823822021 L 7.755717277526855 7.755715847015381 L 4.442286968231201 11.0691556930542 L -2.86102294921875e-06 -3.814697265625e-06 Z"/></g><g class="e" transform="translate(271.605 271.578) rotate(90)"><line class="i" y2="19" transform="translate(0 0)"/></g><g class="h" transform="translate(272.232 342.56) rotate(135)"><path class="y" d="M 4.624250411987305 10.18009090423584 L 0.89665687084198 0.8917896747589111 L 10.22691440582275 4.577427387237549 L 7.402166843414307 7.40216588973999 L 4.624250411987305 10.18009090423584 Z"/><path class="z" d="M 1.793312072753906 1.783587455749512 L 4.806203842163086 9.291015625 L 7.048606872558594 7.048605918884277 L 9.334651947021484 4.762567520141602 L 1.793312072753906 1.783587455749512 M -2.86102294921875e-06 -3.814697265625e-06 L 11.11915683746338 4.392285823822021 L 7.755717277526855 7.755715847015381 L 4.442286968231201 11.0691556930542 L -2.86102294921875e-06 -3.814697265625e-06 Z"/></g><g class="e" transform="translate(271.605 342.578) rotate(90)"><line class="i" y2="19" transform="translate(0 0)"/></g><rect class="j" width="90" height="52" transform="translate(390 263)"/><text class="d" transform="translate(435 296)"><tspan x="-36.123" y="0">Attend</tspan></text><line class="k" x2="15" transform="translate(360.5 216.5)"/><g class="e" transform="translate(151.893 -28.607) rotate(90)"><g class="l" transform="translate(317.167 -239.107) rotate(45)"><path class="y" d="M 4.79009485244751 10.35495471954346 L 0.9132568836212158 0.9083845615386963 L 10.40186786651611 4.743190288543701 L 7.572525501251221 7.572524547576904 L 4.79009485244751 10.35495471954346 Z"/><path class="z" d="M 1.826522827148438 1.816766738891602 L 4.967541694641113 9.470388412475586 L 7.218965530395508 7.218964099884033 L 9.514205932617188 4.923730373382568 L 1.826522827148438 1.816766738891602 M -4.76837158203125e-06 4.76837158203125e-06 L 11.28951549530029 4.562644481658936 L 7.926075458526611 7.926074028015137 L 4.612645149230957 11.23950386047363 L -4.76837158203125e-06 4.76837158203125e-06 Z"/></g><g transform="translate(317.185 -238.466)"><line class="i" y2="15"/></g></g><line class="k" x2="15" transform="translate(360.5 288.5)"/><line class="k" x2="15" transform="translate(360.5 359.5)"/><line class="k" y2="143" transform="translate(375.5 216.5)"/><rect class="m" width="40" height="40" transform="translate(146 239)"/><text class="n" transform="translate(165 266)"><tspan x="-6.021" y="0">Q</tspan></text><rect class="m" width="40" height="40" transform="translate(146 307)"/><text class="g" transform="translate(165 334)"><tspan x="-6.021" y="0">K</tspan></text><text class="o" transform="translate(166 294)"><tspan x="-13.546" y="0">q.d</tspan></text><text class="p" transform="translate(165 362)"><tspan x="-13.546" y="0">n.d</tspan></text><rect class="m" width="40" height="40" transform="translate(146 378)"/><text class="n" transform="translate(165 405)"><tspan x="-6.021" y="0">V</tspan></text><text class="p" transform="translate(165 433)"><tspan x="-13.546" y="0">n.v</tspan></text><rect class="m" width="40" height="40" transform="translate(21 307)"/><text class="n" transform="translate(41 334)"><tspan x="-6.021" y="0">U</tspan></text><text class="o" transform="translate(41 362)"><tspan x="-13.546" y="0">n.d</tspan></text><text class="p" transform="translate(78 463)"><tspan x="-54.185" y="0">n = q, d = v</tspan></text><rect class="q" width="40" height="40" transform="translate(193 213)"/><text class="n" transform="translate(213 240)"><tspan x="-12.041" y="0">W</tspan><tspan class="c" y="0">qh</tspan></text><rect class="q" width="40" height="40" transform="translate(193 279)"/><text class="g" transform="translate(213 307)"><tspan x="-12.041" y="0">W</tspan><tspan class="c" y="0">kh</tspan></text><rect class="q" width="40" height="40" transform="translate(193 348)"/><text class="n" transform="translate(213 375)"><tspan x="-12.041" y="0">W</tspan><tspan class="c" y="0">vh</tspan></text><line class="i" x2="42" transform="translate(67.5 328.5)"/><g transform="translate(-98.875 -59.607) rotate(90)"><g class="l" transform="translate(317.167 -239.107) rotate(45)"><path class="y" d="M 4.624250411987305 10.18009090423584 L 0.89665687084198 0.8917896747589111 L 10.22691440582275 4.577427387237549 L 7.402166843414307 7.40216588973999 L 4.624250411987305 10.18009090423584 Z"/><path class="z" d="M 1.793312072753906 1.783587455749512 L 4.806203842163086 9.291015625 L 7.048606872558594 7.048605918884277 L 9.334651947021484 4.762567520141602 L 1.793312072753906 1.783587455749512 M -2.86102294921875e-06 -3.814697265625e-06 L 11.11915683746338 4.392285823822021 L 7.755717277526855 7.755715847015381 L 4.442286968231201 11.0691556930542 L -2.86102294921875e-06 -3.814697265625e-06 Z"/></g><g transform="translate(317.185 -238.479)"><line class="i" y2="30"/></g></g><line class="i" y2="142" transform="translate(109.5 257.5)"/><g transform="translate(-98.875 82.393) rotate(90)"><g class="l" transform="translate(317.167 -239.107) rotate(45)"><path class="y" d="M 4.624250411987305 10.18009090423584 L 0.89665687084198 0.8917896747589111 L 10.22691440582275 4.577427387237549 L 7.402166843414307 7.40216588973999 L 4.624250411987305 10.18009090423584 Z"/><path class="z" d="M 1.793312072753906 1.783587455749512 L 4.806203842163086 9.291015625 L 7.048606872558594 7.048605918884277 L 9.334651947021484 4.762567520141602 L 1.793312072753906 1.783587455749512 M -2.86102294921875e-06 -3.814697265625e-06 L 11.11915683746338 4.392285823822021 L 7.755717277526855 7.755715847015381 L 4.442286968231201 11.0691556930542 L -2.86102294921875e-06 -3.814697265625e-06 Z"/></g><g transform="translate(317.185 -238.479)"><line class="i" y2="30" transform="translate(0)"/></g></g><g transform="translate(-98.875 11.393) rotate(90)"><g class="l" transform="translate(317.167 -239.107) rotate(45)"><path class="y" d="M 4.624250411987305 10.18009090423584 L 0.89665687084198 0.8917896747589111 L 10.22691440582275 4.577427387237549 L 7.402166843414307 7.40216588973999 L 4.624250411987305 10.18009090423584 Z"/><path class="z" d="M 1.793312072753906 1.783587455749512 L 4.806203842163086 9.291015625 L 7.048606872558594 7.048605918884277 L 9.334651947021484 4.762567520141602 L 1.793312072753906 1.783587455749512 M -2.86102294921875e-06 -3.814697265625e-06 L 11.11915683746338 4.392285823822021 L 7.755717277526855 7.755715847015381 L 4.442286968231201 11.0691556930542 L -2.86102294921875e-06 -3.814697265625e-06 Z"/></g><g transform="translate(317.185 -238.479)"><line class="i" y2="30"/></g></g><g transform="translate(-98.875 -59.607) rotate(90)"><g class="l" transform="translate(317.167 -239.107) rotate(45)"><path class="y" d="M 4.624250411987305 10.18009090423584 L 0.89665687084198 0.8917896747589111 L 10.22691440582275 4.577427387237549 L 7.402166843414307 7.40216588973999 L 4.624250411987305 10.18009090423584 Z"/><path class="z" d="M 1.793312072753906 1.783587455749512 L 4.806203842163086 9.291015625 L 7.048606872558594 7.048605918884277 L 9.334651947021484 4.762567520141602 L 1.793312072753906 1.783587455749512 M -2.86102294921875e-06 -3.814697265625e-06 L 11.11915683746338 4.392285823822021 L 7.755717277526855 7.755715847015381 L 4.442286968231201 11.0691556930542 L -2.86102294921875e-06 -3.814697265625e-06 Z"/></g></g><g transform="translate(587 629)"><rect class="f" width="86" height="52" transform="translate(-331 -399)"/><text class="g" transform="translate(-287 -366)"><tspan x="-36.123" y="0">MatMul</tspan></text></g><g transform="translate(587 697)"><rect class="f" width="86" height="52" transform="translate(-331 -399)"/><text class="g" transform="translate(-287 -366)"><tspan x="-36.123" y="0">MatMul</tspan></text></g><g transform="translate(587 765)"><rect class="f" width="86" height="52" transform="translate(-331 -399)"/><text class="g" transform="translate(-287 -366)"><tspan x="-36.123" y="0">MatMul</tspan></text></g><g class="l" transform="translate(254.232 237.56) rotate(135)"><path class="y" d="M 4.624250411987305 10.18009090423584 L 0.89665687084198 0.8917896747589111 L 10.22691440582275 4.577427387237549 L 7.402166843414307 7.40216588973999 L 4.624250411987305 10.18009090423584 Z"/><path class="z" d="M 1.793312072753906 1.783587455749512 L 4.806203842163086 9.291015625 L 7.048606872558594 7.048605918884277 L 9.334651947021484 4.762567520141602 L 1.793312072753906 1.783587455749512 M -2.86102294921875e-06 -3.814697265625e-06 L 11.11915683746338 4.392285823822021 L 7.755717277526855 7.755715847015381 L 4.442286968231201 11.0691556930542 L -2.86102294921875e-06 -3.814697265625e-06 Z"/></g><g transform="translate(253.605 237.578) rotate(90)"><line class="i" y2="19" transform="translate(0 0)"/></g><g class="l" transform="translate(254.232 307.56) rotate(135)"><path class="y" d="M 4.624250411987305 10.18009090423584 L 0.89665687084198 0.8917896747589111 L 10.22691440582275 4.577427387237549 L 7.402166843414307 7.40216588973999 L 4.624250411987305 10.18009090423584 Z"/><path class="z" d="M 1.793312072753906 1.783587455749512 L 4.806203842163086 9.291015625 L 7.048606872558594 7.048605918884277 L 9.334651947021484 4.762567520141602 L 1.793312072753906 1.783587455749512 M -2.86102294921875e-06 -3.814697265625e-06 L 11.11915683746338 4.392285823822021 L 7.755717277526855 7.755715847015381 L 4.442286968231201 11.0691556930542 L -2.86102294921875e-06 -3.814697265625e-06 Z"/></g><g transform="translate(253.605 307.578) rotate(90)"><line class="i" y2="19" transform="translate(0 0)"/></g><g class="l" transform="translate(254.232 378.56) rotate(135)"><path class="y" d="M 4.624250411987305 10.18009090423584 L 0.89665687084198 0.8917896747589111 L 10.22691440582275 4.577427387237549 L 7.402166843414307 7.40216588973999 L 4.624250411987305 10.18009090423584 Z"/><path class="z" d="M 1.793312072753906 1.783587455749512 L 4.806203842163086 9.291015625 L 7.048606872558594 7.048605918884277 L 9.334651947021484 4.762567520141602 L 1.793312072753906 1.783587455749512 M -2.86102294921875e-06 -3.814697265625e-06 L 11.11915683746338 4.392285823822021 L 7.755717277526855 7.755715847015381 L 4.442286968231201 11.0691556930542 L -2.86102294921875e-06 -3.814697265625e-06 Z"/></g><g transform="translate(253.605 378.578) rotate(90)"><line class="i" y2="19" transform="translate(0 0)"/></g><g class="l" transform="translate(254.232 268.56) rotate(135)"><path class="y" d="M 4.624250411987305 10.18009090423584 L 0.89665687084198 0.8917896747589111 L 10.22691440582275 4.577427387237549 L 7.402166843414307 7.40216588973999 L 4.624250411987305 10.18009090423584 Z"/><path class="z" d="M 1.793312072753906 1.783587455749512 L 4.806203842163086 9.291015625 L 7.048606872558594 7.048605918884277 L 9.334651947021484 4.762567520141602 L 1.793312072753906 1.783587455749512 M -2.86102294921875e-06 -3.814697265625e-06 L 11.11915683746338 4.392285823822021 L 7.755717277526855 7.755715847015381 L 4.442286968231201 11.0691556930542 L -2.86102294921875e-06 -3.814697265625e-06 Z"/></g><g transform="translate(253.605 268.578) rotate(90)"><line class="i" y2="65" transform="translate(0 0)"/></g><g class="l" transform="translate(254.232 338.56) rotate(135)"><path class="y" d="M 4.624250411987305 10.18009090423584 L 0.89665687084198 0.8917896747589111 L 10.22691440582275 4.577427387237549 L 7.402166843414307 7.40216588973999 L 4.624250411987305 10.18009090423584 Z"/><path class="z" d="M 1.793312072753906 1.783587455749512 L 4.806203842163086 9.291015625 L 7.048606872558594 7.048605918884277 L 9.334651947021484 4.762567520141602 L 1.793312072753906 1.783587455749512 M -2.86102294921875e-06 -3.814697265625e-06 L 11.11915683746338 4.392285823822021 L 7.755717277526855 7.755715847015381 L 4.442286968231201 11.0691556930542 L -2.86102294921875e-06 -3.814697265625e-06 Z"/></g><g transform="translate(253.605 338.578) rotate(90)"><line class="i" y2="65" transform="translate(0 0)"/></g><g class="l" transform="translate(254.232 409.56) rotate(135)"><path class="y" d="M 4.624250411987305 10.18009090423584 L 0.89665687084198 0.8917896747589111 L 10.22691440582275 4.577427387237549 L 7.402166843414307 7.40216588973999 L 4.624250411987305 10.18009090423584 Z"/><path class="z" d="M 1.793312072753906 1.783587455749512 L 4.806203842163086 9.291015625 L 7.048606872558594 7.048605918884277 L 9.334651947021484 4.762567520141602 L 1.793312072753906 1.783587455749512 M -2.86102294921875e-06 -3.814697265625e-06 L 11.11915683746338 4.392285823822021 L 7.755717277526855 7.755715847015381 L 4.442286968231201 11.0691556930542 L -2.86102294921875e-06 -3.814697265625e-06 Z"/></g><g transform="translate(253.605 409.578) rotate(90)"><line class="i" y2="65" transform="translate(0 0)"/></g><rect class="r" width="90" height="52" transform="translate(372 299)"/><text class="g" transform="translate(417 332)"><tspan x="-36.123" y="0">Attend</tspan></text><line class="i" x2="15" transform="translate(342.5 252.5)"/><g transform="translate(133.893 7.393) rotate(90)"><g class="l" transform="translate(317.167 -239.107) rotate(45)"><path class="y" d="M 4.79009485244751 10.35495471954346 L 0.9132568836212158 0.9083845615386963 L 10.40186786651611 4.743190288543701 L 7.572525501251221 7.572524547576904 L 4.79009485244751 10.35495471954346 Z"/><path class="z" d="M 1.826522827148438 1.816766738891602 L 4.967541694641113 9.470388412475586 L 7.218965530395508 7.218964099884033 L 9.514205932617188 4.923730373382568 L 1.826522827148438 1.816766738891602 M -4.76837158203125e-06 4.76837158203125e-06 L 11.28951549530029 4.562644481658936 L 7.926075458526611 7.926074028015137 L 4.612645149230957 11.23950386047363 L -4.76837158203125e-06 4.76837158203125e-06 Z"/></g><g transform="translate(317.185 -238.466)"><line class="i" y2="15"/></g></g><line class="i" x2="15" transform="translate(342.5 324.5)"/><line class="i" x2="15" transform="translate(342.5 395.5)"/><line class="i" y2="143" transform="translate(357.5 252.5)"/><line class="i" x2="49" transform="translate(461.5 342.5)"/><line class="i" y2="42" transform="translate(509.5 342.5)"/><g transform="translate(342.733 597.371)"><g class="l" transform="translate(317.167 -239.107) rotate(45)"><path class="y" d="M 4.624250411987305 10.18009090423584 L 0.89665687084198 0.8917896747589111 L 10.22691440582275 4.577427387237549 L 7.402166843414307 7.40216588973999 L 4.624250411987305 10.18009090423584 Z"/><path class="z" d="M 1.793312072753906 1.783587455749512 L 4.806203842163086 9.291015625 L 7.048606872558594 7.048605918884277 L 9.334651947021484 4.762567520141602 L 1.793312072753906 1.783587455749512 M -2.86102294921875e-06 -3.814697265625e-06 L 11.11915683746338 4.392285823822021 L 7.755717277526855 7.755715847015381 L 4.442286968231201 11.0691556930542 L -2.86102294921875e-06 -3.814697265625e-06 Z"/></g><g transform="translate(317.185 -238.479)"><line class="i" y2="26" transform="translate(0)"/></g></g><rect class="q" width="40" height="40" transform="translate(695 288)"/><text class="n" transform="translate(715 317)"><tspan x="-9.031" y="0">W</tspan><tspan class="c" y="0">o</tspan></text><text class="p" transform="translate(613 414)"><tspan x="-31.608" y="0">q.(h*w)</tspan></text><text class="p" transform="translate(714 281)"><tspan x="-31.608" y="0">(h*w).v</tspan></text><g class="s" transform="translate(536 303.992)"><rect class="y" width="154.712" height="51.199"/><rect class="aa" x="0.5" y="0.5" width="153.712" height="50.199"/></g><g class="t" transform="translate(542.601 301.629)"><rect class="y" width="140.41" height="55.451"/><rect class="aa" x="0.5" y="0.5" width="139.41" height="54.451"/></g><path class="u" d="M0,0H49V40H0Z" transform="translate(541 310)"/><text class="n" transform="translate(567 338)"><tspan x="-9.031" y="0">U</tspan><tspan class="c" y="0">1</tspan></text><rect class="u" width="49" height="40" transform="translate(636 310)"/><text class="n" transform="translate(661 337)"><tspan x="-9.031" y="0">U</tspan><tspan class="c" y="0">h</tspan></text><text class="n" transform="translate(613 329)"><tspan x="-18.062" y="0">...</tspan></text><line class="i" x2="150" transform="translate(509.5 384.5)"/><text class="p" transform="translate(567 366)"><tspan x="-13.546" y="0">q.w</tspan></text><g transform="translate(524.125 -9.607) rotate(90)"><g class="l" transform="translate(317.167 -239.107) rotate(45)"><path class="y" d="M 4.624250411987305 10.18009090423584 L 0.89665687084198 0.8917896747589111 L 10.22691440582275 4.577427387237549 L 7.402166843414307 7.40216588973999 L 4.624250411987305 10.18009090423584 Z"/><path class="z" d="M 1.793312072753906 1.783587455749512 L 4.806203842163086 9.291015625 L 7.048606872558594 7.048605918884277 L 9.334651947021484 4.762567520141602 L 1.793312072753906 1.783587455749512 M -2.86102294921875e-06 -3.814697265625e-06 L 11.11915683746338 4.392285823822021 L 7.755717277526855 7.755715847015381 L 4.442286968231201 11.0691556930542 L -2.86102294921875e-06 -3.814697265625e-06 Z"/></g><g transform="translate(317.185 -238.479)"><line class="i" y2="26" transform="translate(0)"/></g></g><rect class="u" width="40" height="40" transform="translate(881 304)"/><text class="n" transform="translate(901 331)"><tspan x="-9.031" y="0">U</tspan><tspan class="c" y="0">a</tspan></text><text class="o" transform="translate(904 362)"><tspan x="-31.608" y="0">q.v=n.d</tspan></text><line class="v" y2="20" transform="translate(505.5 267.5)"/><g class="w" transform="translate(878.103 54.785) rotate(180)"><g class="l" transform="translate(317.167 -239.107) rotate(45)"><path class="y" d="M 4.624250411987305 10.18009090423584 L 0.89665687084198 0.8917896747589111 L 10.22691440582275 4.577427387237549 L 7.402166843414307 7.40216588973999 L 4.624250411987305 10.18009090423584 Z"/><path class="z" d="M 1.793312072753906 1.783587455749512 L 4.806203842163086 9.291015625 L 7.048606872558594 7.048605918884277 L 9.334651947021484 4.762567520141602 L 1.793312072753906 1.783587455749512 M -2.86102294921875e-06 -3.814697265625e-06 L 11.11915683746338 4.392285823822021 L 7.755717277526855 7.755715847015381 L 4.442286968231201 11.0691556930542 L -2.86102294921875e-06 -3.814697265625e-06 Z"/></g><g transform="translate(317.185 -238.479)"><line class="i" y2="26" transform="translate(0)"/></g></g><text class="x" transform="matrix(0.469, -0.883, 0.883, 0.469, 472.181, 319.286)"><tspan x="-13.546" y="0">...</tspan></text><line class="v" x2="55" transform="translate(505.5 267.5)"/><line class="v" x2="21" transform="translate(484.5 287.5)"/><g transform="translate(587 629)"><rect class="f" width="86" height="52" transform="translate(-331 -399)"/><text class="g" transform="translate(-287 -366)"><tspan x="-36.123" y="0">MatMul</tspan></text></g><g transform="translate(1096 697)"><rect class="f" width="86" height="52" transform="translate(-331 -399)"/><text class="g" transform="translate(-287 -366)"><tspan x="-36.123" y="0">MatMul</tspan></text></g><g transform="translate(253.605 409.578) rotate(90)"><line class="i" y2="65" transform="translate(0 0)"/></g><g class="l" transform="translate(762.232 340.56) rotate(135)"><path class="y" d="M 4.624250411987305 10.18009090423584 L 0.89665687084198 0.8917896747589111 L 10.22691440582275 4.577427387237549 L 7.402166843414307 7.40216588973999 L 4.624250411987305 10.18009090423584 Z"/><path class="z" d="M 1.793312072753906 1.783587455749512 L 4.806203842163086 9.291015625 L 7.048606872558594 7.048605918884277 L 9.334651947021484 4.762567520141602 L 1.793312072753906 1.783587455749512 M -2.86102294921875e-06 -3.814697265625e-06 L 11.11915683746338 4.392285823822021 L 7.755717277526855 7.755715847015381 L 4.442286968231201 11.0691556930542 L -2.86102294921875e-06 -3.814697265625e-06 Z"/></g><g transform="translate(761.605 340.578) rotate(90)"><line class="i" y2="65" transform="translate(0 0)"/></g><g transform="translate(761.605 340.578) rotate(90)"><line class="i" y2="65" transform="translate(0 0)"/></g><g transform="translate(641.125 6.393) rotate(90)"><g class="l" transform="translate(317.167 -239.107) rotate(45)"><path class="y" d="M 4.624250411987305 10.18009090423584 L 0.89665687084198 0.8917896747589111 L 10.22691440582275 4.577427387237549 L 7.402166843414307 7.40216588973999 L 4.624250411987305 10.18009090423584 Z"/><path class="z" d="M 1.793312072753906 1.783587455749512 L 4.806203842163086 9.291015625 L 7.048606872558594 7.048605918884277 L 9.334651947021484 4.762567520141602 L 1.793312072753906 1.783587455749512 M -2.86102294921875e-06 -3.814697265625e-06 L 11.11915683746338 4.392285823822021 L 7.755717277526855 7.755715847015381 L 4.442286968231201 11.0691556930542 L -2.86102294921875e-06 -3.814697265625e-06 Z"/></g><g transform="translate(317.185 -238.479)"><line class="i" y2="26" transform="translate(0)"/></g></g></g></svg>