<svg height="302.345312pt" version="1.1" viewBox="0 0 883.701563 302.345312" width="883.701563pt" xmlns="http://www.w3.org/2000/svg" xmlns:xlink="http://www.w3.org/1999/xlink" style="width: 100%; height: 100%;">
 <defs>
  <style type="text/css">
*{stroke-linecap:butt;stroke-linejoin:round;}
  </style>
 </defs>
 <g id="figure_1">
  <g id="patch_1">
   <path d="M 0 302.345312 
L 883.701563 302.345312 
L 883.701563 0 
L 0 0 
z
" style="fill:none;"></path>
  </g>
  <g id="axes_1">
   <g id="patch_2">
    <path d="M 39.501563 279 
L 876.501562 279 
L 876.501562 7.2 
L 39.501563 7.2 
z
" style="fill:#eaeaf2;"></path>
   </g>
   <g id="matplotlib.axis_1">
    <g id="xtick_1">
     <g id="line2d_1">
      <path clip-path="url(#p55e69b4a79)" d="M 77.547017 279 
L 77.547017 7.2 
" style="fill:none;stroke:#ffffff;stroke-linecap:round;"></path>
     </g>
     <g id="line2d_2"></g>
     <g id="text_1">
      <!-- 0 -->
      <defs>
       <path d="M 4.15625 35.296875 
Q 4.15625 48 6.765625 55.734375 
Q 9.375 63.484375 14.515625 67.671875 
Q 19.671875 71.875 27.484375 71.875 
Q 33.25 71.875 37.59375 69.546875 
Q 41.9375 67.234375 44.765625 62.859375 
Q 47.609375 58.5 49.21875 52.21875 
Q 50.828125 45.953125 50.828125 35.296875 
Q 50.828125 22.703125 48.234375 14.96875 
Q 45.65625 7.234375 40.5 3 
Q 35.359375 -1.21875 27.484375 -1.21875 
Q 17.140625 -1.21875 11.234375 6.203125 
Q 4.15625 15.140625 4.15625 35.296875 
z
M 13.1875 35.296875 
Q 13.1875 17.671875 17.3125 11.828125 
Q 21.4375 6 27.484375 6 
Q 33.546875 6 37.671875 11.859375 
Q 41.796875 17.71875 41.796875 35.296875 
Q 41.796875 52.984375 37.671875 58.78125 
Q 33.546875 64.59375 27.390625 64.59375 
Q 21.34375 64.59375 17.71875 59.46875 
Q 13.1875 52.9375 13.1875 35.296875 
z
" id="ArialMT-30"></path>
      </defs>
      <g style="fill:#262626;" transform="translate(74.766548 293.157812)scale(0.1 -0.1)">
       <use xlink:href="#ArialMT-30"></use>
      </g>
     </g>
    </g>
    <g id="xtick_2">
     <g id="line2d_3">
      <path clip-path="url(#p55e69b4a79)" d="M 231.266025 279 
L 231.266025 7.2 
" style="fill:none;stroke:#ffffff;stroke-linecap:round;"></path>
     </g>
     <g id="line2d_4"></g>
     <g id="text_2">
      <!-- 20 -->
      <defs>
       <path d="M 50.34375 8.453125 
L 50.34375 0 
L 3.03125 0 
Q 2.9375 3.171875 4.046875 6.109375 
Q 5.859375 10.9375 9.828125 15.625 
Q 13.8125 20.3125 21.34375 26.46875 
Q 33.015625 36.03125 37.109375 41.625 
Q 41.21875 47.21875 41.21875 52.203125 
Q 41.21875 57.421875 37.46875 61 
Q 33.734375 64.59375 27.734375 64.59375 
Q 21.390625 64.59375 17.578125 60.78125 
Q 13.765625 56.984375 13.71875 50.25 
L 4.6875 51.171875 
Q 5.609375 61.28125 11.65625 66.578125 
Q 17.71875 71.875 27.9375 71.875 
Q 38.234375 71.875 44.234375 66.15625 
Q 50.25 60.453125 50.25 52 
Q 50.25 47.703125 48.484375 43.546875 
Q 46.734375 39.40625 42.65625 34.8125 
Q 38.578125 30.21875 29.109375 22.21875 
Q 21.1875 15.578125 18.9375 13.203125 
Q 16.703125 10.84375 15.234375 8.453125 
z
" id="ArialMT-32"></path>
      </defs>
      <g style="fill:#262626;" transform="translate(225.705088 293.157812)scale(0.1 -0.1)">
       <use xlink:href="#ArialMT-32"></use>
       <use x="55.615234" xlink:href="#ArialMT-30"></use>
      </g>
     </g>
    </g>
    <g id="xtick_3">
     <g id="line2d_5">
      <path clip-path="url(#p55e69b4a79)" d="M 384.985034 279 
L 384.985034 7.2 
" style="fill:none;stroke:#ffffff;stroke-linecap:round;"></path>
     </g>
     <g id="line2d_6"></g>
     <g id="text_3">
      <!-- 40 -->
      <defs>
       <path d="M 32.328125 0 
L 32.328125 17.140625 
L 1.265625 17.140625 
L 1.265625 25.203125 
L 33.9375 71.578125 
L 41.109375 71.578125 
L 41.109375 25.203125 
L 50.78125 25.203125 
L 50.78125 17.140625 
L 41.109375 17.140625 
L 41.109375 0 
z
M 32.328125 25.203125 
L 32.328125 57.46875 
L 9.90625 25.203125 
z
" id="ArialMT-34"></path>
      </defs>
      <g style="fill:#262626;" transform="translate(379.424096 293.157812)scale(0.1 -0.1)">
       <use xlink:href="#ArialMT-34"></use>
       <use x="55.615234" xlink:href="#ArialMT-30"></use>
      </g>
     </g>
    </g>
    <g id="xtick_4">
     <g id="line2d_7">
      <path clip-path="url(#p55e69b4a79)" d="M 538.704042 279 
L 538.704042 7.2 
" style="fill:none;stroke:#ffffff;stroke-linecap:round;"></path>
     </g>
     <g id="line2d_8"></g>
     <g id="text_4">
      <!-- 60 -->
      <defs>
       <path d="M 49.75 54.046875 
L 41.015625 53.375 
Q 39.84375 58.546875 37.703125 60.890625 
Q 34.125 64.65625 28.90625 64.65625 
Q 24.703125 64.65625 21.53125 62.3125 
Q 17.390625 59.28125 14.984375 53.46875 
Q 12.59375 47.65625 12.5 36.921875 
Q 15.671875 41.75 20.265625 44.09375 
Q 24.859375 46.4375 29.890625 46.4375 
Q 38.671875 46.4375 44.84375 39.96875 
Q 51.03125 33.5 51.03125 23.25 
Q 51.03125 16.5 48.125 10.71875 
Q 45.21875 4.9375 40.140625 1.859375 
Q 35.0625 -1.21875 28.609375 -1.21875 
Q 17.625 -1.21875 10.6875 6.859375 
Q 3.765625 14.9375 3.765625 33.5 
Q 3.765625 54.25 11.421875 63.671875 
Q 18.109375 71.875 29.4375 71.875 
Q 37.890625 71.875 43.28125 67.140625 
Q 48.6875 62.40625 49.75 54.046875 
z
M 13.875 23.1875 
Q 13.875 18.65625 15.796875 14.5 
Q 17.71875 10.359375 21.1875 8.171875 
Q 24.65625 6 28.46875 6 
Q 34.03125 6 38.03125 10.484375 
Q 42.046875 14.984375 42.046875 22.703125 
Q 42.046875 30.125 38.078125 34.390625 
Q 34.125 38.671875 28.125 38.671875 
Q 22.171875 38.671875 18.015625 34.390625 
Q 13.875 30.125 13.875 23.1875 
z
" id="ArialMT-36"></path>
      </defs>
      <g style="fill:#262626;" transform="translate(533.143104 293.157812)scale(0.1 -0.1)">
       <use xlink:href="#ArialMT-36"></use>
       <use x="55.615234" xlink:href="#ArialMT-30"></use>
      </g>
     </g>
    </g>
    <g id="xtick_5">
     <g id="line2d_9">
      <path clip-path="url(#p55e69b4a79)" d="M 692.42305 279 
L 692.42305 7.2 
" style="fill:none;stroke:#ffffff;stroke-linecap:round;"></path>
     </g>
     <g id="line2d_10"></g>
     <g id="text_5">
      <!-- 80 -->
      <defs>
       <path d="M 17.671875 38.8125 
Q 12.203125 40.828125 9.5625 44.53125 
Q 6.9375 48.25 6.9375 53.421875 
Q 6.9375 61.234375 12.546875 66.546875 
Q 18.171875 71.875 27.484375 71.875 
Q 36.859375 71.875 42.578125 66.421875 
Q 48.296875 60.984375 48.296875 53.171875 
Q 48.296875 48.1875 45.671875 44.5 
Q 43.0625 40.828125 37.75 38.8125 
Q 44.34375 36.671875 47.78125 31.875 
Q 51.21875 27.09375 51.21875 20.453125 
Q 51.21875 11.28125 44.71875 5.03125 
Q 38.234375 -1.21875 27.640625 -1.21875 
Q 17.046875 -1.21875 10.546875 5.046875 
Q 4.046875 11.328125 4.046875 20.703125 
Q 4.046875 27.6875 7.59375 32.390625 
Q 11.140625 37.109375 17.671875 38.8125 
z
M 15.921875 53.71875 
Q 15.921875 48.640625 19.1875 45.40625 
Q 22.46875 42.1875 27.6875 42.1875 
Q 32.765625 42.1875 36.015625 45.375 
Q 39.265625 48.578125 39.265625 53.21875 
Q 39.265625 58.0625 35.90625 61.359375 
Q 32.5625 64.65625 27.59375 64.65625 
Q 22.5625 64.65625 19.234375 61.421875 
Q 15.921875 58.203125 15.921875 53.71875 
z
M 13.09375 20.65625 
Q 13.09375 16.890625 14.875 13.375 
Q 16.65625 9.859375 20.171875 7.921875 
Q 23.6875 6 27.734375 6 
Q 34.03125 6 38.125 10.046875 
Q 42.234375 14.109375 42.234375 20.359375 
Q 42.234375 26.703125 38.015625 30.859375 
Q 33.796875 35.015625 27.4375 35.015625 
Q 21.234375 35.015625 17.15625 30.90625 
Q 13.09375 26.8125 13.09375 20.65625 
z
" id="ArialMT-38"></path>
      </defs>
      <g style="fill:#262626;" transform="translate(686.862113 293.157812)scale(0.1 -0.1)">
       <use xlink:href="#ArialMT-38"></use>
       <use x="55.615234" xlink:href="#ArialMT-30"></use>
      </g>
     </g>
    </g>
    <g id="xtick_6">
     <g id="line2d_11">
      <path clip-path="url(#p55e69b4a79)" d="M 846.142058 279 
L 846.142058 7.2 
" style="fill:none;stroke:#ffffff;stroke-linecap:round;"></path>
     </g>
     <g id="line2d_12"></g>
     <g id="text_6">
      <!-- 100 -->
      <defs>
       <path d="M 37.25 0 
L 28.46875 0 
L 28.46875 56 
Q 25.296875 52.984375 20.140625 49.953125 
Q 14.984375 46.921875 10.890625 45.40625 
L 10.890625 53.90625 
Q 18.265625 57.375 23.78125 62.296875 
Q 29.296875 67.234375 31.59375 71.875 
L 37.25 71.875 
z
" id="ArialMT-31"></path>
      </defs>
      <g style="fill:#262626;" transform="translate(837.800652 293.157812)scale(0.1 -0.1)">
       <use xlink:href="#ArialMT-31"></use>
       <use x="55.615234" xlink:href="#ArialMT-30"></use>
       <use x="111.230469" xlink:href="#ArialMT-30"></use>
      </g>
     </g>
    </g>
   </g>
   <g id="matplotlib.axis_2">
    <g id="ytick_1">
     <g id="line2d_13">
      <path clip-path="url(#p55e69b4a79)" d="M 39.501563 266.656206 
L 876.501562 266.656206 
" style="fill:none;stroke:#ffffff;stroke-linecap:round;"></path>
     </g>
     <g id="line2d_14"></g>
     <g id="text_7">
      <!-- −1.00 -->
      <defs>
       <path d="M 52.828125 31.203125 
L 5.5625 31.203125 
L 5.5625 39.40625 
L 52.828125 39.40625 
z
" id="ArialMT-2212"></path>
       <path d="M 9.078125 0 
L 9.078125 10.015625 
L 19.09375 10.015625 
L 19.09375 0 
z
" id="ArialMT-2e"></path>
      </defs>
      <g style="fill:#262626;" transform="translate(7.2 270.235113)scale(0.1 -0.1)">
       <use xlink:href="#ArialMT-2212"></use>
       <use x="58.398438" xlink:href="#ArialMT-31"></use>
       <use x="114.013672" xlink:href="#ArialMT-2e"></use>
       <use x="141.796875" xlink:href="#ArialMT-30"></use>
       <use x="197.412109" xlink:href="#ArialMT-30"></use>
      </g>
     </g>
    </g>
    <g id="ytick_2">
     <g id="line2d_15">
      <path clip-path="url(#p55e69b4a79)" d="M 39.501563 235.768499 
L 876.501562 235.768499 
" style="fill:none;stroke:#ffffff;stroke-linecap:round;"></path>
     </g>
     <g id="line2d_16"></g>
     <g id="text_8">
      <!-- −0.75 -->
      <defs>
       <path d="M 4.734375 62.203125 
L 4.734375 70.65625 
L 51.078125 70.65625 
L 51.078125 63.8125 
Q 44.234375 56.546875 37.515625 44.484375 
Q 30.8125 32.421875 27.15625 19.671875 
Q 24.515625 10.6875 23.78125 0 
L 14.75 0 
Q 14.890625 8.453125 18.0625 20.40625 
Q 21.234375 32.375 27.171875 43.484375 
Q 33.109375 54.59375 39.796875 62.203125 
z
" id="ArialMT-37"></path>
       <path d="M 4.15625 18.75 
L 13.375 19.53125 
Q 14.40625 12.796875 18.140625 9.390625 
Q 21.875 6 27.15625 6 
Q 33.5 6 37.890625 10.78125 
Q 42.28125 15.578125 42.28125 23.484375 
Q 42.28125 31 38.0625 35.34375 
Q 33.84375 39.703125 27 39.703125 
Q 22.75 39.703125 19.328125 37.765625 
Q 15.921875 35.84375 13.96875 32.765625 
L 5.71875 33.84375 
L 12.640625 70.609375 
L 48.25 70.609375 
L 48.25 62.203125 
L 19.671875 62.203125 
L 15.828125 42.96875 
Q 22.265625 47.46875 29.34375 47.46875 
Q 38.71875 47.46875 45.15625 40.96875 
Q 51.609375 34.46875 51.609375 24.265625 
Q 51.609375 14.546875 45.953125 7.46875 
Q 39.0625 -1.21875 27.15625 -1.21875 
Q 17.390625 -1.21875 11.203125 4.25 
Q 5.03125 9.71875 4.15625 18.75 
z
" id="ArialMT-35"></path>
      </defs>
      <g style="fill:#262626;" transform="translate(7.2 239.347405)scale(0.1 -0.1)">
       <use xlink:href="#ArialMT-2212"></use>
       <use x="58.398438" xlink:href="#ArialMT-30"></use>
       <use x="114.013672" xlink:href="#ArialMT-2e"></use>
       <use x="141.796875" xlink:href="#ArialMT-37"></use>
       <use x="197.412109" xlink:href="#ArialMT-35"></use>
      </g>
     </g>
    </g>
    <g id="ytick_3">
     <g id="line2d_17">
      <path clip-path="url(#p55e69b4a79)" d="M 39.501563 204.880791 
L 876.501562 204.880791 
" style="fill:none;stroke:#ffffff;stroke-linecap:round;"></path>
     </g>
     <g id="line2d_18"></g>
     <g id="text_9">
      <!-- −0.50 -->
      <g style="fill:#262626;" transform="translate(7.2 208.459697)scale(0.1 -0.1)">
       <use xlink:href="#ArialMT-2212"></use>
       <use x="58.398438" xlink:href="#ArialMT-30"></use>
       <use x="114.013672" xlink:href="#ArialMT-2e"></use>
       <use x="141.796875" xlink:href="#ArialMT-35"></use>
       <use x="197.412109" xlink:href="#ArialMT-30"></use>
      </g>
     </g>
    </g>
    <g id="ytick_4">
     <g id="line2d_19">
      <path clip-path="url(#p55e69b4a79)" d="M 39.501563 173.993083 
L 876.501562 173.993083 
" style="fill:none;stroke:#ffffff;stroke-linecap:round;"></path>
     </g>
     <g id="line2d_20"></g>
     <g id="text_10">
      <!-- −0.25 -->
      <g style="fill:#262626;" transform="translate(7.2 177.57199)scale(0.1 -0.1)">
       <use xlink:href="#ArialMT-2212"></use>
       <use x="58.398438" xlink:href="#ArialMT-30"></use>
       <use x="114.013672" xlink:href="#ArialMT-2e"></use>
       <use x="141.796875" xlink:href="#ArialMT-32"></use>
       <use x="197.412109" xlink:href="#ArialMT-35"></use>
      </g>
     </g>
    </g>
    <g id="ytick_5">
     <g id="line2d_21">
      <path clip-path="url(#p55e69b4a79)" d="M 39.501563 143.105376 
L 876.501562 143.105376 
" style="fill:none;stroke:#ffffff;stroke-linecap:round;"></path>
     </g>
     <g id="line2d_22"></g>
     <g id="text_11">
      <!-- 0.00 -->
      <g style="fill:#262626;" transform="translate(13.040625 146.684282)scale(0.1 -0.1)">
       <use xlink:href="#ArialMT-30"></use>
       <use x="55.615234" xlink:href="#ArialMT-2e"></use>
       <use x="83.398438" xlink:href="#ArialMT-30"></use>
       <use x="139.013672" xlink:href="#ArialMT-30"></use>
      </g>
     </g>
    </g>
    <g id="ytick_6">
     <g id="line2d_23">
      <path clip-path="url(#p55e69b4a79)" d="M 39.501563 112.217668 
L 876.501562 112.217668 
" style="fill:none;stroke:#ffffff;stroke-linecap:round;"></path>
     </g>
     <g id="line2d_24"></g>
     <g id="text_12">
      <!-- 0.25 -->
      <g style="fill:#262626;" transform="translate(13.040625 115.796575)scale(0.1 -0.1)">
       <use xlink:href="#ArialMT-30"></use>
       <use x="55.615234" xlink:href="#ArialMT-2e"></use>
       <use x="83.398438" xlink:href="#ArialMT-32"></use>
       <use x="139.013672" xlink:href="#ArialMT-35"></use>
      </g>
     </g>
    </g>
    <g id="ytick_7">
     <g id="line2d_25">
      <path clip-path="url(#p55e69b4a79)" d="M 39.501563 81.329961 
L 876.501562 81.329961 
" style="fill:none;stroke:#ffffff;stroke-linecap:round;"></path>
     </g>
     <g id="line2d_26"></g>
     <g id="text_13">
      <!-- 0.50 -->
      <g style="fill:#262626;" transform="translate(13.040625 84.908867)scale(0.1 -0.1)">
       <use xlink:href="#ArialMT-30"></use>
       <use x="55.615234" xlink:href="#ArialMT-2e"></use>
       <use x="83.398438" xlink:href="#ArialMT-35"></use>
       <use x="139.013672" xlink:href="#ArialMT-30"></use>
      </g>
     </g>
    </g>
    <g id="ytick_8">
     <g id="line2d_27">
      <path clip-path="url(#p55e69b4a79)" d="M 39.501563 50.442253 
L 876.501562 50.442253 
" style="fill:none;stroke:#ffffff;stroke-linecap:round;"></path>
     </g>
     <g id="line2d_28"></g>
     <g id="text_14">
      <!-- 0.75 -->
      <g style="fill:#262626;" transform="translate(13.040625 54.021159)scale(0.1 -0.1)">
       <use xlink:href="#ArialMT-30"></use>
       <use x="55.615234" xlink:href="#ArialMT-2e"></use>
       <use x="83.398438" xlink:href="#ArialMT-37"></use>
       <use x="139.013672" xlink:href="#ArialMT-35"></use>
      </g>
     </g>
    </g>
    <g id="ytick_9">
     <g id="line2d_29">
      <path clip-path="url(#p55e69b4a79)" d="M 39.501563 19.554545 
L 876.501562 19.554545 
" style="fill:none;stroke:#ffffff;stroke-linecap:round;"></path>
     </g>
     <g id="line2d_30"></g>
     <g id="text_15">
      <!-- 1.00 -->
      <g style="fill:#262626;" transform="translate(13.040625 23.133452)scale(0.1 -0.1)">
       <use xlink:href="#ArialMT-31"></use>
       <use x="55.615234" xlink:href="#ArialMT-2e"></use>
       <use x="83.398438" xlink:href="#ArialMT-30"></use>
       <use x="139.013672" xlink:href="#ArialMT-30"></use>
      </g>
     </g>
    </g>
   </g>
   <g id="line2d_31">
    <path clip-path="url(#p55e69b4a79)" d="M 77.547017 19.554545 
L 85.232967 21.103031 
L 92.918918 25.709664 
L 100.604868 33.258974 
L 108.290819 43.561731 
L 115.976769 56.359692 
L 123.66272 71.332038 
L 131.34867 88.103474 
L 139.03462 106.253617 
L 146.720571 125.327495 
L 154.406521 144.847002 
L 162.092472 164.322837 
L 169.778422 183.266843 
L 177.464372 201.20415 
L 185.150323 217.685123 
L 192.836273 232.296674 
L 200.522224 244.672505 
L 208.208174 254.502428 
L 215.894124 261.540044 
L 223.580075 265.608928 
L 231.266025 266.607102 
L 238.951976 264.509541 
L 246.637926 259.368834 
L 254.323877 251.313809 
L 262.009827 240.546409 
L 269.695777 227.336523 
L 277.381728 212.015253 
L 285.067678 194.966688 
L 292.753629 176.618153 
L 300.439579 157.429573 
L 308.125529 137.881882 
L 315.81148 118.465182 
L 323.49743 99.66612 
L 331.183381 81.955922 
L 338.869331 65.778516 
L 346.555282 51.539365 
L 354.241232 39.595481 
L 361.927182 30.246205 
L 369.613133 23.725895 
L 377.299083 20.197985 
L 384.985034 19.750912 
L 392.670984 22.395883 
L 400.356934 28.0666 
L 408.042885 36.62091 
L 415.728835 47.84439 
L 423.414786 61.455714 
L 431.100736 77.113741 
L 438.786686 94.425886 
L 446.472637 112.958249 
L 454.158587 132.246289 
L 461.844538 151.806526 
L 469.530488 171.148715 
L 477.216439 189.787904 
L 484.902389 207.256932 
L 492.588339 223.117917 
L 500.27429 236.97329 
L 507.96024 248.475734 
L 515.646191 257.336939 
L 523.332141 263.334774 
L 531.018091 266.318918 
L 538.704042 266.214531 
L 546.389992 263.024247 
L 554.075943 256.828036 
L 561.761893 247.78123 
L 569.447843 236.110581 
L 577.133794 222.108638 
L 584.819744 206.126372 
L 592.505695 188.564404 
L 600.191645 169.862947 
L 607.877596 150.490778 
L 615.563546 130.933367 
L 623.249496 111.681179 
L 630.935447 93.21668 
L 638.621397 76.002711 
L 646.307348 60.470752 
L 653.993298 47.010137 
L 661.679248 35.958272 
L 669.365199 27.59219 
L 677.051149 22.121604 
L 684.7371 19.683625 
L 692.42305 20.339385 
L 700.109001 24.072447 
L 707.794951 30.789219 
L 715.480901 40.321341 
L 723.166852 52.429881 
L 730.852802 66.811316 
L 738.538753 83.105164 
L 746.224703 100.902993 
L 753.910653 119.758682 
L 761.596604 139.199587 
L 769.282554 158.738394 
L 776.968505 177.885452 
L 784.654455 196.160584 
L 792.340405 213.105818 
L 800.026356 228.296402 
L 807.712306 241.351566 
L 815.398257 251.944052 
L 823.084207 259.808366 
L 830.770158 264.747361 
L 838.456108 266.637243 
" style="fill:none;stroke:#4c72b0;stroke-linecap:round;stroke-width:1.75;"></path>
   </g>
   <g id="line2d_32">
    <path clip-path="url(#p55e69b4a79)" d="M 77.547017 143.105376 
L 85.232967 135.315016 
L 92.918918 127.55566 
L 100.604868 119.858189 
L 108.290819 112.253234 
L 115.976769 104.771063 
L 123.66272 97.441457 
L 131.34867 90.293577 
L 139.03462 83.355875 
L 146.720571 76.655967 
L 154.406521 70.2205 
L 162.092472 64.075109 
L 169.778422 58.244236 
L 177.464372 52.751085 
L 185.150323 47.617521 
L 192.836273 42.86398 
L 200.522224 38.509372 
L 208.208174 34.571032 
L 215.894124 31.064626 
L 223.580075 28.004122 
L 231.266025 25.401686 
L 238.951976 23.267687 
L 246.637926 21.610609 
L 254.323877 20.437057 
L 262.009827 19.751685 
L 269.695777 19.557233 
L 277.381728 19.854475 
L 285.067678 20.642224 
L 292.753629 21.917343 
L 300.439579 23.674766 
L 308.125529 25.907482 
L 315.81148 28.606632 
L 323.49743 31.761442 
L 331.183381 35.359385 
L 338.869331 39.386117 
L 346.555282 43.825642 
L 354.241232 48.660278 
L 361.927182 53.870776 
L 369.613133 59.43639 
L 377.299083 65.335007 
L 384.985034 71.543126 
L 392.670984 78.036026 
L 400.356934 84.787907 
L 408.042885 91.771878 
L 415.728835 98.960147 
L 423.414786 106.324071 
L 431.100736 113.834407 
L 438.786686 121.461233 
L 446.472637 129.174168 
L 454.158587 136.942575 
L 461.844538 144.735509 
L 469.530488 152.521955 
L 477.216439 160.270896 
L 484.902389 167.951552 
L 492.588339 175.533325 
L 500.27429 182.986046 
L 507.96024 190.280021 
L 515.646191 197.386282 
L 523.332141 204.276518 
L 531.018091 210.923282 
L 538.704042 217.300174 
L 546.389992 223.381783 
L 554.075943 229.143919 
L 561.761893 234.563612 
L 569.447843 239.619351 
L 577.133794 244.290973 
L 584.819744 248.559936 
L 592.505695 252.409175 
L 600.191645 255.823419 
L 607.877596 258.789101 
L 615.563546 261.294359 
L 623.249496 263.32928 
L 630.935447 264.885719 
L 638.621397 265.957505 
L 646.307348 266.540382 
L 653.993298 266.632008 
L 661.679248 266.232036 
L 669.365199 265.342042 
L 677.051149 263.965584 
L 684.7371 262.108133 
L 692.42305 259.777068 
L 700.109001 256.98169 
L 707.794951 253.733119 
L 715.480901 250.04425 
L 723.166852 245.929825 
L 730.852802 241.406142 
L 738.538753 236.491288 
L 746.224703 231.204777 
L 753.910653 225.567612 
L 761.596604 219.602312 
L 769.282554 213.332577 
L 776.968505 206.783304 
L 784.654455 199.980658 
L 792.340405 192.951662 
L 800.026356 185.724237 
L 807.712306 178.327256 
L 815.398257 170.790102 
L 823.084207 163.14271 
L 830.770158 155.415634 
L 838.456108 147.639507 
" style="fill:none;stroke:#55a868;stroke-linecap:round;stroke-width:1.75;"></path>
   </g>
   <g id="line2d_33">
    <path clip-path="url(#p55e69b4a79)" d="M 77.547017 19.554545 
L 85.232967 19.800399 
L 92.918918 20.536967 
L 100.604868 21.761339 
L 108.290819 23.46862 
L 115.976769 25.652032 
L 123.66272 28.302873 
L 131.34867 31.410604 
L 139.03462 34.962852 
L 146.720571 38.94548 
L 154.406521 43.342646 
L 162.092472 48.13683 
L 169.778422 53.308968 
L 177.464372 58.838476 
L 185.150323 64.70335 
L 192.836273 70.880237 
L 200.522224 77.344572 
L 208.208174 84.070604 
L 215.894124 91.031595 
L 223.580075 98.199815 
L 231.266025 105.54676 
L 238.951976 113.043164 
L 246.637926 120.659223 
L 254.323877 128.364599 
L 262.009827 136.12864 
L 269.695777 143.92046 
L 277.381728 151.709022 
L 285.067678 159.463357 
L 292.753629 167.15258 
L 300.439579 174.746114 
L 308.125529 182.213711 
L 315.81148 189.52568 
L 323.49743 196.652892 
L 331.183381 203.567014 
L 338.869331 210.240488 
L 346.555282 216.646807 
L 354.241232 222.760451 
L 361.927182 228.55708 
L 369.613133 234.013616 
L 377.299083 239.108378 
L 384.985034 243.821078 
L 392.670984 248.13293 
L 400.356934 252.026819 
L 408.042885 255.487221 
L 415.728835 258.500381 
L 423.414786 261.054279 
L 431.100736 263.138783 
L 438.786686 264.745578 
L 446.472637 265.868273 
L 454.158587 266.502405 
L 461.844538 266.645455 
L 469.530488 266.296833 
L 477.216439 265.457947 
L 484.902389 264.132133 
L 492.588339 262.324648 
L 500.27429 260.04271 
L 507.96024 257.295398 
L 515.646191 254.093627 
L 523.332141 250.450143 
L 531.018091 246.379476 
L 538.704042 241.897784 
L 546.389992 237.022924 
L 554.075943 231.774295 
L 561.761893 226.172809 
L 569.447843 220.240708 
L 577.133794 214.001659 
L 584.819744 207.480406 
L 592.505695 200.703005 
L 600.191645 193.696381 
L 607.877596 186.488365 
L 615.563546 179.107751 
L 623.249496 171.5838 
L 630.935447 163.946568 
L 638.621397 156.226394 
L 646.307348 148.453943 
L 653.993298 140.660265 
L 661.679248 132.876318 
L 669.365199 125.133021 
L 677.051149 117.461307 
L 684.7371 109.891651 
L 692.42305 102.454119 
L 700.109001 95.178426 
L 707.794951 88.09347 
L 715.480901 81.227399 
L 723.166852 74.607629 
L 730.852802 68.260422 
L 738.538753 62.211126 
L 746.224703 56.483764 
L 753.910653 51.101099 
L 761.596604 46.084626 
L 769.282554 41.454265 
L 776.968505 37.22842 
L 784.654455 33.423977 
L 792.340405 30.056025 
L 800.026356 27.137966 
L 807.712306 24.681445 
L 815.398257 22.696225 
L 823.084207 21.190187 
L 830.770158 20.169353 
L 838.456108 19.637768 
" style="fill:none;stroke:#c44e52;stroke-linecap:round;stroke-width:1.75;"></path>
   </g>
   <g id="line2d_34">
    <path clip-path="url(#p55e69b4a79)" d="M 77.547017 143.105376 
L 85.232967 140.002246 
L 92.918918 136.901073 
L 100.604868 133.803815 
L 108.290819 130.712426 
L 115.976769 127.628856 
L 123.66272 124.555049 
L 131.34867 121.492947 
L 139.03462 118.444481 
L 146.720571 115.411575 
L 154.406521 112.396142 
L 162.092472 109.40008 
L 169.778422 106.425288 
L 177.464372 103.473638 
L 185.150323 100.546986 
L 192.836273 97.647191 
L 200.522224 94.776079 
L 208.208174 91.935456 
L 215.894124 89.127117 
L 223.580075 86.352833 
L 231.266025 83.614362 
L 238.951976 80.913419 
L 246.637926 78.251716 
L 254.323877 75.630929 
L 262.009827 73.052714 
L 269.695777 70.518699 
L 277.381728 68.030482 
L 285.067678 65.589624 
L 292.753629 63.197679 
L 300.439579 60.85615 
L 308.125529 58.566508 
L 315.81148 56.330213 
L 323.49743 54.148664 
L 331.183381 52.02323 
L 338.869331 49.955273 
L 346.555282 47.946083 
L 354.241232 45.996933 
L 361.927182 44.109053 
L 369.613133 42.283622 
L 377.299083 40.52181 
L 384.985034 38.824721 
L 392.670984 37.193418 
L 400.356934 35.628952 
L 408.042885 34.132288 
L 415.728835 32.704369 
L 423.414786 31.346115 
L 431.100736 30.058366 
L 438.786686 28.84194 
L 446.472637 27.697616 
L 454.158587 26.626103 
L 461.844538 25.628069 
L 469.530488 24.704163 
L 477.216439 23.85496 
L 484.902389 23.08099 
L 492.588339 22.382746 
L 500.27429 21.760677 
L 507.96024 21.215159 
L 515.646191 20.746545 
L 523.332141 20.355137 
L 531.018091 20.041172 
L 538.704042 19.804847 
L 546.389992 19.646318 
L 554.075943 19.56568 
L 561.761893 19.562992 
L 569.447843 19.638247 
L 577.133794 19.7914 
L 584.819744 20.022356 
L 592.505695 20.330961 
L 600.191645 20.717037 
L 607.877596 21.180326 
L 615.563546 21.720542 
L 623.249496 22.337338 
L 630.935447 23.030332 
L 638.621397 23.799088 
L 646.307348 24.643114 
L 653.993298 25.56188 
L 661.679248 26.55481 
L 669.365199 27.621272 
L 677.051149 28.760595 
L 684.7371 29.972073 
L 692.42305 31.25491 
L 700.109001 32.608332 
L 707.794951 34.031465 
L 715.480901 35.523408 
L 723.166852 37.083227 
L 730.852802 38.709943 
L 738.538753 40.402524 
L 746.224703 42.159918 
L 753.910653 43.980982 
L 761.596604 45.864591 
L 769.282554 47.809543 
L 776.968505 49.814624 
L 784.654455 51.878567 
L 792.340405 54.000084 
L 800.026356 56.177804 
L 807.712306 58.410365 
L 815.398257 60.696361 
L 823.084207 63.034349 
L 830.770158 65.422862 
L 838.456108 67.860384 
" style="fill:none;stroke:#8172b2;stroke-linecap:round;stroke-width:1.75;"></path>
   </g>
   <g id="line2d_35">
    <path clip-path="url(#p55e69b4a79)" d="M 77.547017 19.554545 
L 85.232967 19.593524 
L 92.918918 19.710424 
L 100.604868 19.905177 
L 108.290819 20.17766 
L 115.976769 20.527703 
L 123.66272 20.955084 
L 131.34867 21.459532 
L 139.03462 22.04073 
L 146.720571 22.698309 
L 154.406521 23.431857 
L 162.092472 24.240911 
L 169.778422 25.124961 
L 177.464372 26.083442 
L 185.150323 27.115756 
L 192.836273 28.221255 
L 200.522224 29.399233 
L 208.208174 30.648953 
L 215.894124 31.96962 
L 223.580075 33.360416 
L 231.266025 34.820443 
L 238.951976 36.348795 
L 246.637926 37.9445 
L 254.323877 39.60655 
L 262.009827 41.333904 
L 269.695777 43.125468 
L 277.381728 44.980113 
L 285.067678 46.896662 
L 292.753629 48.873921 
L 300.439579 50.910624 
L 308.125529 53.005497 
L 315.81148 55.157214 
L 323.49743 57.364427 
L 331.183381 59.625731 
L 338.869331 61.939704 
L 346.555282 64.304887 
L 354.241232 66.719786 
L 361.927182 69.182884 
L 369.613133 71.692619 
L 377.299083 74.247401 
L 384.985034 76.845632 
L 392.670984 79.485684 
L 400.356934 82.165853 
L 408.042885 84.884478 
L 415.728835 87.639846 
L 423.414786 90.430194 
L 431.100736 93.253777 
L 438.786686 96.108827 
L 446.472637 98.993514 
L 454.158587 101.906035 
L 461.844538 104.844558 
L 469.530488 107.80721 
L 477.216439 110.792132 
L 484.902389 113.797456 
L 492.588339 116.821256 
L 500.27429 119.861641 
L 507.96024 122.916703 
L 515.646191 125.98449 
L 523.332141 129.063078 
L 531.018091 132.150526 
L 538.704042 135.2449 
L 546.389992 138.344219 
L 554.075943 141.446541 
L 561.761893 144.549925 
L 569.447843 147.652383 
L 577.133794 150.751972 
L 584.819744 153.846751 
L 592.505695 156.934739 
L 600.191645 160.014001 
L 607.877596 163.082611 
L 615.563546 166.138601 
L 623.249496 169.180059 
L 630.935447 172.205066 
L 638.621397 175.211727 
L 646.307348 178.198117 
L 653.993298 181.162367 
L 661.679248 184.102621 
L 669.365199 187.016994 
L 677.051149 189.903662 
L 684.7371 192.760815 
L 692.42305 195.586614 
L 700.109001 198.379345 
L 707.794951 201.137173 
L 715.480901 203.858386 
L 723.166852 206.541272 
L 730.852802 209.18413 
L 738.538753 211.785299 
L 746.224703 214.343159 
L 753.910653 216.856054 
L 761.596604 219.322414 
L 769.282554 221.740685 
L 776.968505 224.109352 
L 784.654455 226.426904 
L 792.340405 228.691912 
L 800.026356 230.902896 
L 807.712306 233.058487 
L 815.398257 235.157329 
L 823.084207 237.198089 
L 830.770158 239.179487 
L 838.456108 241.100263 
" style="fill:none;stroke:#ccb974;stroke-linecap:round;stroke-width:1.75;"></path>
   </g>
   <g id="patch_3">
    <path d="M 39.501563 279 
L 39.501563 7.2 
" style="fill:none;"></path>
   </g>
   <g id="patch_4">
    <path d="M 876.501562 279 
L 876.501562 7.2 
" style="fill:none;"></path>
   </g>
   <g id="patch_5">
    <path d="M 39.501563 279 
L 876.501563 279 
" style="fill:none;"></path>
   </g>
   <g id="patch_6">
    <path d="M 39.501563 7.2 
L 876.501563 7.2 
" style="fill:none;"></path>
   </g>
   <g id="legend_1">
    <g id="line2d_36">
     <path d="M 48.501563 207.93125 
L 68.501563 207.93125 
" style="fill:none;stroke:#4c72b0;stroke-linecap:round;stroke-width:1.75;"></path>
    </g>
    <g id="line2d_37"></g>
    <g id="text_16">
     <!-- dim 5 -->
     <defs>
      <path d="M 40.234375 0 
L 40.234375 6.546875 
Q 35.296875 -1.171875 25.734375 -1.171875 
Q 19.53125 -1.171875 14.328125 2.25 
Q 9.125 5.671875 6.265625 11.796875 
Q 3.421875 17.921875 3.421875 25.875 
Q 3.421875 33.640625 6 39.96875 
Q 8.59375 46.296875 13.765625 49.65625 
Q 18.953125 53.03125 25.34375 53.03125 
Q 30.03125 53.03125 33.6875 51.046875 
Q 37.359375 49.078125 39.65625 45.90625 
L 39.65625 71.578125 
L 48.390625 71.578125 
L 48.390625 0 
z
M 12.453125 25.875 
Q 12.453125 15.921875 16.640625 10.984375 
Q 20.84375 6.0625 26.5625 6.0625 
Q 32.328125 6.0625 36.34375 10.765625 
Q 40.375 15.484375 40.375 25.140625 
Q 40.375 35.796875 36.265625 40.765625 
Q 32.171875 45.75 26.171875 45.75 
Q 20.3125 45.75 16.375 40.96875 
Q 12.453125 36.1875 12.453125 25.875 
z
" id="ArialMT-64"></path>
      <path d="M 6.640625 61.46875 
L 6.640625 71.578125 
L 15.4375 71.578125 
L 15.4375 61.46875 
z
M 6.640625 0 
L 6.640625 51.859375 
L 15.4375 51.859375 
L 15.4375 0 
z
" id="ArialMT-69"></path>
      <path d="M 6.59375 0 
L 6.59375 51.859375 
L 14.453125 51.859375 
L 14.453125 44.578125 
Q 16.890625 48.390625 20.9375 50.703125 
Q 25 53.03125 30.171875 53.03125 
Q 35.9375 53.03125 39.625 50.640625 
Q 43.3125 48.25 44.828125 43.953125 
Q 50.984375 53.03125 60.84375 53.03125 
Q 68.5625 53.03125 72.703125 48.75 
Q 76.859375 44.484375 76.859375 35.59375 
L 76.859375 0 
L 68.109375 0 
L 68.109375 32.671875 
Q 68.109375 37.9375 67.25 40.25 
Q 66.40625 42.578125 64.15625 43.984375 
Q 61.921875 45.40625 58.890625 45.40625 
Q 53.421875 45.40625 49.796875 41.765625 
Q 46.1875 38.140625 46.1875 30.125 
L 46.1875 0 
L 37.40625 0 
L 37.40625 33.6875 
Q 37.40625 39.546875 35.25 42.46875 
Q 33.109375 45.40625 28.21875 45.40625 
Q 24.515625 45.40625 21.359375 43.453125 
Q 18.21875 41.5 16.796875 37.734375 
Q 15.375 33.984375 15.375 26.90625 
L 15.375 0 
z
" id="ArialMT-6d"></path>
      <path id="ArialMT-20"></path>
     </defs>
     <g style="fill:#262626;" transform="translate(76.501563 211.43125)scale(0.1 -0.1)">
      <use xlink:href="#ArialMT-64"></use>
      <use x="55.615234" xlink:href="#ArialMT-69"></use>
      <use x="77.832031" xlink:href="#ArialMT-6d"></use>
      <use x="161.132812" xlink:href="#ArialMT-20"></use>
      <use x="188.916016" xlink:href="#ArialMT-35"></use>
     </g>
    </g>
    <g id="line2d_38">
     <path d="M 48.501563 222.076562 
L 68.501563 222.076562 
" style="fill:none;stroke:#55a868;stroke-linecap:round;stroke-width:1.75;"></path>
    </g>
    <g id="line2d_39"></g>
    <g id="text_17">
     <!-- dim 6 -->
     <g style="fill:#262626;" transform="translate(76.501563 225.576562)scale(0.1 -0.1)">
      <use xlink:href="#ArialMT-64"></use>
      <use x="55.615234" xlink:href="#ArialMT-69"></use>
      <use x="77.832031" xlink:href="#ArialMT-6d"></use>
      <use x="161.132812" xlink:href="#ArialMT-20"></use>
      <use x="188.916016" xlink:href="#ArialMT-36"></use>
     </g>
    </g>
    <g id="line2d_40">
     <path d="M 48.501563 236.221875 
L 68.501563 236.221875 
" style="fill:none;stroke:#c44e52;stroke-linecap:round;stroke-width:1.75;"></path>
    </g>
    <g id="line2d_41"></g>
    <g id="text_18">
     <!-- dim 7 -->
     <g style="fill:#262626;" transform="translate(76.501563 239.721875)scale(0.1 -0.1)">
      <use xlink:href="#ArialMT-64"></use>
      <use x="55.615234" xlink:href="#ArialMT-69"></use>
      <use x="77.832031" xlink:href="#ArialMT-6d"></use>
      <use x="161.132812" xlink:href="#ArialMT-20"></use>
      <use x="188.916016" xlink:href="#ArialMT-37"></use>
     </g>
    </g>
    <g id="line2d_42">
     <path d="M 48.501563 250.367187 
L 68.501563 250.367187 
" style="fill:none;stroke:#8172b2;stroke-linecap:round;stroke-width:1.75;"></path>
    </g>
    <g id="line2d_43"></g>
    <g id="text_19">
     <!-- dim 8 -->
     <g style="fill:#262626;" transform="translate(76.501563 253.867187)scale(0.1 -0.1)">
      <use xlink:href="#ArialMT-64"></use>
      <use x="55.615234" xlink:href="#ArialMT-69"></use>
      <use x="77.832031" xlink:href="#ArialMT-6d"></use>
      <use x="161.132812" xlink:href="#ArialMT-20"></use>
      <use x="188.916016" xlink:href="#ArialMT-38"></use>
     </g>
    </g>
    <g id="line2d_44">
     <path d="M 48.501563 264.5125 
L 68.501563 264.5125 
" style="fill:none;stroke:#ccb974;stroke-linecap:round;stroke-width:1.75;"></path>
    </g>
    <g id="line2d_45"></g>
    <g id="text_20">
     <!-- dim 9 -->
     <defs>
      <path d="M 5.46875 16.546875 
L 13.921875 17.328125 
Q 14.984375 11.375 18.015625 8.6875 
Q 21.046875 6 25.78125 6 
Q 29.828125 6 32.875 7.859375 
Q 35.9375 9.71875 37.890625 12.8125 
Q 39.84375 15.921875 41.15625 21.1875 
Q 42.484375 26.46875 42.484375 31.9375 
Q 42.484375 32.515625 42.4375 33.6875 
Q 39.796875 29.5 35.234375 26.875 
Q 30.671875 24.265625 25.34375 24.265625 
Q 16.453125 24.265625 10.296875 30.703125 
Q 4.15625 37.15625 4.15625 47.703125 
Q 4.15625 58.59375 10.578125 65.234375 
Q 17 71.875 26.65625 71.875 
Q 33.640625 71.875 39.421875 68.109375 
Q 45.21875 64.359375 48.21875 57.390625 
Q 51.21875 50.4375 51.21875 37.25 
Q 51.21875 23.53125 48.234375 15.40625 
Q 45.265625 7.28125 39.375 3.03125 
Q 33.5 -1.21875 25.59375 -1.21875 
Q 17.1875 -1.21875 11.859375 3.4375 
Q 6.546875 8.109375 5.46875 16.546875 
z
M 41.453125 48.140625 
Q 41.453125 55.71875 37.421875 60.15625 
Q 33.40625 64.59375 27.734375 64.59375 
Q 21.875 64.59375 17.53125 59.8125 
Q 13.1875 55.03125 13.1875 47.40625 
Q 13.1875 40.578125 17.3125 36.296875 
Q 21.4375 32.03125 27.484375 32.03125 
Q 33.59375 32.03125 37.515625 36.296875 
Q 41.453125 40.578125 41.453125 48.140625 
z
" id="ArialMT-39"></path>
     </defs>
     <g style="fill:#262626;" transform="translate(76.501563 268.0125)scale(0.1 -0.1)">
      <use xlink:href="#ArialMT-64"></use>
      <use x="55.615234" xlink:href="#ArialMT-69"></use>
      <use x="77.832031" xlink:href="#ArialMT-6d"></use>
      <use x="161.132812" xlink:href="#ArialMT-20"></use>
      <use x="188.916016" xlink:href="#ArialMT-39"></use>
     </g>
    </g>
   </g>
  </g>
 </g>
 <defs>
  <clipPath id="p55e69b4a79">
   <rect height="271.8" width="837" x="39.501563" y="7.2"></rect>
  </clipPath>
 </defs>
</svg>