<svg xmlns="http://www.w3.org/2000/svg" viewBox="0 0 546 456">
  <defs>
    <style>
      .cls-1 {
        fill: none;
        stroke: #707070;
      }

      .cls-2 {
        fill: #f7f7f7;
      }

      .cls-3 {
        fill: #9db4ff;
      }

      .cls-11, .cls-4 {
        fill: #020000;
        font-size: 20px;
      }

      .cls-4 {
        font-family: Menlo-Regular, Menlo;
      }

      .cls-13, .cls-5 {
        fill: #707070;
      }

      .cls-6 {
        font-size: 10px;
      }

      .cls-7 {
        fill: #10ebfd;
      }

      .cls-8 {
        fill: #ff9d9d;
      }

      .cls-9 {
        fill: #9dffa8;
      }

      .cls-10 {
        fill: #fb9dff;
      }

      .cls-11 {
        font-family: Hack-Regular, Hack;
      }

      .cls-12, .cls-13 {
        stroke: none;
      }
    </style>
  </defs>
  <g id="Group_28" data-name="Group 28" transform="translate(370 54)">
    <line id="Line_132" data-name="Line 132" class="cls-1" y2="16" transform="translate(45.5 99.5)"/>
    <line id="Line_135" data-name="Line 135" class="cls-1" y2="146" transform="translate(45.5 126.5)"/>
    <line id="Line_92" data-name="Line 92" class="cls-1" y2="111" transform="translate(-246.5 161.5)"/>
    <g id="Path_70" data-name="Path 70" class="cls-2" transform="translate(-326 180.606)">
      <path class="cls-12" d="M 158.5641937255859 82.13395690917969 L 0.4999968707561493 82.13395690917969 L 0.4999968707561493 0.4999984502792358 L 158.5641937255859 0.4999984502792358 L 158.5641937255859 82.13395690917969 Z"/>
      <path class="cls-13" d="M 1 1 L 1 81.63395690917969 L 158.0641937255859 81.63395690917969 L 158.0641937255859 1 L 1 1 M 0 0 L 159.0641937255859 0 L 159.0641937255859 82.63395690917969 L 0 82.63395690917969 L 0 0 Z"/>
    </g>
    <rect id="Rectangle_34" data-name="Rectangle 34" class="cls-3" width="208" height="40" transform="translate(-350 280)"/>
    <text id="Input_Embedding" data-name="Input Embedding" class="cls-4" transform="translate(-246 307)"><tspan x="-90.308" y="0">Input Embedding</tspan></text>
    <path id="Path_68" data-name="Path 68" class="cls-3" d="M0,0H208V40H0Z" transform="translate(-58 280)"/>
    <text id="Output_Embedding" data-name="Output Embedding" class="cls-4" transform="translate(46 307)"><tspan x="-96.328" y="0">Output Embedding</tspan></text>
    <g id="Path_41" data-name="Path 41" class="cls-5" transform="translate(-246.5 330.893) rotate(45)">
      <path class="cls-12" d="M 4.48930025100708 10.31504917144775 L 0.8653011322021484 0.8604671359062195 L 10.36387062072754 4.440470218658447 L 7.402174472808838 7.402174949645996 L 4.48930025100708 10.31504917144775 Z"/>
      <path class="cls-13" d="M 1.730582237243652 1.720914840698242 L 4.680450439453125 9.416769027709961 L 7.048614501953125 7.048604965209961 L 9.462241172790527 4.6349778175354 L 1.730582237243652 1.720914840698242 M 4.76837158203125e-06 -4.76837158203125e-06 L 11.26548385620117 4.245954990386963 L 7.755724430084229 7.755715370178223 L 4.298134326934814 11.21330547332764 L 4.76837158203125e-06 -4.76837158203125e-06 Z"/>
    </g>
    <g id="Group_15" data-name="Group 15" transform="translate(-246.5 331.521)">
      <line id="Line_7" data-name="Line 7" class="cls-1" y2="30"/>
    </g>
    <g id="Path_42" data-name="Path 42" class="cls-5" transform="translate(-246.5 330.893) rotate(45)">
      <path class="cls-12" d="M 4.48930025100708 10.31504917144775 L 0.8653011322021484 0.8604671359062195 L 10.36387062072754 4.440470218658447 L 7.402174472808838 7.402174949645996 L 4.48930025100708 10.31504917144775 Z"/>
      <path class="cls-13" d="M 1.730582237243652 1.720914840698242 L 4.680450439453125 9.416769027709961 L 7.048614501953125 7.048604965209961 L 9.462241172790527 4.6349778175354 L 1.730582237243652 1.720914840698242 M 4.76837158203125e-06 -4.76837158203125e-06 L 11.26548385620117 4.245954990386963 L 7.755724430084229 7.755715370178223 L 4.298134326934814 11.21330547332764 L 4.76837158203125e-06 -4.76837158203125e-06 Z"/>
    </g>
    <g id="Group_16" data-name="Group 16" transform="translate(-246.5 331.521)">
      <line id="Line_7-2" data-name="Line 7" class="cls-1" y2="30"/>
    </g>
    <g id="Path_43" data-name="Path 43" class="cls-5" transform="translate(45.5 327.893) rotate(45)">
      <path class="cls-12" d="M 4.48930025100708 10.31504917144775 L 0.8653011322021484 0.8604671359062195 L 10.36387062072754 4.440470218658447 L 7.402174472808838 7.402174949645996 L 4.48930025100708 10.31504917144775 Z"/>
      <path class="cls-13" d="M 1.730582237243652 1.720914840698242 L 4.680450439453125 9.416769027709961 L 7.048614501953125 7.048604965209961 L 9.462241172790527 4.6349778175354 L 1.730582237243652 1.720914840698242 M 4.76837158203125e-06 -4.76837158203125e-06 L 11.26548385620117 4.245954990386963 L 7.755724430084229 7.755715370178223 L 4.298134326934814 11.21330547332764 L 4.76837158203125e-06 -4.76837158203125e-06 Z"/>
    </g>
    <g id="Group_17" data-name="Group 17" transform="translate(45.5 328.521)">
      <line id="Line_7-3" data-name="Line 7" class="cls-1" y2="30"/>
    </g>
    <g id="Path_44" data-name="Path 44" class="cls-5" transform="translate(45.5 327.893) rotate(45)">
      <path class="cls-12" d="M 4.48930025100708 10.31504917144775 L 0.8653011322021484 0.8604671359062195 L 10.36387062072754 4.440470218658447 L 7.402174472808838 7.402174949645996 L 4.48930025100708 10.31504917144775 Z"/>
      <path class="cls-13" d="M 1.730582237243652 1.720914840698242 L 4.680450439453125 9.416769027709961 L 7.048614501953125 7.048604965209961 L 9.462241172790527 4.6349778175354 L 1.730582237243652 1.720914840698242 M 4.76837158203125e-06 -4.76837158203125e-06 L 11.26548385620117 4.245954990386963 L 7.755724430084229 7.755715370178223 L 4.298134326934814 11.21330547332764 L 4.76837158203125e-06 -4.76837158203125e-06 Z"/>
    </g>
    <g id="Group_18" data-name="Group 18" transform="translate(45.5 328.521)">
      <line id="Line_7-4" data-name="Line 7" class="cls-1" y2="30"/>
    </g>
    <text id="Inputs" class="cls-4" transform="translate(-246 390)"><tspan x="-36.123" y="0">Inputs</tspan></text>
    <text id="Outputs_shifted_right_" data-name="Outputs
(shifted right)" class="cls-4" transform="translate(46 385)"><tspan x="-42.144" y="0">Outputs</tspan><tspan class="cls-6"><tspan x="-45.154" y="14">(shifted right)</tspan></tspan></text>
    <path id="Path_46" data-name="Path 46" class="cls-7" d="M0,0H145V15H0Z" transform="translate(-319 243)"/>
    <rect id="Rectangle_38" data-name="Rectangle 38" class="cls-8" width="145" height="15" transform="translate(-319 205)"/>
    <rect id="Rectangle_37" data-name="Rectangle 37" class="cls-9" width="145" height="15" transform="translate(-319 186)"/>
    <text id="N_x" data-name="N x" class="cls-4" transform="translate(-351 237)"><tspan x="-18.062" y="0">N x</tspan></text>
    <line id="Line_115" data-name="Line 115" class="cls-1" x2="147.5" transform="translate(-247 161.5)"/>
    <rect id="Rectangle_37-2" data-name="Rectangle 37" class="cls-10" width="145" height="15" transform="translate(-27 108)"/>
    <rect id="Rectangle_40" data-name="Rectangle 40" class="cls-7" width="145" height="52" transform="translate(-27 40)"/>
    <text id="Softmax" class="cls-11" transform="translate(47 73)"><tspan x="-42.144" y="0">Softmax</tspan></text>
    <g id="Path_64" data-name="Path 64" class="cls-5" transform="translate(45.5 5) rotate(45)">
      <path class="cls-12" d="M 4.48930025100708 10.31504917144775 L 0.8653011322021484 0.8604671359062195 L 10.36387062072754 4.440470218658447 L 7.402174472808838 7.402174949645996 L 4.48930025100708 10.31504917144775 Z"/>
      <path class="cls-13" d="M 1.730582237243652 1.720914840698242 L 4.680450439453125 9.416769027709961 L 7.048614501953125 7.048604965209961 L 9.462241172790527 4.6349778175354 L 1.730582237243652 1.720914840698242 M 4.76837158203125e-06 -4.76837158203125e-06 L 11.26548385620117 4.245954990386963 L 7.755724430084229 7.755715370178223 L 4.298134326934814 11.21330547332764 L 4.76837158203125e-06 -4.76837158203125e-06 Z"/>
    </g>
    <line id="Line_133" data-name="Line 133" class="cls-1" y2="16" transform="translate(45.518 6.627)"/>
    <line id="Line_134" data-name="Line 134" class="cls-1" x1="0.018" y2="25.873" transform="translate(45.5 6.627)"/>
    <text id="Output_Probabilities" data-name="Output
Probabilities" class="cls-4" transform="translate(46 -35)"><tspan x="-36.123" y="0">Output</tspan><tspan x="-78.267" y="24">Probabilities</tspan></text>
    <g id="Path_71" data-name="Path 71" class="cls-2" transform="translate(-34 139.167)">
      <path class="cls-12" d="M 158.5641937255859 123.5723266601562 L 0.4999968707561493 123.5723266601562 L 0.4999968707561493 0.500007152557373 L 158.5641937255859 0.500007152557373 L 158.5641937255859 123.5723266601562 Z"/>
      <path class="cls-13" d="M 1 1 L 1 123.0723342895508 L 158.0641937255859 123.0723342895508 L 158.0641937255859 1 L 1 1 M 0 0 L 159.0641937255859 0 L 159.0641937255859 124.0723342895508 L 0 124.0723342895508 L 0 0 Z"/>
    </g>
    <rect id="Rectangle_43" data-name="Rectangle 43" class="cls-9" width="145" height="15" transform="translate(-319 224)"/>
    <path id="Path_73" data-name="Path 73" class="cls-7" d="M0,0H145V15H0Z" transform="translate(-27 203)"/>
    <rect id="Rectangle_44" data-name="Rectangle 44" class="cls-8" width="145" height="15" transform="translate(-27 165)"/>
    <rect id="Rectangle_45" data-name="Rectangle 45" class="cls-9" width="145" height="15" transform="translate(-27 146)"/>
    <rect id="Rectangle_46" data-name="Rectangle 46" class="cls-9" width="145" height="15" transform="translate(-27 184)"/>
    <path id="Path_74" data-name="Path 74" class="cls-7" d="M0,0H145V15H0Z" transform="translate(-27 241)"/>
    <rect id="Rectangle_47" data-name="Rectangle 47" class="cls-9" width="145" height="15" transform="translate(-27 222)"/>
    <line id="Line_136" data-name="Line 136" class="cls-1" y2="49" transform="translate(-99.5 161.5)"/>
    <line id="Line_137" data-name="Line 137" class="cls-1" x2="66" transform="translate(-99.5 210.5)"/>
    <text id="N_x-2" data-name="N x" class="cls-4" transform="translate(157 206)"><tspan x="-18.062" y="0">N x</tspan></text>
  </g>
</svg>
