<svg xmlns="http://www.w3.org/2000/svg" viewBox="0 0 821.192 360.107"><defs><style>.a,.l,.w{fill:#95abf4;}.b,.d{fill:#020000;}.b,.e,.p,.s{font-size:20px;}.b,.e,.f,.p{font-family:Menlo-Regular, Menlo;}.c,.n,.x{fill:#9dffa8;}.d,.f{font-size:15px;}.d{font-family:Menlo-Italic, Menlo;font-style:italic;}.g,.h{fill:#fff;}.g,.k{stroke:#707070;}.h{stroke:#fff;}.i,.p{fill:#fb9dff;}.j,.v{fill:#707070;}.k,.m,.o,.u{fill:none;}.m{stroke:#95abf4;}.o{stroke:#9dffa8;}.q{fill:#10ebfd;}.r{fill:#000;}.s{font-family:Hack-Regular, Hack;}.t,.v,.w,.x{stroke:none;}</style></defs><g transform="translate(-60 -34.893)"><path class="a" d="M0,0H40V40H0Z" transform="translate(64 60)"/><text class="b" transform="translate(84 87)"><tspan x="-6.021" y="0">Q</tspan></text><rect class="c" width="40" height="40" transform="translate(64 154)"/><text class="b" transform="translate(83 181)"><tspan x="-6.021" y="0">K</tspan></text><text class="d" transform="translate(84 115)"><tspan x="-22.577" y="0">q . d</tspan></text><text class="d" transform="translate(83 209)"><tspan x="-22.577" y="0">n . d</tspan></text><text class="e" transform="translate(366 139)"><tspan x="0" y="0">k2</tspan></text><text class="e" transform="translate(538 133)"><tspan x="0" y="0">q1</tspan></text><text class="f" transform="translate(124 85)"><tspan x="0" y="0">=</tspan></text><text class="f" transform="translate(123 179)"><tspan x="0" y="0">=</tspan></text><g class="g" transform="translate(150 55)"><rect class="t" width="48" height="48"/><rect class="u" x="0.5" y="0.5" width="47" height="47"/></g><g class="h" transform="translate(155.878 47)"><rect class="t" width="35.265" height="66"/><rect class="u" x="0.5" y="0.5" width="34.265" height="65"/></g><text class="e" transform="translate(162 74)"><tspan x="0" y="0">q1</tspan><tspan x="0" y="24">q2</tspan></text><path class="i" d="M0,0H40V40H0Z" transform="translate(64 265)"/><text class="b" transform="translate(84 292)"><tspan x="-6.021" y="0">V</tspan></text><text class="d" transform="translate(83 320)"><tspan x="-22.577" y="0">n . v</tspan></text><text class="f" transform="translate(123 287)"><tspan x="0" y="0">=</tspan></text><g class="g" transform="translate(149 134)"><rect class="t" width="49" height="76"/><rect class="u" x="0.5" y="0.5" width="48" height="75"/></g><g class="h" transform="translate(155 129)"><rect class="t" width="36" height="91"/><rect class="u" x="0.5" y="0.5" width="35" height="90"/></g><text class="e" transform="translate(161 155)"><tspan x="0" y="0">k1</tspan><tspan x="0" y="24">k2</tspan><tspan x="0" y="48">k3</tspan></text><g class="j" transform="translate(457.5 34.893) rotate(45)"><path class="t" d="M 4.48930025100708 10.31504917144775 L 0.8653011322021484 0.8604671359062195 L 10.36387062072754 4.440470218658447 L 7.402174472808838 7.402174949645996 L 4.48930025100708 10.31504917144775 Z"/><path class="v" d="M 1.730582237243652 1.720914840698242 L 4.680450439453125 9.416769027709961 L 7.048614501953125 7.048604965209961 L 9.462241172790527 4.6349778175354 L 1.730582237243652 1.720914840698242 M 4.76837158203125e-06 -4.76837158203125e-06 L 11.26548385620117 4.245954990386963 L 7.755724430084229 7.755715370178223 L 4.298134326934814 11.21330547332764 L 4.76837158203125e-06 -4.76837158203125e-06 Z"/></g><g transform="translate(379.449 35.521)"><line class="k" y2="161.409" transform="translate(78.051)"/></g><g class="j" transform="translate(619.537 196.893) rotate(135)"><path class="t" d="M 4.48930025100708 10.31504917144775 L 0.8653011322021484 0.8604671359062195 L 10.36387062072754 4.440470218658447 L 7.402174472808838 7.402174949645996 L 4.48930025100708 10.31504917144775 Z"/><path class="v" d="M 1.730582237243652 1.720914840698242 L 4.680450439453125 9.416769027709961 L 7.048614501953125 7.048604965209961 L 9.462241172790527 4.6349778175354 L 1.730582237243652 1.720914840698242 M 4.76837158203125e-06 -4.76837158203125e-06 L 11.26548385620117 4.245954990386963 L 7.755724430084229 7.755715370178223 L 4.298134326934814 11.21330547332764 L 4.76837158203125e-06 -4.76837158203125e-06 Z"/></g><g transform="translate(618.909 118.842) rotate(90)"><line class="k" y2="161.409" transform="translate(78.051)"/></g><g class="j" transform="translate(365.467 274.003) rotate(-85)"><path class="t" d="M 4.48930025100708 10.31504917144775 L 0.8653011322021484 0.8604671359062195 L 10.36387062072754 4.440470218658447 L 7.402174472808838 7.402174949645996 L 4.48930025100708 10.31504917144775 Z"/><path class="v" d="M 1.730582237243652 1.720914840698242 L 4.680450439453125 9.416769027709961 L 7.048614501953125 7.048604965209961 L 9.462241172790527 4.6349778175354 L 1.730582237243652 1.720914840698242 M 4.76837158203125e-06 -4.76837158203125e-06 L 11.26548385620117 4.245954990386963 L 7.755724430084229 7.755715370178223 L 4.298134326934814 11.21330547332764 L 4.76837158203125e-06 -4.76837158203125e-06 Z"/></g><g transform="matrix(-0.643, -0.766, 0.766, -0.643, 416.117, 333.39)"><line class="k" y2="120.427" transform="translate(78.051)"/></g><g class="l" transform="translate(601.698 123.114) rotate(108)"><path class="t" d="M 4.48930025100708 10.31504917144775 L 0.8653011322021484 0.8604671359062195 L 10.36387062072754 4.440470218658447 L 7.402174472808838 7.402174949645996 L 4.48930025100708 10.31504917144775 Z"/><path class="w" d="M 1.730582237243652 1.720914840698242 L 4.680450439453125 9.416769027709961 L 7.048614501953125 7.048604965209961 L 9.462241172790527 4.6349778175354 L 1.730582237243652 1.720914840698242 M 4.76837158203125e-06 -4.76837158203125e-06 L 11.26548385620117 4.245954990386963 L 7.755724430084229 7.755715370178223 L 4.298134326934814 11.21330547332764 L 4.76837158203125e-06 -4.76837158203125e-06 Z"/></g><g transform="matrix(0.454, 0.891, -0.891, 0.454, 565.704, 53.855)"><line class="m" y2="161.409" transform="translate(78.051)"/></g><g class="l" transform="translate(402.826 346.05) rotate(-115)"><path class="t" d="M 4.48930025100708 10.31504917144775 L 0.8653011322021484 0.8604671359062195 L 10.36387062072754 4.440470218658447 L 7.402174472808838 7.402174949645996 L 4.48930025100708 10.31504917144775 Z"/><path class="w" d="M 1.730582237243652 1.720914840698242 L 4.680450439453125 9.416769027709961 L 7.048614501953125 7.048604965209961 L 9.462241172790527 4.6349778175354 L 1.730582237243652 1.720914840698242 M 4.76837158203125e-06 -4.76837158203125e-06 L 11.26548385620117 4.245954990386963 L 7.755724430084229 7.755715370178223 L 4.298134326934814 11.21330547332764 L 4.76837158203125e-06 -4.76837158203125e-06 Z"/></g><g transform="matrix(-0.94, -0.342, 0.342, -0.94, 476.384, 372.156)"><line class="m" y2="161.409" transform="translate(78.051)"/></g><g class="l" transform="translate(313.099 264.168) rotate(-70)"><path class="t" d="M 4.48930025100708 10.31504917144775 L 0.8653011322021484 0.8604671359062195 L 10.36387062072754 4.440470218658447 L 7.402174472808838 7.402174949645996 L 4.48930025100708 10.31504917144775 Z"/><path class="w" d="M 1.730582237243652 1.720914840698242 L 4.680450439453125 9.416769027709961 L 7.048614501953125 7.048604965209961 L 9.462241172790527 4.6349778175354 L 1.730582237243652 1.720914840698242 M 4.76837158203125e-06 -4.76837158203125e-06 L 11.26548385620117 4.245954990386963 L 7.755724430084229 7.755715370178223 L 4.298134326934814 11.21330547332764 L 4.76837158203125e-06 -4.76837158203125e-06 Z"/></g><g transform="translate(346.653 334.641) rotate(-115)"><line class="m" y2="161.409" transform="translate(78.051)"/></g><g class="n" transform="translate(592.17 148.094) rotate(115)"><path class="t" d="M 4.48930025100708 10.31504917144775 L 0.8653011322021484 0.8604671359062195 L 10.36387062072754 4.440470218658447 L 7.402174472808838 7.402174949645996 L 4.48930025100708 10.31504917144775 Z"/><path class="x" d="M 1.730582237243652 1.720914840698242 L 4.680450439453125 9.416769027709961 L 7.048614501953125 7.048604965209961 L 9.462241172790527 4.6349778175354 L 1.730582237243652 1.720914840698242 M 4.76837158203125e-06 -4.76837158203125e-06 L 11.26548385620117 4.245954990386963 L 7.755724430084229 7.755715370178223 L 4.298134326934814 11.21330547332764 L 4.76837158203125e-06 -4.76837158203125e-06 Z"/></g><g transform="translate(564.724 74.52) rotate(70)"><line class="o" y2="141.937" transform="translate(78.525)"/></g><g class="n" transform="translate(367.36 88.898) rotate(5)"><path class="t" d="M 4.48930025100708 10.31504917144775 L 0.8653011322021484 0.8604671359062195 L 10.36387062072754 4.440470218658447 L 7.402174472808838 7.402174949645996 L 4.48930025100708 10.31504917144775 Z"/><path class="x" d="M 1.730582237243652 1.720914840698242 L 4.680450439453125 9.416769027709961 L 7.048614501953125 7.048604965209961 L 9.462241172790527 4.6349778175354 L 1.730582237243652 1.720914840698242 M 4.76837158203125e-06 -4.76837158203125e-06 L 11.26548385620117 4.245954990386963 L 7.755724430084229 7.755715370178223 L 4.298134326934814 11.21330547332764 L 4.76837158203125e-06 -4.76837158203125e-06 Z"/></g><g transform="translate(307.61 139.853) rotate(-40)"><line class="o" y2="141.937" transform="translate(78.525)"/></g><text class="e" transform="translate(566 182)"><tspan x="0" y="0">k1</tspan></text><text class="e" transform="translate(324 238)"><tspan x="0" y="0">q2</tspan></text><text class="e" transform="translate(423 324)"><tspan x="0" y="0">q3</tspan></text><g class="g" transform="translate(686 151)"><rect class="t" width="195.192" height="80.581"/><rect class="u" x="0.5" y="0.5" width="194.192" height="79.581"/></g><g class="h" transform="translate(696.14 145)"><rect class="t" width="176.18" height="91.581"/><rect class="u" x="0.5" y="0.5" width="175.18" height="90.581"/></g><text class="p" transform="translate(694 176)"><tspan class="q" x="0" y="0">0.8</tspan><tspan class="r" y="0"> </tspan><tspan class="i" y="0">v1</tspan><tspan class="r" y="0" xml:space="preserve"> + </tspan><tspan class="q" y="0">0.1</tspan><tspan class="r" y="0"> </tspan><tspan class="i" y="0">v2</tspan><tspan class="q" x="0" y="24">0.3</tspan><tspan class="r" y="24"> </tspan><tspan class="i" y="24">v1</tspan><tspan class="r" y="24" xml:space="preserve"> + </tspan><tspan class="q" y="24">0.7</tspan><tspan class="r" y="24"> </tspan><tspan class="i" y="24">v2</tspan><tspan class="q" x="0" y="48">0.4</tspan><tspan class="r" y="48"> </tspan><tspan class="i" y="48">v2</tspan><tspan class="r" y="48" xml:space="preserve"> + </tspan><tspan class="q" y="48">0.6</tspan><tspan class="r" y="48"> </tspan><tspan class="i" y="48">v2</tspan></text><text class="s" transform="translate(114 390)"><tspan x="0" y="0">(a)</tspan></text><text class="s" transform="translate(457 390)"><tspan x="0" y="0">(b)</tspan></text><text class="s" transform="translate(766 390)"><tspan x="0" y="0">(c)</tspan></text><g class="g" transform="translate(149 242)"><rect class="t" width="49" height="76"/><rect class="u" x="0.5" y="0.5" width="48" height="75"/></g><g class="h" transform="translate(155 237)"><rect class="t" width="36" height="91"/><rect class="u" x="0.5" y="0.5" width="35" height="90"/></g><text class="e" transform="translate(161 263)"><tspan x="0" y="0">v1</tspan><tspan x="0" y="24">v2</tspan><tspan x="0" y="48">v3</tspan></text></g></svg>