<svg height="302.345312pt" version="1.1" viewBox="0 0 878.140625 302.345312" width="878.140625pt" xmlns="http://www.w3.org/2000/svg" xmlns:xlink="http://www.w3.org/1999/xlink" style="width: 100%; height: 100%;">
 <defs>
  <style type="text/css">
*{stroke-linecap:butt;stroke-linejoin:round;}
  </style>
 </defs>
 <g id="figure_1">
  <g id="patch_1">
   <path d="M 0 302.345312 
L 878.140625 302.345312 
L 878.140625 0 
L 0 0 
z
" style="fill:none;"></path>
  </g>
  <g id="axes_1">
   <g id="patch_2">
    <path d="M 33.940625 279 
L 870.940625 279 
L 870.940625 7.2 
L 33.940625 7.2 
z
" style="fill:#eaeaf2;"></path>
   </g>
   <g id="matplotlib.axis_1">
    <g id="xtick_1">
     <g id="line2d_1">
      <path clip-path="url(#paf08b70a0d)" d="M 71.98608 279 
L 71.98608 7.2 
" style="fill:none;stroke:#ffffff;stroke-linecap:round;"></path>
     </g>
     <g id="line2d_2"></g>
     <g id="text_1">
      <!-- 0 -->
      <defs>
       <path d="M 4.15625 35.296875 
Q 4.15625 48 6.765625 55.734375 
Q 9.375 63.484375 14.515625 67.671875 
Q 19.671875 71.875 27.484375 71.875 
Q 33.25 71.875 37.59375 69.546875 
Q 41.9375 67.234375 44.765625 62.859375 
Q 47.609375 58.5 49.21875 52.21875 
Q 50.828125 45.953125 50.828125 35.296875 
Q 50.828125 22.703125 48.234375 14.96875 
Q 45.65625 7.234375 40.5 3 
Q 35.359375 -1.21875 27.484375 -1.21875 
Q 17.140625 -1.21875 11.234375 6.203125 
Q 4.15625 15.140625 4.15625 35.296875 
z
M 13.1875 35.296875 
Q 13.1875 17.671875 17.3125 11.828125 
Q 21.4375 6 27.484375 6 
Q 33.546875 6 37.671875 11.859375 
Q 41.796875 17.71875 41.796875 35.296875 
Q 41.796875 52.984375 37.671875 58.78125 
Q 33.546875 64.59375 27.390625 64.59375 
Q 21.34375 64.59375 17.71875 59.46875 
Q 13.1875 52.9375 13.1875 35.296875 
z
" id="ArialMT-30"></path>
      </defs>
      <g style="fill:#262626;" transform="translate(69.205611 293.157812)scale(0.1 -0.1)">
       <use xlink:href="#ArialMT-30"></use>
      </g>
     </g>
    </g>
    <g id="xtick_2">
     <g id="line2d_3">
      <path clip-path="url(#paf08b70a0d)" d="M 225.705088 279 
L 225.705088 7.2 
" style="fill:none;stroke:#ffffff;stroke-linecap:round;"></path>
     </g>
     <g id="line2d_4"></g>
     <g id="text_2">
      <!-- 20 -->
      <defs>
       <path d="M 50.34375 8.453125 
L 50.34375 0 
L 3.03125 0 
Q 2.9375 3.171875 4.046875 6.109375 
Q 5.859375 10.9375 9.828125 15.625 
Q 13.8125 20.3125 21.34375 26.46875 
Q 33.015625 36.03125 37.109375 41.625 
Q 41.21875 47.21875 41.21875 52.203125 
Q 41.21875 57.421875 37.46875 61 
Q 33.734375 64.59375 27.734375 64.59375 
Q 21.390625 64.59375 17.578125 60.78125 
Q 13.765625 56.984375 13.71875 50.25 
L 4.6875 51.171875 
Q 5.609375 61.28125 11.65625 66.578125 
Q 17.71875 71.875 27.9375 71.875 
Q 38.234375 71.875 44.234375 66.15625 
Q 50.25 60.453125 50.25 52 
Q 50.25 47.703125 48.484375 43.546875 
Q 46.734375 39.40625 42.65625 34.8125 
Q 38.578125 30.21875 29.109375 22.21875 
Q 21.1875 15.578125 18.9375 13.203125 
Q 16.703125 10.84375 15.234375 8.453125 
z
" id="ArialMT-32"></path>
      </defs>
      <g style="fill:#262626;" transform="translate(220.14415 293.157812)scale(0.1 -0.1)">
       <use xlink:href="#ArialMT-32"></use>
       <use x="55.615234" xlink:href="#ArialMT-30"></use>
      </g>
     </g>
    </g>
    <g id="xtick_3">
     <g id="line2d_5">
      <path clip-path="url(#paf08b70a0d)" d="M 379.424096 279 
L 379.424096 7.2 
" style="fill:none;stroke:#ffffff;stroke-linecap:round;"></path>
     </g>
     <g id="line2d_6"></g>
     <g id="text_3">
      <!-- 40 -->
      <defs>
       <path d="M 32.328125 0 
L 32.328125 17.140625 
L 1.265625 17.140625 
L 1.265625 25.203125 
L 33.9375 71.578125 
L 41.109375 71.578125 
L 41.109375 25.203125 
L 50.78125 25.203125 
L 50.78125 17.140625 
L 41.109375 17.140625 
L 41.109375 0 
z
M 32.328125 25.203125 
L 32.328125 57.46875 
L 9.90625 25.203125 
z
" id="ArialMT-34"></path>
      </defs>
      <g style="fill:#262626;" transform="translate(373.863159 293.157812)scale(0.1 -0.1)">
       <use xlink:href="#ArialMT-34"></use>
       <use x="55.615234" xlink:href="#ArialMT-30"></use>
      </g>
     </g>
    </g>
    <g id="xtick_4">
     <g id="line2d_7">
      <path clip-path="url(#paf08b70a0d)" d="M 533.143104 279 
L 533.143104 7.2 
" style="fill:none;stroke:#ffffff;stroke-linecap:round;"></path>
     </g>
     <g id="line2d_8"></g>
     <g id="text_4">
      <!-- 60 -->
      <defs>
       <path d="M 49.75 54.046875 
L 41.015625 53.375 
Q 39.84375 58.546875 37.703125 60.890625 
Q 34.125 64.65625 28.90625 64.65625 
Q 24.703125 64.65625 21.53125 62.3125 
Q 17.390625 59.28125 14.984375 53.46875 
Q 12.59375 47.65625 12.5 36.921875 
Q 15.671875 41.75 20.265625 44.09375 
Q 24.859375 46.4375 29.890625 46.4375 
Q 38.671875 46.4375 44.84375 39.96875 
Q 51.03125 33.5 51.03125 23.25 
Q 51.03125 16.5 48.125 10.71875 
Q 45.21875 4.9375 40.140625 1.859375 
Q 35.0625 -1.21875 28.609375 -1.21875 
Q 17.625 -1.21875 10.6875 6.859375 
Q 3.765625 14.9375 3.765625 33.5 
Q 3.765625 54.25 11.421875 63.671875 
Q 18.109375 71.875 29.4375 71.875 
Q 37.890625 71.875 43.28125 67.140625 
Q 48.6875 62.40625 49.75 54.046875 
z
M 13.875 23.1875 
Q 13.875 18.65625 15.796875 14.5 
Q 17.71875 10.359375 21.1875 8.171875 
Q 24.65625 6 28.46875 6 
Q 34.03125 6 38.03125 10.484375 
Q 42.046875 14.984375 42.046875 22.703125 
Q 42.046875 30.125 38.078125 34.390625 
Q 34.125 38.671875 28.125 38.671875 
Q 22.171875 38.671875 18.015625 34.390625 
Q 13.875 30.125 13.875 23.1875 
z
" id="ArialMT-36"></path>
      </defs>
      <g style="fill:#262626;" transform="translate(527.582167 293.157812)scale(0.1 -0.1)">
       <use xlink:href="#ArialMT-36"></use>
       <use x="55.615234" xlink:href="#ArialMT-30"></use>
      </g>
     </g>
    </g>
    <g id="xtick_5">
     <g id="line2d_9">
      <path clip-path="url(#paf08b70a0d)" d="M 686.862113 279 
L 686.862113 7.2 
" style="fill:none;stroke:#ffffff;stroke-linecap:round;"></path>
     </g>
     <g id="line2d_10"></g>
     <g id="text_5">
      <!-- 80 -->
      <defs>
       <path d="M 17.671875 38.8125 
Q 12.203125 40.828125 9.5625 44.53125 
Q 6.9375 48.25 6.9375 53.421875 
Q 6.9375 61.234375 12.546875 66.546875 
Q 18.171875 71.875 27.484375 71.875 
Q 36.859375 71.875 42.578125 66.421875 
Q 48.296875 60.984375 48.296875 53.171875 
Q 48.296875 48.1875 45.671875 44.5 
Q 43.0625 40.828125 37.75 38.8125 
Q 44.34375 36.671875 47.78125 31.875 
Q 51.21875 27.09375 51.21875 20.453125 
Q 51.21875 11.28125 44.71875 5.03125 
Q 38.234375 -1.21875 27.640625 -1.21875 
Q 17.046875 -1.21875 10.546875 5.046875 
Q 4.046875 11.328125 4.046875 20.703125 
Q 4.046875 27.6875 7.59375 32.390625 
Q 11.140625 37.109375 17.671875 38.8125 
z
M 15.921875 53.71875 
Q 15.921875 48.640625 19.1875 45.40625 
Q 22.46875 42.1875 27.6875 42.1875 
Q 32.765625 42.1875 36.015625 45.375 
Q 39.265625 48.578125 39.265625 53.21875 
Q 39.265625 58.0625 35.90625 61.359375 
Q 32.5625 64.65625 27.59375 64.65625 
Q 22.5625 64.65625 19.234375 61.421875 
Q 15.921875 58.203125 15.921875 53.71875 
z
M 13.09375 20.65625 
Q 13.09375 16.890625 14.875 13.375 
Q 16.65625 9.859375 20.171875 7.921875 
Q 23.6875 6 27.734375 6 
Q 34.03125 6 38.125 10.046875 
Q 42.234375 14.109375 42.234375 20.359375 
Q 42.234375 26.703125 38.015625 30.859375 
Q 33.796875 35.015625 27.4375 35.015625 
Q 21.234375 35.015625 17.15625 30.90625 
Q 13.09375 26.8125 13.09375 20.65625 
z
" id="ArialMT-38"></path>
      </defs>
      <g style="fill:#262626;" transform="translate(681.301175 293.157812)scale(0.1 -0.1)">
       <use xlink:href="#ArialMT-38"></use>
       <use x="55.615234" xlink:href="#ArialMT-30"></use>
      </g>
     </g>
    </g>
    <g id="xtick_6">
     <g id="line2d_11">
      <path clip-path="url(#paf08b70a0d)" d="M 840.581121 279 
L 840.581121 7.2 
" style="fill:none;stroke:#ffffff;stroke-linecap:round;"></path>
     </g>
     <g id="line2d_12"></g>
     <g id="text_6">
      <!-- 100 -->
      <defs>
       <path d="M 37.25 0 
L 28.46875 0 
L 28.46875 56 
Q 25.296875 52.984375 20.140625 49.953125 
Q 14.984375 46.921875 10.890625 45.40625 
L 10.890625 53.90625 
Q 18.265625 57.375 23.78125 62.296875 
Q 29.296875 67.234375 31.59375 71.875 
L 37.25 71.875 
z
" id="ArialMT-31"></path>
      </defs>
      <g style="fill:#262626;" transform="translate(832.239715 293.157812)scale(0.1 -0.1)">
       <use xlink:href="#ArialMT-31"></use>
       <use x="55.615234" xlink:href="#ArialMT-30"></use>
       <use x="111.230469" xlink:href="#ArialMT-30"></use>
      </g>
     </g>
    </g>
   </g>
   <g id="matplotlib.axis_2">
    <g id="ytick_1">
     <g id="line2d_13">
      <path clip-path="url(#paf08b70a0d)" d="M 33.940625 254.301117 
L 870.940625 254.301117 
" style="fill:none;stroke:#ffffff;stroke-linecap:round;"></path>
     </g>
     <g id="line2d_14"></g>
     <g id="text_7">
      <!-- −1.0 -->
      <defs>
       <path d="M 52.828125 31.203125 
L 5.5625 31.203125 
L 5.5625 39.40625 
L 52.828125 39.40625 
z
" id="ArialMT-2212"></path>
       <path d="M 9.078125 0 
L 9.078125 10.015625 
L 19.09375 10.015625 
L 19.09375 0 
z
" id="ArialMT-2e"></path>
      </defs>
      <g style="fill:#262626;" transform="translate(7.2 257.880023)scale(0.1 -0.1)">
       <use xlink:href="#ArialMT-2212"></use>
       <use x="58.398438" xlink:href="#ArialMT-31"></use>
       <use x="114.013672" xlink:href="#ArialMT-2e"></use>
       <use x="141.796875" xlink:href="#ArialMT-30"></use>
      </g>
     </g>
    </g>
    <g id="ytick_2">
     <g id="line2d_15">
      <path clip-path="url(#paf08b70a0d)" d="M 33.940625 198.703246 
L 870.940625 198.703246 
" style="fill:none;stroke:#ffffff;stroke-linecap:round;"></path>
     </g>
     <g id="line2d_16"></g>
     <g id="text_8">
      <!-- −0.5 -->
      <defs>
       <path d="M 4.15625 18.75 
L 13.375 19.53125 
Q 14.40625 12.796875 18.140625 9.390625 
Q 21.875 6 27.15625 6 
Q 33.5 6 37.890625 10.78125 
Q 42.28125 15.578125 42.28125 23.484375 
Q 42.28125 31 38.0625 35.34375 
Q 33.84375 39.703125 27 39.703125 
Q 22.75 39.703125 19.328125 37.765625 
Q 15.921875 35.84375 13.96875 32.765625 
L 5.71875 33.84375 
L 12.640625 70.609375 
L 48.25 70.609375 
L 48.25 62.203125 
L 19.671875 62.203125 
L 15.828125 42.96875 
Q 22.265625 47.46875 29.34375 47.46875 
Q 38.71875 47.46875 45.15625 40.96875 
Q 51.609375 34.46875 51.609375 24.265625 
Q 51.609375 14.546875 45.953125 7.46875 
Q 39.0625 -1.21875 27.15625 -1.21875 
Q 17.390625 -1.21875 11.203125 4.25 
Q 5.03125 9.71875 4.15625 18.75 
z
" id="ArialMT-35"></path>
      </defs>
      <g style="fill:#262626;" transform="translate(7.2 202.282152)scale(0.1 -0.1)">
       <use xlink:href="#ArialMT-2212"></use>
       <use x="58.398438" xlink:href="#ArialMT-30"></use>
       <use x="114.013672" xlink:href="#ArialMT-2e"></use>
       <use x="141.796875" xlink:href="#ArialMT-35"></use>
      </g>
     </g>
    </g>
    <g id="ytick_3">
     <g id="line2d_17">
      <path clip-path="url(#paf08b70a0d)" d="M 33.940625 143.105375 
L 870.940625 143.105375 
" style="fill:none;stroke:#ffffff;stroke-linecap:round;"></path>
     </g>
     <g id="line2d_18"></g>
     <g id="text_9">
      <!-- 0.0 -->
      <g style="fill:#262626;" transform="translate(13.040625 146.684281)scale(0.1 -0.1)">
       <use xlink:href="#ArialMT-30"></use>
       <use x="55.615234" xlink:href="#ArialMT-2e"></use>
       <use x="83.398438" xlink:href="#ArialMT-30"></use>
      </g>
     </g>
    </g>
    <g id="ytick_4">
     <g id="line2d_19">
      <path clip-path="url(#paf08b70a0d)" d="M 33.940625 87.507504 
L 870.940625 87.507504 
" style="fill:none;stroke:#ffffff;stroke-linecap:round;"></path>
     </g>
     <g id="line2d_20"></g>
     <g id="text_10">
      <!-- 0.5 -->
      <g style="fill:#262626;" transform="translate(13.040625 91.086411)scale(0.1 -0.1)">
       <use xlink:href="#ArialMT-30"></use>
       <use x="55.615234" xlink:href="#ArialMT-2e"></use>
       <use x="83.398438" xlink:href="#ArialMT-35"></use>
      </g>
     </g>
    </g>
    <g id="ytick_5">
     <g id="line2d_21">
      <path clip-path="url(#paf08b70a0d)" d="M 33.940625 31.909634 
L 870.940625 31.909634 
" style="fill:none;stroke:#ffffff;stroke-linecap:round;"></path>
     </g>
     <g id="line2d_22"></g>
     <g id="text_11">
      <!-- 1.0 -->
      <g style="fill:#262626;" transform="translate(13.040625 35.48854)scale(0.1 -0.1)">
       <use xlink:href="#ArialMT-31"></use>
       <use x="55.615234" xlink:href="#ArialMT-2e"></use>
       <use x="83.398438" xlink:href="#ArialMT-30"></use>
      </g>
     </g>
    </g>
   </g>
   <g id="line2d_23">
    <path clip-path="url(#paf08b70a0d)" d="M 71.98608 19.554545 
L 79.67203 21.103034 
L 87.35798 25.709661 
L 95.043931 33.258977 
L 102.729881 43.561733 
L 110.415832 56.35969 
L 118.101782 71.332036 
L 125.787732 88.103475 
L 133.473683 143.105375 
L 141.159633 125.327495 
L 148.845584 144.847001 
L 156.531534 164.322836 
L 164.217485 183.266842 
L 171.903435 201.204147 
L 179.589385 217.685123 
L 187.275336 232.296673 
L 194.961286 244.672506 
L 202.647237 254.502429 
L 210.333187 261.540047 
L 218.019137 265.608922 
L 225.705088 266.607106 
L 233.391038 264.509546 
L 241.076989 259.368838 
L 248.762939 251.313809 
L 256.448889 143.105375 
L 264.13484 143.105375 
L 271.82079 212.015253 
L 279.506741 143.105375 
L 287.192691 176.618152 
L 294.878642 157.429573 
L 302.564592 137.881881 
L 310.250542 118.465181 
L 317.936493 99.666119 
L 325.622443 81.955921 
L 333.308394 65.778518 
L 340.994344 51.539363 
L 348.680294 39.595482 
L 356.366245 30.246206 
L 364.052195 23.7259 
L 371.738146 20.197984 
L 379.424096 19.750913 
L 387.110046 22.395889 
L 394.795997 28.066593 
L 402.481947 36.620907 
L 410.167898 47.844387 
L 417.853848 61.455712 
L 425.539799 77.113743 
L 433.225749 94.425886 
L 440.911699 112.95825 
L 448.59765 132.246288 
L 456.2836 151.806525 
L 463.969551 171.148713 
L 471.655501 189.787904 
L 479.341451 207.25693 
L 487.027402 223.117916 
L 494.713352 236.973289 
L 502.399303 248.475733 
L 510.085253 257.336933 
L 517.771204 263.334771 
L 525.457154 143.105375 
L 533.143104 266.214529 
L 540.829055 263.024246 
L 548.515005 256.828038 
L 556.200956 247.781228 
L 563.886906 236.110577 
L 571.572856 222.108637 
L 579.258807 206.126369 
L 586.944757 188.564402 
L 594.630708 169.862947 
L 602.316658 150.490778 
L 610.002608 130.933366 
L 617.688559 111.681179 
L 625.374509 93.21668 
L 633.06046 76.002708 
L 640.74641 60.470751 
L 648.432361 47.010135 
L 656.118311 35.958274 
L 663.804261 27.59219 
L 671.490212 22.121605 
L 679.176162 19.683628 
L 686.862113 20.339381 
L 694.548063 24.072453 
L 702.234013 30.78922 
L 709.919964 40.321344 
L 717.605914 52.429879 
L 725.291865 66.811319 
L 732.977815 83.105165 
L 740.663765 100.902992 
L 748.349716 119.758683 
L 756.035666 139.199586 
L 763.721617 158.738392 
L 771.407567 177.88545 
L 779.093518 196.160583 
L 786.779468 213.105815 
L 794.465418 228.296401 
L 802.151369 241.351563 
L 809.837319 251.944052 
L 817.52327 259.808367 
L 825.20922 264.747364 
L 832.89517 266.637236 
" style="fill:none;stroke:#4c72b0;stroke-linecap:round;stroke-width:1.75;"></path>
   </g>
   <g id="line2d_24">
    <path clip-path="url(#paf08b70a0d)" d="M 71.98608 143.105375 
L 79.67203 135.315016 
L 87.35798 127.555659 
L 95.043931 119.858189 
L 102.729881 112.253232 
L 110.415832 143.105375 
L 118.101782 97.441457 
L 125.787732 90.293576 
L 133.473683 83.355875 
L 141.159633 76.655968 
L 148.845584 70.220497 
L 156.531534 64.075111 
L 164.217485 58.244233 
L 171.903435 52.751087 
L 179.589385 47.617518 
L 187.275336 42.86398 
L 194.961286 143.105375 
L 202.647237 34.571033 
L 210.333187 31.064631 
L 218.019137 28.00412 
L 225.705088 25.401681 
L 233.391038 23.267681 
L 241.076989 21.610603 
L 248.762939 20.437061 
L 256.448889 19.751682 
L 264.13484 19.557236 
L 271.82079 19.854479 
L 279.506741 20.642218 
L 287.192691 21.917337 
L 294.878642 23.67476 
L 302.564592 143.105375 
L 310.250542 28.606625 
L 317.936493 31.761437 
L 325.622443 35.359388 
L 333.308394 39.386117 
L 340.994344 143.105375 
L 348.680294 48.660281 
L 356.366245 53.870778 
L 364.052195 143.105375 
L 371.738146 65.335006 
L 379.424096 71.543125 
L 387.110046 78.036025 
L 394.795997 84.787906 
L 402.481947 91.771876 
L 410.167898 143.105375 
L 417.853848 143.105375 
L 425.539799 113.834406 
L 433.225749 121.461232 
L 440.911699 129.174167 
L 448.59765 136.942574 
L 456.2836 144.735508 
L 463.969551 152.521954 
L 471.655501 160.270895 
L 479.341451 167.95155 
L 487.027402 175.533323 
L 494.713352 182.986046 
L 502.399303 190.28002 
L 510.085253 197.386282 
L 517.771204 204.276515 
L 525.457154 210.92328 
L 533.143104 217.300174 
L 540.829055 223.381781 
L 548.515005 229.143916 
L 556.200956 234.563613 
L 563.886906 239.619352 
L 571.572856 244.290971 
L 579.258807 248.559932 
L 586.944757 252.409176 
L 594.630708 255.823412 
L 602.316658 258.789106 
L 610.002608 261.294355 
L 617.688559 263.329283 
L 625.374509 264.885712 
L 633.06046 143.105375 
L 640.74641 143.105375 
L 648.432361 266.632 
L 656.118311 266.23204 
L 663.804261 143.105375 
L 671.490212 263.965577 
L 679.176162 143.105375 
L 686.862113 259.77707 
L 694.548063 256.981683 
L 702.234013 253.733116 
L 709.919964 250.044251 
L 717.605914 245.929823 
L 725.291865 143.105375 
L 732.977815 236.491284 
L 740.663765 231.204779 
L 748.349716 225.567611 
L 756.035666 219.602308 
L 763.721617 213.332578 
L 771.407567 143.105375 
L 779.093518 143.105375 
L 786.779468 143.105375 
L 794.465418 185.724238 
L 802.151369 178.327255 
L 809.837319 170.790102 
L 817.52327 163.14271 
L 825.20922 155.415633 
L 832.89517 147.639506 
" style="fill:none;stroke:#55a868;stroke-linecap:round;stroke-width:1.75;"></path>
   </g>
   <g id="line2d_25">
    <path clip-path="url(#paf08b70a0d)" d="M 71.98608 19.554545 
L 79.67203 19.800396 
L 87.35798 20.536968 
L 95.043931 21.761345 
L 102.729881 23.468622 
L 110.415832 25.652026 
L 118.101782 28.302874 
L 125.787732 31.410601 
L 133.473683 34.962854 
L 141.159633 38.945482 
L 148.845584 43.342645 
L 156.531534 48.136832 
L 164.217485 53.308968 
L 171.903435 58.838474 
L 179.589385 64.703352 
L 187.275336 70.880234 
L 194.961286 77.344569 
L 202.647237 84.070601 
L 210.333187 91.031596 
L 218.019137 98.199815 
L 225.705088 143.105375 
L 233.391038 113.043165 
L 241.076989 120.659223 
L 248.762939 128.364598 
L 256.448889 136.128639 
L 264.13484 143.920459 
L 271.82079 143.105375 
L 279.506741 159.463356 
L 287.192691 167.15258 
L 294.878642 174.746111 
L 302.564592 182.21371 
L 310.250542 189.525679 
L 317.936493 196.652892 
L 325.622443 203.567011 
L 333.308394 210.240486 
L 340.994344 216.646808 
L 348.680294 222.760447 
L 356.366245 228.557079 
L 364.052195 234.013613 
L 371.738146 239.108376 
L 379.424096 243.821074 
L 387.110046 248.132931 
L 394.795997 252.026819 
L 402.481947 255.487225 
L 410.167898 258.500374 
L 417.853848 261.054284 
L 425.539799 263.138788 
L 433.225749 264.745574 
L 440.911699 265.868267 
L 448.59765 266.5024 
L 456.2836 266.645455 
L 463.969551 143.105375 
L 471.655501 265.457941 
L 479.341451 264.132133 
L 487.027402 262.324644 
L 494.713352 260.042712 
L 502.399303 257.295403 
L 510.085253 254.093627 
L 517.771204 250.450143 
L 525.457154 246.379478 
L 533.143104 241.897785 
L 540.829055 237.022925 
L 548.515005 231.774291 
L 556.200956 226.172807 
L 563.886906 143.105375 
L 571.572856 214.001659 
L 579.258807 207.480405 
L 586.944757 200.703007 
L 594.630708 193.69638 
L 602.316658 186.488365 
L 610.002608 179.107749 
L 617.688559 171.583797 
L 625.374509 163.946567 
L 633.06046 156.226393 
L 640.74641 148.453943 
L 648.432361 140.660264 
L 656.118311 132.876317 
L 663.804261 143.105375 
L 671.490212 143.105375 
L 679.176162 109.891651 
L 686.862113 102.454119 
L 694.548063 95.178427 
L 702.234013 88.09347 
L 709.919964 81.227402 
L 717.605914 74.607626 
L 725.291865 68.260424 
L 732.977815 62.211127 
L 740.663765 56.483762 
L 748.349716 143.105375 
L 756.035666 46.084625 
L 763.721617 143.105375 
L 771.407567 37.228423 
L 779.093518 33.423976 
L 786.779468 30.056028 
L 794.465418 27.137962 
L 802.151369 24.68144 
L 809.837319 22.69622 
L 817.52327 21.190189 
L 825.20922 20.169352 
L 832.89517 19.637764 
" style="fill:none;stroke:#c44e52;stroke-linecap:round;stroke-width:1.75;"></path>
   </g>
   <g id="line2d_26">
    <path clip-path="url(#paf08b70a0d)" d="M 71.98608 143.105375 
L 79.67203 140.002245 
L 87.35798 136.901073 
L 95.043931 143.105375 
L 102.729881 130.712426 
L 110.415832 127.628856 
L 118.101782 124.555048 
L 125.787732 121.492946 
L 133.473683 118.444481 
L 141.159633 115.411575 
L 148.845584 112.396141 
L 156.531534 109.400078 
L 164.217485 106.425287 
L 171.903435 103.473637 
L 179.589385 100.546984 
L 187.275336 97.64719 
L 194.961286 94.776078 
L 202.647237 143.105375 
L 210.333187 143.105375 
L 218.019137 86.352832 
L 225.705088 83.614365 
L 233.391038 143.105375 
L 241.076989 143.105375 
L 248.762939 75.630929 
L 256.448889 73.052715 
L 264.13484 70.518701 
L 271.82079 68.030479 
L 279.506741 65.589626 
L 287.192691 63.197679 
L 294.878642 60.85615 
L 302.564592 143.105375 
L 310.250542 56.330216 
L 317.936493 143.105375 
L 325.622443 52.023231 
L 333.308394 49.95527 
L 340.994344 47.946084 
L 348.680294 45.996933 
L 356.366245 44.109055 
L 364.052195 143.105375 
L 371.738146 40.521808 
L 379.424096 38.824724 
L 387.110046 37.193415 
L 394.795997 35.628953 
L 402.481947 34.132287 
L 410.167898 32.704371 
L 417.853848 31.346113 
L 425.539799 30.058361 
L 433.225749 28.841938 
L 440.911699 27.697612 
L 448.59765 26.626098 
L 456.2836 25.628073 
L 463.969551 143.105375 
L 471.655501 23.854956 
L 479.341451 23.08099 
L 487.027402 22.38274 
L 494.713352 21.760682 
L 502.399303 143.105375 
L 510.085253 143.105375 
L 517.771204 20.355142 
L 525.457154 20.041171 
L 533.143104 19.80485 
L 540.829055 143.105375 
L 548.515005 19.56568 
L 556.200956 19.562989 
L 563.886906 19.638241 
L 571.572856 19.791396 
L 579.258807 20.022361 
L 586.944757 20.330964 
L 594.630708 20.717032 
L 602.316658 21.180327 
L 610.002608 21.720545 
L 617.688559 143.105375 
L 625.374509 23.030327 
L 633.06046 23.799084 
L 640.74641 24.643118 
L 648.432361 25.561875 
L 656.118311 26.55481 
L 663.804261 143.105375 
L 671.490212 28.760589 
L 679.176162 29.972068 
L 686.862113 31.254915 
L 694.548063 32.608335 
L 702.234013 143.105375 
L 709.919964 35.523406 
L 717.605914 37.083228 
L 725.291865 38.709944 
L 732.977815 40.402521 
L 740.663765 42.159917 
L 748.349716 43.98098 
L 756.035666 45.864589 
L 763.721617 47.809545 
L 771.407567 143.105375 
L 779.093518 51.878566 
L 786.779468 143.105375 
L 794.465418 56.177803 
L 802.151369 58.410365 
L 809.837319 143.105375 
L 817.52327 63.034351 
L 825.20922 65.422864 
L 832.89517 67.860384 
" style="fill:none;stroke:#8172b2;stroke-linecap:round;stroke-width:1.75;"></path>
   </g>
   <g id="line2d_27">
    <path clip-path="url(#paf08b70a0d)" d="M 71.98608 19.554545 
L 79.67203 19.59353 
L 87.35798 19.710418 
L 95.043931 19.905182 
L 102.729881 20.177663 
L 110.415832 20.527703 
L 118.101782 20.955089 
L 125.787732 21.459529 
L 133.473683 22.040733 
L 141.159633 22.698315 
L 148.845584 23.431851 
L 156.531534 24.240905 
L 164.217485 25.124958 
L 171.903435 26.083442 
L 179.589385 27.115759 
L 187.275336 28.221259 
L 194.961286 29.399228 
L 202.647237 30.64895 
L 210.333187 31.969622 
L 218.019137 33.360416 
L 225.705088 34.820443 
L 233.391038 36.348797 
L 241.076989 37.944502 
L 248.762939 39.606551 
L 256.448889 41.333903 
L 264.13484 43.125466 
L 271.82079 143.105375 
L 279.506741 143.105375 
L 287.192691 48.873921 
L 294.878642 50.910625 
L 302.564592 53.005495 
L 310.250542 55.157211 
L 317.936493 57.364428 
L 325.622443 59.625728 
L 333.308394 61.939706 
L 340.994344 64.30489 
L 348.680294 143.105375 
L 356.366245 69.182885 
L 364.052195 71.692621 
L 371.738146 74.247399 
L 379.424096 76.845629 
L 387.110046 79.485687 
L 394.795997 82.16585 
L 402.481947 84.88448 
L 410.167898 87.639845 
L 417.853848 90.430194 
L 425.539799 93.253775 
L 433.225749 96.108825 
L 440.911699 98.993515 
L 448.59765 101.906034 
L 456.2836 104.844558 
L 463.969551 107.80721 
L 471.655501 110.792131 
L 479.341451 143.105375 
L 487.027402 116.821256 
L 494.713352 119.86164 
L 502.399303 122.916703 
L 510.085253 125.98449 
L 517.771204 129.063077 
L 525.457154 132.150525 
L 533.143104 135.244899 
L 540.829055 138.344218 
L 548.515005 141.44654 
L 556.200956 144.549924 
L 563.886906 147.652382 
L 571.572856 150.751971 
L 579.258807 153.846751 
L 586.944757 156.934738 
L 594.630708 160.014 
L 602.316658 163.082611 
L 610.002608 166.1386 
L 617.688559 169.180058 
L 625.374509 172.205066 
L 633.06046 175.211726 
L 640.74641 178.198116 
L 648.432361 181.162365 
L 656.118311 184.102622 
L 663.804261 187.016994 
L 671.490212 189.903661 
L 679.176162 192.760812 
L 686.862113 195.586614 
L 694.548063 143.105375 
L 702.234013 201.137173 
L 709.919964 143.105375 
L 717.605914 206.541268 
L 725.291865 143.105375 
L 732.977815 211.785296 
L 740.663765 214.343156 
L 748.349716 216.856053 
L 756.035666 219.32241 
L 763.721617 221.740683 
L 771.407567 224.109353 
L 779.093518 226.426903 
L 786.779468 228.691908 
L 794.465418 230.902896 
L 802.151369 233.058483 
L 809.837319 143.105375 
L 817.52327 237.19809 
L 825.20922 239.179486 
L 832.89517 241.100264 
" style="fill:none;stroke:#ccb974;stroke-linecap:round;stroke-width:1.75;"></path>
   </g>
   <g id="patch_3">
    <path d="M 33.940625 279 
L 33.940625 7.2 
" style="fill:none;"></path>
   </g>
   <g id="patch_4">
    <path d="M 870.940625 279 
L 870.940625 7.2 
" style="fill:none;"></path>
   </g>
   <g id="patch_5">
    <path d="M 33.940625 279 
L 870.940625 279 
" style="fill:none;"></path>
   </g>
   <g id="patch_6">
    <path d="M 33.940625 7.2 
L 870.940625 7.2 
" style="fill:none;"></path>
   </g>
   <g id="legend_1">
    <g id="line2d_28">
     <path d="M 42.940625 207.93125 
L 62.940625 207.93125 
" style="fill:none;stroke:#4c72b0;stroke-linecap:round;stroke-width:1.75;"></path>
    </g>
    <g id="line2d_29"></g>
    <g id="text_12">
     <!-- dim 5 -->
     <defs>
      <path d="M 40.234375 0 
L 40.234375 6.546875 
Q 35.296875 -1.171875 25.734375 -1.171875 
Q 19.53125 -1.171875 14.328125 2.25 
Q 9.125 5.671875 6.265625 11.796875 
Q 3.421875 17.921875 3.421875 25.875 
Q 3.421875 33.640625 6 39.96875 
Q 8.59375 46.296875 13.765625 49.65625 
Q 18.953125 53.03125 25.34375 53.03125 
Q 30.03125 53.03125 33.6875 51.046875 
Q 37.359375 49.078125 39.65625 45.90625 
L 39.65625 71.578125 
L 48.390625 71.578125 
L 48.390625 0 
z
M 12.453125 25.875 
Q 12.453125 15.921875 16.640625 10.984375 
Q 20.84375 6.0625 26.5625 6.0625 
Q 32.328125 6.0625 36.34375 10.765625 
Q 40.375 15.484375 40.375 25.140625 
Q 40.375 35.796875 36.265625 40.765625 
Q 32.171875 45.75 26.171875 45.75 
Q 20.3125 45.75 16.375 40.96875 
Q 12.453125 36.1875 12.453125 25.875 
z
" id="ArialMT-64"></path>
      <path d="M 6.640625 61.46875 
L 6.640625 71.578125 
L 15.4375 71.578125 
L 15.4375 61.46875 
z
M 6.640625 0 
L 6.640625 51.859375 
L 15.4375 51.859375 
L 15.4375 0 
z
" id="ArialMT-69"></path>
      <path d="M 6.59375 0 
L 6.59375 51.859375 
L 14.453125 51.859375 
L 14.453125 44.578125 
Q 16.890625 48.390625 20.9375 50.703125 
Q 25 53.03125 30.171875 53.03125 
Q 35.9375 53.03125 39.625 50.640625 
Q 43.3125 48.25 44.828125 43.953125 
Q 50.984375 53.03125 60.84375 53.03125 
Q 68.5625 53.03125 72.703125 48.75 
Q 76.859375 44.484375 76.859375 35.59375 
L 76.859375 0 
L 68.109375 0 
L 68.109375 32.671875 
Q 68.109375 37.9375 67.25 40.25 
Q 66.40625 42.578125 64.15625 43.984375 
Q 61.921875 45.40625 58.890625 45.40625 
Q 53.421875 45.40625 49.796875 41.765625 
Q 46.1875 38.140625 46.1875 30.125 
L 46.1875 0 
L 37.40625 0 
L 37.40625 33.6875 
Q 37.40625 39.546875 35.25 42.46875 
Q 33.109375 45.40625 28.21875 45.40625 
Q 24.515625 45.40625 21.359375 43.453125 
Q 18.21875 41.5 16.796875 37.734375 
Q 15.375 33.984375 15.375 26.90625 
L 15.375 0 
z
" id="ArialMT-6d"></path>
      <path id="ArialMT-20"></path>
     </defs>
     <g style="fill:#262626;" transform="translate(70.940625 211.43125)scale(0.1 -0.1)">
      <use xlink:href="#ArialMT-64"></use>
      <use x="55.615234" xlink:href="#ArialMT-69"></use>
      <use x="77.832031" xlink:href="#ArialMT-6d"></use>
      <use x="161.132812" xlink:href="#ArialMT-20"></use>
      <use x="188.916016" xlink:href="#ArialMT-35"></use>
     </g>
    </g>
    <g id="line2d_30">
     <path d="M 42.940625 222.076562 
L 62.940625 222.076562 
" style="fill:none;stroke:#55a868;stroke-linecap:round;stroke-width:1.75;"></path>
    </g>
    <g id="line2d_31"></g>
    <g id="text_13">
     <!-- dim 6 -->
     <g style="fill:#262626;" transform="translate(70.940625 225.576562)scale(0.1 -0.1)">
      <use xlink:href="#ArialMT-64"></use>
      <use x="55.615234" xlink:href="#ArialMT-69"></use>
      <use x="77.832031" xlink:href="#ArialMT-6d"></use>
      <use x="161.132812" xlink:href="#ArialMT-20"></use>
      <use x="188.916016" xlink:href="#ArialMT-36"></use>
     </g>
    </g>
    <g id="line2d_32">
     <path d="M 42.940625 236.221875 
L 62.940625 236.221875 
" style="fill:none;stroke:#c44e52;stroke-linecap:round;stroke-width:1.75;"></path>
    </g>
    <g id="line2d_33"></g>
    <g id="text_14">
     <!-- dim 7 -->
     <defs>
      <path d="M 4.734375 62.203125 
L 4.734375 70.65625 
L 51.078125 70.65625 
L 51.078125 63.8125 
Q 44.234375 56.546875 37.515625 44.484375 
Q 30.8125 32.421875 27.15625 19.671875 
Q 24.515625 10.6875 23.78125 0 
L 14.75 0 
Q 14.890625 8.453125 18.0625 20.40625 
Q 21.234375 32.375 27.171875 43.484375 
Q 33.109375 54.59375 39.796875 62.203125 
z
" id="ArialMT-37"></path>
     </defs>
     <g style="fill:#262626;" transform="translate(70.940625 239.721875)scale(0.1 -0.1)">
      <use xlink:href="#ArialMT-64"></use>
      <use x="55.615234" xlink:href="#ArialMT-69"></use>
      <use x="77.832031" xlink:href="#ArialMT-6d"></use>
      <use x="161.132812" xlink:href="#ArialMT-20"></use>
      <use x="188.916016" xlink:href="#ArialMT-37"></use>
     </g>
    </g>
    <g id="line2d_34">
     <path d="M 42.940625 250.367187 
L 62.940625 250.367187 
" style="fill:none;stroke:#8172b2;stroke-linecap:round;stroke-width:1.75;"></path>
    </g>
    <g id="line2d_35"></g>
    <g id="text_15">
     <!-- dim 8 -->
     <g style="fill:#262626;" transform="translate(70.940625 253.867187)scale(0.1 -0.1)">
      <use xlink:href="#ArialMT-64"></use>
      <use x="55.615234" xlink:href="#ArialMT-69"></use>
      <use x="77.832031" xlink:href="#ArialMT-6d"></use>
      <use x="161.132812" xlink:href="#ArialMT-20"></use>
      <use x="188.916016" xlink:href="#ArialMT-38"></use>
     </g>
    </g>
    <g id="line2d_36">
     <path d="M 42.940625 264.5125 
L 62.940625 264.5125 
" style="fill:none;stroke:#ccb974;stroke-linecap:round;stroke-width:1.75;"></path>
    </g>
    <g id="line2d_37"></g>
    <g id="text_16">
     <!-- dim 9 -->
     <defs>
      <path d="M 5.46875 16.546875 
L 13.921875 17.328125 
Q 14.984375 11.375 18.015625 8.6875 
Q 21.046875 6 25.78125 6 
Q 29.828125 6 32.875 7.859375 
Q 35.9375 9.71875 37.890625 12.8125 
Q 39.84375 15.921875 41.15625 21.1875 
Q 42.484375 26.46875 42.484375 31.9375 
Q 42.484375 32.515625 42.4375 33.6875 
Q 39.796875 29.5 35.234375 26.875 
Q 30.671875 24.265625 25.34375 24.265625 
Q 16.453125 24.265625 10.296875 30.703125 
Q 4.15625 37.15625 4.15625 47.703125 
Q 4.15625 58.59375 10.578125 65.234375 
Q 17 71.875 26.65625 71.875 
Q 33.640625 71.875 39.421875 68.109375 
Q 45.21875 64.359375 48.21875 57.390625 
Q 51.21875 50.4375 51.21875 37.25 
Q 51.21875 23.53125 48.234375 15.40625 
Q 45.265625 7.28125 39.375 3.03125 
Q 33.5 -1.21875 25.59375 -1.21875 
Q 17.1875 -1.21875 11.859375 3.4375 
Q 6.546875 8.109375 5.46875 16.546875 
z
M 41.453125 48.140625 
Q 41.453125 55.71875 37.421875 60.15625 
Q 33.40625 64.59375 27.734375 64.59375 
Q 21.875 64.59375 17.53125 59.8125 
Q 13.1875 55.03125 13.1875 47.40625 
Q 13.1875 40.578125 17.3125 36.296875 
Q 21.4375 32.03125 27.484375 32.03125 
Q 33.59375 32.03125 37.515625 36.296875 
Q 41.453125 40.578125 41.453125 48.140625 
z
" id="ArialMT-39"></path>
     </defs>
     <g style="fill:#262626;" transform="translate(70.940625 268.0125)scale(0.1 -0.1)">
      <use xlink:href="#ArialMT-64"></use>
      <use x="55.615234" xlink:href="#ArialMT-69"></use>
      <use x="77.832031" xlink:href="#ArialMT-6d"></use>
      <use x="161.132812" xlink:href="#ArialMT-20"></use>
      <use x="188.916016" xlink:href="#ArialMT-39"></use>
     </g>
    </g>
   </g>
  </g>
 </g>
 <defs>
  <clipPath id="paf08b70a0d">
   <rect height="271.8" width="837" x="33.940625" y="7.2"></rect>
  </clipPath>
 </defs>
</svg>