<svg viewBox="0 0 265 519" xmlns="http://www.w3.org/2000/svg"><defs><style>.a{fill:rgba(251,157,255,0.5);}.b,.j{fill:#020000;}.b{font-size:20px;font-family:Menlo-Regular, Menlo;}.c{fill:rgba(157,255,168,0.5);}.d{fill:rgba(255,157,157,0.5);}.e{font-size:14px;}.f{fill:rgba(255,240,157,0.5);}.g{fill:rgba(157,180,255,0.5);}.h,.l{fill:#707070;}.i{fill:none;stroke:#707070;}.j{font-size:15px;font-family:Menlo-Italic, Menlo;font-style:italic;}.k,.l{stroke:none;}</style></defs><g transform="translate(377 734)"><g transform="translate(-284 -350)"><rect class="a" height="52" transform="translate(50 -384)" width="122"/><text class="b" transform="translate(111 -350)"><tspan x="-36.123" y="0">MatMul</tspan></text></g><g transform="translate(-371 18)"><rect class="a" height="52" transform="translate(50 -384)" width="122"/><text class="b" transform="translate(111 -350)"><tspan x="-36.123" y="0">MatMul</tspan></text></g><g transform="translate(-371 -74)"><rect class="c" height="52" transform="translate(50 -384)" width="122"/><text class="b" transform="translate(111 -350)"><tspan x="-30.103" y="0">Scale</tspan></text><text class="b" transform="translate(111 -350)"><tspan x="-30.103" y="0">Scale</tspan></text></g><g transform="translate(-371 -166)"><rect class="d" height="52" transform="translate(50 -384)" width="122"/><text class="b" transform="translate(111 -350)"><tspan x="-53.583" y="0">Mask</tspan><tspan class="e" xml:space="preserve" y="0"> (opt.)</tspan></text></g><g transform="translate(-371 -258)"><rect class="f" height="52" transform="translate(50 -384)" width="122"/><text class="b" transform="translate(111 -350)"><tspan x="-42.144" y="0">SoftMax</tspan></text></g><rect class="g" height="40" transform="translate(-321 -274)" width="40"/><text class="b" transform="translate(-301 -247)"><tspan x="-6.021" y="0">Q</tspan></text><rect class="g" height="40" transform="translate(-239 -274)" width="40"/><text class="b" transform="translate(-219 -247)"><tspan x="-6.021" y="0">K</tspan></text><rect class="g" height="40" transform="translate(-158 -274)" width="40"/><text class="b" transform="translate(-138 -247)"><tspan x="-6.021" y="0">V</tspan></text><g transform="translate(-619 -75)"><g class="h" transform="translate(317.5 -239.107) rotate(45)"><path class="k" d="M 4.48930025100708 10.31504917144775 L 0.8653011322021484 0.8604671359062195 L 10.36387062072754 4.440470218658447 L 7.402174472808838 7.402174949645996 L 4.48930025100708 10.31504917144775 Z"/><path class="l" d="M 1.730582237243652 1.720914840698242 L 4.680450439453125 9.416769027709961 L 7.048614501953125 7.048604965209961 L 9.462241172790527 4.6349778175354 L 1.730582237243652 1.720914840698242 M 4.76837158203125e-06 -4.76837158203125e-06 L 11.26548385620117 4.245954990386963 L 7.755724430084229 7.755715370178223 L 4.298134326934814 11.21330547332764 L 4.76837158203125e-06 -4.76837158203125e-06 Z"/></g><g transform="translate(317.5 -238.479)"><line class="i" y2="39.479"/></g></g><g transform="translate(-537 -75)"><g class="h" transform="translate(317.5 -239.107) rotate(45)"><path class="k" d="M 4.48930025100708 10.31504917144775 L 0.8653011322021484 0.8604671359062195 L 10.36387062072754 4.440470218658447 L 7.402174472808838 7.402174949645996 L 4.48930025100708 10.31504917144775 Z"/><path class="l" d="M 1.730582237243652 1.720914840698242 L 4.680450439453125 9.416769027709961 L 7.048614501953125 7.048604965209961 L 9.462241172790527 4.6349778175354 L 1.730582237243652 1.720914840698242 M 4.76837158203125e-06 -4.76837158203125e-06 L 11.26548385620117 4.245954990386963 L 7.755724430084229 7.755715370178223 L 4.298134326934814 11.21330547332764 L 4.76837158203125e-06 -4.76837158203125e-06 Z"/></g><g transform="translate(317.5 -238.479)"><line class="i" y2="39.479"/></g></g><g transform="translate(-578 -167)"><g class="h" transform="translate(317.5 -239.107) rotate(45)"><path class="k" d="M 4.48930025100708 10.31504917144775 L 0.8653011322021484 0.8604671359062195 L 10.36387062072754 4.440470218658447 L 7.402174472808838 7.402174949645996 L 4.48930025100708 10.31504917144775 Z"/><path class="l" d="M 1.730582237243652 1.720914840698242 L 4.680450439453125 9.416769027709961 L 7.048614501953125 7.048604965209961 L 9.462241172790527 4.6349778175354 L 1.730582237243652 1.720914840698242 M 4.76837158203125e-06 -4.76837158203125e-06 L 11.26548385620117 4.245954990386963 L 7.755724430084229 7.755715370178223 L 4.298134326934814 11.21330547332764 L 4.76837158203125e-06 -4.76837158203125e-06 Z"/></g><g transform="translate(317.5 -238.479)"><line class="i" y2="39.479"/></g></g><g transform="translate(-578 -259)"><g class="h" transform="translate(317.5 -239.107) rotate(45)"><path class="k" d="M 4.48930025100708 10.31504917144775 L 0.8653011322021484 0.8604671359062195 L 10.36387062072754 4.440470218658447 L 7.402174472808838 7.402174949645996 L 4.48930025100708 10.31504917144775 Z"/><path class="l" d="M 1.730582237243652 1.720914840698242 L 4.680450439453125 9.416769027709961 L 7.048614501953125 7.048604965209961 L 9.462241172790527 4.6349778175354 L 1.730582237243652 1.720914840698242 M 4.76837158203125e-06 -4.76837158203125e-06 L 11.26548385620117 4.245954990386963 L 7.755724430084229 7.755715370178223 L 4.298134326934814 11.21330547332764 L 4.76837158203125e-06 -4.76837158203125e-06 Z"/></g><g transform="translate(317.5 -238.479)"><line class="i" y2="39.479"/></g></g><g transform="translate(-578 -351)"><g class="h" transform="translate(317.5 -239.107) rotate(45)"><path class="k" d="M 4.48930025100708 10.31504917144775 L 0.8653011322021484 0.8604671359062195 L 10.36387062072754 4.440470218658447 L 7.402174472808838 7.402174949645996 L 4.48930025100708 10.31504917144775 Z"/><path class="l" d="M 1.730582237243652 1.720914840698242 L 4.680450439453125 9.416769027709961 L 7.048614501953125 7.048604965209961 L 9.462241172790527 4.6349778175354 L 1.730582237243652 1.720914840698242 M 4.76837158203125e-06 -4.76837158203125e-06 L 11.26548385620117 4.245954990386963 L 7.755724430084229 7.755715370178223 L 4.298134326934814 11.21330547332764 L 4.76837158203125e-06 -4.76837158203125e-06 Z"/></g><g transform="translate(317.5 -238.479)"><line class="i" y2="39.479"/></g></g><g transform="translate(-524 -443)"><g class="h" transform="translate(317.5 -239.107) rotate(45)"><path class="k" d="M 4.48930025100708 10.31504917144775 L 0.8653011322021484 0.8604671359062195 L 10.36387062072754 4.440470218658447 L 7.402174472808838 7.402174949645996 L 4.48930025100708 10.31504917144775 Z"/><path class="l" d="M 1.730582237243652 1.720914840698242 L 4.680450439453125 9.416769027709961 L 7.048614501953125 7.048604965209961 L 9.462241172790527 4.6349778175354 L 1.730582237243652 1.720914840698242 M 4.76837158203125e-06 -4.76837158203125e-06 L 11.26548385620117 4.245954990386963 L 7.755724430084229 7.755715370178223 L 4.298134326934814 11.21330547332764 L 4.76837158203125e-06 -4.76837158203125e-06 Z"/></g><g transform="translate(317.5 -238.479)"><line class="i" y2="39.479"/></g></g><g transform="translate(-619 -75)"><g class="h" transform="translate(317.5 -239.107) rotate(45)"><path class="k" d="M 4.48930025100708 10.31504917144775 L 0.8653011322021484 0.8604671359062195 L 10.36387062072754 4.440470218658447 L 7.402174472808838 7.402174949645996 L 4.48930025100708 10.31504917144775 Z"/><path class="l" d="M 1.730582237243652 1.720914840698242 L 4.680450439453125 9.416769027709961 L 7.048614501953125 7.048604965209961 L 9.462241172790527 4.6349778175354 L 1.730582237243652 1.720914840698242 M 4.76837158203125e-06 -4.76837158203125e-06 L 11.26548385620117 4.245954990386963 L 7.755724430084229 7.755715370178223 L 4.298134326934814 11.21330547332764 L 4.76837158203125e-06 -4.76837158203125e-06 Z"/></g><g transform="translate(317.5 -238.479)"><line class="i" y2="39.479"/></g></g><g transform="translate(-456 -443)"><g class="h" transform="translate(317.5 -239.107) rotate(45)"><path class="k" d="M 4.535821437835693 10.36429500579834 L 0.8697293400764465 0.8648907542228699 L 10.4131498336792 4.486966609954834 L 7.450057506561279 7.450058460235596 L 4.535821437835693 10.36429500579834 Z"/><path class="l" d="M 1.739458084106445 1.729791641235352 L 4.725615501403809 9.467380523681641 L 7.096497535705566 7.096498489379883 L 9.512900352478027 4.68009614944458 L 1.739458084106445 1.729791641235352 M -1.9073486328125e-06 -1.9073486328125e-06 L 11.31337738037109 4.293838500976562 L 7.803607940673828 7.803608894348145 L 4.346017837524414 11.26119899749756 L -1.9073486328125e-06 -1.9073486328125e-06 Z"/></g><g transform="translate(317.5 -238.475)"><line class="i" y2="407.475"/></g></g><text class="j" transform="translate(-301 -219)"><tspan x="-22.577" y="0">q . d</tspan></text><text class="j" transform="translate(-219 -219)"><tspan x="-22.577" y="0">n . d</tspan></text><text class="j" transform="translate(-137 -219)"><tspan x="-22.577" y="0">n . v</tspan></text><text class="j" transform="translate(-354 -335)"><tspan x="-22.577" y="0">q . n</tspan></text><text class="j" transform="translate(-354 -427)"><tspan x="-22.577" y="0">q . n</tspan></text><text class="j" transform="translate(-354 -519)"><tspan x="-22.577" y="0">q . n</tspan></text><text class="j" transform="translate(-352 -611)"><tspan x="-22.577" y="0">q . n</tspan></text><text class="j" transform="translate(-265 -703)"><tspan x="-22.577" y="0">q . v</tspan></text></g></svg>