<svg viewBox="0 0 372 219" xmlns="http://www.w3.org/2000/svg"><defs><style>.a{fill:#9db4ff;}.b,.h,.j{fill:#020000;font-size:20px;}.b{font-family:Hack-Regular, Hack;}.c{font-size:10px;}.d,.l{fill:#707070;}.e{fill:none;stroke:#707070;}.f{fill:#ff9d9d;}.g{fill:#fb9dff;}.h{font-family:Menlo-Italic, Menlo;font-style:italic;}.i{fill:#fff09d;}.j{font-family:Hack-Bold, Hack;font-weight:700;}.k,.l{stroke:none;}</style></defs><g transform="translate(9 545)"><rect class="a" height="40" transform="translate(40 -416)" width="40"/><text class="b" transform="translate(60 -389)"><tspan x="-9.031" y="0">X</tspan><tspan class="c" y="0">1</tspan></text><rect class="a" height="40" transform="translate(90 -416)" width="40"/><text class="b" transform="translate(111 -389)"><tspan x="-9.031" y="0">X</tspan><tspan class="c" y="0">2</tspan></text><rect class="a" height="40" transform="translate(140 -416)" width="40"/><text class="b" transform="translate(160 -389)"><tspan x="-9.031" y="0">X</tspan><tspan class="c" y="0">3</tspan></text><rect class="a" height="40" transform="translate(190 -416)" width="40"/><text class="b" transform="translate(210 -389)"><tspan x="-9.031" y="0">X</tspan><tspan class="c" y="0">4</tspan></text><rect class="a" height="40" transform="translate(240 -416)" width="40"/><text class="b" transform="translate(260 -389)"><tspan x="-9.031" y="0">X</tspan><tspan class="c" y="0">5</tspan></text><g class="d" transform="translate(59.5 -370) rotate(45)"><path class="k" d="M 4.48930025100708 10.31504917144775 L 0.8653011322021484 0.8604671359062195 L 10.36387062072754 4.440470218658447 L 7.402174472808838 7.402174949645996 L 4.48930025100708 10.31504917144775 Z"/><path class="l" d="M 1.730582237243652 1.720914840698242 L 4.680450439453125 9.416769027709961 L 7.048614501953125 7.048604965209961 L 9.462241172790527 4.6349778175354 L 1.730582237243652 1.720914840698242 M 4.76837158203125e-06 -4.76837158203125e-06 L 11.26548385620117 4.245954990386963 L 7.755724430084229 7.755715370178223 L 4.298134326934814 11.21330547332764 L 4.76837158203125e-06 -4.76837158203125e-06 Z"/></g><line class="e" transform="translate(59.518 -369.373)" y2="16.479"/><g class="d" transform="translate(110.5 -370) rotate(45)"><path class="k" d="M 4.48930025100708 10.31504917144775 L 0.8653011322021484 0.8604671359062195 L 10.36387062072754 4.440470218658447 L 7.402174472808838 7.402174949645996 L 4.48930025100708 10.31504917144775 Z"/><path class="l" d="M 1.730582237243652 1.720914840698242 L 4.680450439453125 9.416769027709961 L 7.048614501953125 7.048604965209961 L 9.462241172790527 4.6349778175354 L 1.730582237243652 1.720914840698242 M 4.76837158203125e-06 -4.76837158203125e-06 L 11.26548385620117 4.245954990386963 L 7.755724430084229 7.755715370178223 L 4.298134326934814 11.21330547332764 L 4.76837158203125e-06 -4.76837158203125e-06 Z"/></g><line class="e" transform="translate(110.518 -368.373)" y2="16.479"/><g class="d" transform="translate(159.5 -370) rotate(45)"><path class="k" d="M 4.48930025100708 10.31504917144775 L 0.8653011322021484 0.8604671359062195 L 10.36387062072754 4.440470218658447 L 7.402174472808838 7.402174949645996 L 4.48930025100708 10.31504917144775 Z"/><path class="l" d="M 1.730582237243652 1.720914840698242 L 4.680450439453125 9.416769027709961 L 7.048614501953125 7.048604965209961 L 9.462241172790527 4.6349778175354 L 1.730582237243652 1.720914840698242 M 4.76837158203125e-06 -4.76837158203125e-06 L 11.26548385620117 4.245954990386963 L 7.755724430084229 7.755715370178223 L 4.298134326934814 11.21330547332764 L 4.76837158203125e-06 -4.76837158203125e-06 Z"/></g><line class="e" transform="translate(159.518 -369.373)" y2="16.479"/><g class="d" transform="translate(209.5 -370) rotate(45)"><path class="k" d="M 4.48930025100708 10.31504917144775 L 0.8653011322021484 0.8604671359062195 L 10.36387062072754 4.440470218658447 L 7.402174472808838 7.402174949645996 L 4.48930025100708 10.31504917144775 Z"/><path class="l" d="M 1.730582237243652 1.720914840698242 L 4.680450439453125 9.416769027709961 L 7.048614501953125 7.048604965209961 L 9.462241172790527 4.6349778175354 L 1.730582237243652 1.720914840698242 M 4.76837158203125e-06 -4.76837158203125e-06 L 11.26548385620117 4.245954990386963 L 7.755724430084229 7.755715370178223 L 4.298134326934814 11.21330547332764 L 4.76837158203125e-06 -4.76837158203125e-06 Z"/></g><line class="e" transform="translate(209.518 -369.373)" y2="16.479"/><g class="d" transform="translate(259.5 -370) rotate(45)"><path class="k" d="M 4.48930025100708 10.31504917144775 L 0.8653011322021484 0.8604671359062195 L 10.36387062072754 4.440470218658447 L 7.402174472808838 7.402174949645996 L 4.48930025100708 10.31504917144775 Z"/><path class="l" d="M 1.730582237243652 1.720914840698242 L 4.680450439453125 9.416769027709961 L 7.048614501953125 7.048604965209961 L 9.462241172790527 4.6349778175354 L 1.730582237243652 1.720914840698242 M 4.76837158203125e-06 -4.76837158203125e-06 L 11.26548385620117 4.245954990386963 L 7.755724430084229 7.755715370178223 L 4.298134326934814 11.21330547332764 L 4.76837158203125e-06 -4.76837158203125e-06 Z"/></g><line class="e" transform="translate(259.518 -369.373)" y2="16.479"/><text class="b" transform="translate(62 -331)"><tspan x="-18.062" y="0">the</tspan></text><text class="b" transform="translate(114 -331)"><tspan x="-18.062" y="0">cat</tspan></text><text class="b" transform="translate(160 -331)"><tspan x="-12.041" y="0">in</tspan></text><text class="b" transform="translate(209 -331)"><tspan x="-18.062" y="0">the</tspan></text><text class="b" transform="translate(260 -331)"><tspan x="-18.062" y="0">hat</tspan></text><g class="d" transform="translate(59.5 -439) rotate(45)"><path class="k" d="M 4.48930025100708 10.31504917144775 L 0.8653011322021484 0.8604671359062195 L 10.36387062072754 4.440470218658447 L 7.402174472808838 7.402174949645996 L 4.48930025100708 10.31504917144775 Z"/><path class="l" d="M 1.730582237243652 1.720914840698242 L 4.680450439453125 9.416769027709961 L 7.048614501953125 7.048604965209961 L 9.462241172790527 4.6349778175354 L 1.730582237243652 1.720914840698242 M 4.76837158203125e-06 -4.76837158203125e-06 L 11.26548385620117 4.245954990386963 L 7.755724430084229 7.755715370178223 L 4.298134326934814 11.21330547332764 L 4.76837158203125e-06 -4.76837158203125e-06 Z"/></g><line class="e" transform="translate(59.518 -438.373)" y2="16.479"/><g class="d" transform="translate(110.5 -439) rotate(45)"><path class="k" d="M 4.48930025100708 10.31504917144775 L 0.8653011322021484 0.8604671359062195 L 10.36387062072754 4.440470218658447 L 7.402174472808838 7.402174949645996 L 4.48930025100708 10.31504917144775 Z"/><path class="l" d="M 1.730582237243652 1.720914840698242 L 4.680450439453125 9.416769027709961 L 7.048614501953125 7.048604965209961 L 9.462241172790527 4.6349778175354 L 1.730582237243652 1.720914840698242 M 4.76837158203125e-06 -4.76837158203125e-06 L 11.26548385620117 4.245954990386963 L 7.755724430084229 7.755715370178223 L 4.298134326934814 11.21330547332764 L 4.76837158203125e-06 -4.76837158203125e-06 Z"/></g><line class="e" transform="translate(110.518 -437.373)" y2="16.479"/><g class="d" transform="translate(159.5 -439) rotate(45)"><path class="k" d="M 4.48930025100708 10.31504917144775 L 0.8653011322021484 0.8604671359062195 L 10.36387062072754 4.440470218658447 L 7.402174472808838 7.402174949645996 L 4.48930025100708 10.31504917144775 Z"/><path class="l" d="M 1.730582237243652 1.720914840698242 L 4.680450439453125 9.416769027709961 L 7.048614501953125 7.048604965209961 L 9.462241172790527 4.6349778175354 L 1.730582237243652 1.720914840698242 M 4.76837158203125e-06 -4.76837158203125e-06 L 11.26548385620117 4.245954990386963 L 7.755724430084229 7.755715370178223 L 4.298134326934814 11.21330547332764 L 4.76837158203125e-06 -4.76837158203125e-06 Z"/></g><line class="e" transform="translate(159.518 -438.373)" y2="16.479"/><g class="d" transform="translate(209.5 -439) rotate(45)"><path class="k" d="M 4.48930025100708 10.31504917144775 L 0.8653011322021484 0.8604671359062195 L 10.36387062072754 4.440470218658447 L 7.402174472808838 7.402174949645996 L 4.48930025100708 10.31504917144775 Z"/><path class="l" d="M 1.730582237243652 1.720914840698242 L 4.680450439453125 9.416769027709961 L 7.048614501953125 7.048604965209961 L 9.462241172790527 4.6349778175354 L 1.730582237243652 1.720914840698242 M 4.76837158203125e-06 -4.76837158203125e-06 L 11.26548385620117 4.245954990386963 L 7.755724430084229 7.755715370178223 L 4.298134326934814 11.21330547332764 L 4.76837158203125e-06 -4.76837158203125e-06 Z"/></g><line class="e" transform="translate(209.518 -438.373)" y2="16.479"/><g class="d" transform="translate(259.5 -439) rotate(45)"><path class="k" d="M 4.48930025100708 10.31504917144775 L 0.8653011322021484 0.8604671359062195 L 10.36387062072754 4.440470218658447 L 7.402174472808838 7.402174949645996 L 4.48930025100708 10.31504917144775 Z"/><path class="l" d="M 1.730582237243652 1.720914840698242 L 4.680450439453125 9.416769027709961 L 7.048614501953125 7.048604965209961 L 9.462241172790527 4.6349778175354 L 1.730582237243652 1.720914840698242 M 4.76837158203125e-06 -4.76837158203125e-06 L 11.26548385620117 4.245954990386963 L 7.755724430084229 7.755715370178223 L 4.298134326934814 11.21330547332764 L 4.76837158203125e-06 -4.76837158203125e-06 Z"/></g><line class="e" transform="translate(259.518 -438.373)" y2="16.479"/><rect class="f" height="40" transform="translate(-9 -545)" width="40"/><text class="b" transform="translate(11 -518)"><tspan x="-9.031" y="0">h</tspan><tspan class="c" y="0">0</tspan></text><rect class="g" height="40" transform="translate(40 -481)" width="40"/><text class="h" transform="translate(60 -454)"><tspan x="-6.021" y="0">e</tspan></text><g class="d" transform="translate(57.5 -503) rotate(45)"><path class="k" d="M 4.48930025100708 10.31504917144775 L 0.8653011322021484 0.8604671359062195 L 10.36387062072754 4.440470218658447 L 7.402174472808838 7.402174949645996 L 4.48930025100708 10.31504917144775 Z"/><path class="l" d="M 1.730582237243652 1.720914840698242 L 4.680450439453125 9.416769027709961 L 7.048614501953125 7.048604965209961 L 9.462241172790527 4.6349778175354 L 1.730582237243652 1.720914840698242 M 4.76837158203125e-06 -4.76837158203125e-06 L 11.26548385620117 4.245954990386963 L 7.755724430084229 7.755715370178223 L 4.298134326934814 11.21330547332764 L 4.76837158203125e-06 -4.76837158203125e-06 Z"/></g><line class="e" transform="translate(57.518 -502.373)" y2="16.479"/><rect class="f" height="40" transform="translate(38 -545)" width="40"/><text class="b" transform="translate(58 -518)"><tspan x="-9.031" y="0">h</tspan><tspan class="c" y="0">1</tspan></text><g class="d" transform="translate(44.537 -484.893) rotate(-135)"><path class="k" d="M 4.48930025100708 10.31504917144775 L 0.8653011322021484 0.8604671359062195 L 10.36387062072754 4.440470218658447 L 7.402174472808838 7.402174949645996 L 4.48930025100708 10.31504917144775 Z"/><path class="l" d="M 1.730582237243652 1.720914840698242 L 4.680450439453125 9.416769027709961 L 7.048614501953125 7.048604965209961 L 9.462241172790527 4.6349778175354 L 1.730582237243652 1.720914840698242 M 4.76837158203125e-06 -4.76837158203125e-06 L 11.26548385620117 4.245954990386963 L 7.755724430084229 7.755715370178223 L 4.298134326934814 11.21330547332764 L 4.76837158203125e-06 -4.76837158203125e-06 Z"/></g><line class="e" transform="translate(44.518 -485.521) rotate(180)" y2="13.779"/><line class="e" transform="translate(22 -499) rotate(180)" y2="5.45"/><line class="e" transform="translate(22.5 -499.5)" x2="22.5"/><rect class="g" height="40" transform="translate(90 -481)" width="40"/><text class="h" transform="translate(110 -454)"><tspan x="-6.021" y="0">e</tspan></text><g class="d" transform="translate(107.5 -503) rotate(45)"><path class="k" d="M 4.48930025100708 10.31504917144775 L 0.8653011322021484 0.8604671359062195 L 10.36387062072754 4.440470218658447 L 7.402174472808838 7.402174949645996 L 4.48930025100708 10.31504917144775 Z"/><path class="l" d="M 1.730582237243652 1.720914840698242 L 4.680450439453125 9.416769027709961 L 7.048614501953125 7.048604965209961 L 9.462241172790527 4.6349778175354 L 1.730582237243652 1.720914840698242 M 4.76837158203125e-06 -4.76837158203125e-06 L 11.26548385620117 4.245954990386963 L 7.755724430084229 7.755715370178223 L 4.298134326934814 11.21330547332764 L 4.76837158203125e-06 -4.76837158203125e-06 Z"/></g><line class="e" transform="translate(107.518 -502.373)" y2="16.479"/><rect class="f" height="40" transform="translate(88 -545)" width="40"/><text class="b" transform="translate(108 -518)"><tspan x="-9.031" y="0">h</tspan><tspan class="c" y="0">2</tspan></text><g class="d" transform="translate(94.537 -484.893) rotate(-135)"><path class="k" d="M 4.48930025100708 10.31504917144775 L 0.8653011322021484 0.8604671359062195 L 10.36387062072754 4.440470218658447 L 7.402174472808838 7.402174949645996 L 4.48930025100708 10.31504917144775 Z"/><path class="l" d="M 1.730582237243652 1.720914840698242 L 4.680450439453125 9.416769027709961 L 7.048614501953125 7.048604965209961 L 9.462241172790527 4.6349778175354 L 1.730582237243652 1.720914840698242 M 4.76837158203125e-06 -4.76837158203125e-06 L 11.26548385620117 4.245954990386963 L 7.755724430084229 7.755715370178223 L 4.298134326934814 11.21330547332764 L 4.76837158203125e-06 -4.76837158203125e-06 Z"/></g><line class="e" transform="translate(94.518 -485.521) rotate(180)" y2="13.779"/><line class="e" transform="translate(72 -499) rotate(180)" y2="5.45"/><line class="e" transform="translate(72.5 -499.5)" x2="22.5"/><rect class="g" height="40" transform="translate(140 -481)" width="40"/><text class="h" transform="translate(160 -454)"><tspan x="-6.021" y="0">e</tspan></text><g class="d" transform="translate(157.5 -503) rotate(45)"><path class="k" d="M 4.48930025100708 10.31504917144775 L 0.8653011322021484 0.8604671359062195 L 10.36387062072754 4.440470218658447 L 7.402174472808838 7.402174949645996 L 4.48930025100708 10.31504917144775 Z"/><path class="l" d="M 1.730582237243652 1.720914840698242 L 4.680450439453125 9.416769027709961 L 7.048614501953125 7.048604965209961 L 9.462241172790527 4.6349778175354 L 1.730582237243652 1.720914840698242 M 4.76837158203125e-06 -4.76837158203125e-06 L 11.26548385620117 4.245954990386963 L 7.755724430084229 7.755715370178223 L 4.298134326934814 11.21330547332764 L 4.76837158203125e-06 -4.76837158203125e-06 Z"/></g><line class="e" transform="translate(157.518 -502.373)" y2="16.479"/><rect class="f" height="40" transform="translate(138 -545)" width="40"/><text class="b" transform="translate(158 -518)"><tspan x="-9.031" y="0">h</tspan><tspan class="c" y="0">3</tspan></text><g class="d" transform="translate(144.537 -484.893) rotate(-135)"><path class="k" d="M 4.48930025100708 10.31504917144775 L 0.8653011322021484 0.8604671359062195 L 10.36387062072754 4.440470218658447 L 7.402174472808838 7.402174949645996 L 4.48930025100708 10.31504917144775 Z"/><path class="l" d="M 1.730582237243652 1.720914840698242 L 4.680450439453125 9.416769027709961 L 7.048614501953125 7.048604965209961 L 9.462241172790527 4.6349778175354 L 1.730582237243652 1.720914840698242 M 4.76837158203125e-06 -4.76837158203125e-06 L 11.26548385620117 4.245954990386963 L 7.755724430084229 7.755715370178223 L 4.298134326934814 11.21330547332764 L 4.76837158203125e-06 -4.76837158203125e-06 Z"/></g><line class="e" transform="translate(144.518 -485.521) rotate(180)" y2="13.779"/><line class="e" transform="translate(122 -499) rotate(180)" y2="5.45"/><line class="e" transform="translate(122.5 -499.5)" x2="22.5"/><rect class="g" height="40" transform="translate(190 -481)" width="40"/><text class="h" transform="translate(210 -454)"><tspan x="-6.021" y="0">e</tspan></text><g class="d" transform="translate(207.5 -503) rotate(45)"><path class="k" d="M 4.48930025100708 10.31504917144775 L 0.8653011322021484 0.8604671359062195 L 10.36387062072754 4.440470218658447 L 7.402174472808838 7.402174949645996 L 4.48930025100708 10.31504917144775 Z"/><path class="l" d="M 1.730582237243652 1.720914840698242 L 4.680450439453125 9.416769027709961 L 7.048614501953125 7.048604965209961 L 9.462241172790527 4.6349778175354 L 1.730582237243652 1.720914840698242 M 4.76837158203125e-06 -4.76837158203125e-06 L 11.26548385620117 4.245954990386963 L 7.755724430084229 7.755715370178223 L 4.298134326934814 11.21330547332764 L 4.76837158203125e-06 -4.76837158203125e-06 Z"/></g><line class="e" transform="translate(207.518 -502.373)" y2="16.479"/><rect class="f" height="40" transform="translate(188 -545)" width="40"/><text class="b" transform="translate(208 -518)"><tspan x="-9.031" y="0">h</tspan><tspan class="c" y="0">4</tspan></text><g class="d" transform="translate(194.537 -484.893) rotate(-135)"><path class="k" d="M 4.48930025100708 10.31504917144775 L 0.8653011322021484 0.8604671359062195 L 10.36387062072754 4.440470218658447 L 7.402174472808838 7.402174949645996 L 4.48930025100708 10.31504917144775 Z"/><path class="l" d="M 1.730582237243652 1.720914840698242 L 4.680450439453125 9.416769027709961 L 7.048614501953125 7.048604965209961 L 9.462241172790527 4.6349778175354 L 1.730582237243652 1.720914840698242 M 4.76837158203125e-06 -4.76837158203125e-06 L 11.26548385620117 4.245954990386963 L 7.755724430084229 7.755715370178223 L 4.298134326934814 11.21330547332764 L 4.76837158203125e-06 -4.76837158203125e-06 Z"/></g><line class="e" transform="translate(194.518 -485.521) rotate(180)" y2="13.779"/><line class="e" transform="translate(172 -499) rotate(180)" y2="5.45"/><line class="e" transform="translate(172.5 -499.5)" x2="22.5"/><rect class="g" height="40" transform="translate(240 -481)" width="40"/><text class="h" transform="translate(260 -454)"><tspan x="-6.021" y="0">e</tspan></text><g class="d" transform="translate(257.5 -503) rotate(45)"><path class="k" d="M 4.48930025100708 10.31504917144775 L 0.8653011322021484 0.8604671359062195 L 10.36387062072754 4.440470218658447 L 7.402174472808838 7.402174949645996 L 4.48930025100708 10.31504917144775 Z"/><path class="l" d="M 1.730582237243652 1.720914840698242 L 4.680450439453125 9.416769027709961 L 7.048614501953125 7.048604965209961 L 9.462241172790527 4.6349778175354 L 1.730582237243652 1.720914840698242 M 4.76837158203125e-06 -4.76837158203125e-06 L 11.26548385620117 4.245954990386963 L 7.755724430084229 7.755715370178223 L 4.298134326934814 11.21330547332764 L 4.76837158203125e-06 -4.76837158203125e-06 Z"/></g><line class="e" transform="translate(257.518 -502.373)" y2="16.479"/><rect class="f" height="40" transform="translate(238 -545)" width="40"/><text class="b" transform="translate(258 -518)"><tspan x="-9.031" y="0">h</tspan><tspan class="c" y="0">5</tspan></text><g class="d" transform="translate(244.537 -484.893) rotate(-135)"><path class="k" d="M 4.48930025100708 10.31504917144775 L 0.8653011322021484 0.8604671359062195 L 10.36387062072754 4.440470218658447 L 7.402174472808838 7.402174949645996 L 4.48930025100708 10.31504917144775 Z"/><path class="l" d="M 1.730582237243652 1.720914840698242 L 4.680450439453125 9.416769027709961 L 7.048614501953125 7.048604965209961 L 9.462241172790527 4.6349778175354 L 1.730582237243652 1.720914840698242 M 4.76837158203125e-06 -4.76837158203125e-06 L 11.26548385620117 4.245954990386963 L 7.755724430084229 7.755715370178223 L 4.298134326934814 11.21330547332764 L 4.76837158203125e-06 -4.76837158203125e-06 Z"/></g><line class="e" transform="translate(244.518 -485.521) rotate(180)" y2="13.779"/><line class="e" transform="translate(222 -499) rotate(180)" y2="5.45"/><line class="e" transform="translate(222.5 -499.5)" x2="22.5"/><g transform="translate(-247.928 -926.965) rotate(90)"><g class="d" transform="translate(401.5 -562) rotate(45)"><path class="k" d="M 4.48930025100708 10.31504917144775 L 0.8653011322021484 0.8604671359062195 L 10.36387062072754 4.440470218658447 L 7.402174472808838 7.402174949645996 L 4.48930025100708 10.31504917144775 Z"/><path class="l" d="M 1.730582237243652 1.720914840698242 L 4.680450439453125 9.416769027709961 L 7.048614501953125 7.048604965209961 L 9.462241172790527 4.6349778175354 L 1.730582237243652 1.720914840698242 M 4.76837158203125e-06 -4.76837158203125e-06 L 11.26548385620117 4.245954990386963 L 7.755724430084229 7.755715370178223 L 4.298134326934814 11.21330547332764 L 4.76837158203125e-06 -4.76837158203125e-06 Z"/></g><line class="e" transform="translate(401.465 -561.373)" x1="0.053" y2="28.944"/></g><rect class="i" height="40" transform="translate(323 -545)" width="40"/><text class="j" transform="translate(343 -518)"><tspan x="-6.021" y="0">z</tspan></text></g></svg>