<svg xmlns="http://www.w3.org/2000/svg" viewBox="0 0 795 583"><defs><style>.a{fill:#9db4ff;}.b,.d,.f,.i,.q{fill:#020000;font-size:20px;}.b{font-family:Menlo-Italic, Menlo;font-style:italic;}.c,.e,.g{font-size:10px;}.c,.e,.f{font-family:Menlo-Regular, Menlo;}.c{font-style:normal;}.d{font-family:Menlo-Bold, Menlo;font-weight:700;}.e{font-weight:400;}.h{fill:#ff9d9d;}.i{font-family:Hack-Regular, Hack;}.j{fill:#9dffa8;}.k,.s{fill:#707070;}.l,.m{fill:none;}.l{stroke:#707070;}.m{stroke:#afafaf;}.n{fill:#10ebfd;}.o{fill:#fb9dff;}.p{fill:#fff09d;}.q{font-family:TimesNewRomanPSMT, Times New Roman;}.r,.s{stroke:none;}</style></defs><g transform="translate(-205 29)"><rect class="a" width="40" height="40" transform="translate(540 251)"/><text class="b" transform="translate(560 278)"><tspan x="-9.031" y="0">g</tspan><tspan class="c" y="0">t</tspan></text><rect class="a" width="40" height="40" transform="translate(540 154)"/><text class="d" transform="translate(560 181)"><tspan x="-9.031" y="0">s</tspan><tspan class="e" y="0">t</tspan></text><rect class="a" width="40" height="40" transform="translate(344 337)"/><text class="d" transform="translate(364 364)"><tspan x="-15.051" y="0">w</tspan><tspan class="e" y="0">t-1</tspan></text><rect class="a" width="40" height="40" transform="translate(393 514)"/><text class="f" transform="translate(413 541)"><tspan x="-9.031" y="0">M</tspan><tspan class="g" y="0">t</tspan></text><rect class="a" width="40" height="40" transform="translate(540 61)"/><text class="b" transform="translate(560 88)"><tspan x="-9.031" y="0">y</tspan><tspan class="c" y="0">t</tspan></text><rect class="h" width="174" height="50" transform="translate(326 241)"/><text class="i" transform="translate(413 273)"><tspan x="-78.267" y="0">Interpolation</tspan></text><rect class="j" width="174" height="50" transform="translate(326 423)"/><text class="i" transform="translate(413 455)"><tspan x="-78.267" y="0">Compatibility</tspan></text><g class="k" transform="translate(412.5 480.893) rotate(45)"><path class="r" d="M 4.48930025100708 10.31504917144775 L 0.8653011322021484 0.8604671359062195 L 10.36387062072754 4.440470218658447 L 7.402174472808838 7.402174949645996 L 4.48930025100708 10.31504917144775 Z"/><path class="s" d="M 1.730582237243652 1.720914840698242 L 4.680450439453125 9.416769027709961 L 7.048614501953125 7.048604965209961 L 9.462241172790527 4.6349778175354 L 1.730582237243652 1.720914840698242 M 4.76837158203125e-06 -4.76837158203125e-06 L 11.26548385620117 4.245954990386963 L 7.755724430084229 7.755715370178223 L 4.298134326934814 11.21330547332764 L 4.76837158203125e-06 -4.76837158203125e-06 Z"/></g><g transform="translate(411 481.521)"><line class="l" y2="25" transform="translate(1.5)"/></g><g transform="translate(339.263 344.134) rotate(-90)"><line class="m" y2="12" transform="translate(-148.387 546)"/><line class="m" x2="437.521" transform="translate(-148.387 557.5)"/><line class="m" y2="12" transform="translate(289.145 546)"/><line class="m" y2="12" transform="translate(68.564 558)"/></g><g class="k" transform="translate(449.5 389.893) rotate(45)"><path class="r" d="M 4.48930025100708 10.31504917144775 L 0.8653011322021484 0.8604671359062195 L 10.36387062072754 4.440470218658447 L 7.402174472808838 7.402174949645996 L 4.48930025100708 10.31504917144775 Z"/><path class="s" d="M 1.730582237243652 1.720914840698242 L 4.680450439453125 9.416769027709961 L 7.048614501953125 7.048604965209961 L 9.462241172790527 4.6349778175354 L 1.730582237243652 1.720914840698242 M 4.76837158203125e-06 -4.76837158203125e-06 L 11.26548385620117 4.245954990386963 L 7.755724430084229 7.755715370178223 L 4.298134326934814 11.21330547332764 L 4.76837158203125e-06 -4.76837158203125e-06 Z"/></g><g transform="translate(448 390.521)"><line class="l" y2="25" transform="translate(1.5)"/></g><rect class="n" width="96" height="50" transform="translate(404 332)"/><text class="i" transform="translate(450 364)"><tspan x="-42.144" y="0">Softmax</tspan></text><g class="k" transform="translate(449.5 298.893) rotate(45)"><path class="r" d="M 4.48930025100708 10.31504917144775 L 0.8653011322021484 0.8604671359062195 L 10.36387062072754 4.440470218658447 L 7.402174472808838 7.402174949645996 L 4.48930025100708 10.31504917144775 Z"/><path class="s" d="M 1.730582237243652 1.720914840698242 L 4.680450439453125 9.416769027709961 L 7.048614501953125 7.048604965209961 L 9.462241172790527 4.6349778175354 L 1.730582237243652 1.720914840698242 M 4.76837158203125e-06 -4.76837158203125e-06 L 11.26548385620117 4.245954990386963 L 7.755724430084229 7.755715370178223 L 4.298134326934814 11.21330547332764 L 4.76837158203125e-06 -4.76837158203125e-06 Z"/></g><g transform="translate(448 299.521)"><line class="l" y2="25" transform="translate(1.5)"/></g><rect class="o" width="174" height="52" transform="translate(326 148)"/><text class="i" transform="translate(413 181)"><tspan x="-66.226" y="0">Conv. Shift</tspan></text><g class="k" transform="translate(414.5 207.893) rotate(45)"><path class="r" d="M 4.48930025100708 10.31504917144775 L 0.8653011322021484 0.8604671359062195 L 10.36387062072754 4.440470218658447 L 7.402174472808838 7.402174949645996 L 4.48930025100708 10.31504917144775 Z"/><path class="s" d="M 1.730582237243652 1.720914840698242 L 4.680450439453125 9.416769027709961 L 7.048614501953125 7.048604965209961 L 9.462241172790527 4.6349778175354 L 1.730582237243652 1.720914840698242 M 4.76837158203125e-06 -4.76837158203125e-06 L 11.26548385620117 4.245954990386963 L 7.755724430084229 7.755715370178223 L 4.298134326934814 11.21330547332764 L 4.76837158203125e-06 -4.76837158203125e-06 Z"/></g><g transform="translate(413 208.521)"><line class="l" y2="25" transform="translate(1.5)"/></g><g class="k" transform="translate(414.5 114.893) rotate(45)"><path class="r" d="M 4.48930025100708 10.31504917144775 L 0.8653011322021484 0.8604671359062195 L 10.36387062072754 4.440470218658447 L 7.402174472808838 7.402174949645996 L 4.48930025100708 10.31504917144775 Z"/><path class="s" d="M 1.730582237243652 1.720914840698242 L 4.680450439453125 9.416769027709961 L 7.048614501953125 7.048604965209961 L 9.462241172790527 4.6349778175354 L 1.730582237243652 1.720914840698242 M 4.76837158203125e-06 -4.76837158203125e-06 L 11.26548385620117 4.245954990386963 L 7.755724430084229 7.755715370178223 L 4.298134326934814 11.21330547332764 L 4.76837158203125e-06 -4.76837158203125e-06 Z"/></g><g transform="translate(413 115.521)"><line class="l" y2="25" transform="translate(1.5)"/></g><rect class="p" width="174" height="52" transform="translate(326 55)"/><text class="i" transform="translate(413 88)"><tspan x="-60.205" y="0">Sharpening</tspan></text><g transform="translate(153.811 205.225) rotate(-90)"><g class="k" transform="translate(-61.5 352.893) rotate(45)"><path class="r" d="M 4.48930025100708 10.31504917144775 L 0.8653011322021484 0.8604671359062195 L 10.36387062072754 4.440470218658447 L 7.402174472808838 7.402174949645996 L 4.48930025100708 10.31504917144775 Z"/><path class="s" d="M 1.730582237243652 1.720914840698242 L 4.680450439453125 9.416769027709961 L 7.048614501953125 7.048604965209961 L 9.462241172790527 4.6349778175354 L 1.730582237243652 1.720914840698242 M 4.76837158203125e-06 -4.76837158203125e-06 L 11.26548385620117 4.245954990386963 L 7.755724430084229 7.755715370178223 L 4.298134326934814 11.21330547332764 L 4.76837158203125e-06 -4.76837158203125e-06 Z"/></g><g transform="translate(-63 353.521)"><line class="l" y2="25" transform="translate(1.5)"/></g></g><g transform="translate(153.811 112.225) rotate(-90)"><g class="k" transform="translate(-61.5 352.893) rotate(45)"><path class="r" d="M 4.48930025100708 10.31504917144775 L 0.8653011322021484 0.8604671359062195 L 10.36387062072754 4.440470218658447 L 7.402174472808838 7.402174949645996 L 4.48930025100708 10.31504917144775 Z"/><path class="s" d="M 1.730582237243652 1.720914840698242 L 4.680450439453125 9.416769027709961 L 7.048614501953125 7.048604965209961 L 9.462241172790527 4.6349778175354 L 1.730582237243652 1.720914840698242 M 4.76837158203125e-06 -4.76837158203125e-06 L 11.26548385620117 4.245954990386963 L 7.755724430084229 7.755715370178223 L 4.298134326934814 11.21330547332764 L 4.76837158203125e-06 -4.76837158203125e-06 Z"/></g><g transform="translate(-63 353.521)"><line class="l" y2="25" transform="translate(1.5)"/></g></g><rect class="a" width="40" height="40" transform="translate(540 449)"/><text class="b" transform="translate(560 476)"><tspan x="-9.031" y="0">B</tspan><tspan class="c" y="0">t</tspan></text><rect class="a" width="40" height="40" transform="translate(540 407)"/><text class="d" transform="translate(560 434)"><tspan x="-9.031" y="0">k</tspan><tspan class="e" y="0">t</tspan></text><g transform="translate(153.811 369.225) rotate(-90)"><g class="k" transform="translate(-61.5 352.893) rotate(45)"><path class="r" d="M 4.48930025100708 10.31504917144775 L 0.8653011322021484 0.8604671359062195 L 10.36387062072754 4.440470218658447 L 7.402174472808838 7.402174949645996 L 4.48930025100708 10.31504917144775 Z"/><path class="s" d="M 1.730582237243652 1.720914840698242 L 4.680450439453125 9.416769027709961 L 7.048614501953125 7.048604965209961 L 9.462241172790527 4.6349778175354 L 1.730582237243652 1.720914840698242 M 4.76837158203125e-06 -4.76837158203125e-06 L 11.26548385620117 4.245954990386963 L 7.755724430084229 7.755715370178223 L 4.298134326934814 11.21330547332764 L 4.76837158203125e-06 -4.76837158203125e-06 Z"/></g><g transform="translate(-63 353.521)"><line class="l" y2="25" transform="translate(1.5)"/></g></g><g transform="translate(153.811 403.225) rotate(-90)"><g class="k" transform="translate(-61.5 352.893) rotate(45)"><path class="r" d="M 4.48930025100708 10.31504917144775 L 0.8653011322021484 0.8604671359062195 L 10.36387062072754 4.440470218658447 L 7.402174472808838 7.402174949645996 L 4.48930025100708 10.31504917144775 Z"/><path class="s" d="M 1.730582237243652 1.720914840698242 L 4.680450439453125 9.416769027709961 L 7.048614501953125 7.048604965209961 L 9.462241172790527 4.6349778175354 L 1.730582237243652 1.720914840698242 M 4.76837158203125e-06 -4.76837158203125e-06 L 11.26548385620117 4.245954990386963 L 7.755724430084229 7.755715370178223 L 4.298134326934814 11.21330547332764 L 4.76837158203125e-06 -4.76837158203125e-06 Z"/></g><g transform="translate(-63 353.521)"><line class="l" y2="25" transform="translate(1.5)"/></g></g><g transform="translate(153.811 19.225) rotate(-90)"><g class="k" transform="translate(-61.5 352.893) rotate(45)"><path class="r" d="M 4.48930025100708 10.31504917144775 L 0.8653011322021484 0.8604671359062195 L 10.36387062072754 4.440470218658447 L 7.402174472808838 7.402174949645996 L 4.48930025100708 10.31504917144775 Z"/><path class="s" d="M 1.730582237243652 1.720914840698242 L 4.680450439453125 9.416769027709961 L 7.048614501953125 7.048604965209961 L 9.462241172790527 4.6349778175354 L 1.730582237243652 1.720914840698242 M 4.76837158203125e-06 -4.76837158203125e-06 L 11.26548385620117 4.245954990386963 L 7.755724430084229 7.755715370178223 L 4.298134326934814 11.21330547332764 L 4.76837158203125e-06 -4.76837158203125e-06 Z"/></g><g transform="translate(-63 353.521)"><line class="l" y2="25" transform="translate(1.5)"/></g></g><g class="k" transform="translate(415.5 21.893) rotate(45)"><path class="r" d="M 4.48930025100708 10.31504917144775 L 0.8653011322021484 0.8604671359062195 L 10.36387062072754 4.440470218658447 L 7.402174472808838 7.402174949645996 L 4.48930025100708 10.31504917144775 Z"/><path class="s" d="M 1.730582237243652 1.720914840698242 L 4.680450439453125 9.416769027709961 L 7.048614501953125 7.048604965209961 L 9.462241172790527 4.6349778175354 L 1.730582237243652 1.720914840698242 M 4.76837158203125e-06 -4.76837158203125e-06 L 11.26548385620117 4.245954990386963 L 7.755724430084229 7.755715370178223 L 4.298134326934814 11.21330547332764 L 4.76837158203125e-06 -4.76837158203125e-06 Z"/></g><g transform="translate(414 22.521)"><line class="l" y2="25" transform="translate(1.5)"/></g><rect class="a" width="40" height="40" transform="translate(395 -29)"/><text class="d" transform="translate(415 -2)"><tspan x="-9.031" y="0">w</tspan><tspan class="e" y="0">t</tspan></text><text class="q" transform="translate(476 541)"><tspan x="-34.438" y="0">Memory</tspan></text><text class="q" transform="translate(589 476)"><tspan x="0" y="0">Key strength, 0+.</tspan></text><text class="q" transform="translate(589 438)"><tspan x="0" y="0">Input vector.</tspan></text><text class="q" transform="translate(589 278)"><tspan x="0" y="0">Interpolation gate, [0, 1].</tspan></text><g class="k" transform="translate(363.5 298.893) rotate(45)"><path class="r" d="M 4.48930025100708 10.31504917144775 L 0.8653011322021484 0.8604671359062195 L 10.36387062072754 4.440470218658447 L 7.402174472808838 7.402174949645996 L 4.48930025100708 10.31504917144775 Z"/><path class="s" d="M 1.730582237243652 1.720914840698242 L 4.680450439453125 9.416769027709961 L 7.048614501953125 7.048604965209961 L 9.462241172790527 4.6349778175354 L 1.730582237243652 1.720914840698242 M 4.76837158203125e-06 -4.76837158203125e-06 L 11.26548385620117 4.245954990386963 L 7.755724430084229 7.755715370178223 L 4.298134326934814 11.21330547332764 L 4.76837158203125e-06 -4.76837158203125e-06 Z"/></g><g transform="translate(362 299.521)"><line class="l" y2="25" transform="translate(1.5)"/></g><text class="q" transform="translate(589 91)"><tspan x="0" y="0">Sharpening factor, 1+.</tspan></text><text class="q" transform="translate(589 169)"><tspan x="0" y="0">Shift weighting, softmax distribution</tspan><tspan x="0" y="23">over possible shifts, [-1, 0, 1].</tspan></text><text class="q" transform="translate(917 269)"><tspan x="0" y="0">Controller</tspan><tspan x="0" y="23">outputs</tspan></text><line class="m" x1="47.237" transform="translate(294.263 357)"/><line class="m" x2="176.995" transform="translate(294.763 357) rotate(90)"/><line class="m" x1="96.237" y2="0.5" transform="translate(294.263 533.5)"/><line class="m" y2="12" transform="translate(294.263 444.766) rotate(90)"/><text class="q" transform="translate(205 438)"><tspan x="0" y="0">Previous</tspan><tspan x="0" y="23">Outputs</tspan></text></g></svg>