<svg xmlns="http://www.w3.org/2000/svg" viewBox="0 0 346 581"><defs><style>.a{fill:#f7f7f7;}.a,.b,.f{stroke:#707070;}.b,.l{fill:none;}.c{fill:#9db4ff;}.d,.g{fill:#020000;font-size:20px;}.d{font-family:Menlo-Regular, Menlo;}.e,.m{fill:#707070;}.f{fill:#fff;}.g{font-family:Hack-Regular, Hack;}.h{fill:#10ebfd;}.i{fill:#9dffa8;}.j{fill:#ff9d9d;}.k,.m{stroke:none;}</style></defs><g transform="translate(457 -145)"><g class="a" transform="translate(-389 186)"><rect class="k" width="275" height="341"/><rect class="l" x="0.5" y="0.5" width="274" height="340"/></g><line class="b" y2="110" transform="translate(-246.5 161.5)"/><line class="b" x1="0.018" y2="78.873" transform="translate(-246.5 345.627)"/><rect class="c" width="208" height="40" transform="translate(-350 611)"/><text class="d" transform="translate(-246 638)"><tspan x="-90.308" y="0">Input Embedding</tspan></text><g class="e" transform="translate(-246.5 661.893) rotate(45)"><path class="k" d="M 4.48930025100708 10.31504917144775 L 0.8653011322021484 0.8604671359062195 L 10.36387062072754 4.440470218658447 L 7.402174472808838 7.402174949645996 L 4.48930025100708 10.31504917144775 Z"/><path class="m" d="M 1.730582237243652 1.720914840698242 L 4.680450439453125 9.416769027709961 L 7.048614501953125 7.048604965209961 L 9.462241172790527 4.6349778175354 L 1.730582237243652 1.720914840698242 M 4.76837158203125e-06 -4.76837158203125e-06 L 11.26548385620117 4.245954990386963 L 7.755724430084229 7.755715370178223 L 4.298134326934814 11.21330547332764 L 4.76837158203125e-06 -4.76837158203125e-06 Z"/></g><g transform="translate(-246.5 662.521)"><line class="b" y2="30"/></g><g class="e" transform="translate(-246.5 661.893) rotate(45)"><path class="k" d="M 4.48930025100708 10.31504917144775 L 0.8653011322021484 0.8604671359062195 L 10.36387062072754 4.440470218658447 L 7.402174472808838 7.402174949645996 L 4.48930025100708 10.31504917144775 Z"/><path class="m" d="M 1.730582237243652 1.720914840698242 L 4.680450439453125 9.416769027709961 L 7.048614501953125 7.048604965209961 L 9.462241172790527 4.6349778175354 L 1.730582237243652 1.720914840698242 M 4.76837158203125e-06 -4.76837158203125e-06 L 11.26548385620117 4.245954990386963 L 7.755724430084229 7.755715370178223 L 4.298134326934814 11.21330547332764 L 4.76837158203125e-06 -4.76837158203125e-06 Z"/></g><g transform="translate(-246.5 662.521)"><line class="b" y2="30"/></g><text class="d" transform="translate(-246 721)"><tspan x="-36.123" y="0">Inputs</tspan></text><g transform="translate(-17 536)"><g class="e" transform="translate(-229.5 48) rotate(45)"><path class="k" d="M 4.48930025100708 10.31504917144775 L 0.8653011322021484 0.8604671359062195 L 10.36387062072754 4.440470218658447 L 7.402174472808838 7.402174949645996 L 4.48930025100708 10.31504917144775 Z"/><path class="m" d="M 1.730582237243652 1.720914840698242 L 4.680450439453125 9.416769027709961 L 7.048614501953125 7.048604965209961 L 9.462241172790527 4.6349778175354 L 1.730582237243652 1.720914840698242 M 4.76837158203125e-06 -4.76837158203125e-06 L 11.26548385620117 4.245954990386963 L 7.755724430084229 7.755715370178223 L 4.298134326934814 11.21330547332764 L 4.76837158203125e-06 -4.76837158203125e-06 Z"/></g><line class="b" y2="16.479" transform="translate(-229.482 48.627)"/></g><g class="f" transform="translate(-256 559)"><circle class="k" cx="10" cy="10" r="10"/><circle class="l" cx="10" cy="10" r="9.5"/></g><text class="g" transform="translate(-246 576)"><tspan x="-6.021" y="0">+</tspan></text><g class="f" transform="translate(-325 549)"><circle class="k" cx="20" cy="20" r="20"/><circle class="l" cx="20" cy="20" r="19.5"/></g><line class="b" x2="31" y2="24" transform="translate(-320.5 557.5)"/><g transform="translate(-212.928 797.035) rotate(90)"><g class="e" transform="translate(-229.5 48) rotate(45)"><path class="k" d="M 4.48930025100708 10.31504917144775 L 0.8653011322021484 0.8604671359062195 L 10.36387062072754 4.440470218658447 L 7.402174472808838 7.402174949645996 L 4.48930025100708 10.31504917144775 Z"/><path class="m" d="M 1.730582237243652 1.720914840698242 L 4.680450439453125 9.416769027709961 L 7.048614501953125 7.048604965209961 L 9.462241172790527 4.6349778175354 L 1.730582237243652 1.720914840698242 M 4.76837158203125e-06 -4.76837158203125e-06 L 11.26548385620117 4.245954990386963 L 7.755724430084229 7.755715370178223 L 4.298134326934814 11.21330547332764 L 4.76837158203125e-06 -4.76837158203125e-06 Z"/></g><line class="b" y2="16.479" transform="translate(-229.482 48.627)"/></g><text class="d" transform="translate(-396 565)"><tspan x="-60.205" y="0">Positional</tspan><tspan x="-48.164" y="24">Encoding</tspan></text><g transform="translate(-22 302)"><path class="h" d="M0,0H145V60.864H0Z" transform="translate(-297 122)"/><text class="d" transform="translate(-225 147)"><tspan x="-60.205" y="0">Multi-Head</tspan><tspan x="-54.185" y="24">Attention</tspan></text></g><g transform="translate(-332 363)"><rect class="i" width="145" height="52" transform="translate(13)"/><text class="g" transform="translate(87 33)"><tspan x="-60.205" y="0">Add &amp; Norm</tspan></text></g><g transform="translate(-289 267)"><rect class="j" width="145" height="64" transform="translate(-29 -3)"/><text class="g" transform="translate(44 24)"><tspan x="-30.103" y="0">Feed </tspan><tspan x="-42.144" y="24">Forward</tspan></text></g><g transform="translate(-332 204)"><rect class="i" width="145" height="52" transform="translate(13)"/><text class="g" transform="translate(87 33)"><tspan x="-60.205" y="0">Add &amp; Norm</tspan></text></g><g class="e" transform="translate(-295.5 488) rotate(45)"><path class="k" d="M 4.48930025100708 10.31504917144775 L 0.8653011322021484 0.8604671359062195 L 10.36387062072754 4.440470218658447 L 7.402174472808838 7.402174949645996 L 4.48930025100708 10.31504917144775 Z"/><path class="m" d="M 1.730582237243652 1.720914840698242 L 4.680450439453125 9.416769027709961 L 7.048614501953125 7.048604965209961 L 9.462241172790527 4.6349778175354 L 1.730582237243652 1.720914840698242 M 4.76837158203125e-06 -4.76837158203125e-06 L 11.26548385620117 4.245954990386963 L 7.755724430084229 7.755715370178223 L 4.298134326934814 11.21330547332764 L 4.76837158203125e-06 -4.76837158203125e-06 Z"/></g><line class="b" y2="16" transform="translate(-295.482 489.627)"/><line class="b" y2="16" transform="translate(-295.482 489.627)"/><line class="b" x2="100.5" transform="translate(-296 505.5)"/><g class="e" transform="translate(-246.5 488) rotate(45)"><path class="k" d="M 4.48930025100708 10.31504917144775 L 0.8653011322021484 0.8604671359062195 L 10.36387062072754 4.440470218658447 L 7.402174472808838 7.402174949645996 L 4.48930025100708 10.31504917144775 Z"/><path class="m" d="M 1.730582237243652 1.720914840698242 L 4.680450439453125 9.416769027709961 L 7.048614501953125 7.048604965209961 L 9.462241172790527 4.6349778175354 L 1.730582237243652 1.720914840698242 M 4.76837158203125e-06 -4.76837158203125e-06 L 11.26548385620117 4.245954990386963 L 7.755724430084229 7.755715370178223 L 4.298134326934814 11.21330547332764 L 4.76837158203125e-06 -4.76837158203125e-06 Z"/></g><line class="b" y2="16" transform="translate(-246.482 489.627)"/><line class="b" y2="16" transform="translate(-246.482 489.627)"/><g class="e" transform="translate(-195.5 488) rotate(45)"><path class="k" d="M 4.48930025100708 10.31504917144775 L 0.8653011322021484 0.8604671359062195 L 10.36387062072754 4.440470218658447 L 7.402174472808838 7.402174949645996 L 4.48930025100708 10.31504917144775 Z"/><path class="m" d="M 1.730582237243652 1.720914840698242 L 4.680450439453125 9.416769027709961 L 7.048614501953125 7.048604965209961 L 9.462241172790527 4.6349778175354 L 1.730582237243652 1.720914840698242 M 4.76837158203125e-06 -4.76837158203125e-06 L 11.26548385620117 4.245954990386963 L 7.755724430084229 7.755715370178223 L 4.298134326934814 11.21330547332764 L 4.76837158203125e-06 -4.76837158203125e-06 Z"/></g><line class="b" y2="16" transform="translate(-195.482 489.627)"/><line class="b" y2="16" transform="translate(-195.482 489.627)"/><line class="b" x1="0.018" y2="45.873" transform="translate(-246.5 500.627)"/><g transform="translate(-276.928 618.035) rotate(90)"><g class="e" transform="translate(-229.5 48) rotate(45)"><path class="k" d="M 4.48930025100708 10.31504917144775 L 0.8653011322021484 0.8604671359062195 L 10.36387062072754 4.440470218658447 L 7.402174472808838 7.402174949645996 L 4.48930025100708 10.31504917144775 Z"/><path class="m" d="M 1.730582237243652 1.720914840698242 L 4.680450439453125 9.416769027709961 L 7.048614501953125 7.048604965209961 L 9.462241172790527 4.6349778175354 L 1.730582237243652 1.720914840698242 M 4.76837158203125e-06 -4.76837158203125e-06 L 11.26548385620117 4.245954990386963 L 7.755724430084229 7.755715370178223 L 4.298134326934814 11.21330547332764 L 4.76837158203125e-06 -4.76837158203125e-06 Z"/></g><line class="b" y2="16.479" transform="translate(-229.482 48.627)"/></g><line class="b" y2="125.5" transform="translate(-342.5 388)"/><path class="b" d="M0,0H96.5" transform="translate(-343 513.5)"/><line class="b" y2="16" transform="translate(-246.482 489.627)"/><g class="e" transform="translate(-246.5 333) rotate(45)"><path class="k" d="M 4.48930025100708 10.31504917144775 L 0.8653011322021484 0.8604671359062195 L 10.36387062072754 4.440470218658447 L 7.402174472808838 7.402174949645996 L 4.48930025100708 10.31504917144775 Z"/><path class="m" d="M 1.730582237243652 1.720914840698242 L 4.680450439453125 9.416769027709961 L 7.048614501953125 7.048604965209961 L 9.462241172790527 4.6349778175354 L 1.730582237243652 1.720914840698242 M 4.76837158203125e-06 -4.76837158203125e-06 L 11.26548385620117 4.245954990386963 L 7.755724430084229 7.755715370178223 L 4.298134326934814 11.21330547332764 L 4.76837158203125e-06 -4.76837158203125e-06 Z"/></g><line class="b" y2="16" transform="translate(-246.482 334.627)"/><line class="b" y2="16" transform="translate(-246.482 334.627)"/><g transform="translate(-276.928 463.035) rotate(90)"><g class="e" transform="translate(-229.5 48) rotate(45)"><path class="k" d="M 4.48930025100708 10.31504917144775 L 0.8653011322021484 0.8604671359062195 L 10.36387062072754 4.440470218658447 L 7.402174472808838 7.402174949645996 L 4.48930025100708 10.31504917144775 Z"/><path class="m" d="M 1.730582237243652 1.720914840698242 L 4.680450439453125 9.416769027709961 L 7.048614501953125 7.048604965209961 L 9.462241172790527 4.6349778175354 L 1.730582237243652 1.720914840698242 M 4.76837158203125e-06 -4.76837158203125e-06 L 11.26548385620117 4.245954990386963 L 7.755724430084229 7.755715370178223 L 4.298134326934814 11.21330547332764 L 4.76837158203125e-06 -4.76837158203125e-06 Z"/></g><line class="b" y2="16.479" transform="translate(-229.482 48.627)"/></g><line class="b" x2="96.5" transform="translate(-343 352.5)"/><line class="b" y2="16" transform="translate(-246.482 334.627)"/><line class="b" y2="119.5" transform="translate(-342.5 233)"/><text class="d" transform="translate(-430 368)"><tspan x="-18.062" y="0">N x</tspan></text><g transform="translate(-108.928 391.035) rotate(90)"><g class="e" transform="translate(-229.5 48) rotate(45)"><path class="k" d="M 4.48930025100708 10.31504917144775 L 0.8653011322021484 0.8604671359062195 L 10.36387062072754 4.440470218658447 L 7.402174472808838 7.402174949645996 L 4.48930025100708 10.31504917144775 Z"/><path class="m" d="M 1.730582237243652 1.720914840698242 L 4.680450439453125 9.416769027709961 L 7.048614501953125 7.048604965209961 L 9.462241172790527 4.6349778175354 L 1.730582237243652 1.720914840698242 M 4.76837158203125e-06 -4.76837158203125e-06 L 11.26548385620117 4.245954990386963 L 7.755724430084229 7.755715370178223 L 4.298134326934814 11.21330547332764 L 4.76837158203125e-06 -4.76837158203125e-06 Z"/></g><line class="b" y2="88.444" transform="translate(-229.535 49.627)"/></g><text class="d" transform="translate(-130 164)"><tspan x="-18.062" y="0">...</tspan></text></g></svg>