<svg viewBox="0 0 292.018 339" xmlns="http://www.w3.org/2000/svg"><defs><style>.a,.n{fill:#707070;}.b,.l{fill:none;stroke:#707070;}.c,.g,.k{fill:#020000;font-size:20px;}.c{font-family:Hack-Regular, Hack;}.d{fill:#ff9d9d;}.e{font-size:10px;}.f{fill:#fb9dff;}.g{font-family:Menlo-Italic, Menlo;font-style:italic;}.h{fill:#10ebfd;}.i{fill:#9dffa8;}.j{fill:#fff09d;}.k{font-family:Hack-Bold, Hack;font-weight:700;}.l{stroke-dasharray:2;}.m,.n{stroke:none;}</style></defs><g transform="translate(-411 641)"><g class="a" transform="translate(477.5 -504) rotate(45)"><path class="m" d="M 4.48930025100708 10.31504917144775 L 0.8653011322021484 0.8604671359062195 L 10.36387062072754 4.440470218658447 L 7.402174472808838 7.402174949645996 L 4.48930025100708 10.31504917144775 Z"/><path class="n" d="M 1.730582237243652 1.720914840698242 L 4.680450439453125 9.416769027709961 L 7.048614501953125 7.048604965209961 L 9.462241172790527 4.6349778175354 L 1.730582237243652 1.720914840698242 M 4.76837158203125e-06 -4.76837158203125e-06 L 11.26548385620117 4.245954990386963 L 7.755724430084229 7.755715370178223 L 4.298134326934814 11.21330547332764 L 4.76837158203125e-06 -4.76837158203125e-06 Z"/></g><line class="b" transform="translate(477.518 -503.373)" y2="16.479"/><g class="a" transform="translate(528.5 -504) rotate(45)"><path class="m" d="M 4.48930025100708 10.31504917144775 L 0.8653011322021484 0.8604671359062195 L 10.36387062072754 4.440470218658447 L 7.402174472808838 7.402174949645996 L 4.48930025100708 10.31504917144775 Z"/><path class="n" d="M 1.730582237243652 1.720914840698242 L 4.680450439453125 9.416769027709961 L 7.048614501953125 7.048604965209961 L 9.462241172790527 4.6349778175354 L 1.730582237243652 1.720914840698242 M 4.76837158203125e-06 -4.76837158203125e-06 L 11.26548385620117 4.245954990386963 L 7.755724430084229 7.755715370178223 L 4.298134326934814 11.21330547332764 L 4.76837158203125e-06 -4.76837158203125e-06 Z"/></g><line class="b" transform="translate(528.518 -502.373)" y2="16.479"/><g class="a" transform="translate(577.5 -504) rotate(45)"><path class="m" d="M 4.48930025100708 10.31504917144775 L 0.8653011322021484 0.8604671359062195 L 10.36387062072754 4.440470218658447 L 7.402174472808838 7.402174949645996 L 4.48930025100708 10.31504917144775 Z"/><path class="n" d="M 1.730582237243652 1.720914840698242 L 4.680450439453125 9.416769027709961 L 7.048614501953125 7.048604965209961 L 9.462241172790527 4.6349778175354 L 1.730582237243652 1.720914840698242 M 4.76837158203125e-06 -4.76837158203125e-06 L 11.26548385620117 4.245954990386963 L 7.755724430084229 7.755715370178223 L 4.298134326934814 11.21330547332764 L 4.76837158203125e-06 -4.76837158203125e-06 Z"/></g><line class="b" transform="translate(577.518 -503.373)" y2="16.479"/><g class="a" transform="translate(627.5 -504) rotate(45)"><path class="m" d="M 4.48930025100708 10.31504917144775 L 0.8653011322021484 0.8604671359062195 L 10.36387062072754 4.440470218658447 L 7.402174472808838 7.402174949645996 L 4.48930025100708 10.31504917144775 Z"/><path class="n" d="M 1.730582237243652 1.720914840698242 L 4.680450439453125 9.416769027709961 L 7.048614501953125 7.048604965209961 L 9.462241172790527 4.6349778175354 L 1.730582237243652 1.720914840698242 M 4.76837158203125e-06 -4.76837158203125e-06 L 11.26548385620117 4.245954990386963 L 7.755724430084229 7.755715370178223 L 4.298134326934814 11.21330547332764 L 4.76837158203125e-06 -4.76837158203125e-06 Z"/></g><line class="b" transform="translate(627.518 -503.373)" y2="16.479"/><g class="a" transform="translate(677.5 -504) rotate(45)"><path class="m" d="M 4.48930025100708 10.31504917144775 L 0.8653011322021484 0.8604671359062195 L 10.36387062072754 4.440470218658447 L 7.402174472808838 7.402174949645996 L 4.48930025100708 10.31504917144775 Z"/><path class="n" d="M 1.730582237243652 1.720914840698242 L 4.680450439453125 9.416769027709961 L 7.048614501953125 7.048604965209961 L 9.462241172790527 4.6349778175354 L 1.730582237243652 1.720914840698242 M 4.76837158203125e-06 -4.76837158203125e-06 L 11.26548385620117 4.245954990386963 L 7.755724430084229 7.755715370178223 L 4.298134326934814 11.21330547332764 L 4.76837158203125e-06 -4.76837158203125e-06 Z"/></g><line class="b" transform="translate(677.518 -503.373)" y2="16.479"/><text class="c" transform="translate(479 -622)"><tspan x="-18.062" y="0">die</tspan></text><text class="c" transform="translate(531 -622)"><tspan x="-30.103" y="0">Katze</tspan></text><text class="c" transform="translate(577 -622)"><tspan x="-12.041" y="0">im</tspan></text><text class="c" transform="translate(626 -622)"><tspan x="-18.062" y="0">das</tspan></text><text class="c" transform="translate(677 -622)"><tspan x="-18.062" y="0">Hut</tspan></text><rect class="d" height="40" transform="translate(411 -481)" width="40"/><text class="c" transform="translate(431 -454)"><tspan x="-9.031" y="0">h</tspan><tspan class="e" y="0">0</tspan></text><rect class="f" height="40" transform="translate(458 -416)" width="40"/><text class="g" transform="translate(478 -389)"><tspan x="-6.021" y="0">d</tspan></text><g class="a" transform="translate(477.5 -439) rotate(45)"><path class="m" d="M 4.48930025100708 10.31504917144775 L 0.8653011322021484 0.8604671359062195 L 10.36387062072754 4.440470218658447 L 7.402174472808838 7.402174949645996 L 4.48930025100708 10.31504917144775 Z"/><path class="n" d="M 1.730582237243652 1.720914840698242 L 4.680450439453125 9.416769027709961 L 7.048614501953125 7.048604965209961 L 9.462241172790527 4.6349778175354 L 1.730582237243652 1.720914840698242 M 4.76837158203125e-06 -4.76837158203125e-06 L 11.26548385620117 4.245954990386963 L 7.755724430084229 7.755715370178223 L 4.298134326934814 11.21330547332764 L 4.76837158203125e-06 -4.76837158203125e-06 Z"/></g><line class="b" transform="translate(477.518 -438.373)" y2="16.479"/><rect class="d" height="40" transform="translate(458 -481)" width="40"/><text class="c" transform="translate(478 -454)"><tspan x="-9.031" y="0">h</tspan><tspan class="e" y="0">1</tspan></text><g class="a" transform="translate(464.537 -420.893) rotate(-135)"><path class="m" d="M 4.48930025100708 10.31504917144775 L 0.8653011322021484 0.8604671359062195 L 10.36387062072754 4.440470218658447 L 7.402174472808838 7.402174949645996 L 4.48930025100708 10.31504917144775 Z"/><path class="n" d="M 1.730582237243652 1.720914840698242 L 4.680450439453125 9.416769027709961 L 7.048614501953125 7.048604965209961 L 9.462241172790527 4.6349778175354 L 1.730582237243652 1.720914840698242 M 4.76837158203125e-06 -4.76837158203125e-06 L 11.26548385620117 4.245954990386963 L 7.755724430084229 7.755715370178223 L 4.298134326934814 11.21330547332764 L 4.76837158203125e-06 -4.76837158203125e-06 Z"/></g><line class="b" transform="translate(464.518 -421.521) rotate(180)" y2="13.779"/><line class="b" transform="translate(442 -435) rotate(180)" y2="5.45"/><line class="b" transform="translate(442.5 -435.5)" x2="22.5"/><rect class="f" height="40" transform="translate(508 -416)" width="40"/><text class="g" transform="translate(528 -389)"><tspan x="-6.021" y="0">d</tspan></text><g class="a" transform="translate(527.5 -439) rotate(45)"><path class="m" d="M 4.48930025100708 10.31504917144775 L 0.8653011322021484 0.8604671359062195 L 10.36387062072754 4.440470218658447 L 7.402174472808838 7.402174949645996 L 4.48930025100708 10.31504917144775 Z"/><path class="n" d="M 1.730582237243652 1.720914840698242 L 4.680450439453125 9.416769027709961 L 7.048614501953125 7.048604965209961 L 9.462241172790527 4.6349778175354 L 1.730582237243652 1.720914840698242 M 4.76837158203125e-06 -4.76837158203125e-06 L 11.26548385620117 4.245954990386963 L 7.755724430084229 7.755715370178223 L 4.298134326934814 11.21330547332764 L 4.76837158203125e-06 -4.76837158203125e-06 Z"/></g><line class="b" transform="translate(527.518 -438.373)" y2="16.479"/><rect class="d" height="40" transform="translate(508 -481)" width="40"/><text class="c" transform="translate(528 -454)"><tspan x="-9.031" y="0">h</tspan><tspan class="e" y="0">2</tspan></text><g class="a" transform="translate(514.537 -420.893) rotate(-135)"><path class="m" d="M 4.48930025100708 10.31504917144775 L 0.8653011322021484 0.8604671359062195 L 10.36387062072754 4.440470218658447 L 7.402174472808838 7.402174949645996 L 4.48930025100708 10.31504917144775 Z"/><path class="n" d="M 1.730582237243652 1.720914840698242 L 4.680450439453125 9.416769027709961 L 7.048614501953125 7.048604965209961 L 9.462241172790527 4.6349778175354 L 1.730582237243652 1.720914840698242 M 4.76837158203125e-06 -4.76837158203125e-06 L 11.26548385620117 4.245954990386963 L 7.755724430084229 7.755715370178223 L 4.298134326934814 11.21330547332764 L 4.76837158203125e-06 -4.76837158203125e-06 Z"/></g><line class="b" transform="translate(514.518 -421.521) rotate(180)" y2="13.779"/><line class="b" transform="translate(492 -435) rotate(180)" y2="5.45"/><line class="b" transform="translate(492.5 -435.5)" x2="22.5"/><rect class="f" height="40" transform="translate(558 -416)" width="40"/><text class="g" transform="translate(578 -389)"><tspan x="-6.021" y="0">d</tspan></text><g class="a" transform="translate(577.5 -439) rotate(45)"><path class="m" d="M 4.48930025100708 10.31504917144775 L 0.8653011322021484 0.8604671359062195 L 10.36387062072754 4.440470218658447 L 7.402174472808838 7.402174949645996 L 4.48930025100708 10.31504917144775 Z"/><path class="n" d="M 1.730582237243652 1.720914840698242 L 4.680450439453125 9.416769027709961 L 7.048614501953125 7.048604965209961 L 9.462241172790527 4.6349778175354 L 1.730582237243652 1.720914840698242 M 4.76837158203125e-06 -4.76837158203125e-06 L 11.26548385620117 4.245954990386963 L 7.755724430084229 7.755715370178223 L 4.298134326934814 11.21330547332764 L 4.76837158203125e-06 -4.76837158203125e-06 Z"/></g><line class="b" transform="translate(577.518 -438.373)" y2="16.479"/><rect class="d" height="40" transform="translate(558 -481)" width="40"/><text class="c" transform="translate(578 -454)"><tspan x="-9.031" y="0">h</tspan><tspan class="e" y="0">3</tspan></text><g class="a" transform="translate(564.537 -420.893) rotate(-135)"><path class="m" d="M 4.48930025100708 10.31504917144775 L 0.8653011322021484 0.8604671359062195 L 10.36387062072754 4.440470218658447 L 7.402174472808838 7.402174949645996 L 4.48930025100708 10.31504917144775 Z"/><path class="n" d="M 1.730582237243652 1.720914840698242 L 4.680450439453125 9.416769027709961 L 7.048614501953125 7.048604965209961 L 9.462241172790527 4.6349778175354 L 1.730582237243652 1.720914840698242 M 4.76837158203125e-06 -4.76837158203125e-06 L 11.26548385620117 4.245954990386963 L 7.755724430084229 7.755715370178223 L 4.298134326934814 11.21330547332764 L 4.76837158203125e-06 -4.76837158203125e-06 Z"/></g><line class="b" transform="translate(564.518 -421.521) rotate(180)" y2="13.779"/><line class="b" transform="translate(542 -435) rotate(180)" y2="5.45"/><line class="b" transform="translate(542.5 -435.5)" x2="22.5"/><rect class="f" height="40" transform="translate(608 -416)" width="40"/><text class="g" transform="translate(630 -390)"><tspan x="-6.021" y="0">d</tspan></text><g class="a" transform="translate(627.5 -439) rotate(45)"><path class="m" d="M 4.48930025100708 10.31504917144775 L 0.8653011322021484 0.8604671359062195 L 10.36387062072754 4.440470218658447 L 7.402174472808838 7.402174949645996 L 4.48930025100708 10.31504917144775 Z"/><path class="n" d="M 1.730582237243652 1.720914840698242 L 4.680450439453125 9.416769027709961 L 7.048614501953125 7.048604965209961 L 9.462241172790527 4.6349778175354 L 1.730582237243652 1.720914840698242 M 4.76837158203125e-06 -4.76837158203125e-06 L 11.26548385620117 4.245954990386963 L 7.755724430084229 7.755715370178223 L 4.298134326934814 11.21330547332764 L 4.76837158203125e-06 -4.76837158203125e-06 Z"/></g><line class="b" transform="translate(627.518 -438.373)" y2="16.479"/><rect class="d" height="40" transform="translate(608 -481)" width="40"/><text class="c" transform="translate(628 -454)"><tspan x="-9.031" y="0">h</tspan><tspan class="e" y="0">4</tspan></text><g class="a" transform="translate(614.537 -420.893) rotate(-135)"><path class="m" d="M 4.48930025100708 10.31504917144775 L 0.8653011322021484 0.8604671359062195 L 10.36387062072754 4.440470218658447 L 7.402174472808838 7.402174949645996 L 4.48930025100708 10.31504917144775 Z"/><path class="n" d="M 1.730582237243652 1.720914840698242 L 4.680450439453125 9.416769027709961 L 7.048614501953125 7.048604965209961 L 9.462241172790527 4.6349778175354 L 1.730582237243652 1.720914840698242 M 4.76837158203125e-06 -4.76837158203125e-06 L 11.26548385620117 4.245954990386963 L 7.755724430084229 7.755715370178223 L 4.298134326934814 11.21330547332764 L 4.76837158203125e-06 -4.76837158203125e-06 Z"/></g><line class="b" transform="translate(614.518 -421.521) rotate(180)" y2="13.779"/><line class="b" transform="translate(592 -435) rotate(180)" y2="5.45"/><line class="b" transform="translate(592.5 -435.5)" x2="22.5"/><rect class="f" height="40" transform="translate(658 -416)" width="40"/><text class="g" transform="translate(678 -389)"><tspan x="-6.021" y="0">d</tspan></text><g class="a" transform="translate(677.5 -439) rotate(45)"><path class="m" d="M 4.48930025100708 10.31504917144775 L 0.8653011322021484 0.8604671359062195 L 10.36387062072754 4.440470218658447 L 7.402174472808838 7.402174949645996 L 4.48930025100708 10.31504917144775 Z"/><path class="n" d="M 1.730582237243652 1.720914840698242 L 4.680450439453125 9.416769027709961 L 7.048614501953125 7.048604965209961 L 9.462241172790527 4.6349778175354 L 1.730582237243652 1.720914840698242 M 4.76837158203125e-06 -4.76837158203125e-06 L 11.26548385620117 4.245954990386963 L 7.755724430084229 7.755715370178223 L 4.298134326934814 11.21330547332764 L 4.76837158203125e-06 -4.76837158203125e-06 Z"/></g><line class="b" transform="translate(677.518 -438.373)" y2="16.479"/><g class="a" transform="translate(664.537 -420.893) rotate(-135)"><path class="m" d="M 4.48930025100708 10.31504917144775 L 0.8653011322021484 0.8604671359062195 L 10.36387062072754 4.440470218658447 L 7.402174472808838 7.402174949645996 L 4.48930025100708 10.31504917144775 Z"/><path class="n" d="M 1.730582237243652 1.720914840698242 L 4.680450439453125 9.416769027709961 L 7.048614501953125 7.048604965209961 L 9.462241172790527 4.6349778175354 L 1.730582237243652 1.720914840698242 M 4.76837158203125e-06 -4.76837158203125e-06 L 11.26548385620117 4.245954990386963 L 7.755724430084229 7.755715370178223 L 4.298134326934814 11.21330547332764 L 4.76837158203125e-06 -4.76837158203125e-06 Z"/></g><line class="b" transform="translate(664.518 -421.521) rotate(180)" y2="13.779"/><line class="b" transform="translate(642 -435) rotate(180)" y2="5.45"/><line class="b" transform="translate(642.5 -435.5)" x2="22.5"/><rect class="d" height="40" transform="translate(658 -482)" width="40"/><text class="c" transform="translate(678 -455)"><tspan x="-9.031" y="0">h</tspan><tspan class="e" y="0">5</tspan></text><rect class="h" height="40" transform="translate(458 -548)" width="40"/><text class="g" transform="translate(478 -521)"><tspan x="-6.021" y="0">g</tspan></text><g class="a" transform="translate(477.5 -568) rotate(45)"><path class="m" d="M 4.48930025100708 10.31504917144775 L 0.8653011322021484 0.8604671359062195 L 10.36387062072754 4.440470218658447 L 7.402174472808838 7.402174949645996 L 4.48930025100708 10.31504917144775 Z"/><path class="n" d="M 1.730582237243652 1.720914840698242 L 4.680450439453125 9.416769027709961 L 7.048614501953125 7.048604965209961 L 9.462241172790527 4.6349778175354 L 1.730582237243652 1.720914840698242 M 4.76837158203125e-06 -4.76837158203125e-06 L 11.26548385620117 4.245954990386963 L 7.755724430084229 7.755715370178223 L 4.298134326934814 11.21330547332764 L 4.76837158203125e-06 -4.76837158203125e-06 Z"/></g><line class="b" transform="translate(477.518 -567.373)" y2="16.479"/><rect class="i" height="40" transform="translate(458 -611)" width="40"/><text class="c" transform="translate(478 -584)"><tspan x="-9.031" y="0">Y</tspan><tspan class="e" y="0">1</tspan></text><rect class="j" height="40" transform="translate(560 -342)" width="40"/><text class="k" transform="translate(580 -315)"><tspan x="-6.021" y="0">z</tspan></text><g transform="translate(59)"><g class="a" transform="translate(420.5 -374) rotate(45)"><path class="m" d="M 4.48930025100708 10.31504917144775 L 0.8653011322021484 0.8604671359062195 L 10.36387062072754 4.440470218658447 L 7.402174472808838 7.402174949645996 L 4.48930025100708 10.31504917144775 Z"/><path class="n" d="M 1.730582237243652 1.720914840698242 L 4.680450439453125 9.416769027709961 L 7.048614501953125 7.048604965209961 L 9.462241172790527 4.6349778175354 L 1.730582237243652 1.720914840698242 M 4.76837158203125e-06 -4.76837158203125e-06 L 11.26548385620117 4.245954990386963 L 7.755724430084229 7.755715370178223 L 4.298134326934814 11.21330547332764 L 4.76837158203125e-06 -4.76837158203125e-06 Z"/></g><line class="b" transform="translate(420.518 -372.373)" y2="16"/><line class="b" transform="translate(420.518 -372.373)" y2="16"/></g><line class="b" transform="translate(479 -356.5)" x2="223.5"/><g transform="translate(108)"><g class="a" transform="translate(420.5 -374) rotate(45)"><path class="m" d="M 4.48930025100708 10.31504917144775 L 0.8653011322021484 0.8604671359062195 L 10.36387062072754 4.440470218658447 L 7.402174472808838 7.402174949645996 L 4.48930025100708 10.31504917144775 Z"/><path class="n" d="M 1.730582237243652 1.720914840698242 L 4.680450439453125 9.416769027709961 L 7.048614501953125 7.048604965209961 L 9.462241172790527 4.6349778175354 L 1.730582237243652 1.720914840698242 M 4.76837158203125e-06 -4.76837158203125e-06 L 11.26548385620117 4.245954990386963 L 7.755724430084229 7.755715370178223 L 4.298134326934814 11.21330547332764 L 4.76837158203125e-06 -4.76837158203125e-06 Z"/></g><line class="b" transform="translate(420.518 -372.373)" y2="16"/><line class="b" transform="translate(420.518 -372.373)" y2="16"/></g><g transform="translate(159)"><g class="a" transform="translate(420.5 -374) rotate(45)"><path class="m" d="M 4.48930025100708 10.31504917144775 L 0.8653011322021484 0.8604671359062195 L 10.36387062072754 4.440470218658447 L 7.402174472808838 7.402174949645996 L 4.48930025100708 10.31504917144775 Z"/><path class="n" d="M 1.730582237243652 1.720914840698242 L 4.680450439453125 9.416769027709961 L 7.048614501953125 7.048604965209961 L 9.462241172790527 4.6349778175354 L 1.730582237243652 1.720914840698242 M 4.76837158203125e-06 -4.76837158203125e-06 L 11.26548385620117 4.245954990386963 L 7.755724430084229 7.755715370178223 L 4.298134326934814 11.21330547332764 L 4.76837158203125e-06 -4.76837158203125e-06 Z"/></g><line class="b" transform="translate(420.518 -372.373)" y2="16"/><line class="b" transform="translate(420.518 -372.373)" y2="16"/></g><g transform="translate(209)"><g class="a" transform="translate(420.5 -374) rotate(45)"><path class="m" d="M 4.48930025100708 10.31504917144775 L 0.8653011322021484 0.8604671359062195 L 10.36387062072754 4.440470218658447 L 7.402174472808838 7.402174949645996 L 4.48930025100708 10.31504917144775 Z"/><path class="n" d="M 1.730582237243652 1.720914840698242 L 4.680450439453125 9.416769027709961 L 7.048614501953125 7.048604965209961 L 9.462241172790527 4.6349778175354 L 1.730582237243652 1.720914840698242 M 4.76837158203125e-06 -4.76837158203125e-06 L 11.26548385620117 4.245954990386963 L 7.755724430084229 7.755715370178223 L 4.298134326934814 11.21330547332764 L 4.76837158203125e-06 -4.76837158203125e-06 Z"/></g><line class="b" transform="translate(420.518 -372.373)" y2="16"/><line class="b" transform="translate(420.518 -372.373)" y2="16"/></g><g transform="translate(259)"><g class="a" transform="translate(420.5 -374) rotate(45)"><path class="m" d="M 4.48930025100708 10.31504917144775 L 0.8653011322021484 0.8604671359062195 L 10.36387062072754 4.440470218658447 L 7.402174472808838 7.402174949645996 L 4.48930025100708 10.31504917144775 Z"/><path class="n" d="M 1.730582237243652 1.720914840698242 L 4.680450439453125 9.416769027709961 L 7.048614501953125 7.048604965209961 L 9.462241172790527 4.6349778175354 L 1.730582237243652 1.720914840698242 M 4.76837158203125e-06 -4.76837158203125e-06 L 11.26548385620117 4.245954990386963 L 7.755724430084229 7.755715370178223 L 4.298134326934814 11.21330547332764 L 4.76837158203125e-06 -4.76837158203125e-06 Z"/></g><line class="b" transform="translate(420.518 -372.373)" y2="16"/><line class="b" transform="translate(420.518 -372.373)" y2="16"/></g><line class="b" transform="translate(579.518 -360.373)" y2="16.479"/><g class="a" transform="translate(492.5 -504) rotate(45)"><path class="m" d="M 4.48930025100708 10.31504917144775 L 0.8653011322021484 0.8604671359062195 L 10.36387062072754 4.440470218658447 L 7.402174472808838 7.402174949645996 L 4.48930025100708 10.31504917144775 Z"/><path class="n" d="M 1.730582237243652 1.720914840698242 L 4.680450439453125 9.416769027709961 L 7.048614501953125 7.048604965209961 L 9.462241172790527 4.6349778175354 L 1.730582237243652 1.720914840698242 M 4.76837158203125e-06 -4.76837158203125e-06 L 11.26548385620117 4.245954990386963 L 7.755724430084229 7.755715370178223 L 4.298134326934814 11.21330547332764 L 4.76837158203125e-06 -4.76837158203125e-06 Z"/></g><line class="b" transform="translate(492.518 -502.373)" y2="16"/><line class="b" transform="translate(492.518 -502.373)" y2="16"/><line class="b" transform="translate(492 -486.5)" x2="10.5"/><line class="l" transform="translate(502.518 -487)" y2="130.5"/><rect class="h" height="40" transform="translate(458 -548)" width="40"/><text class="g" transform="translate(478 -521)"><tspan x="-6.021" y="0">g</tspan></text><g class="a" transform="translate(477.5 -568) rotate(45)"><path class="m" d="M 4.48930025100708 10.31504917144775 L 0.8653011322021484 0.8604671359062195 L 10.36387062072754 4.440470218658447 L 7.402174472808838 7.402174949645996 L 4.48930025100708 10.31504917144775 Z"/><path class="n" d="M 1.730582237243652 1.720914840698242 L 4.680450439453125 9.416769027709961 L 7.048614501953125 7.048604965209961 L 9.462241172790527 4.6349778175354 L 1.730582237243652 1.720914840698242 M 4.76837158203125e-06 -4.76837158203125e-06 L 11.26548385620117 4.245954990386963 L 7.755724430084229 7.755715370178223 L 4.298134326934814 11.21330547332764 L 4.76837158203125e-06 -4.76837158203125e-06 Z"/></g><line class="b" transform="translate(477.518 -567.373)" y2="16.479"/><rect class="i" height="40" transform="translate(458 -611)" width="40"/><text class="c" transform="translate(478 -584)"><tspan x="-9.031" y="0">Y</tspan><tspan class="e" y="0">1</tspan></text><g class="a" transform="translate(492.5 -504) rotate(45)"><path class="m" d="M 4.48930025100708 10.31504917144775 L 0.8653011322021484 0.8604671359062195 L 10.36387062072754 4.440470218658447 L 7.402174472808838 7.402174949645996 L 4.48930025100708 10.31504917144775 Z"/><path class="n" d="M 1.730582237243652 1.720914840698242 L 4.680450439453125 9.416769027709961 L 7.048614501953125 7.048604965209961 L 9.462241172790527 4.6349778175354 L 1.730582237243652 1.720914840698242 M 4.76837158203125e-06 -4.76837158203125e-06 L 11.26548385620117 4.245954990386963 L 7.755724430084229 7.755715370178223 L 4.298134326934814 11.21330547332764 L 4.76837158203125e-06 -4.76837158203125e-06 Z"/></g><line class="b" transform="translate(492.518 -502.373)" y2="16"/><line class="l" transform="translate(502.518 -487)" y2="130.5"/><line class="b" transform="translate(542 -486.5)" x2="10.5"/><rect class="h" height="40" transform="translate(508 -548)" width="40"/><text class="g" transform="translate(528 -521)"><tspan x="-6.021" y="0">g</tspan></text><g class="a" transform="translate(527.5 -568) rotate(45)"><path class="m" d="M 4.48930025100708 10.31504917144775 L 0.8653011322021484 0.8604671359062195 L 10.36387062072754 4.440470218658447 L 7.402174472808838 7.402174949645996 L 4.48930025100708 10.31504917144775 Z"/><path class="n" d="M 1.730582237243652 1.720914840698242 L 4.680450439453125 9.416769027709961 L 7.048614501953125 7.048604965209961 L 9.462241172790527 4.6349778175354 L 1.730582237243652 1.720914840698242 M 4.76837158203125e-06 -4.76837158203125e-06 L 11.26548385620117 4.245954990386963 L 7.755724430084229 7.755715370178223 L 4.298134326934814 11.21330547332764 L 4.76837158203125e-06 -4.76837158203125e-06 Z"/></g><line class="b" transform="translate(527.518 -567.373)" y2="16.479"/><rect class="i" height="40" transform="translate(508 -611)" width="40"/><text class="c" transform="translate(528 -584)"><tspan x="-9.031" y="0">Y</tspan><tspan class="e" y="0">1</tspan></text><g class="a" transform="translate(542.5 -504) rotate(45)"><path class="m" d="M 4.48930025100708 10.31504917144775 L 0.8653011322021484 0.8604671359062195 L 10.36387062072754 4.440470218658447 L 7.402174472808838 7.402174949645996 L 4.48930025100708 10.31504917144775 Z"/><path class="n" d="M 1.730582237243652 1.720914840698242 L 4.680450439453125 9.416769027709961 L 7.048614501953125 7.048604965209961 L 9.462241172790527 4.6349778175354 L 1.730582237243652 1.720914840698242 M 4.76837158203125e-06 -4.76837158203125e-06 L 11.26548385620117 4.245954990386963 L 7.755724430084229 7.755715370178223 L 4.298134326934814 11.21330547332764 L 4.76837158203125e-06 -4.76837158203125e-06 Z"/></g><line class="b" transform="translate(542.518 -502.373)" y2="16"/><line class="l" transform="translate(552.518 -487)" y2="130.5"/><line class="b" transform="translate(592 -486.5)" x2="10.5"/><rect class="h" height="40" transform="translate(558 -548)" width="40"/><text class="g" transform="translate(578 -521)"><tspan x="-6.021" y="0">g</tspan></text><g class="a" transform="translate(577.5 -568) rotate(45)"><path class="m" d="M 4.48930025100708 10.31504917144775 L 0.8653011322021484 0.8604671359062195 L 10.36387062072754 4.440470218658447 L 7.402174472808838 7.402174949645996 L 4.48930025100708 10.31504917144775 Z"/><path class="n" d="M 1.730582237243652 1.720914840698242 L 4.680450439453125 9.416769027709961 L 7.048614501953125 7.048604965209961 L 9.462241172790527 4.6349778175354 L 1.730582237243652 1.720914840698242 M 4.76837158203125e-06 -4.76837158203125e-06 L 11.26548385620117 4.245954990386963 L 7.755724430084229 7.755715370178223 L 4.298134326934814 11.21330547332764 L 4.76837158203125e-06 -4.76837158203125e-06 Z"/></g><line class="b" transform="translate(577.518 -567.373)" y2="16.479"/><rect class="i" height="40" transform="translate(558 -611)" width="40"/><text class="c" transform="translate(578 -584)"><tspan x="-9.031" y="0">Y</tspan><tspan class="e" y="0">1</tspan></text><g class="a" transform="translate(592.5 -504) rotate(45)"><path class="m" d="M 4.48930025100708 10.31504917144775 L 0.8653011322021484 0.8604671359062195 L 10.36387062072754 4.440470218658447 L 7.402174472808838 7.402174949645996 L 4.48930025100708 10.31504917144775 Z"/><path class="n" d="M 1.730582237243652 1.720914840698242 L 4.680450439453125 9.416769027709961 L 7.048614501953125 7.048604965209961 L 9.462241172790527 4.6349778175354 L 1.730582237243652 1.720914840698242 M 4.76837158203125e-06 -4.76837158203125e-06 L 11.26548385620117 4.245954990386963 L 7.755724430084229 7.755715370178223 L 4.298134326934814 11.21330547332764 L 4.76837158203125e-06 -4.76837158203125e-06 Z"/></g><line class="b" transform="translate(592.518 -502.373)" y2="16"/><line class="l" transform="translate(602.518 -487)" y2="130.5"/><line class="b" transform="translate(642 -486.5)" x2="10.5"/><rect class="h" height="40" transform="translate(608 -548)" width="40"/><text class="g" transform="translate(628 -521)"><tspan x="-6.021" y="0">g</tspan></text><g class="a" transform="translate(627.5 -568) rotate(45)"><path class="m" d="M 4.48930025100708 10.31504917144775 L 0.8653011322021484 0.8604671359062195 L 10.36387062072754 4.440470218658447 L 7.402174472808838 7.402174949645996 L 4.48930025100708 10.31504917144775 Z"/><path class="n" d="M 1.730582237243652 1.720914840698242 L 4.680450439453125 9.416769027709961 L 7.048614501953125 7.048604965209961 L 9.462241172790527 4.6349778175354 L 1.730582237243652 1.720914840698242 M 4.76837158203125e-06 -4.76837158203125e-06 L 11.26548385620117 4.245954990386963 L 7.755724430084229 7.755715370178223 L 4.298134326934814 11.21330547332764 L 4.76837158203125e-06 -4.76837158203125e-06 Z"/></g><line class="b" transform="translate(627.518 -567.373)" y2="16.479"/><rect class="i" height="40" transform="translate(608 -611)" width="40"/><text class="c" transform="translate(628 -584)"><tspan x="-9.031" y="0">Y</tspan><tspan class="e" y="0">1</tspan></text><g class="a" transform="translate(642.5 -504) rotate(45)"><path class="m" d="M 4.48930025100708 10.31504917144775 L 0.8653011322021484 0.8604671359062195 L 10.36387062072754 4.440470218658447 L 7.402174472808838 7.402174949645996 L 4.48930025100708 10.31504917144775 Z"/><path class="n" d="M 1.730582237243652 1.720914840698242 L 4.680450439453125 9.416769027709961 L 7.048614501953125 7.048604965209961 L 9.462241172790527 4.6349778175354 L 1.730582237243652 1.720914840698242 M 4.76837158203125e-06 -4.76837158203125e-06 L 11.26548385620117 4.245954990386963 L 7.755724430084229 7.755715370178223 L 4.298134326934814 11.21330547332764 L 4.76837158203125e-06 -4.76837158203125e-06 Z"/></g><line class="b" transform="translate(642.518 -502.373)" y2="16"/><line class="l" transform="translate(652.518 -487)" y2="130.5"/><line class="b" transform="translate(692 -486.5)" x2="10.5"/><rect class="h" height="40" transform="translate(658 -548)" width="40"/><text class="g" transform="translate(678 -521)"><tspan x="-6.021" y="0">g</tspan></text><g class="a" transform="translate(677.5 -568) rotate(45)"><path class="m" d="M 4.48930025100708 10.31504917144775 L 0.8653011322021484 0.8604671359062195 L 10.36387062072754 4.440470218658447 L 7.402174472808838 7.402174949645996 L 4.48930025100708 10.31504917144775 Z"/><path class="n" d="M 1.730582237243652 1.720914840698242 L 4.680450439453125 9.416769027709961 L 7.048614501953125 7.048604965209961 L 9.462241172790527 4.6349778175354 L 1.730582237243652 1.720914840698242 M 4.76837158203125e-06 -4.76837158203125e-06 L 11.26548385620117 4.245954990386963 L 7.755724430084229 7.755715370178223 L 4.298134326934814 11.21330547332764 L 4.76837158203125e-06 -4.76837158203125e-06 Z"/></g><line class="b" transform="translate(677.518 -567.373)" y2="16.479"/><rect class="i" height="40" transform="translate(658 -611)" width="40"/><text class="c" transform="translate(678 -584)"><tspan x="-9.031" y="0">Y</tspan><tspan class="e" y="0">1</tspan></text><g class="a" transform="translate(692.5 -504) rotate(45)"><path class="m" d="M 4.48930025100708 10.31504917144775 L 0.8653011322021484 0.8604671359062195 L 10.36387062072754 4.440470218658447 L 7.402174472808838 7.402174949645996 L 4.48930025100708 10.31504917144775 Z"/><path class="n" d="M 1.730582237243652 1.720914840698242 L 4.680450439453125 9.416769027709961 L 7.048614501953125 7.048604965209961 L 9.462241172790527 4.6349778175354 L 1.730582237243652 1.720914840698242 M 4.76837158203125e-06 -4.76837158203125e-06 L 11.26548385620117 4.245954990386963 L 7.755724430084229 7.755715370178223 L 4.298134326934814 11.21330547332764 L 4.76837158203125e-06 -4.76837158203125e-06 Z"/></g><line class="b" transform="translate(692.518 -502.373)" y2="16"/><line class="l" transform="translate(702.518 -487)" y2="130.5"/></g></svg>