<svg viewBox="0 0 265 519" xmlns="http://www.w3.org/2000/svg"><defs><style>.a{fill:#fb9dff;}.b,.g,.j,.k{fill:#020000;}.b,.g{font-size:20px;}.b{font-family:Hack-Regular, Hack;}.c{fill:#ff9d9d;}.d{font-size:14px;}.e{fill:#10ebfd;}.f{fill:#9db4ff;}.g{font-family:Menlo-Regular, Menlo;}.h,.n{fill:#707070;}.i{fill:none;stroke:#707070;}.j,.k{font-size:15px;font-style:italic;}.j{font-family:Menlo-Italic, Menlo;}.k{font-family:Hack-Italic, Hack;}.l{fill:#9dffa8;}.m,.n{stroke:none;}</style></defs><g transform="translate(387 767)"><rect class="a" height="52" transform="translate(-244 -767)" width="122"/><text class="b" transform="translate(-183 -733)"><tspan x="-36.123" y="0">MatMul</tspan></text><rect class="a" height="52" transform="translate(-331 -399)" width="122"/><text class="b" transform="translate(-270 -365)"><tspan x="-36.123" y="0">MatMul</tspan></text><rect class="c" height="52" transform="translate(-331 -583)" width="122"/><text class="b" transform="translate(-270 -549)"><tspan x="-53.583" y="0">Mask</tspan><tspan class="d" xml:space="preserve" y="0"> (opt.)</tspan></text><rect class="e" height="52" transform="translate(-331 -675)" width="122"/><text class="b" transform="translate(-270 -641)"><tspan x="-42.144" y="0">SoftMax</tspan></text><rect class="f" height="40" transform="translate(-331 -307)" width="40"/><text class="g" transform="translate(-311 -280)"><tspan x="-6.021" y="0">Q</tspan></text><rect class="f" height="40" transform="translate(-249 -307)" width="40"/><text class="g" transform="translate(-229 -280)"><tspan x="-6.021" y="0">K</tspan></text><rect class="f" height="40" transform="translate(-168 -307)" width="40"/><text class="g" transform="translate(-148 -280)"><tspan x="-6.021" y="0">V</tspan></text><g class="h" transform="translate(-312.5 -342.107) rotate(45)"><path class="m" d="M 4.48930025100708 10.31504917144775 L 0.8653011322021484 0.8604671359062195 L 10.36387062072754 4.440470218658447 L 7.402174472808838 7.402174949645996 L 4.48930025100708 10.31504917144775 Z"/><path class="n" d="M 1.730582237243652 1.720914840698242 L 4.680450439453125 9.416769027709961 L 7.048614501953125 7.048604965209961 L 9.462241172790527 4.6349778175354 L 1.730582237243652 1.720914840698242 M 4.76837158203125e-06 -4.76837158203125e-06 L 11.26548385620117 4.245954990386963 L 7.755724430084229 7.755715370178223 L 4.298134326934814 11.21330547332764 L 4.76837158203125e-06 -4.76837158203125e-06 Z"/></g><g transform="translate(-312.5 -341.479)"><line class="i" y2="30"/></g><g class="h" transform="translate(-148.5 -710.107) rotate(45)"><path class="m" d="M 4.539204120635986 10.36787128448486 L 0.8700531721115112 0.8652133941650391 L 10.41672897338867 4.490346431732178 L 7.453537940979004 7.453537940979004 L 4.539204120635986 10.36787128448486 Z"/><path class="n" d="M 1.740111351013184 1.730436325073242 L 4.728905200958252 9.471050262451172 L 7.099977493286133 7.099977970123291 L 9.516582489013672 4.683373928070068 L 1.740111351013184 1.730436325073242 M -1.9073486328125e-06 -1.9073486328125e-06 L 11.31685733795166 4.297317981719971 L 7.807087898254395 7.807087898254395 L 4.34949779510498 11.26467800140381 L -1.9073486328125e-06 -1.9073486328125e-06 Z"/></g><g transform="translate(-148.482 -709.475)"><line class="i" y2="397.996"/></g><text class="j" transform="translate(-311 -252)"><tspan x="-22.577" y="0">q . d</tspan></text><text class="j" transform="translate(-229 -252)"><tspan x="-22.577" y="0">n . d</tspan></text><text class="j" transform="translate(-147 -252)"><tspan x="-22.577" y="0">n . v</tspan></text><text class="j" transform="translate(-364 -368)"><tspan x="-22.577" y="0">q . n</tspan></text><text class="j" transform="translate(-364 -460)"><tspan x="-22.577" y="0">q . n</tspan></text><text class="j" transform="translate(-364 -552)"><tspan x="-22.577" y="0">q . n</tspan></text><text class="j" transform="translate(-362 -644)"><tspan x="-22.577" y="0">q . n</tspan></text><text class="k" transform="translate(-275 -736)"><tspan x="-22.577" y="0">q . v</tspan></text><rect class="l" height="52" transform="translate(-331 -491)" width="122"/><text class="g" transform="translate(-270 -457)"><tspan x="-30.103" y="0">Scale</tspan></text><text class="b" transform="translate(-270 -457)"><tspan x="-30.103" y="0">Scale</tspan></text><g class="h" transform="translate(-227.5 -342.107) rotate(45)"><path class="m" d="M 4.48930025100708 10.31504917144775 L 0.8653011322021484 0.8604671359062195 L 10.36387062072754 4.440470218658447 L 7.402174472808838 7.402174949645996 L 4.48930025100708 10.31504917144775 Z"/><path class="n" d="M 1.730582237243652 1.720914840698242 L 4.680450439453125 9.416769027709961 L 7.048614501953125 7.048604965209961 L 9.462241172790527 4.6349778175354 L 1.730582237243652 1.720914840698242 M 4.76837158203125e-06 -4.76837158203125e-06 L 11.26548385620117 4.245954990386963 L 7.755724430084229 7.755715370178223 L 4.298134326934814 11.21330547332764 L 4.76837158203125e-06 -4.76837158203125e-06 Z"/></g><g transform="translate(-227.5 -341.479)"><line class="i" y2="30"/></g><g class="h" transform="translate(-275.5 -434.107) rotate(45)"><path class="m" d="M 4.48930025100708 10.31504917144775 L 0.8653011322021484 0.8604671359062195 L 10.36387062072754 4.440470218658447 L 7.402174472808838 7.402174949645996 L 4.48930025100708 10.31504917144775 Z"/><path class="n" d="M 1.730582237243652 1.720914840698242 L 4.680450439453125 9.416769027709961 L 7.048614501953125 7.048604965209961 L 9.462241172790527 4.6349778175354 L 1.730582237243652 1.720914840698242 M 4.76837158203125e-06 -4.76837158203125e-06 L 11.26548385620117 4.245954990386963 L 7.755724430084229 7.755715370178223 L 4.298134326934814 11.21330547332764 L 4.76837158203125e-06 -4.76837158203125e-06 Z"/></g><g transform="translate(-275.5 -433.479)"><line class="i" y2="30"/></g><g class="h" transform="translate(-275.5 -526.107) rotate(45)"><path class="m" d="M 4.48930025100708 10.31504917144775 L 0.8653011322021484 0.8604671359062195 L 10.36387062072754 4.440470218658447 L 7.402174472808838 7.402174949645996 L 4.48930025100708 10.31504917144775 Z"/><path class="n" d="M 1.730582237243652 1.720914840698242 L 4.680450439453125 9.416769027709961 L 7.048614501953125 7.048604965209961 L 9.462241172790527 4.6349778175354 L 1.730582237243652 1.720914840698242 M 4.76837158203125e-06 -4.76837158203125e-06 L 11.26548385620117 4.245954990386963 L 7.755724430084229 7.755715370178223 L 4.298134326934814 11.21330547332764 L 4.76837158203125e-06 -4.76837158203125e-06 Z"/></g><g transform="translate(-275.5 -525.479)"><line class="i" y2="30"/></g><g class="h" transform="translate(-275.5 -618.107) rotate(45)"><path class="m" d="M 4.48930025100708 10.31504917144775 L 0.8653011322021484 0.8604671359062195 L 10.36387062072754 4.440470218658447 L 7.402174472808838 7.402174949645996 L 4.48930025100708 10.31504917144775 Z"/><path class="n" d="M 1.730582237243652 1.720914840698242 L 4.680450439453125 9.416769027709961 L 7.048614501953125 7.048604965209961 L 9.462241172790527 4.6349778175354 L 1.730582237243652 1.720914840698242 M 4.76837158203125e-06 -4.76837158203125e-06 L 11.26548385620117 4.245954990386963 L 7.755724430084229 7.755715370178223 L 4.298134326934814 11.21330547332764 L 4.76837158203125e-06 -4.76837158203125e-06 Z"/></g><g transform="translate(-275.5 -617.479)"><line class="i" y2="30"/></g><g class="h" transform="translate(-219.5 -710.107) rotate(45)"><path class="m" d="M 4.48930025100708 10.31504917144775 L 0.8653011322021484 0.8604671359062195 L 10.36387062072754 4.440470218658447 L 7.402174472808838 7.402174949645996 L 4.48930025100708 10.31504917144775 Z"/><path class="n" d="M 1.730582237243652 1.720914840698242 L 4.680450439453125 9.416769027709961 L 7.048614501953125 7.048604965209961 L 9.462241172790527 4.6349778175354 L 1.730582237243652 1.720914840698242 M 4.76837158203125e-06 -4.76837158203125e-06 L 11.26548385620117 4.245954990386963 L 7.755724430084229 7.755715370178223 L 4.298134326934814 11.21330547332764 L 4.76837158203125e-06 -4.76837158203125e-06 Z"/></g><g transform="translate(-219.5 -709.479)"><line class="i" y2="30"/></g></g></svg>