<svg viewBox="0 0 720 320" xmlns="http://www.w3.org/2000/svg">
  <defs>
    <style>
      .cls-1, .cls-12 {
        fill: #fd9910;
      }

      .cls-1, .cls-2, .cls-4, .cls-5, .cls-6, .cls-7, .cls-8, .cls-9 {
        opacity: 0.237;
      }

      .cls-13, .cls-15, .cls-16, .cls-17, .cls-2, .cls-24, .cls-5 {
        fill: #020000;
      }

      .cls-13, .cls-15, .cls-2, .cls-22, .cls-5 {
        font-size: 20px;
      }

      .cls-13, .cls-2, .cls-22, .cls-24 {
        font-family: Hack-Regular, Hack;
      }

      .cls-3 {
        font-size: 10px;
      }

      .cls-4 {
        fill: rgba(255,47,47,0.5);
      }

      .cls-15, .cls-5 {
        font-family: Menlo-Regular, Menlo;
      }

      .cls-18, .cls-6 {
        fill: #95abf4;
      }

      .cls-21, .cls-7 {
        fill: #e83ead;
      }

      .cls-11, .cls-29, .cls-8 {
        fill: none;
      }

      .cls-11, .cls-25, .cls-8 {
        stroke: #707070;
      }

      .cls-10, .cls-22, .cls-28 {
        fill: #707070;
      }

      .cls-14 {
        fill: #ff2f2f;
      }

      .cls-16, .cls-17, .cls-24 {
        font-size: 15px;
      }

      .cls-16 {
        font-family: Hack-Italic, Hack;
      }

      .cls-16, .cls-17 {
        font-style: italic;
      }

      .cls-17 {
        font-family: Menlo-Italic, Menlo;
      }

      .cls-19 {
        fill: #10ebfd;
      }

      .cls-20 {
        fill: rgba(255,47,47,0.98);
      }

      .cls-23 {
        fill: #10fdbd;
      }

      .cls-24 {
        opacity: 0.511;
      }

      .cls-25, .cls-26 {
        fill: #fff;
      }

      .cls-26 {
        stroke: #fff;
      }

      .cls-27, .cls-28 {
        stroke: none;
      }
    </style>
  </defs>
  <g data-name="Group 47" id="Group_47" transform="translate(-36 -44)">
    <rect class="cls-1" data-name="Rectangle 21" height="40" id="Rectangle_21" transform="translate(265 110)" width="40"/>
    <text class="cls-2" id="Wq1" transform="translate(285 137)"><tspan x="-12.041" y="0">W</tspan><tspan class="cls-3" y="0">q1</tspan></text>
    <rect class="cls-4" data-name="Rectangle 22" height="40" id="Rectangle_22" transform="translate(265 178)" width="40"/>
    <text class="cls-5" id="Wk1" transform="translate(285 206)"><tspan x="-12.041" y="0">W</tspan><tspan class="cls-3" y="0">k1</tspan></text>
    <rect class="cls-6" data-name="Rectangle 23" height="40" id="Rectangle_23" transform="translate(265 249)" width="40"/>
    <text class="cls-2" id="Wv1" transform="translate(285 276)"><tspan x="-12.041" y="0">W</tspan><tspan class="cls-3" y="0">v1</tspan></text>
    <rect class="cls-1" data-name="Rectangle 24" height="40" id="Rectangle_24" transform="translate(335 110)" width="40"/>
    <text class="cls-2" id="Q1" transform="translate(355 137)"><tspan x="-9.031" y="0">Q</tspan><tspan class="cls-3" y="0">1</tspan></text>
    <rect class="cls-4" data-name="Rectangle 25" height="40" id="Rectangle_25" transform="translate(335 178)" width="40"/>
    <text class="cls-5" id="K1" transform="translate(355 205)"><tspan x="-9.031" y="0">K</tspan><tspan class="cls-3" y="0">1</tspan></text>
    <rect class="cls-6" data-name="Rectangle 26" height="40" id="Rectangle_26" transform="translate(335 249)" width="40"/>
    <text class="cls-2" id="V1" transform="translate(355 275)"><tspan x="-9.031" y="0">V</tspan><tspan class="cls-3" y="0">1</tspan></text>
    <path class="cls-7" d="M0,0H53V40H0Z" data-name="Path 5" id="Path_5" transform="translate(417 178)"/>
    <text class="cls-2" id="SDA" transform="translate(443 205)"><tspan x="-18.062" y="0">SDA</tspan></text>
    <line class="cls-8" data-name="Line 27" id="Line_27" transform="translate(379.5 127.5)" x2="15"/>
    <line class="cls-8" data-name="Line 28" id="Line_28" transform="translate(394.5 127.5)" y2="143"/>
    <g class="cls-9" data-name="Group 42" id="Group_42" transform="translate(170.893 -117.607) rotate(90)">
      <g class="cls-10" data-name="Path 3" id="Path_3" transform="translate(317.167 -239.107) rotate(45)">
        <path class="cls-27" d="M 4.79009485244751 10.35495471954346 L 0.9132568836212158 0.9083845615386963 L 10.40186786651611 4.743190288543701 L 7.572525501251221 7.572524547576904 L 4.79009485244751 10.35495471954346 Z"/>
        <path class="cls-28" d="M 1.826522827148438 1.816766738891602 L 4.967541694641113 9.470388412475586 L 7.218965530395508 7.218964099884033 L 9.514205932617188 4.923730373382568 L 1.826522827148438 1.816766738891602 M -4.76837158203125e-06 4.76837158203125e-06 L 11.28951549530029 4.562644481658936 L 7.926075458526611 7.926074028015137 L 4.612645149230957 11.23950386047363 L -4.76837158203125e-06 4.76837158203125e-06 Z"/>
      </g>
      <g data-name="Group 9" id="Group_9" transform="translate(317.185 -238.466)">
        <line class="cls-11" data-name="Line 7" id="Line_7" y2="15"/>
      </g>
    </g>
    <line class="cls-8" data-name="Line 29" id="Line_29" transform="translate(379.5 199.5)" x2="15"/>
    <line class="cls-8" data-name="Line 30" id="Line_30" transform="translate(379.5 270.5)" x2="15"/>
    <line class="cls-8" data-name="Line 31" id="Line_31" transform="translate(475.5 200.5)" x2="15"/>
    <line class="cls-8" data-name="Line 32" id="Line_32" transform="translate(490.5 157.5)" y2="43"/>
    <g class="cls-9" data-name="Group 43" id="Group_43" transform="translate(94.125 -187.607) rotate(90)">
      <g class="cls-10" data-name="Path 3" id="Path_3-2" transform="translate(317.167 -239.107) rotate(45)">
        <path class="cls-27" d="M 4.624250411987305 10.18009090423584 L 0.89665687084198 0.8917896747589111 L 10.22691440582275 4.577427387237549 L 7.402166843414307 7.40216588973999 L 4.624250411987305 10.18009090423584 Z"/>
        <path class="cls-28" d="M 1.793312072753906 1.783587455749512 L 4.806203842163086 9.291015625 L 7.048606872558594 7.048605918884277 L 9.334651947021484 4.762567520141602 L 1.793312072753906 1.783587455749512 M -2.86102294921875e-06 -3.814697265625e-06 L 11.11915683746338 4.392285823822021 L 7.755717277526855 7.755715847015381 L 4.442286968231201 11.0691556930542 L -2.86102294921875e-06 -3.814697265625e-06 Z"/>
      </g>
      <g data-name="Group 9" id="Group_9-2" transform="translate(317.185 -238.479)">
        <line class="cls-11" data-name="Line 7" id="Line_7-2" transform="translate(0)" y2="26"/>
      </g>
    </g>
    <g class="cls-9" data-name="Group 44" id="Group_44" transform="translate(94.125 -117.607) rotate(90)">
      <g class="cls-10" data-name="Path 3" id="Path_3-3" transform="translate(317.167 -239.107) rotate(45)">
        <path class="cls-27" d="M 4.624250411987305 10.18009090423584 L 0.89665687084198 0.8917896747589111 L 10.22691440582275 4.577427387237549 L 7.402166843414307 7.40216588973999 L 4.624250411987305 10.18009090423584 Z"/>
        <path class="cls-28" d="M 1.793312072753906 1.783587455749512 L 4.806203842163086 9.291015625 L 7.048606872558594 7.048605918884277 L 9.334651947021484 4.762567520141602 L 1.793312072753906 1.783587455749512 M -2.86102294921875e-06 -3.814697265625e-06 L 11.11915683746338 4.392285823822021 L 7.755717277526855 7.755715847015381 L 4.442286968231201 11.0691556930542 L -2.86102294921875e-06 -3.814697265625e-06 Z"/>
      </g>
      <g data-name="Group 9" id="Group_9-3" transform="translate(317.185 -238.479)">
        <line class="cls-11" data-name="Line 7" id="Line_7-3" transform="translate(0)" y2="26"/>
      </g>
    </g>
    <g class="cls-9" data-name="Group 45" id="Group_45" transform="translate(94.125 -46.607) rotate(90)">
      <g class="cls-10" data-name="Path 3" id="Path_3-4" transform="translate(317.167 -239.107) rotate(45)">
        <path class="cls-27" d="M 4.624250411987305 10.18009090423584 L 0.89665687084198 0.8917896747589111 L 10.22691440582275 4.577427387237549 L 7.402166843414307 7.40216588973999 L 4.624250411987305 10.18009090423584 Z"/>
        <path class="cls-28" d="M 1.793312072753906 1.783587455749512 L 4.806203842163086 9.291015625 L 7.048606872558594 7.048605918884277 L 9.334651947021484 4.762567520141602 L 1.793312072753906 1.783587455749512 M -2.86102294921875e-06 -3.814697265625e-06 L 11.11915683746338 4.392285823822021 L 7.755717277526855 7.755715847015381 L 4.442286968231201 11.0691556930542 L -2.86102294921875e-06 -3.814697265625e-06 Z"/>
      </g>
      <g data-name="Group 9" id="Group_9-4" transform="translate(317.185 -238.479)">
        <line class="cls-11" data-name="Line 7" id="Line_7-4" transform="translate(0)" y2="26"/>
      </g>
    </g>
    <g class="cls-9" data-name="Group 46" id="Group_46" transform="translate(863.103 -55.215) rotate(180)">
      <g class="cls-10" data-name="Path 3" id="Path_3-5" transform="translate(317.167 -239.107) rotate(45)">
        <path class="cls-27" d="M 4.624250411987305 10.18009090423584 L 0.89665687084198 0.8917896747589111 L 10.22691440582275 4.577427387237549 L 7.402166843414307 7.40216588973999 L 4.624250411987305 10.18009090423584 Z"/>
        <path class="cls-28" d="M 1.793312072753906 1.783587455749512 L 4.806203842163086 9.291015625 L 7.048606872558594 7.048605918884277 L 9.334651947021484 4.762567520141602 L 1.793312072753906 1.783587455749512 M -2.86102294921875e-06 -3.814697265625e-06 L 11.11915683746338 4.392285823822021 L 7.755717277526855 7.755715847015381 L 4.442286968231201 11.0691556930542 L -2.86102294921875e-06 -3.814697265625e-06 Z"/>
      </g>
      <g data-name="Group 9" id="Group_9-5" transform="translate(317.185 -238.479)">
        <line class="cls-11" data-name="Line 7" id="Line_7-5" transform="translate(0)" y2="26"/>
      </g>
    </g>
    <rect class="cls-12" data-name="Rectangle 1" height="40" id="Rectangle_1" transform="translate(165 136)" width="40"/>
    <text class="cls-13" id="Q" transform="translate(184 163)"><tspan x="-6.021" y="0">Q</tspan></text>
    <rect class="cls-14" data-name="Rectangle 2" height="40" id="Rectangle_2" transform="translate(165 204)" width="40"/>
    <text class="cls-15" id="K" transform="translate(184 231)"><tspan x="-6.021" y="0">K</tspan></text>
    <text class="cls-16" id="q.d" transform="translate(185 191)"><tspan x="-13.546" y="0">q.d</tspan></text>
    <text class="cls-17" id="n.d" transform="translate(184 259)"><tspan x="-13.546" y="0">n.d</tspan></text>
    <rect class="cls-18" data-name="Rectangle 5" height="40" id="Rectangle_5" transform="translate(165 275)" width="40"/>
    <text class="cls-13" id="V" transform="translate(184 302)"><tspan x="-6.021" y="0">V</tspan></text>
    <text class="cls-17" id="n.v" transform="translate(184 330)"><tspan x="-13.546" y="0">n.v</tspan></text>
    <rect class="cls-19" data-name="Rectangle 11" height="40" id="Rectangle_11" transform="translate(40 204)" width="40"/>
    <text class="cls-13" id="U" transform="translate(60 231)"><tspan x="-6.021" y="0">U</tspan></text>
    <text class="cls-16" data-name="n.d" id="n.d-2" transform="translate(60 259)"><tspan x="-13.546" y="0">n.d</tspan></text>
    <text class="cls-17" data-name="n = q, d = v" id="n_q_d_v" transform="translate(91 360)"><tspan x="-54.185" y="0">n = q, d = v</tspan></text>
    <rect class="cls-12" data-name="Rectangle 12" height="40" id="Rectangle_12" transform="translate(233 136)" width="40"/>
    <text class="cls-13" id="Wqh" transform="translate(253 163)"><tspan x="-12.041" y="0">W</tspan><tspan class="cls-3" y="0">qh</tspan></text>
    <rect class="cls-20" data-name="Rectangle 13" height="40" id="Rectangle_13" transform="translate(233 204)" width="40"/>
    <text class="cls-15" id="Wkh" transform="translate(253 232)"><tspan x="-12.041" y="0">W</tspan><tspan class="cls-3" y="0">kh</tspan></text>
    <rect class="cls-18" data-name="Rectangle 14" height="40" id="Rectangle_14" transform="translate(233 275)" width="40"/>
    <text class="cls-13" id="Wvh" transform="translate(253 302)"><tspan x="-12.041" y="0">W</tspan><tspan class="cls-3" y="0">vh</tspan></text>
    <rect class="cls-12" data-name="Rectangle 15" height="40" id="Rectangle_15" transform="translate(303 136)" width="40"/>
    <text class="cls-13" id="Qh" transform="translate(323 163)"><tspan x="-9.031" y="0">Q</tspan><tspan class="cls-3" y="0">h</tspan></text>
    <rect class="cls-14" data-name="Rectangle 16" height="40" id="Rectangle_16" transform="translate(303 204)" width="40"/>
    <text class="cls-15" id="Kh" transform="translate(323 231)"><tspan x="-9.031" y="0">K</tspan><tspan class="cls-3" y="0">h</tspan></text>
    <rect class="cls-18" data-name="Rectangle 17" height="40" id="Rectangle_17" transform="translate(303 275)" width="40"/>
    <text class="cls-13" id="Vh" transform="translate(323 301)"><tspan x="-9.031" y="0">V</tspan><tspan class="cls-3" y="0">h</tspan></text>
    <text class="cls-13" id="x" transform="translate(218 163)"><tspan x="-6.021" y="0">x</tspan></text>
    <text class="cls-13" data-name="x" id="x-2" transform="translate(218 232)"><tspan x="-6.021" y="0">x</tspan></text>
    <text class="cls-13" data-name="x" id="x-3" transform="translate(218 301)"><tspan x="-6.021" y="0">x</tspan></text>
    <path class="cls-21" d="M0,0H53V40H0Z" data-name="Path 4" id="Path_4" transform="translate(385 204)"/>
    <text class="cls-13" data-name="SDA" id="SDA-2" transform="translate(411 231)"><tspan x="-18.062" y="0">SDA</tspan></text>
    <text class="cls-22" data-name="Self-Attention w/ Multi-Headed Attention" id="Self-Attention_w_Multi-Headed_Attention" transform="translate(207 63)"><tspan x="0" y="0">Self-Attention w/ Multi-Headed Attention</tspan></text>
    <line class="cls-11" data-name="Line 14" id="Line_14" transform="translate(86.5 225.5)" x2="42"/>
    <g data-name="Group 28" id="Group_28" transform="translate(-79.875 -162.607) rotate(90)">
      <g class="cls-10" data-name="Path 3" id="Path_3-6" transform="translate(317.167 -239.107) rotate(45)">
        <path class="cls-27" d="M 4.624250411987305 10.18009090423584 L 0.89665687084198 0.8917896747589111 L 10.22691440582275 4.577427387237549 L 7.402166843414307 7.40216588973999 L 4.624250411987305 10.18009090423584 Z"/>
        <path class="cls-28" d="M 1.793312072753906 1.783587455749512 L 4.806203842163086 9.291015625 L 7.048606872558594 7.048605918884277 L 9.334651947021484 4.762567520141602 L 1.793312072753906 1.783587455749512 M -2.86102294921875e-06 -3.814697265625e-06 L 11.11915683746338 4.392285823822021 L 7.755717277526855 7.755715847015381 L 4.442286968231201 11.0691556930542 L -2.86102294921875e-06 -3.814697265625e-06 Z"/>
      </g>
      <g data-name="Group 9" id="Group_9-6" transform="translate(317.185 -238.479)">
        <line class="cls-11" data-name="Line 7" id="Line_7-6" y2="30"/>
      </g>
    </g>
    <line class="cls-11" data-name="Line 15" id="Line_15" transform="translate(128.5 154.5)" y2="142"/>
    <g data-name="Group 29" id="Group_29" transform="translate(-79.875 -20.607) rotate(90)">
      <g class="cls-10" data-name="Path 3" id="Path_3-7" transform="translate(317.167 -239.107) rotate(45)">
        <path class="cls-27" d="M 4.624250411987305 10.18009090423584 L 0.89665687084198 0.8917896747589111 L 10.22691440582275 4.577427387237549 L 7.402166843414307 7.40216588973999 L 4.624250411987305 10.18009090423584 Z"/>
        <path class="cls-28" d="M 1.793312072753906 1.783587455749512 L 4.806203842163086 9.291015625 L 7.048606872558594 7.048605918884277 L 9.334651947021484 4.762567520141602 L 1.793312072753906 1.783587455749512 M -2.86102294921875e-06 -3.814697265625e-06 L 11.11915683746338 4.392285823822021 L 7.755717277526855 7.755715847015381 L 4.442286968231201 11.0691556930542 L -2.86102294921875e-06 -3.814697265625e-06 Z"/>
      </g>
      <g data-name="Group 9" id="Group_9-7" transform="translate(317.185 -238.479)">
        <line class="cls-11" data-name="Line 7" id="Line_7-7" transform="translate(0)" y2="30"/>
      </g>
    </g>
    <g data-name="Group 30" id="Group_30" transform="translate(-79.875 -91.607) rotate(90)">
      <g class="cls-10" data-name="Path 3" id="Path_3-8" transform="translate(317.167 -239.107) rotate(45)">
        <path class="cls-27" d="M 4.624250411987305 10.18009090423584 L 0.89665687084198 0.8917896747589111 L 10.22691440582275 4.577427387237549 L 7.402166843414307 7.40216588973999 L 4.624250411987305 10.18009090423584 Z"/>
        <path class="cls-28" d="M 1.793312072753906 1.783587455749512 L 4.806203842163086 9.291015625 L 7.048606872558594 7.048605918884277 L 9.334651947021484 4.762567520141602 L 1.793312072753906 1.783587455749512 M -2.86102294921875e-06 -3.814697265625e-06 L 11.11915683746338 4.392285823822021 L 7.755717277526855 7.755715847015381 L 4.442286968231201 11.0691556930542 L -2.86102294921875e-06 -3.814697265625e-06 Z"/>
      </g>
      <g data-name="Group 9" id="Group_9-8" transform="translate(317.185 -238.479)">
        <line class="cls-11" data-name="Line 7" id="Line_7-8" y2="30"/>
      </g>
    </g>
    <line class="cls-11" data-name="Line 19" id="Line_19" transform="translate(347.5 153.5)" x2="15"/>
    <line class="cls-11" data-name="Line 20" id="Line_20" transform="translate(362.5 153.5)" y2="143"/>
    <g data-name="Group 31" id="Group_31" transform="translate(138.893 -91.607) rotate(90)">
      <g class="cls-10" data-name="Path 3" id="Path_3-9" transform="translate(317.167 -239.107) rotate(45)">
        <path class="cls-27" d="M 4.79009485244751 10.35495471954346 L 0.9132568836212158 0.9083845615386963 L 10.40186786651611 4.743190288543701 L 7.572525501251221 7.572524547576904 L 4.79009485244751 10.35495471954346 Z"/>
        <path class="cls-28" d="M 1.826522827148438 1.816766738891602 L 4.967541694641113 9.470388412475586 L 7.218965530395508 7.218964099884033 L 9.514205932617188 4.923730373382568 L 1.826522827148438 1.816766738891602 M -4.76837158203125e-06 4.76837158203125e-06 L 11.28951549530029 4.562644481658936 L 7.926075458526611 7.926074028015137 L 4.612645149230957 11.23950386047363 L -4.76837158203125e-06 4.76837158203125e-06 Z"/>
      </g>
      <g data-name="Group 9" id="Group_9-9" transform="translate(317.185 -238.466)">
        <line class="cls-11" data-name="Line 7" id="Line_7-9" y2="15"/>
      </g>
    </g>
    <line class="cls-11" data-name="Line 21" id="Line_21" transform="translate(347.5 225.5)" x2="15"/>
    <line class="cls-11" data-name="Line 22" id="Line_22" transform="translate(347.5 296.5)" x2="15"/>
    <g data-name="Group 32" id="Group_32" transform="translate(-79.875 -162.607) rotate(90)">
      <g class="cls-10" data-name="Path 3" id="Path_3-10" transform="translate(317.167 -239.107) rotate(45)">
        <path class="cls-27" d="M 4.624250411987305 10.18009090423584 L 0.89665687084198 0.8917896747589111 L 10.22691440582275 4.577427387237549 L 7.402166843414307 7.40216588973999 L 4.624250411987305 10.18009090423584 Z"/>
        <path class="cls-28" d="M 1.793312072753906 1.783587455749512 L 4.806203842163086 9.291015625 L 7.048606872558594 7.048605918884277 L 9.334651947021484 4.762567520141602 L 1.793312072753906 1.783587455749512 M -2.86102294921875e-06 -3.814697265625e-06 L 11.11915683746338 4.392285823822021 L 7.755717277526855 7.755715847015381 L 4.442286968231201 11.0691556930542 L -2.86102294921875e-06 -3.814697265625e-06 Z"/>
      </g>
    </g>
    <line class="cls-11" data-name="Line 25" id="Line_25" transform="translate(443.5 226.5)" x2="47"/>
    <line class="cls-11" data-name="Line 26" id="Line_26" transform="translate(490.5 226.5)" y2="42"/>
    <g data-name="Group 37" id="Group_37" transform="translate(62.125 -161.607) rotate(90)">
      <g class="cls-10" data-name="Path 3" id="Path_3-11" transform="translate(317.167 -239.107) rotate(45)">
        <path class="cls-27" d="M 4.624250411987305 10.18009090423584 L 0.89665687084198 0.8917896747589111 L 10.22691440582275 4.577427387237549 L 7.402166843414307 7.40216588973999 L 4.624250411987305 10.18009090423584 Z"/>
        <path class="cls-28" d="M 1.793312072753906 1.783587455749512 L 4.806203842163086 9.291015625 L 7.048606872558594 7.048605918884277 L 9.334651947021484 4.762567520141602 L 1.793312072753906 1.783587455749512 M -2.86102294921875e-06 -3.814697265625e-06 L 11.11915683746338 4.392285823822021 L 7.755717277526855 7.755715847015381 L 4.442286968231201 11.0691556930542 L -2.86102294921875e-06 -3.814697265625e-06 Z"/>
      </g>
      <g data-name="Group 9" id="Group_9-10" transform="translate(317.185 -238.479)">
        <line class="cls-11" data-name="Line 7" id="Line_7-10" transform="translate(0)" y2="26"/>
      </g>
    </g>
    <g data-name="Group 38" id="Group_38" transform="translate(62.125 -91.607) rotate(90)">
      <g class="cls-10" data-name="Path 3" id="Path_3-12" transform="translate(317.167 -239.107) rotate(45)">
        <path class="cls-27" d="M 4.624250411987305 10.18009090423584 L 0.89665687084198 0.8917896747589111 L 10.22691440582275 4.577427387237549 L 7.402166843414307 7.40216588973999 L 4.624250411987305 10.18009090423584 Z"/>
        <path class="cls-28" d="M 1.793312072753906 1.783587455749512 L 4.806203842163086 9.291015625 L 7.048606872558594 7.048605918884277 L 9.334651947021484 4.762567520141602 L 1.793312072753906 1.783587455749512 M -2.86102294921875e-06 -3.814697265625e-06 L 11.11915683746338 4.392285823822021 L 7.755717277526855 7.755715847015381 L 4.442286968231201 11.0691556930542 L -2.86102294921875e-06 -3.814697265625e-06 Z"/>
      </g>
      <g data-name="Group 9" id="Group_9-11" transform="translate(317.185 -238.479)">
        <line class="cls-11" data-name="Line 7" id="Line_7-11" transform="translate(0)" y2="26"/>
      </g>
    </g>
    <g data-name="Group 39" id="Group_39" transform="translate(62.125 -20.607) rotate(90)">
      <g class="cls-10" data-name="Path 3" id="Path_3-13" transform="translate(317.167 -239.107) rotate(45)">
        <path class="cls-27" d="M 4.624250411987305 10.18009090423584 L 0.89665687084198 0.8917896747589111 L 10.22691440582275 4.577427387237549 L 7.402166843414307 7.40216588973999 L 4.624250411987305 10.18009090423584 Z"/>
        <path class="cls-28" d="M 1.793312072753906 1.783587455749512 L 4.806203842163086 9.291015625 L 7.048606872558594 7.048605918884277 L 9.334651947021484 4.762567520141602 L 1.793312072753906 1.783587455749512 M -2.86102294921875e-06 -3.814697265625e-06 L 11.11915683746338 4.392285823822021 L 7.755717277526855 7.755715847015381 L 4.442286968231201 11.0691556930542 L -2.86102294921875e-06 -3.814697265625e-06 Z"/>
      </g>
      <g data-name="Group 9" id="Group_9-12" transform="translate(317.185 -238.479)">
        <line class="cls-11" data-name="Line 7" id="Line_7-12" transform="translate(0)" y2="26"/>
      </g>
    </g>
    <g data-name="Group 41" id="Group_41" transform="translate(323.733 481.371)">
      <g class="cls-10" data-name="Path 3" id="Path_3-14" transform="translate(317.167 -239.107) rotate(45)">
        <path class="cls-27" d="M 4.624250411987305 10.18009090423584 L 0.89665687084198 0.8917896747589111 L 10.22691440582275 4.577427387237549 L 7.402166843414307 7.40216588973999 L 4.624250411987305 10.18009090423584 Z"/>
        <path class="cls-28" d="M 1.793312072753906 1.783587455749512 L 4.806203842163086 9.291015625 L 7.048606872558594 7.048605918884277 L 9.334651947021484 4.762567520141602 L 1.793312072753906 1.783587455749512 M -2.86102294921875e-06 -3.814697265625e-06 L 11.11915683746338 4.392285823822021 L 7.755717277526855 7.755715847015381 L 4.442286968231201 11.0691556930542 L -2.86102294921875e-06 -3.814697265625e-06 Z"/>
      </g>
      <g data-name="Group 9" id="Group_9-13" transform="translate(317.185 -238.479)">
        <line class="cls-11" data-name="Line 7" id="Line_7-13" transform="translate(0)" y2="26"/>
      </g>
    </g>
    <rect class="cls-23" data-name="Rectangle 20" height="40" id="Rectangle_20" transform="translate(708 194)" width="40"/>
    <text class="cls-13" id="Wo" transform="translate(728 223)"><tspan x="-9.031" y="0">W</tspan><tspan class="cls-3" y="0">o</tspan></text>
    <text class="cls-13" data-name="x" id="x-4" transform="translate(689 219)"><tspan x="-6.021" y="0">x</tspan></text>
    <text class="cls-17" data-name="q.(h*w)" id="q._h_w_" transform="translate(594 298)"><tspan x="-31.608" y="0">q.(h*w)</tspan></text>
    <text class="cls-17" data-name="(h*w).v" id="_h_w_.v" transform="translate(724 252)"><tspan x="-31.608" y="0">(h*w).v</tspan></text>
    <text class="cls-17" id="v.w" transform="translate(253 330)"><tspan x="-13.546" y="0">v.w</tspan></text>
    <text class="cls-17" id="d.w" transform="translate(253 259)"><tspan x="-13.546" y="0">d.w</tspan></text>
    <text class="cls-17" data-name="d.w" id="d.w-2" transform="translate(252 191)"><tspan x="-13.546" y="0">d.w</tspan></text>
    <text class="cls-17" id="n.w" transform="translate(323 258)"><tspan x="-13.546" y="0">n.w</tspan></text>
    <text class="cls-17" data-name="n.w" id="n.w-2" transform="translate(324 329)"><tspan x="-13.546" y="0">n.w</tspan></text>
    <text class="cls-17" id="q.w" transform="translate(324 189)"><tspan x="-13.546" y="0">q.w</tspan></text>
    <text class="cls-24" data-name="..." id="_..." transform="matrix(0.469, -0.883, 0.883, 0.469, 475.181, 213.286)"><tspan x="-13.546" y="0">...</tspan></text>
    <g class="cls-25" data-name="Rectangle 32" id="Rectangle_32" transform="translate(517 187.992)">
      <rect class="cls-27" height="51.199" width="154.712"/>
      <rect class="cls-29" height="50.199" width="153.712" x="0.5" y="0.5"/>
    </g>
    <g class="cls-26" data-name="Rectangle 33" id="Rectangle_33" transform="translate(523.601 185.629)">
      <rect class="cls-27" height="55.451" width="140.41"/>
      <rect class="cls-29" height="54.451" width="139.41" x="0.5" y="0.5"/>
    </g>
    <rect class="cls-19" data-name="Rectangle 34" height="40" id="Rectangle_34" transform="translate(522 194)" width="49"/>
    <text class="cls-13" id="U1" transform="translate(548 222)"><tspan x="-9.031" y="0">U</tspan><tspan class="cls-3" y="0">1</tspan></text>
    <rect class="cls-19" data-name="Rectangle 35" height="40" id="Rectangle_35" transform="translate(617 194)" width="49"/>
    <text class="cls-13" id="Uh" transform="translate(642 221)"><tspan x="-9.031" y="0">U</tspan><tspan class="cls-3" y="0">h</tspan></text>
    <text class="cls-13" data-name="..." id="_...-2" transform="translate(594 213)"><tspan x="-18.062" y="0">...</tspan></text>
    <line class="cls-8" data-name="Line 33" id="Line_33" transform="translate(490.5 157.5)" x2="55"/>
    <line class="cls-11" data-name="Line 34" id="Line_34" transform="translate(490.5 268.5)" x2="150"/>
    <text class="cls-17" data-name="q.w" id="q.w-2" transform="translate(548 250)"><tspan x="-13.546" y="0">q.w</tspan></text>
  </g>
</svg>